<?xml version="1.0" encoding="UTF-8"?><svg id="Layer_2" xmlns="http://www.w3.org/2000/svg" viewBox="0 0 1414 550"><defs><style>.cls-1{stroke-width:0px;}.cls-2{fill:none;stroke:#000;stroke-linecap:round;stroke-linejoin:round;stroke-width:10px;}</style></defs><g id="Layer_1-2"><rect class="cls-2" x="1066.42" y="32.77" width="26.39" height="196.45" rx="3.43" ry="3.43"/><path class="cls-2" d="M1064.99,165.31h-15.91c-.46,0-.84-.32-.84-.7v-65.45c0-.39.38-.7.84-.7h15.91c.46,0,.84.32.84.7v65.45c0,.39-.38.7-.84.7Z"/><polygon class="cls-2" points="1048.24 120.15 1024.79 106.08 1024.79 120.15 1048 135.02 1048.24 120.15"/><path class="cls-2" d="M891.19,168.17c8.21-9.38,39.88-53.95,48.09-62.16s46.91-38.7,60.99-41.05c14.07-2.35,38.7-7.04,38.7,4.69s-31.67,11.73-37.53,16.42-23.46,19.94-28.15,28.15-11.73,22.28-1.17,25.8c10.56,3.52,10.56-36.36,26.98-31.67,16.42,4.69-12.9,79.75-56.3,76.23l-22.28,22.28"/><rect class="cls-2" x="869" y="5" width="252" height="252" rx="12" ry="12"/><rect class="cls-2" x="581" y="5" width="252" height="252" rx="12" ry="12"/><circle class="cls-2" cx="649" cy="203.75" r="13.5"/><circle class="cls-2" cx="762" cy="203.75" r="13.5"/><line class="cls-2" x1="664.5" y1="208.75" x2="748.5" y2="208.75"/><path class="cls-2" d="M776.5,205.75l21-6s0-21-1-23-19-5-25-8c-6-3-26-12-26-12,0,0-39-2-49,1s-17,12-31,16c-14,4-42,7-42,7l-7,9v16l18,3"/><line class="cls-2" x1="716.5" y1="157.75" x2="715.5" y2="207.75"/><polyline class="cls-2" points="666.5 175.75 741.5 175.75 768.96 167.59"/><ellipse class="cls-2" cx="666" cy="102.25" rx="9.5" ry="12.5"/><path class="cls-2" d="M645.5,126s-2-14,11-16"/><path class="cls-2" d="M687.41,126s2-14-11-16"/><ellipse class="cls-2" cx="687" cy="73.25" rx="9.5" ry="12.5"/><path class="cls-2" d="M666.5,89s-2-6,11-8"/><path class="cls-2" d="M708.41,89s2-6-11-8"/><ellipse class="cls-2" cx="729" cy="73.25" rx="9.5" ry="12.5"/><path class="cls-2" d="M708.5,89s-2-6,11-8"/><path class="cls-2" d="M750.41,89s2-6-11-8"/><ellipse class="cls-2" cx="707" cy="102.25" rx="9.5" ry="12.5"/><path class="cls-2" d="M686.5,126s-2-14,11-16"/><path class="cls-2" d="M728.41,126s2-14-11-16"/><ellipse class="cls-2" cx="748" cy="102.25" rx="9.5" ry="12.5"/><path class="cls-2" d="M727.5,126s-2-14,11-16"/><path class="cls-2" d="M769.41,126s2-14-11-16"/><path class="cls-2" d="M663.5,153.75l-9-13.62h-17c-5,0-9-4.19-9-12.58V53.13c0-5.24,4-8.38,9-8.38h137c8,0,12,4.19,12,9.43v77.56c0,7.34-5,8.38-11,8.38h-103l-9,13.62Z"/><rect class="cls-2" x="293" y="5" width="252" height="252" rx="12" ry="12"/><path class="cls-1" d="M463.6,107.15l-32.98-7.88,12.82-7.25-20.33-34.57c3.73-7.07,8.9-13.49,11.75-13.06v-.03c3.94.54,6.16,1.98,9.06,6.63,1.16,1.87,17.59,30.57,17.59,30.57l12.13-7.02-10.04,32.64v-.02ZM479.11,67.64c-1.59-1.27-3.53-1.92-5.48-1.92-1.51,0-3.04.39-4.41,1.19l-4.47,2.6c-5.1-8.91-12.52-21.81-13.38-23.18-2.19-3.52-5.13-7.37-10.27-9.41-3.65-1.45-7.4-1.59-12.14-1.74-1.72-.06-3.67-.12-5.89-.26-1.71-.11-3.25-.21-4.76-.32-3.34-.23-6.22-.44-8.79-.44-4.65,0-10.09.57-15.21,4.85-3.76,3.14-6.72,7.7-10.56,14.53-9.57,17.02-17.68,31.52-17.76,31.67-2.28,4.08-.97,9.24,2.99,11.73l15.51,9.77c1.42.89,3.05,1.36,4.68,1.36.71,0,1.43-.09,2.14-.26,2.33-.59,4.32-2.1,5.51-4.18l21.25-37.35,13.21,22.49-5.03,2.84c-3.14,1.78-4.89,5.3-4.38,8.88.5,3.58,3.14,6.49,6.66,7.32l32.98,7.88c.68.17,1.37.24,2.05.24,3.78,0,7.25-2.45,8.4-6.21l10.04-32.64c1.06-3.46-.11-7.22-2.93-9.47h.02ZM389.2,99.26l-15.51-9.77s8.06-14.44,17.75-31.64c6.95-12.35,9.74-14.89,18.11-14.89,3.1,0,6.95.35,12.04.68-1.34,1.65-2.55,3.4-3.61,5.09h0l-.09.15c-1.03,1.65-1.9,3.23-2.63,4.62l-26.05,45.77v-.02Z"/><path class="cls-1" d="M452.23,227.24c1.89-.74,3.43-2.1,4.39-3.79.76-1.31,1.18-2.82,1.18-4.41v-5.16c10.25.03,25.13.06,26.76,0,4.14-.14,8.96-.76,13.29-4.18,3.08-2.45,5.07-5.62,7.58-9.64.91-1.46,1.95-3.11,3.17-4.97.94-1.42,1.81-2.72,2.64-3.96,1.87-2.78,3.49-5.18,4.77-7.4,2.33-4.02,4.55-9.02,3.4-15.6-.83-4.82-3.31-9.67-7.29-16.4-9.95-16.81-18.45-31.07-18.55-31.22-2.4-4.02-7.52-5.45-11.66-3.28l-16.22,8.55c-1.48.79-2.69,1.96-3.52,3.38-.36.62-.63,1.28-.85,1.98-.66,2.31-.35,4.79.86,6.86l21.72,37.08-26.08.21.06-5.78c.03-3.61-2.14-6.89-5.5-8.25s-7.19-.51-9.68,2.1l-23.32,24.62c-.48.51-.89,1.07-1.24,1.66-1.89,3.28-1.5,7.51,1.18,10.38l23.24,25.01c2.46,2.66,6.3,3.52,9.67,2.19l-.02.03ZM469.79,133.56l16.22-8.55s8.46,14.2,18.53,31.19c7.23,12.2,8.03,15.89,3.85,23.12-1.54,2.67-3.78,5.84-6.6,10.09-.76-1.98-1.66-3.9-2.6-5.66h0l-.09-.17c-.91-1.71-1.84-3.26-2.69-4.59l-26.61-45.44-.02.02ZM425.75,194.05l23.32-24.62-.14,14.72,40.1-.32c4.26,6.77,7.23,14.45,5.44,16.7h.02c-2.45,3.16-4.8,4.35-10.27,4.55-2.2.08-35.26-.05-35.26-.05l.03,14.01-23.24-25.01h.02Z"/><path class="cls-1" d="M326.06,124.58c-.3,2.01.11,4.02,1.09,5.69.76,1.31,1.86,2.43,3.23,3.23l4.49,2.58c-5.16,8.88-12.63,21.75-13.38,23.18-1.95,3.65-3.82,8.12-3.02,13.59.57,3.9,2.34,7.2,4.56,11.39.82,1.53,1.72,3.25,2.72,5.24.77,1.53,1.45,2.93,2.1,4.27,1.46,3.01,2.73,5.6,4.02,7.82,2.33,4.02,5.54,8.44,11.81,10.75,4.59,1.69,10.03,1.96,17.85,1.87,19.53-.23,36.14-.45,36.31-.45,4.68-.06,8.49-3.78,8.67-8.46l.71-18.32c.06-1.68-.35-3.31-1.18-4.74-.36-.62-.79-1.19-1.3-1.72-1.68-1.72-3.97-2.69-6.37-2.67l-42.97.27,12.87-22.7,4.98,2.93c3.11,1.84,7.04,1.59,9.89-.65,2.85-2.22,4.05-5.97,3.02-9.44l-9.67-32.51c-.2-.68-.48-1.31-.82-1.9-1.89-3.28-5.74-5.04-9.57-4.17l-33.27,7.63c-3.53.8-6.21,3.7-6.74,7.28h-.03ZM398.4,186.63l-.71,18.32s-16.54.23-36.28.45c-14.18.17-17.78-1-21.94-8.23-1.54-2.67-3.17-6.19-5.44-10.77,2.1.33,4.21.51,6.21.59h.18c1.93.06,3.75.03,5.32-.03,0,0,52.66-.33,52.66-.33ZM368.03,118.25l9.67,32.51-12.69-7.49-19.78,34.89c-7.99.3-16.13-.97-17.19-3.64h-.03c-1.5-3.67-1.36-6.31,1.21-11.15,1.03-1.95,17.67-30.52,17.67-30.52l-12.14-6.98,33.27-7.63h.02Z"/><rect class="cls-2" x="5" y="5" width="252" height="252" rx="12" ry="12"/><line class="cls-2" x1="128.73" y1="51.21" x2="114.73" y2="54.21"/><path class="cls-2" d="M52.54,177.42h19.13c4.83,0,8.79-3.96,8.79-8.79V61.21c0-4.83-3.96-8.79-8.79-8.79h-18.83"/><path class="cls-2" d="M83.02,139.42h10.7c2.61,0,4.74-4.39,4.74-6.09v-31.81c0-1.7-2.13-6.09-4.74-6.09h-10.53"/><path class="cls-2" d="M99.46,131.42h57c7,0,9,6,9,9v13"/><path class="cls-2" d="M98.46,104.42h80.26c9.91,0,12.74,13.36,12.74,20.05v28.95"/><rect class="cls-2" x="119.46" y="72.42" width="44" height="19" rx="6.75" ry="6.75"/><rect class="cls-2" x="155.46" y="153.42" width="44" height="24" rx="6.75" ry="6.75"/><line class="cls-2" x1="131.46" y1="103.42" x2="131.46" y2="92.42"/><line class="cls-2" x1="152.46" y1="102.42" x2="152.46" y2="91.42"/><line class="cls-2" x1="135.98" y1="66.42" x2="135.98" y2="58.49"/><line class="cls-2" x1="147.46" y1="65.7" x2="147.46" y2="57.77"/><circle class="cls-2" cx="141.46" cy="47.08" r="12"/><circle class="cls-2" cx="178.46" cy="47.08" r="12"/><circle class="cls-2" cx="104.46" cy="47.08" r="12"/><line class="cls-2" x1="130.32" y1="41.05" x2="113.46" y2="38.42"/><line class="cls-2" x1="152.53" y1="51.59" x2="169.88" y2="55.6"/><line class="cls-2" x1="153.22" y1="42.18" x2="168.07" y2="38.55"/><path class="cls-2" d="M179.46,193.42s-13,15-13,24,2,13.5,13.5,13.5,13.5-5.5,13.5-13.5-14-24-14-24Z"/><rect class="cls-2" x="1157" y="5" width="252" height="252" rx="12" ry="12"/><line class="cls-2" x1="1315.96" y1="226.59" x2="1364.01" y2="226.59"/><line class="cls-2" x1="1339.99" y1="225.63" x2="1339.99" y2="163.17"/><path class="cls-2" d="M1220.84,226.59h63.31c1.88,0,3.67-.85,4.85-2.32l91.89-111.5c3.29-4.08.38-10.14-4.85-10.14h-59.26c-1.81,0-3.54.79-4.72,2.17l-95.94,111.5c-3.48,4.04-.61,10.3,4.72,10.3Z"/><circle class="cls-2" cx="1239.57" cy="82.93" r="34.11"/><line class="cls-2" x1="1338.54" y1="103.38" x2="1234.68" y2="225.75"/><line class="cls-2" x1="1362.54" y1="104.38" x2="1258.68" y2="226.75"/><line class="cls-2" x1="1230.05" y1="204.28" x2="1304.81" y2="204.28"/><line class="cls-2" x1="1248.05" y1="182.28" x2="1322.81" y2="182.28"/><line class="cls-2" x1="1265.05" y1="161.28" x2="1339.81" y2="161.28"/><line class="cls-2" x1="1283.05" y1="139.28" x2="1357.81" y2="139.28"/><line class="cls-2" x1="1300.05" y1="118.28" x2="1374.81" y2="118.28"/><rect class="cls-2" x="1157" y="293" width="252" height="252" rx="12" ry="12"/><path class="cls-2" d="M1185.8,337.3v178.76h194.4v-179.88s-29.05-29.05-63.68-1.12c-33.52-30.17-64.8,1.12-64.8,1.12,0,0-33.52-31.28-65.92,1.12Z"/><ellipse class="cls-2" cx="1322.1" cy="451.26" rx="22.34" ry="37.99"/><path class="cls-2" d="M1304.23,374.17c5.59-7.82-13.41-27.93-42.46-16.76-29.05,11.17-24.58,37.99-21.23,50.28s2.23,32.4-7.82,29.05c-12.81-4.27-4.47-24.58-6.7-26.81s-24.58,7.82-14.52,30.17c10.06,22.34,46.92,25.7,54.74-3.35,7.82-29.05-11.68-43.13-1.12-58.1,13.41-18.99,36.43-.72,39.1-4.47Z"/><line class="cls-2" x1="1303.11" y1="426.68" x2="1291.94" y2="421.09"/><line class="cls-2" x1="1299.89" y1="450.37" x2="1286.35" y2="450.14"/><line class="cls-2" x1="1303.11" y1="471.37" x2="1291.94" y2="476.95"/><line class="cls-2" x1="1341.51" y1="426.69" x2="1352.68" y2="421.1"/><line class="cls-2" x1="1344.72" y1="450.38" x2="1358.26" y2="450.15"/><line class="cls-2" x1="1341.51" y1="471.38" x2="1352.68" y2="476.96"/><rect class="cls-2" x="869" y="293" width="252" height="252" rx="12" ry="12"/><path class="cls-2" d="M973.29,432.83c0,4.99,3.96,9.08,8.79,9.08h22.75c4.83,0,8.79-4.09,8.79-9.08v-8.5h.07s70.25,0,70.25,0c4.55,0,8.27-3.72,8.27-8.27h0c0-4.55-3.72-8.27-8.27-8.27h-177.86c-4.55,0-8.27,3.72-8.27,8.27h0c0,4.55,3.72,8.27,8.27,8.27h67.21s0,8.5,0,8.5Z"/><path class="cls-2" d="M903.91,424.64s12.51,55.52,15.61,66.9c3.1,11.37,10.34,20.68,27.92,20.68h89.96c14.48,0,27.92-2.07,32.06-18.61s15.51-69.28,15.51-69.28"/><line class="cls-2" x1="928.79" y1="452.24" x2="936.03" y2="483.27"/><path class="cls-2" d="M977.96,345.43c0,3.92,3.1,7.12,6.9,7.12h17.85c3.79,0,6.9-3.2,6.9-7.12v-6.67h.05s55.11,0,55.11,0c3.57,0,6.49-2.92,6.49-6.49h0c0-3.57-2.92-6.49-6.49-6.49h-139.53c-3.57,0-6.49,2.92-6.49,6.49h0c0,3.57,2.92,6.49,6.49,6.49h52.73s0,6.67,0,6.67Z"/><path class="cls-2" d="M923.54,339.01s9.81,43.56,12.25,52.48,8.11,16.22,21.9,16.22h70.58c11.36,0,21.9-1.62,25.15-14.6,3.24-12.98,12.17-54.35,12.17-54.35"/><line class="cls-2" x1="943.27" y1="360.66" x2="948.95" y2="385"/><rect class="cls-2" x="581" y="293" width="252" height="252" rx="12" ry="12"/><polygon class="cls-2" points="627.67 319.47 736.67 319.47 792.17 374.97 792.17 513.47 627.67 513.47 627.67 319.47"/><rect class="cls-2" x="660.67" y="365.47" width="54" height="31"/><polyline class="cls-2" points="736.67 319.47 736.67 376.47 790.67 376.47"/><line class="cls-2" x1="733.48" y1="419.47" x2="758.17" y2="419.47"/><line class="cls-2" x1="658.17" y1="419.47" x2="713.58" y2="419.47"/><line class="cls-2" x1="697.57" y1="440.47" x2="758.17" y2="440.47"/><line class="cls-2" x1="658.17" y1="440.47" x2="679.42" y2="440.47"/><line class="cls-2" x1="658.17" y1="461.47" x2="758.17" y2="461.47"/><line class="cls-2" x1="658.17" y1="482.47" x2="758.17" y2="482.47"/><rect class="cls-2" x="293" y="293" width="252" height="252" rx="12" ry="12"/><rect class="cls-2" x="321.8" y="360.8" width="194.4" height="154.82"/><polygon class="cls-2" points="419.58 322.38 321.8 360.8 516.2 360.8 419.58 322.38"/><path class="cls-2" d="M362.3,457.32c11.68,6.33,34.14,6.47,44.38,0,0,0-1.14,32.36-6.83,39.91-1.84,2.44-31.17,1.16-31.87,0-4.55-7.55-5.69-39.91-5.69-39.91Z"/><path class="cls-2" d="M386.3,460.2l-1.24-72.3s-2.28-19.35-36.42-5.69c15.93,9.1,21.62,25.04,35.28,10.24"/><path class="cls-2" d="M383.93,418.63c1.92-.16-15.57-1.74-15.93-2.28-2.28-3.41-22.76-14.79-21.62,20.48,6.83-4.55,26.18-3.41,22.76-15.93"/><path class="cls-2" d="M386.3,412.97s10.14-8,13.56-12.55,18.21-12.52,31.87,17.07c-12.52-4.55-27.31,6.83-33-13.66"/><path class="cls-2" d="M406.69,456.18s-5.69-7.97-21.62-7.97-21.62,6.64-21.62,6.64"/><polygon class="cls-2" points="455.3 476.96 459.86 498.62 483.8 498.62 488.36 476.96 455.3 476.96"/><line class="cls-2" x1="471.26" y1="474.68" x2="471.26" y2="447.32"/><ellipse class="cls-2" cx="457.44" cy="445.04" rx="9.12" ry="7.98" transform="translate(-174.72 357.36) rotate(-36.32)"/><ellipse class="cls-2" cx="459.98" cy="426.73" rx="7.98" ry="9.12" transform="translate(-167.02 450.24) rotate(-45)"/><ellipse class="cls-2" cx="482.92" cy="445.11" rx="7.98" ry="9.12" transform="translate(-159.44 581.88) rotate(-54.69)"/><ellipse class="cls-2" cx="481.29" cy="427.87" rx="9.12" ry="7.98" transform="translate(-161.58 465.65) rotate(-45)"/><rect class="cls-2" x="5" y="293" width="252" height="252" rx="12" ry="12"/><polygon class="cls-2" points="70.01 436.58 70.01 494.75 104.47 519.52 188.48 519.52 187.41 460.28 104.47 460.28 70.01 436.58"/><line class="cls-2" x1="105.08" y1="519.64" x2="103.4" y2="460.28"/><line class="cls-2" x1="70.01" y1="434.43" x2="89.39" y2="434.43"/><path class="cls-2" d="M172.53,457.65l13.14-25.19,8.81,15.18,17.08-7.69-14.42-34.14-10.21-4.39s-4.24,12.71-17.08,7.19c-12.84-5.53-7.34-17.69-7.34-17.69l-11.84-5.09-34.18,14.77,5.63,17.47,17.08-5.58-17.48,40.62,11.28,6.7"/><polygon class="cls-2" points="50.44 347.96 106.24 318.36 136.97 372.26 117.06 383 92.68 358.22 100.95 391.69 80.09 402.94 50.44 347.96"/></g></svg>