<?xml version="1.0" encoding="UTF-8"?><svg id="Layer_2" xmlns="http://www.w3.org/2000/svg" viewBox="0 0 1063.42 280.49"><defs><style>.cls-1{fill:#1f2020;}.cls-1,.cls-2,.cls-3,.cls-4,.cls-5{stroke-width:0px;}.cls-2{fill:#7f936b;}.cls-3{fill:#090b09;}.cls-4{fill:#c5c5c5;}.cls-5{fill:#858584;}</style></defs><g id="Layer_1-2"><rect class="cls-5" width="1063.42" height="280.49"/><path class="cls-1" d="M853.85,162.6q9.81.23,19.62.46c17.51,62.58,8.32,65.81,22.82.91q9.81-.68,19.62-1.37c15.71,67.12,4.52,67.46,24.19.46q10.27-.23,20.53-.46c-4.98,27.33-15.76,54.52-23.27,81.68h-22.82q-4.34-26.69-8.67-53.39-4.34,26.24-8.67,52.48l-22.36,1.37q-11.18-39.93-22.36-79.86l1.37-2.28Z"/><path class="cls-1" d="M968.84,162.6h18.25c32.86,51.05,27.59,73.56,27.84,1.37h19.17q-.23,40.38-.46,80.77h-20.08c-32.84-49.82-26.38-68.23-26.92-.46l-19.17-.91q.68-40.38,1.37-80.77Z"/><path class="cls-1" d="M653.06,161.69c19.8-1.91,33.52,11.94,36.96,30.57-28.1,6.79-20.62-6.72-29.66-8.67-28.4-6.12-26.11,58.89,7.76,37.87q-7.76-1.37-15.51-2.74l.46-18.71q20.76.23,41.53.46c.6,65.09-80.63,58.9-73.92-2.74,1.69-15.5,15.93-34.46,32.4-36.05Z"/><path class="cls-1" d="M706,162.6c15.93,1.12,41.13-4.75,51.56,10.5,9.82,14.34,4.43,33.1-10.04,41.98,22.55,35.43,31.67,29.56-4.11,29.66q-8.67-11.86-17.34-23.73-.68,11.64-1.37,23.27h-19.17q.23-40.84.46-81.68Z"/><path class="cls-4" d="M726.08,182.68c23.62-1.85,19.24,24.64-1.37,17.8q.68-8.9,1.37-17.8Z"/><path class="cls-1" d="M805.48,162.6c50.7-5.63,54.38,78.08,10.04,83.96-52.77,7.01-56.42-78.81-10.04-83.96Z"/><path class="cls-4" d="M805.48,183.59c26.08-5.69,27.96,38.9,7.3,41.98-25.72,3.83-25.58-37.99-7.3-41.98Z"/><path class="cls-1" d="M181.73,162q12.74.69,25.48,1.39,6.25,23.39,12.51,46.79,6.25-23.39,12.51-46.79h26.87q-.69,41-1.39,81.99-9.03-.69-18.07-1.39c-.55-73.95,3.06-58.61-12.51,1.39-3.56-.65-14.11,1.48-16.21-1.39-1.47-2.01-7.76-42.21-10.65-48.64l-.46,49.57q-9.73-.46-19.46-.93.69-41,1.39-81.99Z"/><path class="cls-1" d="M273.45,162l46.79.46q-.69,9.96-1.39,19.92c-3.3.44-23.67-.78-24.55.46-.28.4-.16,9.29.46,9.73,1.56,1.11,24.06-1.81,25.48,1.39q-.69,9.03-1.39,18.07c-3.3.44-23.67-.78-24.55.46-.36.51-.09,12.11.46,12.51,1.11.78,24.44-1,25.48.46l-.46,19.92-46.79-.46q.23-41.46.46-82.92Z"/><path class="cls-1" d="M30.71,162l18.99.46q.69,15.05,1.39,30.11l18.07-.46,1.39-30.11,18.99.46q-.23,41.46-.46,82.92-9.96-.69-19.92-1.39-.23-15.05-.46-30.11-9.5.23-18.99.46-.69,15.52-1.39,31.04-9.5-.69-18.99-1.39.69-41,1.39-81.99Z"/><path class="cls-1" d="M127.07,162c35.9-5.29,43.37,24.91,39.37,54.2-4.93,36.13-39.27,34.41-51.42,25.48-16.46-12.1-21.21-74.77,12.04-79.68Z"/><path class="cls-4" d="M133.55,182.39c20.05-1.82,17.12,52.03-3.71,42.62-9.22-4.17-11.5-41.24,3.71-42.62Z"/><path class="cls-3" d="M405.63,93.18c-11.31-8.2-34.84-32.44-23.1-47.16,5.49-6.89,13.56-1.56,18.69,2.65-1.93-8.91,1.93-25.5,13.36-25.33,17.27.25,26.74,27.99,28.88,42.14"/><path class="cls-2" d="M423.06,80.85c-13.69,9.56-12.71,12.72-26.36-.96-15.66-15.7-15.62-32.18-8.01-33.09.4-.05,4.27.61,4.78.82,2.06.83,24.84,29.16,29.59,33.23"/><path class="cls-2" d="M427.1,77.98c-.22-14.67-2.4-42.66-16.4-49.57,1.03-.16,2.48-.91,2.62-.92,17.21-.76,24.3,27.99,27.16,41.02"/><path class="cls-2" d="M408.26,31.55c8.5-1.84,16.94,35.88,14.08,42.34-2.83-3.38-16.98-18.11-17.59-20.24-.87-3.04.16-21.37,3.51-22.1Z"/><path class="cls-1" d="M546.39,96.19c-8.4-2.53,21.92,19.24,23.61,19.38.1,0,.47-1.02,1.24-1.49,15.38,11.39,30.76,16.43,21.37,30.56-9.88,14.88-21.47-3.98-31.31-6.96-.59,16.26.52,102.07-.5,107.34-2.04,10.57-21.83,10.22-23.85.5-1.35-6.48.13-105.1-.5-123.74q-30.94-22.74-61.87-45.47c-21.62,13.97-42.21,30.1-63.36,44.98-.68,19.05.89,117.05-.5,124.24-1.96,10.17-21.88,10.32-23.85-.5-1.3-7.08.16-89.96-.5-107.34l-.75-.75c-8.68,5.11-21.82,22.03-30.07,7.7-8.61-14.96,6.67-20.36,18.39-29.07l1.74,1.49c4.59-4.55,37.96-26.28,39.26-28.33.61-.96-.35-1.61-1.24-1.49,6.96-5,13.88-9.95,20.87-14.91.72,2.82,8.52-3.29,13.67-6.96,4.27-3.04,16.28-11.81,12.67-11.93,4-2.73,10.73-10.2,15.65-8.45,23.37,16.93,46.54,34.14,69.82,51.19Z"/><path class="cls-1" d="M438.79,139.93c3.46-.7,67.12-.74,70.57,0,1.03.22,3.86,2.36,4.22,3.23,1.55,3.77,1.22,77.49.5,81.5-.46,2.56-3.11,5.69-5.72,6.21-3.41.68-66.17.73-69.58,0-2.22-.48-4.82-3.64-5.22-5.72-.75-3.9-.74-75.61,0-79.51.46-2.42,2.72-5.21,5.22-5.72Z"/><path class="cls-4" d="M456.19,162.79q17.77.12,35.53.25-.12,22.49-.25,44.98-17.77-.12-35.53-.25.12-22.49.25-44.98Z"/></g></svg>