<?xml version="1.0" encoding="UTF-8"?><svg id="Layer_2" xmlns="http://www.w3.org/2000/svg" viewBox="0 0 445 307.72"><defs><style>.cls-1{fill:#d6d5d5;}.cls-1,.cls-2,.cls-3,.cls-4,.cls-5{stroke-width:0px;}.cls-2{fill:#1f2020;}.cls-3{fill:#fff;}.cls-4{fill:#7f936b;}.cls-5{fill:#090b09;}</style></defs><g id="Layer_1-2"><rect class="cls-3" width="445" height="307.72"/><path class="cls-5" d="M154.18,86.34c-10.49-7.61-32.32-30.09-21.42-43.74,5.09-6.39,12.57-1.45,17.33,2.46-1.79-8.26,1.79-23.65,12.39-23.49,16.02.23,24.8,25.96,26.79,39.08"/><path class="cls-4" d="M170.34,74.91c-12.7,8.87-11.79,11.8-24.45-.89-14.53-14.56-14.49-29.85-7.43-30.69.37-.04,3.96.57,4.44.76,1.91.77,23.03,27.05,27.44,30.82"/><path class="cls-4" d="M174.09,72.25c-.21-13.6-2.23-39.57-15.21-45.98.95-.15,2.3-.85,2.43-.85,15.96-.7,22.54,25.96,25.19,38.05"/><path class="cls-4" d="M156.61,29.18c7.89-1.7,15.72,33.28,13.06,39.27-2.63-3.14-15.75-16.8-16.32-18.77-.81-2.82.14-19.82,3.26-20.49Z"/><path class="cls-2" d="M115.34,243.55l12.68.69q3.11,11.64,6.22,23.28,3.11-11.64,6.22-23.28h13.37q-.35,20.4-.69,40.79l-8.99-.69c-.27-36.79,1.52-29.16-6.22.69-1.77-.33-7.02.73-8.07-.69-.73-1-3.86-21-5.3-24.2l-.23,24.66-9.68-.46.69-40.79Z"/><path class="cls-2" d="M314.45,243.55l9.91.23c8.85,31.6,4.2,33.23,11.52.46l9.91-.69c7.93,33.9,2.28,34.07,12.21.23l10.37-.23c-2.52,13.8-7.96,27.54-11.75,41.25h-11.52q-2.19-13.48-4.38-26.96l-4.38,26.5-11.29.69q-5.65-20.17-11.29-40.33l.69-1.15Z"/><path class="cls-2" d="M372.53,243.55h9.22c16.59,25.78,13.94,37.15,14.06.69h9.68l-.23,40.79h-10.14c-16.59-25.16-13.32-34.46-13.6-.23l-9.68-.46.69-40.79Z"/><path class="cls-2" d="M213.05,243.09c10-.96,16.93,6.03,18.67,15.44-14.19,3.43-10.42-3.39-14.98-4.38-14.34-3.09-13.19,29.74,3.92,19.13l-7.84-1.38.23-9.45q10.49.12,20.97.23c.31,32.87-40.72,29.75-37.33-1.38.85-7.83,8.05-17.4,16.36-18.21Z"/><path class="cls-2" d="M160.97,243.55l23.28.23-.69,9.91c-1.64.22-11.78-.39-12.21.23-.14.2-.08,4.62.23,4.84.78.55,11.97-.9,12.68.69l-.69,8.99c-1.64.22-11.78-.39-12.21.23-.18.25-.05,6.03.23,6.22.55.39,12.16-.5,12.68.23l-.23,9.91-23.28-.23.23-41.25Z"/><path class="cls-2" d="M284.72,89.14c-7.8-2.35,20.33,17.84,21.89,17.98.09,0,.44-.95,1.15-1.38,14.26,10.56,28.52,15.24,19.82,28.35-9.17,13.8-19.92-3.69-29.04-6.45-.54,15.08.48,94.67-.46,99.56-1.89,9.81-20.24,9.47-22.12.46-1.25-6.01.12-97.48-.46-114.77q-28.69-21.09-57.38-42.17c-20.05,12.96-39.15,27.91-58.77,41.71-.63,17.67.82,108.56-.46,115.23-1.82,9.43-20.29,9.57-22.12-.46-1.2-6.57.14-83.43-.46-99.56l-.69-.69c-8.05,4.74-20.24,20.43-27.89,7.14-7.98-13.88,6.19-18.88,17.05-26.96l1.61,1.38c4.26-4.22,35.21-24.38,36.41-26.27.56-.89-.33-1.49-1.15-1.38,6.45-4.64,12.88-9.23,19.36-13.83.67,2.61,7.9-3.05,12.68-6.45,3.96-2.82,15.1-10.96,11.75-11.06,3.71-2.53,9.95-9.46,14.52-7.84,21.68,15.7,43.16,31.66,64.76,47.47Z"/><path class="cls-2" d="M124.79,107.12c12.12-9.01,24.61-17.47,36.87-26.27.82-.11,1.72.49,1.15,1.38-1.2,1.9-32.15,22.05-36.41,26.27l-1.61-1.38Z"/><path class="cls-2" d="M205.45,49.5c3.34.11-7.79,8.24-11.75,11.06-4.77,3.4-12.01,9.06-12.68,6.45,8.19-5.81,16.11-11.85,24.43-17.51Z"/><path class="cls-2" d="M284.72,89.14c7.64,5.59,15.43,10.95,23.05,16.59-.72.44-1.06,1.39-1.15,1.38-1.56-.13-29.69-20.33-21.89-17.98Z"/><path class="cls-2" d="M184.94,129.7c3.21-.65,62.25-.69,65.45,0,.96.21,3.58,2.19,3.92,3,1.44,3.49,1.13,71.87.46,75.59-.43,2.37-2.89,5.28-5.3,5.76-3.16.63-61.37.68-64.53,0-2.05-.44-4.47-3.37-4.84-5.3-.7-3.62-.68-70.12,0-73.75.42-2.24,2.52-4.83,4.84-5.3Z"/><path class="cls-1" d="M201.07,150.9l32.96.23-.23,41.71-32.96-.23.23-41.71Z"/><path class="cls-2" d="M239.78,243.55c8.05.57,20.77-2.4,26.04,5.3,4.96,7.24,2.24,16.72-5.07,21.2,11.39,17.89,15.99,14.93-2.07,14.98q-4.38-5.99-8.76-11.98l-.69,11.75h-9.68l.23-41.25Z"/><path class="cls-1" d="M249.92,253.69c11.93-.93,9.72,12.44-.69,8.99l.69-8.99Z"/><path class="cls-2" d="M290.02,243.55c25.61-2.84,27.46,39.43,5.07,42.4-26.65,3.54-28.49-39.8-5.07-42.4Z"/><path class="cls-1" d="M290.02,254.15c13.17-2.87,14.12,19.65,3.69,21.2-12.99,1.94-12.92-19.19-3.69-21.2Z"/><path class="cls-2" d="M40.21,243.55l9.45.23.69,14.98,8.99-.23.69-14.98,9.45.23-.23,41.25-9.91-.69-.23-14.98-9.45.23-.69,15.44-9.45-.69q.35-20.4.69-40.79Z"/><path class="cls-2" d="M88.14,243.55c17.86-2.63,21.58,12.39,19.59,26.96-2.45,17.97-19.54,17.12-25.58,12.68-8.19-6.02-10.55-37.2,5.99-39.64Z"/><path class="cls-1" d="M91.37,253.69c9.98-.9,8.52,25.88-1.84,21.2-4.59-2.07-5.72-20.52,1.84-21.2Z"/></g></svg>