<?xml version="1.0" encoding="UTF-8"?>
<svg id="Layer_2" data-name="Layer 2" xmlns="http://www.w3.org/2000/svg" viewBox="0 0 262 262">
  <defs>
    <style>
      .cls-1 {
        fill: none;
        stroke: #000;
        stroke-linecap: round;
        stroke-linejoin: round;
        stroke-width: 10px;
      }
    </style>
  </defs>
  <g id="Layer_1-2" data-name="Layer 1">
    <g>
      <rect class="cls-1" x="5" y="5" width="252" height="252" rx="12" ry="12"/>
      <g>
        <g>
          <rect class="cls-1" x="33.8" y="72.8" width="194.4" height="154.82"/>
          <polygon class="cls-1" points="131.58 34.38 33.8 72.8 228.2 72.8 131.58 34.38"/>
        </g>
        <g>
          <g>
            <path class="cls-1" d="m74.3,169.32c11.68,6.33,34.14,6.47,44.38,0,0,0-1.14,32.36-6.83,39.91-1.84,2.44-31.17,1.16-31.87,0-4.55-7.55-5.69-39.91-5.69-39.91Z"/>
            <path class="cls-1" d="m98.3,172.2l-1.24-72.3s-2.28-19.35-36.42-5.69c15.93,9.1,21.62,25.04,35.28,10.24"/>
            <path class="cls-1" d="m95.93,130.63c1.92-.16-15.57-1.74-15.93-2.28-2.28-3.41-22.76-14.79-21.62,20.48,6.83-4.55,26.18-3.41,22.76-15.93"/>
            <path class="cls-1" d="m98.3,124.97s10.14-8,13.56-12.55c3.41-4.55,18.21-12.52,31.87,17.07-12.52-4.55-27.31,6.83-33-13.66"/>
            <path class="cls-1" d="m118.69,168.18s-5.69-7.97-21.62-7.97-21.62,6.64-21.62,6.64"/>
          </g>
          <g>
            <polygon class="cls-1" points="167.3 188.96 171.86 210.62 195.8 210.62 200.36 188.96 167.3 188.96"/>
            <line class="cls-1" x1="183.26" y1="186.68" x2="183.26" y2="159.32"/>
            <ellipse class="cls-1" cx="169.44" cy="157.04" rx="9.12" ry="7.98" transform="translate(-60.09 130.85) rotate(-36.32)"/>
            <ellipse class="cls-1" cx="171.98" cy="138.73" rx="7.98" ry="9.12" transform="translate(-47.72 162.24) rotate(-45)"/>
            <ellipse class="cls-1" cx="194.92" cy="157.11" rx="7.98" ry="9.12" transform="translate(-45.95 225.35) rotate(-54.69)"/>
            <ellipse class="cls-1" cx="193.29" cy="139.87" rx="9.12" ry="7.98" transform="translate(-42.29 177.65) rotate(-45)"/>
          </g>
        </g>
      </g>
    </g>
  </g>
</svg>