<?xml version="1.0" encoding="UTF-8"?>
<svg id="Layer_2" data-name="Layer 2" xmlns="http://www.w3.org/2000/svg" viewBox="0 0 262 262">
  <defs>
    <style>
      .cls-1 {
        fill: none;
        stroke: #000;
        stroke-linecap: round;
        stroke-linejoin: round;
        stroke-width: 10px;
      }
    </style>
  </defs>
  <g id="Layer_1-2" data-name="Layer 1">
    <rect class="cls-1" x="5" y="5" width="252" height="252" rx="12" ry="12"/>
    <g>
      <path class="cls-1" d="m33.8,133.25v13.13c0,5.88,5.07,12.26,13.58,12.26,0,0-.03,21.91,20.72,21.91s20.75-21.91,20.75-21.91h84s1.05,21.91,22.86,21.91,19.68-21.91,19.68-21.91c0,0,13.82-1.06,12.76-17.01s-5.32-17.01-24.46-21.27c-19.14-4.25-23.39-3.19-40.41-23.39-17.01-20.2-53.17-14.89-64.86-14.89s-33.56-3.63-52.1,22.33c-10.63,14.89-3.4,15.31,8.4,15.1,11.8-.21,33.07-.21,33.07-.21,0,0,1.06-14.89,14.89-14.89,11.7,0,9.57,0,9.57,0v29.77h-9.57s-14.89-1.06-14.89-14.89"/>
      <line class="cls-1" x1="112.24" y1="111.85" x2="129.45" y2="111.85"/>
      <line class="cls-1" x1="112.24" y1="126.74" x2="129.45" y2="126.74"/>
    </g>
  </g>
</svg>