<?xml version="1.0" encoding="UTF-8"?><svg id="Layer_2" xmlns="http://www.w3.org/2000/svg" viewBox="0 0 262 262"><defs><style>.cls-1{fill:none;stroke:#000;stroke-linecap:round;stroke-linejoin:round;stroke-width:10px;}</style></defs><g id="Layer_1-2"><rect class="cls-1" x="5" y="5" width="252" height="252" rx="12" ry="12"/><circle class="cls-1" cx="73" cy="203.75" r="13.5"/><circle class="cls-1" cx="186" cy="203.75" r="13.5"/><line class="cls-1" x1="88.5" y1="208.75" x2="172.5" y2="208.75"/><path class="cls-1" d="M200.5,205.75l21-6s0-21-1-23-19-5-25-8c-6-3-26-12-26-12,0,0-39-2-49,1-10,3-17,12-31,16-14,4-42,7-42,7l-7,9v16l18,3"/><line class="cls-1" x1="140.5" y1="157.75" x2="139.5" y2="207.75"/><polyline class="cls-1" points="90.5 175.75 165.5 175.75 192.96 167.59"/><ellipse class="cls-1" cx="90" cy="102.25" rx="9.5" ry="12.5"/><path class="cls-1" d="M69.5,126s-2-14,11-16"/><path class="cls-1" d="M111.41,126s2-14-11-16"/><ellipse class="cls-1" cx="111" cy="73.25" rx="9.5" ry="12.5"/><path class="cls-1" d="M90.5,89s-2-6,11-8"/><path class="cls-1" d="M132.41,89s2-6-11-8"/><ellipse class="cls-1" cx="153" cy="73.25" rx="9.5" ry="12.5"/><path class="cls-1" d="M132.5,89s-2-6,11-8"/><path class="cls-1" d="M174.41,89s2-6-11-8"/><ellipse class="cls-1" cx="131" cy="102.25" rx="9.5" ry="12.5"/><path class="cls-1" d="M110.5,126s-2-14,11-16"/><path class="cls-1" d="M152.41,126s2-14-11-16"/><ellipse class="cls-1" cx="172" cy="102.25" rx="9.5" ry="12.5"/><path class="cls-1" d="M151.5,126s-2-14,11-16"/><path class="cls-1" d="M193.41,126s2-14-11-16"/><path class="cls-1" d="M87.5,153.75l-9-13.62h-17c-5,0-9-4.19-9-12.58V53.13c0-5.24,4-8.38,9-8.38h137c8,0,12,4.19,12,9.43v77.56c0,7.34-5,8.38-11,8.38h-103l-9,13.62Z"/></g></svg>