<?xml version="1.0" encoding="UTF-8"?>
<svg id="Layer_2" data-name="Layer 2" xmlns="http://www.w3.org/2000/svg" viewBox="0 0 262 262">
  <defs>
    <style>
      .cls-1 {
        fill: none;
        stroke: #000;
        stroke-linecap: round;
        stroke-linejoin: round;
        stroke-width: 10px;
      }
    </style>
  </defs>
  <g id="Layer_1-2" data-name="Layer 1">
    <g>
      <rect class="cls-1" x="5" y="5" width="252" height="252" rx="12" ry="12"/>
      <g>
        <g>
          <line class="cls-1" x1="163.96" y1="226.59" x2="212.01" y2="226.59"/>
          <line class="cls-1" x1="187.99" y1="225.63" x2="187.99" y2="163.17"/>
          <path class="cls-1" d="m68.84,226.59h63.31c1.88,0,3.67-.85,4.85-2.32l91.89-111.5c3.29-4.08.38-10.14-4.85-10.14h-59.26c-1.81,0-3.54.79-4.72,2.17l-95.94,111.5c-3.48,4.04-.61,10.3,4.72,10.3Z"/>
        </g>
        <circle class="cls-1" cx="87.57" cy="82.93" r="34.11"/>
      </g>
      <line class="cls-1" x1="186.54" y1="103.38" x2="82.68" y2="225.75"/>
      <line class="cls-1" x1="210.54" y1="104.38" x2="106.68" y2="226.75"/>
      <line class="cls-1" x1="78.05" y1="204.28" x2="152.81" y2="204.28"/>
      <line class="cls-1" x1="96.05" y1="182.28" x2="170.81" y2="182.28"/>
      <line class="cls-1" x1="113.05" y1="161.28" x2="187.81" y2="161.28"/>
      <line class="cls-1" x1="131.05" y1="139.28" x2="205.81" y2="139.28"/>
      <line class="cls-1" x1="148.05" y1="118.28" x2="222.81" y2="118.28"/>
    </g>
  </g>
</svg>