<?xml version="1.0" encoding="UTF-8"?><svg id="Layer_2" xmlns="http://www.w3.org/2000/svg" viewBox="0 0 262 262"><defs><style>.cls-1{fill:none;stroke:#000;stroke-linecap:round;stroke-linejoin:round;stroke-width:10px;}</style></defs><g id="Layer_1-2"><rect class="cls-1" x="202.42" y="32.77" width="26.39" height="196.45" rx="3.43" ry="3.43"/><path class="cls-1" d="M200.99,165.31h-15.91c-.46,0-.84-.32-.84-.7v-65.45c0-.39.38-.7.84-.7h15.91c.46,0,.84.32.84.7v65.45c0,.39-.38.7-.84.7Z"/><polygon class="cls-1" points="184.24 120.15 160.79 106.08 160.79 120.15 184 135.02 184.24 120.15"/><path class="cls-1" d="M27.19,168.17c8.21-9.38,39.88-53.95,48.09-62.16,8.21-8.21,46.91-38.7,60.99-41.05,14.07-2.35,38.7-7.04,38.7,4.69s-31.67,11.73-37.53,16.42-23.46,19.94-28.15,28.15-11.73,22.28-1.17,25.8c10.56,3.52,10.56-36.36,26.98-31.67,16.42,4.69-12.9,79.75-56.3,76.23l-22.28,22.28"/><rect class="cls-1" x="5" y="5" width="252" height="252" rx="12" ry="12"/></g></svg>