<?xml version="1.0" encoding="UTF-8"?><svg id="Layer_2" xmlns="http://www.w3.org/2000/svg" viewBox="0 0 262 262"><defs><style>.cls-1{fill:none;stroke:#000;stroke-linecap:round;stroke-linejoin:round;stroke-width:10px;}</style></defs><g id="Layer_1-2"><rect class="cls-1" x="5" y="5" width="252" height="252" rx="12" ry="12"/><path class="cls-1" d="M33.8,49.3v178.76h194.4V48.18s-29.05-29.05-63.68-1.12c-33.52-30.17-64.8,1.12-64.8,1.12,0,0-33.52-31.28-65.92,1.12Z"/><ellipse class="cls-1" cx="170.1" cy="163.26" rx="22.34" ry="37.99"/><path class="cls-1" d="M152.23,86.17c5.59-7.82-13.41-27.93-42.46-16.76-29.05,11.17-24.58,37.99-21.23,50.28,3.35,12.29,2.23,32.4-7.82,29.05-12.81-4.27-4.47-24.58-6.7-26.81s-24.58,7.82-14.52,30.17,46.92,25.7,54.74-3.35c7.82-29.05-11.68-43.13-1.12-58.1,13.41-18.99,36.43-.72,39.1-4.47Z"/><line class="cls-1" x1="151.11" y1="138.68" x2="139.94" y2="133.09"/><line class="cls-1" x1="147.89" y1="162.37" x2="134.35" y2="162.14"/><line class="cls-1" x1="151.11" y1="183.37" x2="139.94" y2="188.95"/><line class="cls-1" x1="189.51" y1="138.69" x2="200.68" y2="133.1"/><line class="cls-1" x1="192.72" y1="162.38" x2="206.26" y2="162.15"/><line class="cls-1" x1="189.51" y1="183.38" x2="200.68" y2="188.96"/></g></svg>