<?xml version="1.0" encoding="UTF-8"?>
<svg id="Layer_2" data-name="Layer 2" xmlns="http://www.w3.org/2000/svg" viewBox="0 0 262 262">
  <defs>
    <style>
      .cls-1 {
        fill: none;
        stroke: #000;
        stroke-linecap: round;
        stroke-linejoin: round;
        stroke-width: 10px;
      }
    </style>
  </defs>
  <g id="Layer_1-2" data-name="Layer 1">
    <g>
      <rect class="cls-1" x="5" y="5" width="252" height="252" rx="12" ry="12"/>
      <g>
        <polygon class="cls-1" points="70.01 148.58 70.01 206.75 104.47 231.52 188.48 231.52 187.41 172.28 104.47 172.28 70.01 148.58"/>
        <line class="cls-1" x1="105.08" y1="231.64" x2="103.4" y2="172.28"/>
        <line class="cls-1" x1="70.01" y1="146.43" x2="89.39" y2="146.43"/>
        <path class="cls-1" d="m172.53,169.65l13.14-25.19,8.81,15.18,17.08-7.69-14.42-34.14-10.21-4.39s-4.24,12.71-17.08,7.19c-12.84-5.53-7.34-17.69-7.34-17.69l-11.84-5.09-34.18,14.77,5.63,17.47,17.08-5.58-17.48,40.62,11.28,6.7"/>
        <polygon class="cls-1" points="50.44 59.96 106.24 30.36 136.97 84.26 117.06 95 92.68 70.22 100.95 103.69 80.09 114.94 50.44 59.96"/>
      </g>
    </g>
  </g>
</svg>