<?xml version="1.0" encoding="UTF-8"?><svg id="Layer_2" xmlns="http://www.w3.org/2000/svg" viewBox="0 0 262 262"><defs><style>.cls-1{fill:none;stroke:#000;stroke-linecap:round;stroke-linejoin:round;stroke-width:10px;}</style></defs><g id="Layer_1-2"><rect class="cls-1" x="5" y="5" width="252" height="252" rx="12" ry="12"/><path class="cls-1" d="M109.29,144.83c0,4.99,3.96,9.08,8.79,9.08h22.75c4.83,0,8.79-4.09,8.79-9.08v-8.5h.07s70.25,0,70.25,0c4.55,0,8.27-3.72,8.27-8.27h0c0-4.55-3.72-8.27-8.27-8.27H42.07c-4.55,0-8.27,3.72-8.27,8.27h0c0,4.55,3.72,8.27,8.27,8.27h67.21s0,8.5,0,8.5Z"/><path class="cls-1" d="M39.91,136.64s12.51,55.52,15.61,66.9,10.34,20.68,27.92,20.68h89.96c14.48,0,27.92-2.07,32.06-18.61s15.51-69.28,15.51-69.28"/><line class="cls-1" x1="64.79" y1="164.24" x2="72.03" y2="195.27"/><path class="cls-1" d="M113.96,57.43c0,3.92,3.1,7.12,6.9,7.12h17.85c3.79,0,6.9-3.2,6.9-7.12v-6.67h.05s55.11,0,55.11,0c3.57,0,6.49-2.92,6.49-6.49h0c0-3.57-2.92-6.49-6.49-6.49H61.24c-3.57,0-6.49,2.92-6.49,6.49h0c0,3.57,2.92,6.49,6.49,6.49h52.73s0,6.67,0,6.67Z"/><path class="cls-1" d="M59.54,51.01s9.81,43.56,12.25,52.48c2.43,8.92,8.11,16.22,21.9,16.22h70.58c11.36,0,21.9-1.62,25.15-14.6,3.24-12.98,12.17-54.35,12.17-54.35"/><line class="cls-1" x1="79.27" y1="72.66" x2="84.95" y2="97"/></g></svg>