<?xml version="1.0" encoding="UTF-8"?><svg id="Layer_2" xmlns="http://www.w3.org/2000/svg" viewBox="0 0 511 280.49"><defs><style>.cls-1{fill:#1f2020;}.cls-1,.cls-2,.cls-3,.cls-4,.cls-5{stroke-width:0px;}.cls-2{fill:#7f936b;}.cls-3{fill:#090b09;}.cls-4{fill:#c5c5c5;}.cls-5{fill:#858584;}</style></defs><g id="Layer_1-2"><rect class="cls-5" width="511" height="280.49"/><path class="cls-1" d="M278.33,162.13q9.81.23,19.62.46c17.51,62.58,8.32,65.81,22.82.91q9.81-.68,19.62-1.37c15.71,67.12,4.52,67.46,24.19.46q10.27-.23,20.53-.46c-4.98,27.33-15.76,54.52-23.27,81.68h-22.82q-4.34-26.69-8.67-53.39-4.34,26.24-8.67,52.48l-22.36,1.37q-11.18-39.93-22.36-79.86l1.37-2.28Z"/><path class="cls-1" d="M393.32,162.13h18.25c32.86,51.05,27.59,73.56,27.84,1.37h19.17q-.23,40.38-.46,80.77h-20.08c-32.84-49.82-26.38-68.23-26.92-.46l-19.17-.91q.68-40.38,1.37-80.77Z"/><path class="cls-1" d="M77.55,161.22c19.8-1.91,33.52,11.94,36.96,30.57-28.1,6.79-20.62-6.72-29.66-8.67-28.4-6.12-26.11,58.89,7.76,37.87q-7.76-1.37-15.51-2.74l.46-18.71q20.76.23,41.53.46c.6,65.09-80.63,58.9-73.92-2.74,1.69-15.5,15.93-34.46,32.4-36.05Z"/><path class="cls-1" d="M130.48,162.13c15.93,1.12,41.13-4.75,51.56,10.5,9.82,14.34,4.43,33.1-10.04,41.98,22.55,35.43,31.67,29.56-4.11,29.66q-8.67-11.86-17.34-23.73-.68,11.64-1.37,23.27h-19.17q.23-40.84.46-81.68Z"/><path class="cls-4" d="M150.56,182.21c23.62-1.85,19.24,24.64-1.37,17.8q.68-8.9,1.37-17.8Z"/><path class="cls-1" d="M229.96,162.13c50.7-5.63,54.38,78.08,10.04,83.96-52.77,7.01-56.42-78.81-10.04-83.96Z"/><path class="cls-4" d="M229.96,183.12c26.08-5.69,27.96,38.9,7.3,41.98-25.72,3.83-25.58-37.99-7.3-41.98Z"/><path class="cls-1" d="M197.16,53.29q12.74.69,25.48,1.39,6.25,23.39,12.51,46.79,6.25-23.39,12.51-46.79h26.87q-.69,41-1.39,81.99-9.03-.69-18.07-1.39c-.55-73.95,3.06-58.61-12.51,1.39-3.56-.65-14.11,1.48-16.21-1.39-1.47-2.01-7.76-42.21-10.65-48.64l-.46,49.57q-9.73-.46-19.46-.93.69-41,1.39-81.99Z"/><path class="cls-1" d="M288.88,53.29l46.79.46q-.69,9.96-1.39,19.92c-3.3.44-23.67-.78-24.55.46-.28.4-.16,9.29.46,9.73,1.56,1.11,24.06-1.81,25.48,1.39q-.69,9.03-1.39,18.07c-3.3.44-23.67-.78-24.55.46-.36.51-.09,12.11.46,12.51,1.11.78,24.44-1,25.48.46l-.46,19.92q-23.39-.23-46.79-.46.23-41.46.46-82.92Z"/><path class="cls-1" d="M46.14,53.29l18.99.46,1.39,30.11q9.03-.23,18.07-.46l1.39-30.11,18.99.46q-.23,41.46-.46,82.92-9.96-.69-19.92-1.39l-.46-30.11q-9.5.23-18.99.46-.69,15.52-1.39,31.04-9.5-.69-18.99-1.39.69-41,1.39-81.99Z"/><path class="cls-1" d="M142.5,53.29c35.9-5.29,43.37,24.91,39.37,54.2-4.93,36.13-39.27,34.41-51.42,25.48-16.46-12.1-21.21-74.77,12.04-79.68Z"/><path class="cls-4" d="M148.98,73.67c20.05-1.82,17.12,52.03-3.71,42.62-9.22-4.17-11.5-41.24,3.71-42.62Z"/><path class="cls-3" d="M377.55,54.57c-5.92-4.3-18.25-16.99-12.1-24.71,2.88-3.61,7.1-.82,9.79,1.39-1.01-4.67,1.01-13.36,7-13.27,9.05.13,14.01,14.66,15.13,22.07"/><path class="cls-2" d="M386.68,48.11c-7.17,5.01-6.66,6.67-13.81-.5-8.21-8.22-8.18-16.86-4.19-17.34.21-.03,2.24.32,2.51.43,1.08.44,13.01,15.28,15.5,17.41"/><path class="cls-2" d="M388.8,46.61c-.12-7.68-1.26-22.35-8.59-25.97.54-.09,1.3-.48,1.37-.48,9.01-.4,12.73,14.66,14.23,21.49"/><path class="cls-2" d="M378.93,22.29c4.45-.96,8.88,18.79,7.38,22.18-1.48-1.77-8.9-9.49-9.22-10.6-.46-1.59.08-11.2,1.84-11.58Z"/><path class="cls-1" d="M451.29,56.15c-4.4-1.33,11.48,10.08,12.37,10.15.05,0,.25-.53.65-.78,8.06,5.96,16.11,8.61,11.19,16.01-5.18,7.8-11.25-2.08-16.4-3.64-.31,8.52.27,53.47-.26,56.23-1.07,5.54-11.43,5.35-12.5.26-.71-3.39.07-55.06-.26-64.82q-16.21-11.91-32.41-23.82c-11.32,7.32-22.11,15.77-33.19,23.56-.35,9.98.46,61.32-.26,65.08-1.03,5.33-11.46,5.41-12.5-.26-.68-3.71.08-47.12-.26-56.23l-.39-.39c-4.55,2.67-11.43,11.54-15.75,4.04-4.51-7.84,3.5-10.66,9.63-15.23l.91.78c2.41-2.38,19.89-13.77,20.57-14.84.32-.5-.19-.84-.65-.78,3.65-2.62,7.27-5.21,10.93-7.81.38,1.48,4.46-1.72,7.16-3.64,2.24-1.59,8.53-6.19,6.64-6.25,2.09-1.43,5.62-5.34,8.2-4.43,12.24,8.87,24.38,17.88,36.58,26.81Z"/><path class="cls-1" d="M360.95,66.31c6.84-5.09,13.9-9.87,20.83-14.84.47-.06.97.28.65.78-.68,1.07-18.16,12.46-20.57,14.84l-.91-.78Z"/><path class="cls-1" d="M406.51,33.76c1.89.06-4.4,4.65-6.64,6.25-2.7,1.92-6.78,5.12-7.16,3.64,4.63-3.28,9.1-6.69,13.8-9.89Z"/><path class="cls-1" d="M451.29,56.15c4.31,3.16,8.72,6.19,13.02,9.37-.4.25-.6.79-.65.78-.88-.08-16.77-11.48-12.37-10.15Z"/><path class="cls-1" d="M394.93,79.06c1.81-.37,35.16-.39,36.97,0,.54.12,2.02,1.23,2.21,1.69.81,1.97.64,40.59.26,42.69-.24,1.34-1.63,2.98-2.99,3.25-1.79.36-34.66.38-36.45,0-1.16-.25-2.52-1.91-2.73-2.99-.39-2.04-.39-39.61,0-41.65.24-1.27,1.43-2.73,2.73-2.99Z"/><path class="cls-4" d="M404.04,91.04q9.31.07,18.61.13l-.13,23.56-18.61-.13q.07-11.78.13-23.56Z"/></g></svg>