<?xml version="1.0" encoding="UTF-8"?><svg xmlns="http://www.w3.org/2000/svg" xmlns:xlink="http://www.w3.org/1999/xlink" viewBox="0 0 512 512"><defs><style>.cls-1{fill:#72bf44;}.cls-1,.cls-2,.cls-3,.cls-4,.cls-5,.cls-6,.cls-7{stroke-width:0px;}.cls-2{fill:url(#linear-gradient);}.cls-3{fill:#21582c;}.cls-4{fill:#ccd3b9;}.cls-5{fill:url(#linear-gradient-2);}.cls-6{fill:url(#linear-gradient-3);}.cls-7{fill:#1f592d;}</style><linearGradient id="linear-gradient" x1="138.19" y1="277.3" x2="367.26" y2="277.3" gradientUnits="userSpaceOnUse"><stop offset="0" stop-color="#72bf44"/><stop offset="1" stop-color="#aad044"/></linearGradient><linearGradient id="linear-gradient-2" x1="125.56" y1="279.29" x2="125.56" y2="174.75" gradientUnits="userSpaceOnUse"><stop offset="0" stop-color="#72bf44"/><stop offset=".26" stop-color="#7ac144"/><stop offset=".68" stop-color="#92c844"/><stop offset="1" stop-color="#aad044"/></linearGradient><linearGradient id="linear-gradient-3" x1="333.07" y1="253.88" x2="376.66" y2="253.88" xlink:href="#linear-gradient"/></defs><g id="Layer_9"><g id="Layer_2"><polygon class="cls-3" points="150.68 248.76 203.37 187.35 300.05 187.35 353.61 248.76 246.48 248.76 205.11 199.98 163.74 248.76 150.68 248.76"/></g><g id="Layer_4"><path class="cls-4" d="M166.35,278.37v-32.69l38.76-45.69,41.37,48.77h74.09v29.61s-17.62,4.79-58.85-10.02c-12.19-4.65-49.94-10.6-67.5.44s-27.87,9.58-27.87,9.58Z"/></g><g id="Layer_5"><path class="cls-2" d="M138.19,273.36s31.94,13.72,56.03-4.57c15.24-9.15,51.97-6.43,67.5-.44,13.53,4.43,43.81,13.06,58.85,10.02s40.3-7.23,46.68.74c-10.45,1.44-26.42,2.02-40.94,10-8.85,3.48-46.89,4.18-62.71-2.18-10.74-3.05-44.27-11.76-65.32-2.18-9.15,5.37-55.16,11.03-60.1-11.39Z"/></g><g id="Layer_6"><rect class="cls-7" x="196.55" y="229.45" width="16.11" height="20.47"/></g><g id="Layer_7"><path class="cls-5" d="M156.92,273.36s-21.48-23.88-21.77-79.48c7.55.73,16.98-8.85,17.85-23.23-5.23-.58-23.52,7.55-21.34,39.63,0,0-12.63-20.03-37.45-10.31,8.85,11.32,22.06,29.17,38.32,24.6-.15,6.03,10.09,50.16,20.69,50.59,3.81-.36,3.7-1.81,3.7-1.81Z"/></g><g id="Layer_8"><path class="cls-6" d="M348.97,274.54s9.43-12.74,18.29-11.68c3.7-1.4,14.08-14.18,6.97-29.64-2.69,4.86-13.43,26.2-16.98,26.56-2.9-1.52-15.31-12.19-24.17,1.96,1.02,3.34,6.53,3.56,15.9,2.4,1.52,1.31,6.97-.11-6.53,10.4h6.54Z"/></g></g><g id="Layer_10"><path class="cls-1" d="M104.42,351v-36h-6.39v18s-6.1-3.77-19.16,0c.39-6,0-18,0-18h-6.68v21.19s-4.45-.77-9.58,2.61c-5.9.1-21.19,1.94-23.81-9,1.26,5.81,5.9,14.13,15.68,13.65s15.59-4.41,17.83-3.52c.01,1.79,0,11.07,0,11.07h6.7v-14.06s9.24-4.02,18.94,1.09c.1,1.86,0,12.97,0,12.97h6.46Z"/><path class="cls-1" d="M131.92,313.79c-10.59,0-19.17,8.58-19.17,19.17s8.58,19.17,19.17,19.17,19.17-8.58,19.17-19.17-8.58-19.17-19.17-19.17ZM132.39,344.76c-6.57,0-11.9-5.33-11.9-11.9s5.33-11.9,11.9-11.9,11.9,5.33,11.9,11.9-5.33,11.9-11.9,11.9Z"/><path class="cls-1" d="M158.66,350.85v-38.18l19.31,20.18,18.15-19.06v32.13s3.73-.15,5.03,3.05c2.27,1.6,5.08.87,5.08.87,0,0-4.31,2.37-6.68,1.02s-3.48-1.45-3.48-1.45v1.87h-6.39v-21.32l-11.76,12.19-12.19-12.48v21.61l-7.06-.42Z"/><polygon class="cls-1" points="208.09 315 208.09 351.27 232.26 351.27 232.26 344.76 214.62 344.76 214.62 333.14 229.21 333.14 229.21 327.87 213.97 327.87 213.97 320.95 232.26 320.95 232.26 315 208.09 315"/><path class="cls-1" d="M272.1,320.4l-4.14,4.79s-10.74-11.61-20.25,1.31c-2.03,3.12-4.19,17.13,8.28,18.94-4.36,4.06-6.1,5.84-6.1,5.84,0,0-17.64-8.01-7.4-29.14,6.53-6.53,15.39-11.9,29.61-1.74Z"/><path class="cls-1" d="M258.82,334.33v6.75h9.15s-.22,7.23-9.15,8.71c-3.05.8-6.24,4.65-6.1,8.71s8.2,6.6,9.58,4.57,2.32-7.26-4.57-4.57c-.73-.73-1.96-2.76,2.61-3.48s12.34-7.84,13.28-8.71c.07-2.1,0-11.98,0-11.98h-14.81Z"/><path class="cls-1" d="M311.15,328.81c0-7.33-6.24-14.08-10.45-14.08h-17.2v36.54h6.97v-8.74h6.75l6.53,8.74h7.4l-6.97-9.83c2.61-1.67,6.97-5.3,6.97-12.63ZM290.47,336.22v-15.24s13.5-2.98,13.5,7.62-13.5,7.62-13.5,7.62Z"/><path class="cls-1" d="M328.06,340.79l-5.66,4.35s-4.57-4.94-4.57-14.15,9-16.25,18.94-16.25,18.5,6.01,18.5,18.5c0,0-.11,17.83-17.83,17.83-4.37,2.57-10.39,3.44-7.63,5.18-2.18.94.36,3.12-4.79,1.52-.8-2.4-1.74-4.51,2.4-6.5s3.48-7.22,3.48-7.22c0,0,16.69,6.1,18.07-10.92-.94-7.73-4.29-12.57-12.42-12.55s-14.58,11.05-8.49,20.2Z"/><polygon class="cls-1" points="358.69 314.74 366.1 314.74 371.54 334.33 381.77 314.74 393.1 334.33 398.32 314.74 405.29 314.74 394.84 351.27 381.99 326.42 370.45 351.27 358.69 314.74"/><path class="cls-1" d="M412.19,351.27v-37.41h2.25l22.07,22.68v-21.8h6.97s9.22,1.09,10.89,5.08,8.71,4.35,8.71,4.35c0,0-8.78,2.69-12.19-.65s-4.79-5.52-7.19-4.79c.22,2.98,0,33.53,0,33.53l-25.04-23.3v22.31h-6.46Z"/></g></svg>