<?xml version="1.0" encoding="UTF-8"?>
<svg id="Layer_2"
     xmlns="http://www.w3.org/2000/svg"
     xmlns:xlink="http://www.w3.org/1999/xlink"
     viewBox="0 0 453.29 473.37"><defs><style>.cls-1{clip-path:url(#clippath-2);}.cls-2{fill:#308440;}.cls-3{fill:#55a04d;}.cls-4{clip-path:url(#clippath-1);}.cls-5{clip-path:url(#clippath);}.cls-6{fill:none;}.cls-7{fill:#287141;}.cls-8{fill:#6ba4b0;}</style><clipPath id="clippath">
    <path class="cls-6" d="M446.61,201.12c-1.76-8.87-5.2-25.53-6.42-26.83-1.22-1.3-5.43-.31-8.03,2.29s-12.23,1.38-18.5-8.87c-6.27-10.24-3.9-15.29-12.54-13.61-8.64,1.68-8.64,13.61-2.75,20.25,5.89,6.65-6.73,21.94-9.02,3.75-2.29-18.19,.69-13.45-10.32-21.02-11.01-7.57-13.38-1.68-12.99,7.41,.38,9.1-10.17,17.5-17.66,20.56-7.49,3.06-1.68,4.51-10.24,4.89-8.56,.38-10.62-6.65-22.47,2.9-11.85,9.55-21.17-15.97-4.13-19.57,4.13-1.38,.76-1.99,6.5-1.83,5.73,.15,17.96-3.15,18.71-6.13,.75-2.98-5.16-9.86,1.32-17.25,6.48-7.39,13.64-3.04,15.36-10.78,1.72-7.74-7.17-2.64-5.1-14.33s16.02,0,17.14-9.69c.63-5.45-12.15-2.75-14.33-8.31-2.18-5.56-5.1-9-1.15-10.83,3.96-1.83,4.01-5.52-.69-9.51-70.01-59.46-199.03-64.5-261.4-4.42l7.11,1.61c-1.83,15.13,4.13,2.98,15.13,13.3,11.01,10.32,23.85-16.97,22.47,0-1.38,16.97-22.47,18.57-30.5,10.32-8.03-8.25-31.64,2.52-14.22,4.13s12.18,5.73,19.28,10.09c7.09,4.36,7.09,5.04,22.69-5.5s16.28-.46,19.72-7.57c3.44-7.11-5.04-3.67,0-15.82,5.04-12.15,22.7-4.41,16.74,7.88s4.59,12.98,4.59,12.98c1.38-19.26,14.9-10.78,27.29-18.8,12.38-8.03,8.25,24.08-7.11,22.7-15.36-1.38,1.61,7.57-13.3,10.55-14.9,2.98-9.97-1.15-13.3,3.67s-27.4-4.59-26.83,4.7c.57,9.29-6.54,11.58-12.73,8.71-6.19-2.87-7.22-.46-7.22,2.87s-16.74,.34-10.43,10.43c6.31,10.09,17.43-1.15,20.06,8.71,2.64,9.86-1.49,2.75,3.1,10.66s8.14,10.55,8.14,10.55c0,0-5.76-14.9,4.97-16.05s5.92-5.5,10.27-13.07,13.3-6.31,16.05-2.75,12.5-2.18,16.17,4.01c3.67,6.19,10.09,13.87,7.68,20.18s-.34,3.67-10.89,1.72c-10.55-1.95-19.72-1.26-18.34,22.7-.23,3.21-19.49,.46-24.99,5.96-5.5,5.5-20.87-6.88-30.5,5.85-9.63,12.73,1.38,6.76-15.82,12.15-17.2,5.39,4.01,7.68-18.46,12.61-8.6,2.52-15.36,12.5-15.36,17.43s-12.61-20.87-19.15-28.32c-6.54-7.45-35.54,14.9-29.46,22.01,6.08,7.11,4.01,13.3,4.82,15.94,.8,2.64,13.41,1.26,12.73,7.8-.69,6.54,1.95,5.5,4.01,9.52,2.06,4.01-1.49,6.08,6.76,6.99,8.25,.92,12.15,7.57,21.44,1.6,11.12,.34,30.27,5.27,29.12,15.13-1.15,9.86,15.02,3.1,14.68,22.82-.34,19.72,5.5,27.63,6.08,35.77,.57,8.14,3.32,6.99-16.74,14.33-20.06,7.34-31.43,28.14-25.01,34.68,6.42,6.54,138.06,138.56,327.92-18.97,12-10.24-13.07-18.42-12.23-32.94s-1.3-18.65-16.66-31.49c-15.36-12.84,1.07-10.01-25.07-17.81-26.14-7.8-29.81-24.23-29.12-28.36,.69-4.13-14.83-10.7-10.55-23.24,4.28-12.54-8.56-6.27-7.95-20.94,.61-14.68,11.77-6.8,13.91-17.81,2.14-11.01,13.07-13.07,24.99-17.43s11.16-.92,18.8,2.37,12.31,.61,15.75,2.9c3.44,2.29,3.97,13.76,32.18,6.88,5.66-1.3,3.75-.69,5.89-7.18,2.14-6.5,11.39-8.48,20.87,.38,4.43,11.31,5.96,8.03,12.99,14.52,7.03,6.5,3.75,10.39,6.11,18.88,2.37,8.48,3.06,11.24,5.73,10.85,2.68-.38-3.82-46.01-5.58-54.88Z"/></clipPath><clipPath id="clippath-1"><path class="cls-6" d="M24.2,321.74c-.8-6.75-3.78-15.73-3.96-22.72-.08-3.07,2.98-8.94-1.61-14.62-2.83-3.51-11.5-2.21-13.55,.96-11.01,16.98,9.78,77.5,17.43,75.52s-2.9-10.24,2.6-21.1,.3-7.84-.92-18.04Z"/></clipPath><clipPath id="clippath-2"><path class="cls-6" d="M335.62,78.11c-37.91,32.41-37.15,83.92-34.85,87.44s11.62,3.06,14.22,0,3.67-60.69,36.69-79.03c56.56,46.32,59.16,6.11,94.47,64.2,5.35-14.68,.92-108.84-62.68-97.07C361.61-2.6,304.28-11.32,255.21,12.23c22.78,9.17,64.66,33.02,80.41,65.89Z"/></clipPath></defs><g id="Layer_1-2"><path class="cls-8" d="M351.51,79.26c52.91,27.29,78.99,55.85,90.26,99.12s-156.36,16.44-156.36,16.44l45.63-118.32,20.47,2.75Z"/><path class="cls-8" d="M396.62,396.15c42.65-38.52,60.98-112.64,55.83-152.24s-29.92-45.87-50.78-39.45-71.31-5.96-83.24-3.44-50.22,57.55-50.22,57.55l128.41,137.58Z"/><path class="cls-8" d="M94.57,73.8C61.07,104.56,11.24,145.83,2.96,220.62c-8.8,79.55-1.02,140.3,65.18,195.5l140.12-55.2,18.06-287.11H94.57Z"/><g><g class="cls-5"><path class="cls-7" d="M433.86,346.17c.68-6.66,.14-13.34-2.48-19.55-5.05-11.96-16.01-19.13-29.03-19.35-10.96-.18-22.53,6.45-32.55,10.33-9.16,3.55-18.51,6.58-27.95,9.28-20.78,5.93-42,11.84-63.4,15.18-13.83,1.47-27.54,.99-41.35-.65-21.97-3.04-43.96-6.51-65.86-10-23.65-3.77-46.03-10.45-68.55-18.46-7.84-2.79-17.09-.48-24.19,4.67-1.24-.27-2.52-.49-3.82-.64-.85-.16-1.7-.33-2.54-.51-1.48,18.51-5.2,36.82-6.14,55.4,2.14,.33,4.31,.63,6.51,.86-2.42,.79-4.75,1.89-6.84,3.25-.52,1.75-2.02,2.72-3.62,2.91-.19,.19-.39,.38-.57,.58-9.26,10.09-12.28,29.92,0,39.6,11.28,8.89,22.83,16.47,35.89,22.5,1.37,.63,2.76,1.25,4.14,1.87-.2,.52-.4,1.04-.59,1.56-2.84,7.92-2.6,16.24-1.06,24.4,2.68,14.15,21.03,24.3,34.44,19.56,8.38-2.96,16.97-4.97,25.71-6.37,14.8-1.7,29.7-2.05,44.58-2.8,.35-.02,.7-.04,1.05-.06,2.58,.77,5.16,1.54,7.74,2.3,14.97,4.41,30.48,10.54,46.28,8.42,3.53-.47,6.76-1.04,10.1-2.28,3.3-1.22,6.56-2.75,9.79-4.08,4.52-1.87-1.78,.9-1.99,.86,1.84,.35,6.25-2.31,8.21-2.94,3.32-1.08,6.68-2.03,10.06-2.91,25.1-6.56,50.1-10.25,73.42-22.45,6.09-3.19,11.95-6.79,17.93-10.16,2.98-1.68,5.99-3.31,9.07-4.81,1-.49,2.14-.89,3.09-1.44-.27,.15-.51,.29-.74,.42,.13-.05,.26-.1,.38-.15,11.05-3.92,21.34-8.06,27.73-18.61,7.69-12.69,6.25-30.59-4.62-41.02,.16-.25,.34-.49,.5-.74,6.58-10.31,10.04-21.89,11.28-33.96Z"/><path class="cls-2" d="M500.74,253.16c-.66-14.72-12.32-28.56-28-28-29.2,1.05-58.04-3.94-87.04-6.36-14.27-1.2-28.65-1.74-42.94-.55-7.02,.59-13.98,1.77-21,2.39-7.75,.68-15.35,.24-23.06-.76,2.48,.33,4.96,.67,7.44,1-18.61-2.56-36.95-4.54-55.7-5.68-15.7-.95-31.36-2.45-46.96-4.42-12.85-1.79-25.65-3.89-38.39-6.37-6.95-1.35-13.88-2.81-20.78-4.37-.59-.13-1.18-.27-1.77-.4-2.32-4.31-5.76-7.99-10.22-10.35-13.13-6.94-29.41-3.61-37.64,8.97-3.94-.43-7.88-.84-11.84-1.19-14.88-1.32-29.56,.51-41.06,10.99-3.94,3.59-7.12,8.03-9.46,12.91-7.14-1.41-14.36-2.36-21.55-2.8-17.71-1.08-36.81,3.5-49.87,16.07-11.4,10.96-17.4,28.34-8.89,42.89,6.82,11.65,21.16,15.86,32.87,20.76,8.44,3.53,17.03,6.74,25.98,8.73,10.54,2.34,21.36,3.31,32.09,4.57,13.59,2.19,26.68,6.27,40.09,9.38,8.97,2.08,18.17,3.56,27.36,4.17,6.07,.4,12.14,.25,18.19,.68,7.25,1.54,14.15,4.16,21.18,6.53,8.26,2.79,16.72,4.94,25.29,6.54,19.13,3.57,38.6,5.17,58.04,5.4,38.07,.46,76.14-4.01,113.57-10.69,10.97-1.96,22.41-3.47,32.18-9.26,15.29-9.07,23.93-27.73,18.83-45.1-.3-1.03-.67-2.03-1.09-3.01,25.34,2.56,50.6,6.27,76.15,5.35,14.62-.52,28.69-12.5,28-28Zm-454.45,30.23c.51,.23,1.03,.43,1.54,.59,.04,.02,.09,.04,.13,.06-4.55-1.07-3.35-1.13-1.67-.65Z"/><path class="cls-3" d="M461.12,171.6c-3.62-2.15-7.46-3.56-11.42-4.52-6.51-8.72-17.12-14.6-26.5-19.63-10.82-5.81-22.05-12.78-34.25-15.01-.73-4.61-2.04-9.13-3.8-13.41-1.67-4.06-3.36-8.37-5.29-12.44-.22-.43-.49-.97-.73-1.51-.27-.53-.54-1.06-.81-1.58,0,0,0,0,0,0,.25,.46,.47,.88,.67,1.26-.18-.42-.34-.83-.46-1.17-.12-.37-.2-.74-.31-1.1-.06-.69-.13-1.38-.21-2.07-.97-7.71-2.48-14.08-8.2-19.8-4.86-4.86-12.82-8.51-19.8-8.2-1.36,.06-2.69,.21-3.98,.43-3.24-2.13-7.05-3.59-11.46-4.19-.5-.07-.99-.12-1.48-.16-1.49-3.45-3.55-6.65-6.12-9.39-1.84-1.96-3.82-3.6-5.9-4.96-3.03-6.79-7.72-11.83-14.92-14.86-6.76-2.85-14.81-3.32-21.66-.33-6.61-8.03-16.01-13.54-26.17-16.01-18.08-4.4-37.63-1.32-55.94-.25-19.17,1.12-38.35,2.24-57.52,3.37-9.26,.54-18.31,5.34-23.52,12.78-23.9,1.14-47.52,8.25-68.37,19.84-10.39,5.78-16.6,20.1-12.87,31.62,3.58,11.07,14.49,21.6,27,20.56,.18-.02,.37-.03,.55-.05,.02,.18,.03,.36,.06,.54,.84,6.25,3.42,11.48,7.52,15.71-10.7,3.46-18.48,11.97-20,23.26-1.49,11.12,3.68,22.02,13.37,27.9,13.56,8.23,29.54,10.06,45.43,9.31,2.39,9.34,9.61,16.85,19.46,20.03,15.93,5.16,32.91,7.94,49.79,8.04,6.75,1.48,13.53,2.84,20.4,3.77,10.13,1.36,20,1.72,30.2,1.33,8.85-.34,17.67-.74,26.5,.07,14.67,2.38,29.05,5.97,44.08,5.73,14.93-.24,29.66-3,44.48-4.52,9.4-.96,18.84-1.49,28.29-1.73,3.81,2.01,8.12,3.14,12.69,3.08,7.52-.1,15,.25,22.46,1.05,11.06,1.77,21.89,4.52,32.47,8.3,8.26,2.95,17.8,.1,24.41-5.01,7.46-5.77,10.03-12.85,11.03-21.99,1.51-13.65-7.83-27.34-19.14-34.07Z"/></g><g class="cls-4"><path class="cls-2" d="M38.99,282.04c-.68-15.17-12.3-28-28-28-14.65,0-28.68,12.88-28,28,.68,15.17,12.3,28,28,28,14.65,0,28.68-12.88,28-28Z"/><path class="cls-7" d="M58.56,370.27c1.1-18.76,4.91-37.27,6.22-56-9.64-2.93-18.93-7-28.36-10.62-6.93-2.65-13.99-5.08-21.29-6.46-13.23-2.5-27.56-4.44-38.99,4.39-8.29,6.4-11.47,15.52-11.5,25.82-.01,4.32,.1,8.65,.16,12.97,.18,13.47,2.59,25.71,11.6,36.14,6.41,7.43,16.03,12.36,25.47,14.72,8.71,2.18,18.87,3.92,27.85,2.9,7.66-.87,14.14-2.54,19.8-8.2,3.97-3.97,7.13-10.01,7.99-15.9,.35,.08,.71,.15,1.06,.23Zm-43.35-33.45c-.09-.04-.18-.09-.26-.13-1.05-.5-1.3-.54-1.11-.33-1.54-.7-.77-1.31,2.14,.67-.26-.07-.51-.14-.77-.21Z"/></g></g><g class="cls-1"><path class="cls-3" d="M456.62,149.9c-2.42-7.27-4.44-14.62-6.32-21.99,1.52-1.02,2.54-2.88,2.12-5.3-1.01-5.89-1.8-11.79-2.38-17.74-.21-2.16-1.5-3.58-3.09-4.28-1.77-11.25-6.47-21.36-13.45-30.33-1.13-1.46-2.5-1.87-3.8-1.64-.4-.78-.84-1.51-1.29-2.17-.96-1.4-2.41-2.17-3.88-2.32-.79-1.3-1.76-2.51-2.98-3.62-.45-.41-.93-.72-1.43-.95-.68-1.3-1.53-2.51-2.58-3.61-1.33-1.4-3.43-1.72-5.2-1.15-1.16-1.23-2.5-2.27-4.08-3.01-2.03-.94-4.18-.74-5.69,.5-.14-.04-.28-.07-.42-.1-1.66-2.05-3.63-3.6-5.99-4.1-1.92-.41-3.85,.36-5.08,1.7-1.37-.88-2.86-1.58-4.22-2.14-.23-.09-.46-.15-.69-.2,0-.02-.01-.04-.02-.06-1.14-2.45-2.28-4.9-3.41-7.34-.56-1.21-1.39-1.92-2.33-2.27-10.43-15.94-24.43-29.53-42.13-37.18-10.44-4.51-21.58-6.65-32.96-6.29-13.17,.41-26.11,3.4-39.26,4.08-2.55,.13-4.08,1.79-4.61,3.72-4.46-1.11-7.89,6.1-3.33,9.46,8.7,6.41,20.56,4.24,30.11,3.06,2.15-.27,4.32-.45,6.49-.6,.31,1.72,1.42,.22,3.47,.58,14.99,2.63,30.6,5.25,43.67,13.54,5.56,3.53,10.64,8.11,14.11,13.75,3.66,5.94,5.03,12.95,9.12,18.66,2.36,3.3,8.02,3.29,9.14-1.19,.14-.55,.27-1.1,.4-1.64,2.24,1.14,5.11,.79,6.53-1.8,.04-.07,.07-.14,.1-.21,.21,.78,.38,1.39,.35,1.48-.35,.98-4.72,3.97-5.77,4.93-2.95,2.66-4.92,8.31-2.17,9.75,.21,2.21,5.02,2.29,7.04,3.62,7.82,5.17,18.43,1.91,26.98,4.56,.58,.16,1.13,.22,1.64,.2,.28,1.16,.92,2.24,1.97,3,2.07,1.5,1.84,3.16,4.72,4.11,2.79,2.04,5.25,4.53,7.35,7.29,2.92,3.83,4.62,8.6,7.53,12.39,.47,1.83,.95,3.65,1.43,5.48,.94,5.65,5.1,11.26,6.53,16.83,.28,1.1,.8,1.93,1.44,2.51l1.54,6.54c.28,1.2,.86,2.07,1.59,2.66,1.09,3.86,2.25,7.7,3.52,11.53,2.02,6.08,11.68,3.47,9.64-2.66Z"/><path class="cls-2" d="M447.06,153.93c-3.51-14.59-6.29-30.2-12.95-43.65-.98-1.98-1.65-4.69-3.29-4.52-2.2-3.36-4.74-6.47-7.78-9.22,.04-1.26-1.34-.59-2.22-1.72-4.29-5.5-10.11-9.12-16.18-12.34-.87-.49-1.76-.96-2.67-1.39-2.88-1.36-5.59,.06-6.85,2.19-1.87-.78-3.74-1.54-5.59-2.28-1.22-.48-2.45-.94-3.7-1.39-7.58-4.74-14.79-9.88-23.2-13.12,.4-4.08-1.54-8.63-3.15-12.1-2.54-5.47-5.51-10.95-9.39-15.6-4.06-4.86-9.4-8.26-14.86-11.36-11.7-6.64-23.47-10.54-36.83-12.1-13.43-1.56-20.11-2.5-41.69-3.79-6.42-.38-6.55,4.24-.66,6.64,3.39,1.38,6.85,2.41,10.37,3.21,.27,1.12,.99,2.17,2.3,2.92,20.94,12.05,42.09,24.42,57.68,43.28,1,1.21,2.16,1.71,3.28,1.7,.48,.57,1.11,1.04,1.81,1.37,.16,1.26,.89,2.28,1.9,2.97-.03,.17-.06,.34-.09,.51-.11,.72-.09,1.39,.02,2.01-9.04,9.43-16.48,20.34-22.4,32.11-4.67,9.28-8.89,19.12-11.17,29.28-2.03,9.04-3.81,21.31,1.67,29.5,3.56,5.32,12.22,.32,8.63-5.05-4.02-6.02-2.36-15.64-.4-23.05,1.59-.28,2.96-1.38,3.33-3.54,2.17-12.59,8.66-23.4,16.32-33.43,4.22-5.52,8.61-10.93,13.04-16.31,1.78,1.08,4.27,1.12,6.07-.27,12.32,14.46,29.2,23.67,47.75,26.9,5.83,2.72,11.64,5.48,17.31,8.51,2.1,1.12,4.07,.71,5.45-.42,2.17,2.04,4.37,4.05,6.59,6.05,1.07,.97,2.22,1.4,3.3,1.44,3.74,9.4,5.32,20.09,11.47,28.35,3.26,4.37,8.16,3.53,6.75-2.32Z"/><path class="cls-7" d="M432.8,107.23c-6.68-11.27-9.64-20.52-26.04-28.55-5.84-2.86-7.42-3.08-13.79-4.25s-14.11-.85-18.07-6.46c3.11-2.39,6.25-4.69,9.39-6.91,5.21-3.69,.22-12.37-5.05-8.63-3.97,2.82-7.94,5.76-11.86,8.81-4.28-7.11-7.13-14.57-12.55-21.13-5.49-6.65-11.71-13.43-19.64-16.76-16.21-6.81-36.25-10.04-55.53-10.68-6.44-.21-6.43,.79,0,1,17.56,.58,45.08,12.01,58.55,22.26,7.03,5.35,17.1,24.95,21.34,31.66-35.86,18.48-53.88,56.56-52.85,96.77,.16,6.42,10.16,6.45,10,0-.96-37.57,20.29-71.56,50.37-90.14,7.88,10.46,21.2,8.32,32.81,11.46,13.64,3.69,26.66,15.18,34.27,26.6,3.55,5.32,1.9,.47-1.37-5.05Z"/></g></g></svg>