<?xml version="1.0" encoding="UTF-8"?><svg id="Layer_2" xmlns="http://www.w3.org/2000/svg" xmlns:xlink="http://www.w3.org/1999/xlink" viewBox="0 0 559.13 227.81"><defs><style>.cls-1{fill:#d7ebce;}.cls-1,.cls-2,.cls-3,.cls-4,.cls-5,.cls-6,.cls-7,.cls-8,.cls-9,.cls-10,.cls-11,.cls-12,.cls-13,.cls-14,.cls-15,.cls-16,.cls-17,.cls-18,.cls-19,.cls-20,.cls-21{stroke-width:0px;}.cls-2{fill:url(#linear-gradient);}.cls-3{fill:#21582c;}.cls-4{fill:#71c063;}.cls-5{fill:#60bb46;}.cls-6{fill:#a7d597;}.cls-22{stroke:#44b652;}.cls-22,.cls-23{fill:#fff;stroke-miterlimit:10;stroke-width:2px;}.cls-7{fill:#64bc46;}.cls-8{fill:#a3d397;}.cls-9{fill:#ccd3b9;}.cls-10{fill:url(#linear-gradient-2);}.cls-11{fill:#26b34b;}.cls-12{fill:url(#linear-gradient-3);}.cls-13{fill:#94cf99;}.cls-14{fill:#24b34b;}.cls-15{fill:#9bcf7f;}.cls-16{fill:#88c543;}.cls-17{fill:#a1d080;}.cls-23{stroke:#46b64a;}.cls-18{fill:#daeccf;}.cls-19{fill:#82c342;}.cls-20{fill:#70c16b;}.cls-21{fill:#1f592d;}</style><linearGradient id="linear-gradient" x1="208.01" y1="152.71" x2="381.56" y2="152.71" gradientUnits="userSpaceOnUse"><stop offset="0" stop-color="#72bf44"/><stop offset="1" stop-color="#aad044"/></linearGradient><linearGradient id="linear-gradient-2" x1="198.44" y1="154.22" x2="198.44" y2="75.01" gradientUnits="userSpaceOnUse"><stop offset="0" stop-color="#72bf44"/><stop offset=".26" stop-color="#7ac144"/><stop offset=".68" stop-color="#92c844"/><stop offset="1" stop-color="#aad044"/></linearGradient><linearGradient id="linear-gradient-3" x1="355.66" y1="134.97" x2="388.68" y2="134.97" xlink:href="#linear-gradient"/></defs><g id="_1_Stars"><polygon id="Left_Wing" class="cls-17" points="149.31 43.42 182.66 204.77 24.22 193.08 7.51 55.73 149.31 43.42"/><polygon class="cls-4" points="148.08 125.86 163.19 203.34 93.58 198.2 148.08 125.86"/><polyline class="cls-18" points="7.51 55.73 9.28 64.67 140.42 53.1 171.94 203.98 182.66 204.77 149.31 43.42 7.51 55.73"/><polygon class="cls-14" points="24.22 193.08 7.51 55.73 0 63.71 16.24 197.75 178.8 209.61 182.66 204.77 24.22 193.08"/><polygon class="cls-23" points="105.79 138.07 145.24 125.86 105.79 113.64 93.58 74.2 81.36 113.64 41.92 125.86 81.36 138.07 93.58 177.52 105.79 138.07"/><polygon class="cls-7" points="93.58 173.66 93.58 125.86 145.24 125.86 105.79 137.16 93.58 173.66"/><polygon class="cls-6" points="93.58 173.58 93.58 125.77 41.92 125.77 81.36 137.07 93.58 173.58"/><polygon class="cls-16" points="93.58 78.14 93.58 125.95 145.24 125.95 105.79 114.64 93.58 78.14"/><polygon id="Left_Wing-2" class="cls-15" points="409.83 49.57 376.47 210.93 534.92 199.24 551.62 61.88 409.83 49.57"/><polygon class="cls-20" points="411.06 132.01 395.94 209.49 465.56 204.36 411.06 132.01"/><polyline class="cls-1" points="551.62 61.88 549.86 70.83 418.72 59.25 387.19 210.14 376.47 210.93 409.83 49.57 551.62 61.88"/><polygon class="cls-11" points="534.92 199.24 551.62 61.88 559.13 69.86 542.9 203.91 380.33 215.77 376.47 210.93 534.92 199.24"/><polygon class="cls-22" points="453.34 144.23 413.9 132.01 453.34 119.8 465.56 80.35 477.77 119.8 517.22 132.01 477.77 144.23 465.56 183.67 453.34 144.23"/><polygon class="cls-5" points="465.56 179.82 465.56 132.01 413.9 132.01 453.34 143.32 465.56 179.82"/><polygon class="cls-8" points="465.56 179.73 465.56 131.93 517.22 131.93 477.77 143.23 465.56 179.73"/><polygon class="cls-19" points="465.56 84.3 465.56 132.1 413.9 132.1 453.34 120.8 465.56 84.3"/></g><g id="Layer_4"><circle class="cls-13" cx="281.68" cy="113.91" r="113.91"/><polygon class="cls-3" points="217.47 131.09 257.39 84.56 330.64 84.56 371.22 131.09 290.05 131.09 258.71 94.13 227.37 131.09 217.47 131.09"/><path class="cls-9" d="M229.35,153.52v-24.77l29.36-34.62,31.34,36.95h56.13v22.44s-13.35,3.63-44.59-7.59c-9.24-3.52-37.83-8.03-51.14.33-13.31,8.36-21.12,7.26-21.12,7.26Z"/><path class="cls-2" d="M208.01,149.73s24.2,10.39,42.45-3.47c11.55-6.93,39.37-4.87,51.14-.33,10.25,3.36,33.19,9.9,44.59,7.59s30.53-5.48,35.37.56c-7.92,1.09-20.02,1.53-31.01,7.58-6.71,2.64-35.52,3.17-47.51-1.65-8.14-2.31-33.54-8.91-49.49-1.65-6.93,4.07-41.79,8.36-45.53-8.63Z"/><rect class="cls-21" x="252.22" y="116.46" width="12.21" height="15.51"/><path class="cls-10" d="M222.2,149.73s-16.28-18.09-16.5-60.21c5.72.55,12.87-6.71,13.53-17.6-3.96-.44-17.82,5.72-16.17,30.02,0,0-9.57-15.18-28.37-7.81,6.71,8.58,16.72,22.1,29.03,18.64-.11,4.57,7.64,38,15.67,38.33,2.89-.27,2.8-1.37,2.8-1.37Z"/><path class="cls-12" d="M367.7,150.62s7.15-9.65,13.85-8.85c2.8-1.06,10.67-10.74,5.28-22.46-2.03,3.68-10.17,19.85-12.87,20.13-2.2-1.15-11.6-9.24-18.31,1.48.77,2.53,4.95,2.69,12.04,1.81,1.15.99,5.28-.08-4.95,7.88h4.95Z"/></g></svg>