<?xml version="1.0" encoding="UTF-8"?><svg id="Layer_2" xmlns="http://www.w3.org/2000/svg" xmlns:xlink="http://www.w3.org/1999/xlink" viewBox="0 0 983.34 227.81"><defs><style>.cls-1{fill:#a2d180;}.cls-1,.cls-2,.cls-3,.cls-4,.cls-5,.cls-6,.cls-7,.cls-8,.cls-9,.cls-10,.cls-11,.cls-12,.cls-13,.cls-14,.cls-15,.cls-16,.cls-17{stroke-width:0px;}.cls-18{fill:#fff;stroke:#46b649;stroke-miterlimit:10;stroke-width:2px;}.cls-2{fill:url(#linear-gradient);}.cls-3{fill:#21582c;}.cls-4{fill:#72c060;}.cls-5{fill:#a8d597;}.cls-6{fill:#dbeccf;}.cls-7{fill:#71c061;}.cls-8{fill:url(#linear-gradient-2);}.cls-9{fill:#8ac644;}.cls-10{fill:#a3d180;}.cls-11{fill:#8ac645;}.cls-12{fill:#94cf99;}.cls-13{fill:#24b34b;}.cls-14{fill:#daeccf;}.cls-15{fill:#65bc46;}.cls-16{fill:#a9d597;}.cls-17{fill:#1f592d;}</style><linearGradient id="linear-gradient" x1="412.11" y1="146.45" x2="585.65" y2="146.45" gradientUnits="userSpaceOnUse"><stop offset="0" stop-color="#72bf44"/><stop offset="1" stop-color="#aad044"/></linearGradient><linearGradient id="linear-gradient-2" x1="402.54" y1="147.96" x2="402.54" y2="68.76" gradientUnits="userSpaceOnUse"><stop offset="0" stop-color="#72bf44"/><stop offset=".26" stop-color="#7ac144"/><stop offset=".68" stop-color="#92c844"/><stop offset="1" stop-color="#aad044"/></linearGradient></defs><g id="_3_Stars"><polygon id="Left_Wing" class="cls-1" points="360.74 41.47 394.1 202.83 26.59 175.71 6.25 72.25 360.74 41.47"/><polygon class="cls-7" points="359.52 123.91 374.63 201.39 115.92 182.3 359.52 123.91"/><polyline class="cls-14" points="6.25 72.25 8.07 81.5 351.86 51.15 383.38 202.03 394.1 202.83 360.74 41.47 6.25 72.25"/><polygon class="cls-13" points="26.59 175.71 6.25 72.25 0 79.8 20.03 180.66 390.24 207.66 394.1 202.83 26.59 175.71"/><polygon class="cls-18" points="317.23 136.13 356.68 123.91 317.23 111.69 305.02 72.25 292.8 111.69 253.35 123.91 292.8 136.13 305.02 175.57 317.23 136.13"/><polygon class="cls-15" points="305.02 171.72 305.02 123.91 356.68 123.91 317.23 135.22 305.02 171.72"/><polygon class="cls-5" points="305.02 171.63 305.02 123.82 253.35 123.82 292.8 135.13 305.02 171.63"/><polygon class="cls-9" points="305.02 76.19 305.02 124 356.68 124 317.23 112.69 305.02 76.19"/><polygon class="cls-18" points="203.49 134.86 238.55 124 203.49 113.14 192.64 78.08 181.78 113.14 146.72 124 181.78 134.86 192.64 169.91 203.49 134.86"/><polygon class="cls-15" points="192.64 166.49 192.64 124 238.55 124 203.49 134.05 192.64 166.49"/><polygon class="cls-5" points="192.64 166.41 192.64 123.92 146.72 123.92 181.78 133.97 192.64 166.41"/><polygon class="cls-9" points="192.64 81.59 192.64 124.08 238.55 124.08 203.49 114.03 192.64 81.59"/><polygon class="cls-18" points="106.04 132.75 134.85 123.82 106.04 114.9 97.11 86.08 88.19 114.9 59.37 123.82 88.19 132.75 97.11 161.56 106.04 132.75"/><polygon class="cls-15" points="97.11 158.74 97.11 123.82 134.85 123.82 106.04 132.08 97.11 158.74"/><polygon class="cls-5" points="97.11 158.68 97.11 123.76 59.37 123.76 88.19 132.02 97.11 158.68"/><polygon class="cls-9" points="97.11 88.96 97.11 123.89 134.85 123.89 106.04 115.63 97.11 88.96"/><polygon id="Left_Wing-2" class="cls-10" points="622.59 52.89 589.24 214.24 956.74 187.13 977.08 83.67 622.59 52.89"/><polygon class="cls-4" points="623.82 135.33 608.7 212.81 867.42 193.72 623.82 135.33"/><polyline class="cls-6" points="977.08 83.67 975.26 92.92 631.48 62.57 599.95 213.45 589.24 214.24 622.59 52.89 977.08 83.67"/><polygon class="cls-13" points="956.74 187.13 977.08 83.67 983.34 91.22 963.31 192.08 593.1 219.08 589.24 214.24 956.74 187.13"/><polygon class="cls-18" points="666.11 147.55 626.66 135.33 666.11 123.11 678.32 83.67 690.54 123.11 729.98 135.33 690.54 147.55 678.32 186.99 666.11 147.55"/><polygon class="cls-15" points="678.32 183.14 678.32 135.33 626.66 135.33 666.11 146.63 678.32 183.14"/><polygon class="cls-16" points="678.32 183.05 678.32 135.24 729.98 135.24 690.54 146.55 678.32 183.05"/><polygon class="cls-11" points="678.32 87.61 678.32 135.42 626.66 135.42 666.11 124.11 678.32 87.61"/><polygon class="cls-18" points="779.84 146.28 744.79 135.42 779.84 124.56 790.7 89.5 801.56 124.56 836.62 135.42 801.56 146.28 790.7 181.33 779.84 146.28"/><polygon class="cls-15" points="790.7 177.91 790.7 135.42 744.79 135.42 779.84 145.47 790.7 177.91"/><polygon class="cls-16" points="790.7 177.83 790.7 135.34 836.62 135.34 801.56 145.39 790.7 177.83"/><polygon class="cls-11" points="790.7 93.01 790.7 135.5 744.79 135.5 779.84 125.45 790.7 93.01"/><polygon class="cls-18" points="877.3 144.16 848.49 135.24 877.3 126.32 886.22 97.5 895.15 126.32 923.96 135.24 895.15 144.16 886.22 172.98 877.3 144.16"/><polygon class="cls-15" points="886.22 170.16 886.22 135.24 848.49 135.24 877.3 143.5 886.22 170.16"/><polygon class="cls-16" points="886.22 170.1 886.22 135.18 923.96 135.18 895.15 143.43 886.22 170.1"/><polygon class="cls-11" points="886.22 100.38 886.22 135.31 848.49 135.31 877.3 127.05 886.22 100.38"/></g><g id="Layer_6"><circle class="cls-12" cx="492.69" cy="113.91" r="113.91"/><polygon class="cls-3" points="421.57 124.83 461.49 78.31 534.73 78.31 575.32 124.83 494.15 124.83 462.81 87.88 431.46 124.83 421.57 124.83"/><path class="cls-2" d="M412.11,143.47s24.2,10.39,42.45-3.47c11.55-6.93,39.37-4.87,51.14-.33,10.25,3.36,33.19,9.9,44.59,7.59s30.53-5.48,35.37.56c-7.92,1.09-20.02,1.53-31.01,7.58-6.71,2.64-35.52,3.17-47.51-1.65-8.14-2.31-33.54-8.91-49.49-1.65-6.93,4.07-41.79,8.36-45.53-8.63Z"/><rect class="cls-17" x="456.32" y="110.2" width="12.21" height="15.51"/><path class="cls-8" d="M426.29,143.47s-16.28-18.09-16.5-60.21c5.72.55,12.87-6.71,13.53-17.6-3.96-.44-17.82,5.72-16.17,30.02,0,0-9.57-15.18-28.37-7.81,6.71,8.58,16.72,22.1,29.03,18.64-.11,4.57,7.64,38,15.67,38.33,2.89-.27,2.8-1.37,2.8-1.37Z"/></g></svg>