<?xml version="1.0" encoding="UTF-8"?><svg id="Layer_2" xmlns="http://www.w3.org/2000/svg" xmlns:xlink="http://www.w3.org/1999/xlink" viewBox="0 0 770.45 227.81"><defs><style>.cls-1{fill:#71c167;}.cls-1,.cls-2,.cls-3,.cls-4,.cls-5,.cls-6,.cls-7,.cls-8,.cls-9,.cls-10,.cls-11,.cls-12,.cls-13,.cls-14,.cls-15,.cls-16,.cls-17,.cls-18,.cls-19,.cls-20,.cls-21{stroke-width:0px;}.cls-22{stroke:#46b649;}.cls-22,.cls-23{fill:#fff;stroke-miterlimit:10;stroke-width:2px;}.cls-2{fill:url(#linear-gradient);}.cls-3{fill:#21582c;}.cls-4{fill:#72c060;}.cls-5{fill:#dbeccf;}.cls-6{fill:#a5d497;}.cls-7{fill:#8bc645;}.cls-8{fill:#ccd3b9;}.cls-9{fill:url(#linear-gradient-2);}.cls-10{fill:#25b34b;}.cls-11{fill:url(#linear-gradient-3);}.cls-12{fill:#a3d180;}.cls-13{fill:#85c443;}.cls-14{fill:#94cf99;}.cls-15{fill:#24b34b;}.cls-16{fill:#d8ebcf;}.cls-17{fill:#9dcf80;}.cls-18{fill:#61bb46;}.cls-19{fill:#65bc46;}.cls-20{fill:#a9d597;}.cls-23{stroke:#45b64e;}.cls-21{fill:#1f592d;}</style><linearGradient id="linear-gradient" x1="310.97" y1="149.96" x2="484.52" y2="149.96" gradientUnits="userSpaceOnUse"><stop offset="0" stop-color="#72bf44"/><stop offset="1" stop-color="#aad044"/></linearGradient><linearGradient id="linear-gradient-2" x1="301.41" y1="151.47" x2="301.41" y2="72.27" gradientUnits="userSpaceOnUse"><stop offset="0" stop-color="#72bf44"/><stop offset=".26" stop-color="#7ac144"/><stop offset=".68" stop-color="#92c844"/><stop offset="1" stop-color="#aad044"/></linearGradient><linearGradient id="linear-gradient-3" x1="458.62" y1="132.22" x2="491.64" y2="132.22" xlink:href="#linear-gradient"/></defs><g id="_2_Stars"><polygon id="Left_Wing" class="cls-17" points="252.7 31.34 286.06 192.7 34 174.1 7.88 52.6 252.7 31.34"/><polygon class="cls-1" points="251.47 113.79 266.59 191.26 73.07 176.98 251.47 113.79"/><polyline class="cls-16" points="7.88 52.6 10.12 61.66 243.81 41.02 275.34 191.91 286.06 192.7 252.7 31.34 7.88 52.6"/><polygon class="cls-10" points="34 174.1 7.88 52.6 0 58.86 26.01 178.85 282.2 197.54 286.06 192.7 34 174.1"/><polygon class="cls-23" points="209.19 126 248.63 113.79 209.19 101.57 196.97 62.12 184.76 101.57 145.31 113.79 184.76 126 196.97 165.45 209.19 126"/><polygon class="cls-18" points="196.97 161.59 196.97 113.79 248.63 113.79 209.19 125.09 196.97 161.59"/><polygon class="cls-6" points="196.97 161.5 196.97 113.7 145.31 113.7 184.76 125 196.97 161.5"/><polygon class="cls-13" points="196.97 66.07 196.97 113.87 248.63 113.87 209.19 102.57 196.97 66.07"/><polygon class="cls-23" points="95.45 124.73 130.5 113.87 95.45 103.02 84.59 67.96 73.73 103.02 38.68 113.87 73.73 124.73 84.59 159.79 95.45 124.73"/><polygon class="cls-18" points="84.59 156.36 84.59 113.87 130.5 113.87 95.45 123.92 84.59 156.36"/><polygon class="cls-6" points="84.59 156.28 84.59 113.8 38.68 113.8 73.73 123.84 84.59 156.28"/><polygon class="cls-13" points="84.59 71.46 84.59 113.95 130.5 113.95 95.45 103.91 84.59 71.46"/><polygon id="Left_Wing-2" class="cls-12" points="517.75 41.97 484.4 203.33 736.45 184.73 762.58 63.23 517.75 41.97"/><polygon class="cls-4" points="518.98 124.41 503.86 201.89 697.38 187.61 518.98 124.41"/><polyline class="cls-5" points="762.58 63.23 760.33 72.29 526.64 51.65 495.11 202.54 484.4 203.33 517.75 41.97 762.58 63.23"/><polygon class="cls-15" points="736.45 184.73 762.58 63.23 770.45 69.49 744.45 189.48 488.25 208.17 484.4 203.33 736.45 184.73"/><polygon class="cls-22" points="561.26 136.63 521.82 124.41 561.26 112.2 573.48 72.75 585.7 112.2 625.14 124.41 585.7 136.63 573.48 176.08 561.26 136.63"/><polygon class="cls-19" points="573.48 172.22 573.48 124.41 521.82 124.41 561.26 135.72 573.48 172.22"/><polygon class="cls-20" points="573.48 172.13 573.48 124.33 625.14 124.33 585.7 135.63 573.48 172.13"/><polygon class="cls-7" points="573.48 76.7 573.48 124.5 521.82 124.5 561.26 113.2 573.48 76.7"/><polygon class="cls-22" points="675 135.36 639.95 124.5 675 113.65 685.86 78.59 696.72 113.65 731.78 124.5 696.72 135.36 685.86 170.42 675 135.36"/><polygon class="cls-19" points="685.86 166.99 685.86 124.5 639.95 124.5 675 134.55 685.86 166.99"/><polygon class="cls-20" points="685.86 166.91 685.86 124.42 731.78 124.42 696.72 134.47 685.86 166.91"/><polygon class="cls-7" points="685.86 82.09 685.86 124.58 639.95 124.58 675 114.53 685.86 82.09"/></g><g id="Layer_5"><circle class="cls-14" cx="387.27" cy="113.91" r="113.91"/><polygon class="cls-3" points="320.43 128.34 360.35 81.82 433.6 81.82 474.18 128.34 393.02 128.34 361.67 91.38 330.33 128.34 320.43 128.34"/><path class="cls-8" d="M332.31,150.77v-24.77l29.36-34.62,31.34,36.95h56.13v22.44s-13.35,3.63-44.59-7.59c-9.24-3.52-37.83-8.03-51.14.33s-21.12,7.26-21.12,7.26Z"/><path class="cls-2" d="M310.97,146.98s24.2,10.39,42.45-3.47c11.55-6.93,39.37-4.87,51.14-.33,10.25,3.36,33.19,9.9,44.59,7.59,11.39-2.31,30.53-5.48,35.37.56-7.92,1.09-20.02,1.53-31.01,7.58-6.71,2.64-35.52,3.17-47.51-1.65-8.14-2.31-33.54-8.91-49.49-1.65-6.93,4.07-41.79,8.36-45.53-8.63Z"/><rect class="cls-21" x="355.18" y="113.71" width="12.21" height="15.51"/><path class="cls-9" d="M325.16,146.98s-16.28-18.09-16.5-60.21c5.72.55,12.87-6.71,13.53-17.6-3.96-.44-17.82,5.72-16.17,30.02,0,0-9.57-15.18-28.37-7.81,6.71,8.58,16.72,22.1,29.03,18.64-.11,4.57,7.64,38,15.67,38.33,2.89-.27,2.8-1.37,2.8-1.37Z"/><path class="cls-11" d="M470.67,147.87s7.15-9.65,13.85-8.85c2.8-1.06,10.67-10.74,5.28-22.46-2.03,3.68-10.17,19.85-12.87,20.13-2.2-1.15-11.6-9.24-18.31,1.48.77,2.53,4.95,2.69,12.04,1.81,1.15.99,5.28-.08-4.95,7.88h4.95Z"/></g></svg>