<svg xmlns="http://www.w3.org/2000/svg" width="360" height="360" viewBox="0 0 360 360" version="1.1"><path d="M 91 13.335 C 91 13.662, 92.329 15.444, 93.954 17.295 C 96.907 20.659, 96.907 20.659, 91.452 71.079 C 81.922 159.148, 75.836 222.151, 75.760 233.500 C 75.720 239.550, 76.517 265.103, 77.531 290.285 C 79.128 329.941, 79.574 335.994, 80.865 335.498 C 83.073 334.651, 92 338.142, 92 339.853 C 92 341.049, 92.333 341.009, 93.857 339.629 C 95.193 338.420, 95.882 335.949, 96.312 330.820 C 96.641 326.899, 97.380 323.220, 97.955 322.645 C 98.530 322.070, 99 320.790, 99 319.800 C 99 318.810, 99.450 318, 100 318 C 100.550 318, 101 316.200, 101 314 C 101 311.229, 101.432 310, 102.406 310 C 103.320 310, 103.630 310.700, 103.290 312 C 102.997 313.118, 103.259 314, 103.883 314 C 104.498 314, 105 314.627, 105 315.393 C 105 316.159, 105.611 317.020, 106.357 317.307 C 108.017 317.944, 109.197 325.763, 107.977 328.043 C 107.490 328.953, 107.452 331.003, 107.893 332.598 C 108.529 334.903, 109.217 335.464, 111.233 335.327 C 113.287 335.188, 113.676 335.524, 113.266 337.089 C 112.930 338.374, 113.625 339.704, 115.335 341.049 C 118.054 343.188, 117.976 345.608, 115.165 346.283 C 114.249 346.503, 115.525 346.464, 118 346.196 C 122.779 345.679, 130.631 343.189, 127.857 343.070 C 126.150 342.997, 124.698 340.636, 125.727 339.606 C 126.051 339.282, 126.935 339.531, 127.692 340.159 C 129.522 341.678, 133.383 339.649, 134.868 336.390 C 135.467 335.076, 136.382 334, 136.902 334 C 137.422 334, 137.147 332.598, 136.293 330.885 C 134.880 328.053, 134.887 327.460, 136.370 324.351 C 138.675 319.516, 138.443 318.373, 134.629 315.781 C 132.774 314.521, 129.642 311.374, 127.668 308.787 C 124.105 304.120, 124.087 304.046, 125.276 299.042 C 126.473 294, 126.473 294, 202.737 294 C 257.734 294, 279 293.692, 279 292.895 C 279 292.288, 277.860 289.520, 276.466 286.745 C 273.460 280.760, 273.186 277.043, 275.011 267 C 276.619 258.147, 276.549 254.728, 274.660 250 C 270.279 239.029, 270.171 237.053, 273.549 229.674 C 275.330 225.784, 276.025 222.711, 275.858 219.476 C 275.631 215.084, 275.866 214.627, 280.410 210.629 C 285.346 206.286, 285.392 205.341, 280.750 203.687 C 278.921 203.035, 278.375 200.504, 279.865 199.583 C 281.661 198.474, 279.050 188.757, 276.105 185.590 C 275.036 184.440, 273.410 180.575, 272.491 177 C 271.573 173.425, 270.396 169.985, 269.876 169.355 C 269.355 168.726, 269.017 167.826, 269.124 167.355 C 269.230 166.885, 269.044 165.825, 268.709 165 C 268.374 164.175, 262.611 130.200, 255.901 89.500 C 249.192 48.800, 243.432 15.205, 243.101 14.844 C 242.348 14.023, 91 12.521, 91 13.335" stroke="none" fill="#040404" fill-rule="evenodd"/></svg>