<svg xmlns="http://www.w3.org/2000/svg" width="577" height="433" viewBox="0 0 577 433" version="1.1"><path d="M 284.362 42.500 C 284.045 43.325, 284.043 44.670, 284.358 45.490 C 285.164 47.592, 281.229 48.375, 273.164 47.715 C 267.304 47.236, 265.695 47.522, 259.832 50.085 C 254.767 52.299, 251.638 53, 246.812 53 C 239.755 53, 240.160 52.584, 234.013 66.169 C 230.848 73.163, 229.906 73.651, 223.482 71.626 C 220.504 70.687, 217.801 69.487, 217.474 68.958 C 216.368 67.168, 205.767 69.135, 203.077 71.630 C 200.594 73.932, 200.594 73.932, 202.939 78.216 C 204.229 80.572, 207.007 84.825, 209.112 87.667 C 212.564 92.327, 213.005 93.626, 213.612 100.904 C 214.282 108.938, 214.300 108.979, 217.643 110.188 C 221.669 111.644, 221.811 112.423, 218.449 114.626 C 216.665 115.795, 216.214 116.614, 216.949 117.349 C 217.527 117.927, 218 119.351, 218 120.513 C 218 121.675, 219.350 123.919, 221 125.500 C 224.256 128.620, 224.940 132.425, 222.418 133.393 C 217.934 135.114, 209.549 132.544, 206.453 128.500 C 203.742 124.960, 202.248 120, 203.892 120 C 204.501 120, 205 119.377, 205 118.617 C 205 116.664, 200.999 116.135, 195.641 117.378 C 191.575 118.321, 191.135 118.689, 191.644 120.719 C 192.301 123.336, 191.337 123.570, 188.559 121.468 C 187.161 120.411, 183.895 120, 176.891 120 C 163.837 120, 163.640 120.103, 166.602 125.403 C 167.914 127.752, 170.164 130.209, 171.601 130.864 C 173.941 131.930, 174.146 132.441, 173.568 135.777 C 171.878 145.537, 171.906 146.487, 173.977 149.807 C 176.494 153.842, 181.427 156.168, 184.772 154.897 C 188.668 153.415, 191.250 153.865, 194.005 156.505 C 196.419 158.818, 197.437 159.029, 207.261 159.255 C 213.698 159.403, 218.361 159.959, 219.064 160.663 C 219.947 161.547, 219.598 163.197, 217.613 167.534 C 216.176 170.673, 215 174.741, 215 176.574 C 215 185.162, 208.446 189.350, 201.018 185.509 C 198.256 184.081, 198.009 184.145, 195.114 187.040 C 192.058 190.096, 191.490 190.167, 184.750 188.340 C 183.788 188.079, 183 187.146, 183 186.266 C 183 185.386, 182.721 184.945, 182.381 185.286 C 182.040 185.626, 181.108 185.251, 180.310 184.452 C 177.288 181.431, 169 184.080, 169 188.068 C 169 191.300, 166.820 194.828, 164.457 195.421 C 163.196 195.738, 159.677 198.271, 156.636 201.050 C 152.032 205.258, 150.998 206.830, 150.455 210.453 C 149.525 216.653, 150.501 219, 154.008 219 C 157.826 219, 158.393 220.231, 155.986 223.290 C 154.894 224.679, 154 226.269, 154 226.824 C 154 227.379, 152.802 228.706, 151.338 229.773 C 149.481 231.125, 148.878 232.241, 149.346 233.460 C 149.715 234.421, 150.632 234.971, 151.384 234.683 C 152.136 234.394, 152.712 234.685, 152.663 235.329 C 152.431 238.393, 156.358 248.187, 158.329 249.461 C 162.177 251.949, 165.786 252.303, 170.021 250.608 C 172.231 249.724, 175.220 249, 176.661 249 C 179.282 249, 179.282 249, 178.751 257.509 C 178.459 262.189, 178.621 266.266, 179.110 266.568 C 180.844 267.640, 179.968 268.862, 177.750 268.464 C 176.512 268.242, 174.827 268.479, 174.005 268.991 C 172.719 269.791, 172.779 270.118, 174.432 271.327 C 176.319 272.706, 176.314 272.785, 174.178 275.501 C 172.980 277.024, 172 278.884, 172 279.635 C 172 281.669, 175.779 281.284, 178.230 279 C 181.146 276.283, 189.594 276.144, 190.436 278.799 C 190.879 280.194, 191.792 280.506, 194.504 280.189 C 197.778 279.807, 198 279.963, 198.006 282.641 C 198.009 284.213, 198.508 287.291, 199.116 289.480 C 200.221 293.459, 200.221 293.459, 202.134 289.730 C 204.211 285.681, 205.566 285.204, 208.559 287.468 C 211.066 289.365, 215.098 289.393, 217.559 287.532 C 220.840 285.050, 222 285.679, 222 289.941 C 222 292.109, 221.568 294.149, 221.039 294.476 C 219.264 295.573, 209 312.957, 209 314.867 C 209 317.121, 207.538 318.434, 201.803 321.328 C 198.856 322.816, 196.946 324.682, 195.742 327.250 C 193.987 330.994, 193.974 331, 187.742 331.006 C 179.270 331.013, 174.569 332.492, 170.058 336.567 C 165.818 340.397, 164.805 340.675, 163 338.500 C 161.425 336.602, 157.089 336.618, 154.559 338.532 C 153.491 339.339, 150.734 340, 148.431 340 C 143.186 340, 138.847 341.797, 132.654 346.532 C 128.220 349.923, 127.456 350.174, 123.654 349.483 C 121.369 349.068, 117.025 348.677, 114 348.614 C 108.676 348.504, 108.490 348.590, 108.176 351.325 C 107.880 353.915, 108.027 354.056, 109.954 353.024 C 111.110 352.406, 111.861 351.585, 111.623 351.200 C 110.848 349.945, 120.445 351.201, 122.473 352.620 C 125.230 354.549, 129.303 354.339, 131.843 352.137 C 133.024 351.112, 136.131 349.987, 138.746 349.638 C 141.361 349.289, 144.950 348.232, 146.722 347.289 C 149.493 345.815, 150.706 345.735, 155.392 346.718 C 159.844 347.652, 161.815 347.582, 166.170 346.333 C 177.375 343.120, 181.939 342.569, 186.725 343.849 C 190.700 344.912, 191.508 344.850, 193.159 343.356 C 194.447 342.191, 194.722 341.322, 194.024 340.624 C 191.989 338.589, 193.082 336.455, 197.250 334.324 C 199.588 333.130, 202.625 331.858, 204 331.499 C 207.811 330.504, 224.424 323.292, 234.450 318.280 C 245.484 312.764, 253.482 307.759, 257.750 303.699 C 261.091 300.522, 262.071 297, 259.615 297 C 257.681 297, 254.778 292.263, 255.451 290.204 C 255.757 289.267, 257.840 286.587, 260.079 284.250 C 263.423 280.759, 264.807 280, 267.827 280 C 271.197 280, 271.711 279.604, 273.994 275.250 C 276.639 270.206, 289.041 257.391, 292.652 255.971 C 296.513 254.452, 305.663 256.012, 308.099 258.606 C 311.420 262.141, 309.347 263.940, 302.169 263.752 C 295.547 263.578, 291.299 265.786, 290.395 269.873 C 289.229 275.146, 288.923 275.703, 286.483 277.009 C 283.679 278.510, 282.854 284, 285.433 284 C 286.221 284, 287.161 284.932, 287.523 286.072 C 288.293 288.497, 285.344 292.346, 283.313 291.567 C 281.499 290.871, 278.881 291.999, 279.603 293.166 C 280.852 295.187, 284.738 295.764, 290.044 294.716 C 294.836 293.769, 296.244 292.872, 301.609 287.348 C 307.717 281.059, 307.717 281.059, 316.357 282.779 C 323.263 284.155, 324.998 284.851, 324.999 286.250 C 325.001 288.989, 327.364 288.319, 331.347 284.452 C 335.532 280.387, 335.980 278.711, 332.750 279.204 C 331.512 279.393, 330.597 280.053, 330.716 280.671 C 330.841 281.325, 330.114 281.581, 328.977 281.284 C 327.902 281.003, 327.269 280.374, 327.570 279.886 C 327.872 279.399, 327.405 279, 326.534 279 C 325.663 279, 324.512 277.846, 323.975 276.435 C 322.939 273.710, 322.610 266.276, 323.567 267.234 C 323.879 267.546, 326.568 266.946, 329.542 265.901 C 332.517 264.855, 336.705 264, 338.850 264 C 342.629 264, 342.808 264.158, 344.625 269.106 C 346.382 273.892, 346.872 274.363, 352.422 276.607 C 355.680 277.924, 359.139 279.721, 360.109 280.599 C 361.086 281.483, 362.417 281.860, 363.091 281.443 C 363.820 280.993, 364.051 281.108, 363.667 281.729 C 362.365 283.837, 369.330 285.504, 378.434 285.264 C 386.601 285.048, 387.881 285.284, 393.344 288.014 C 400.250 291.465, 408.057 292.049, 411.842 289.398 C 413.100 288.517, 414.389 288.056, 414.707 288.374 C 415.436 289.103, 415.343 293.588, 414.517 297.500 C 413.905 300.401, 414.120 300.616, 421.053 304 C 424.996 305.925, 429.860 308.876, 431.861 310.558 C 441.063 318.289, 444.666 320.227, 450.093 320.366 C 456.231 320.523, 457.461 322.193, 453.098 324.449 C 449.587 326.265, 449.718 327.088, 454.682 334.362 C 456.507 337.036, 458 340.104, 458 341.178 C 458 343.895, 459.810 347, 461.393 347 C 462.121 347, 464.373 349.685, 466.398 352.966 C 471.323 360.945, 472.429 361.498, 471.770 355.650 C 471.259 351.115, 471.314 351, 474 351 C 477.535 351, 478.798 352.596, 479.891 358.444 C 480.922 363.967, 483 366.893, 483 362.822 C 483 359.993, 485.309 357.455, 486.956 358.473 C 487.530 358.828, 488 361.776, 488 365.024 C 488 369.996, 488.331 371.107, 490.096 372.051 C 492.192 373.173, 492.192 373.173, 490.096 375.125 C 487.449 377.592, 487.278 380.364, 489.824 379.556 C 491.264 379.099, 492.158 380.068, 494.074 384.165 C 496.913 390.235, 498.465 392, 500.964 392 C 502.709 392, 502.705 391.845, 500.875 388.256 C 498.259 383.124, 500.080 382.973, 505.244 387.893 C 509.500 391.949, 509.500 391.949, 510.174 388.726 C 510.663 386.390, 510.291 384.512, 508.823 381.899 C 505.952 376.791, 506.666 374.457, 511.036 374.663 C 513.860 374.795, 515.424 375.836, 519.500 380.296 C 525.274 386.614, 528.476 388.658, 529.642 386.769 C 530.063 386.090, 530.590 381.694, 530.814 377.001 C 531.378 365.202, 529.855 361.708, 522.784 358.589 C 517.511 356.263, 511.822 354.584, 509.019 354.526 C 508.205 354.510, 506.630 353.013, 505.519 351.200 C 500.225 342.556, 493.311 333.495, 491.980 333.455 C 491.166 333.430, 490.608 332.880, 490.741 332.233 C 490.873 331.586, 488.510 327.344, 485.491 322.807 C 482.471 318.270, 480 314.207, 480 313.779 C 480 313.350, 479.306 313, 478.457 313 C 476.283 313, 467 304.085, 467 301.998 C 467 299.599, 463.075 294.836, 461.765 295.645 C 461.170 296.013, 460.978 295.845, 461.334 295.268 C 461.688 294.695, 461.291 293.657, 460.452 292.960 C 459.197 291.919, 458.036 292.109, 453.936 294.030 C 448.915 296.382, 448.346 297.256, 447.774 303.493 C 447.586 305.547, 446.717 306.854, 445 307.663 C 442.003 309.074, 434.219 310.567, 435.168 309.548 C 436.776 307.822, 433.294 302.613, 426.420 296.461 C 421.570 292.120, 418.995 289.072, 418.985 287.660 C 418.976 286.472, 418.553 284.841, 418.044 284.037 C 417.239 282.764, 416.658 282.793, 413.585 284.258 C 410.617 285.674, 409.193 285.771, 404.688 284.866 C 399.956 283.916, 399.189 283.411, 398.163 280.574 C 397.309 278.214, 397 251.781, 397 181.246 C 397 85.135, 397 85.135, 394.750 84.453 C 393.512 84.078, 389.243 82.155, 385.262 80.181 C 378.632 76.892, 377.743 76.691, 374.691 77.795 C 369.738 79.586, 366.482 79.278, 361 76.500 C 358.287 75.125, 354.914 74, 353.505 74 C 352.096 74, 348.146 72.588, 344.727 70.862 C 340.489 68.723, 336.173 67.462, 331.164 66.901 C 321.082 65.770, 320.945 65.697, 317.048 59.368 C 313.596 53.762, 313.596 53.762, 308.548 54.344 C 305.772 54.665, 302.582 55.196, 301.460 55.525 C 299.733 56.032, 299.062 55.263, 297.099 50.526 C 295.255 46.078, 293.988 44.524, 290.929 42.964 C 286.309 40.607, 285.120 40.523, 284.362 42.500 M 114.930 147.584 C 113.204 149.664, 114.698 152.066, 118.509 153.336 C 121.315 154.272, 125.513 158.465, 127.500 162.318 C 128.179 163.633, 129.785 164.366, 132.500 164.598 C 134.700 164.786, 136.010 164.616, 135.410 164.220 C 134.811 163.824, 132.869 161.475, 131.095 159 C 129.167 156.308, 126.591 154.068, 124.685 153.425 C 122.933 152.834, 120.600 150.939, 119.500 149.214 C 117.191 145.593, 116.722 145.426, 114.930 147.584 M 124.021 233.250 C 124.070 238.372, 137.619 243.544, 139.815 239.278 C 140.318 238.300, 140.524 236.926, 140.273 236.225 C 139.680 234.569, 133.099 231.821, 131.739 232.661 C 131.128 233.039, 130.988 232.828, 131.405 232.155 C 131.899 231.354, 130.873 231, 128.059 231 C 124.510 231, 124.003 231.283, 124.021 233.250 M 262.349 313.346 C 259.240 316.456, 256.093 319, 255.356 319 C 254.620 319, 251.997 320.542, 249.529 322.426 C 247.060 324.311, 244.130 326.141, 243.018 326.494 C 241.525 326.968, 241.142 327.717, 241.553 329.357 C 241.860 330.579, 241.647 332.798, 241.080 334.289 C 240.248 336.478, 240.334 337, 241.525 337 C 242.336 337, 243 337.737, 243 338.639 C 243 341.287, 254.672 339.914, 256.693 337.028 C 257.519 335.849, 260.626 333.772, 263.597 332.413 C 266.569 331.053, 269 329.707, 269 329.421 C 269 329.135, 268.313 327.573, 267.474 325.950 C 266.229 323.542, 265.310 323, 262.474 323 C 259.678 323, 259 322.614, 259 321.019 C 259 319.667, 259.873 318.851, 261.750 318.450 C 271.344 316.397, 274.215 313.315, 270.045 309.541 C 268.034 307.721, 267.917 307.779, 262.349 313.346 M 76.175 354.225 C 75.529 354.871, 75 356.138, 75 357.039 C 75 357.941, 73.854 359.201, 72.452 359.840 C 70.230 360.852, 69.621 360.695, 67.685 358.605 C 65.626 356.384, 64.989 356.259, 58.883 356.891 C 52.601 357.542, 47 359.952, 47 362.006 C 47 362.596, 52.501 362.793, 61.250 362.517 C 76.316 362.043, 81.709 361.380, 83.750 359.752 C 85.224 358.577, 85.452 356.603, 84.011 357.493 C 83.459 357.834, 83.269 357.463, 83.580 356.653 C 84.206 355.021, 83.622 354.544, 79.925 353.663 C 78.467 353.316, 76.840 353.560, 76.175 354.225 M 159 354.500 C 159 356.113, 159.916 356.353, 162.412 355.395 C 164.448 354.614, 163.456 353, 160.941 353 C 159.873 353, 159 353.675, 159 354.500 M 169.250 355.723 C 166.841 356.022, 166 356.628, 166 358.063 C 166 359.129, 166.113 359.993, 166.250 359.985 C 166.387 359.977, 168.284 359.349, 170.465 358.590 C 174.241 357.276, 176.651 354.822, 173.833 355.160 C 173.100 355.248, 171.037 355.502, 169.250 355.723" stroke="none" fill="#040404" fill-rule="evenodd"/></svg>