<svg xmlns="http://www.w3.org/2000/svg" width="500" height="500" viewBox="0 0 500 500" version="1.1"><path d="M 139.767 98.232 L 140.034 124.500 137.267 129.406 C 135.745 132.105, 133.562 134.922, 132.416 135.668 C 130.513 136.906, 129.902 136.625, 125.416 132.459 L 120.500 127.894 114.250 128.332 C 110.813 128.573, 106.875 129.507, 105.500 130.408 C 102.352 132.470, 102.191 136.702, 105.119 140.424 C 107.072 142.907, 107.148 143.569, 106.098 148.905 C 105.153 153.710, 105.215 155.185, 106.460 157.586 C 107.511 159.612, 107.782 162.001, 107.365 165.553 C 106.897 169.537, 107.211 171.494, 108.831 174.668 C 111.865 180.616, 112.534 187.661, 110.604 193.346 C 109.722 195.944, 109 200.311, 109 203.051 C 109 207.371, 109.597 208.852, 113.500 214.216 C 115.975 217.617, 118 220.998, 118 221.729 C 118 224.805, 124.228 235.039, 128.136 238.384 C 130.459 240.373, 132.729 242, 133.180 242 C 133.631 242, 134 243.262, 134 244.804 C 134 247.960, 129.704 252.639, 124 255.696 C 121.619 256.973, 119.611 259.319, 117.718 263.036 C 115.272 267.841, 114.987 269.344, 115.358 275.500 C 115.903 284.560, 112.056 297.383, 108.185 299.411 C 105.499 300.818, 104.316 306.446, 106.221 308.757 C 106.855 309.527, 106.997 312.309, 106.587 315.937 L 105.917 321.860 110.640 323.194 C 116.501 324.850, 117.706 327.769, 115.858 335.844 C 114.584 341.413, 111.874 343.729, 108.052 342.516 C 105.470 341.697, 100.816 349.369, 101.200 353.812 C 101.468 356.916, 101.931 357.420, 105.500 358.483 C 107.700 359.138, 111.807 360.852, 114.627 362.292 C 117.448 363.732, 121.948 365.454, 124.627 366.119 C 127.307 366.784, 130.494 367.969, 131.710 368.753 C 132.925 369.536, 137.875 371.446, 142.710 372.997 C 153.715 376.528, 170.568 382.612, 172.239 383.657 C 172.933 384.091, 178.225 386.087, 184 388.093 C 189.775 390.100, 204.625 395.451, 217 399.985 C 229.375 404.518, 244.450 409.907, 250.500 411.959 C 256.550 414.011, 265.176 417.309, 269.669 419.288 C 274.163 421.267, 281.611 424.037, 286.221 425.443 L 294.603 428 346.802 428 L 399 428 399 250.643 L 399 73.286 373.250 72.726 C 359.087 72.419, 300.700 72.121, 243.500 72.065 L 139.500 71.964 139.767 98.232" stroke="none" fill="#040404" fill-rule="evenodd"/></svg>