<svg xmlns="http://www.w3.org/2000/svg" width="500" height="500" viewBox="0 0 500 500" version="1.1"><path d="M 117.589 41.856 C 117.298 42.327, 117.278 43.790, 117.546 45.106 C 119.048 52.502, 119.041 61.008, 117.525 72.117 C 115.762 85.025, 114.226 89.122, 108.942 95 C 102.723 101.919, 101.634 107.693, 105.679 112.302 C 106.739 113.511, 109.923 117.099, 112.754 120.277 L 117.901 126.053 115.999 129.277 C 114.320 132.123, 114.121 134.343, 114.299 148.250 C 114.409 156.913, 114.110 164, 113.633 164 C 113.157 164, 113.062 165.012, 113.423 166.250 C 113.784 167.488, 114.273 169.353, 114.510 170.396 C 115.623 175.291, 117.246 178.966, 118.069 178.457 C 118.569 178.149, 118.732 178.535, 118.432 179.316 C 118.133 180.097, 119.229 183.506, 120.870 186.892 C 122.510 190.278, 124.147 194.391, 124.507 196.033 C 124.868 197.674, 125.464 198.832, 125.831 198.605 C 126.199 198.378, 126.559 199.161, 126.630 200.346 C 126.702 201.531, 127.466 204.188, 128.329 206.250 C 130.192 210.704, 132.609 211.109, 135.971 207.531 C 137.247 206.173, 138.644 205.280, 139.076 205.547 C 139.508 205.814, 140.160 205.551, 140.524 204.962 C 140.971 204.238, 141.953 204.394, 143.555 205.444 C 145.022 206.405, 147.263 206.826, 149.434 206.548 C 151.364 206.301, 153.157 206.444, 153.418 206.867 C 153.679 207.289, 153.213 209.606, 152.382 212.016 C 151.552 214.426, 150.941 218.446, 151.025 220.949 C 151.109 223.452, 151.084 225.950, 150.970 226.500 C 150.856 227.050, 150.773 227.725, 150.786 228 C 150.798 228.275, 150.091 229.160, 149.214 229.967 C 147.798 231.270, 147.695 231.238, 148.293 229.679 C 149.315 227.016, 146.204 226.352, 143.829 228.727 C 142.726 229.829, 141.751 232.233, 141.662 234.069 C 141.512 237.164, 142.063 237.797, 149.250 242.765 C 154.326 246.275, 157 248.780, 157 250.027 C 157 251.074, 158.388 253.511, 160.085 255.443 C 162.575 258.281, 163.081 259.611, 162.711 262.356 C 162.243 265.826, 157.080 275.997, 155.785 275.999 C 154.243 276.001, 152.957 279.958, 153.923 281.727 C 154.455 282.702, 155.174 285.260, 155.521 287.410 C 156.002 290.400, 157.486 292.654, 161.825 296.987 C 169.844 304.993, 171.583 307.260, 171.203 309.208 C 170.673 311.922, 174.385 319.274, 179.387 325.414 L 183.993 331.069 183.349 343.784 C 182.541 359.757, 182.751 367.995, 184.005 369.506 C 184.543 370.154, 184.697 370.970, 184.348 371.318 C 183.999 371.667, 184.395 372.214, 185.228 372.534 C 186.061 372.853, 188.272 372.077, 190.142 370.807 C 193.176 368.749, 194.588 368.520, 203.257 368.682 C 208.600 368.783, 213.348 369.097, 213.808 369.381 C 214.268 369.666, 215.924 373.183, 217.488 377.199 C 222.404 389.819, 223.954 391.043, 231.016 387.881 C 236.639 385.364, 239.655 384.875, 244.881 385.632 C 248.795 386.199, 249.435 386.679, 250.881 390.131 C 251.937 392.652, 252.984 393.815, 253.891 393.475 C 255.005 393.058, 255.041 393.245, 254.072 394.413 C 253.243 395.413, 253.167 396.443, 253.832 397.686 C 254.831 399.552, 254.976 400.103, 255.034 402.250 C 255.089 404.278, 267.539 417.297, 269.605 417.487 C 274.815 417.964, 281.384 420.080, 285.904 422.738 C 286.127 422.868, 286.392 424.733, 286.494 426.880 C 286.596 429.028, 287.267 432.883, 287.985 435.447 C 288.966 438.950, 289.006 440.394, 288.145 441.255 C 286.321 443.079, 286.790 446.053, 289.958 452.750 L 292.915 459 334.458 459 L 376 459 376.185 445.750 C 376.415 429.246, 376.448 428.703, 377.306 427.314 C 377.692 426.690, 378.104 425.013, 378.222 423.589 C 378.340 422.165, 378.753 421, 379.141 421 C 379.528 421, 380.365 419.423, 381.001 417.496 C 381.947 414.630, 381.851 413.066, 380.471 408.912 C 379.503 406, 379.037 402.567, 379.377 400.866 C 379.814 398.679, 379.646 398.087, 378.735 398.611 C 378.056 399.001, 377.823 398.963, 378.218 398.525 C 378.613 398.088, 380.852 397.558, 383.192 397.347 C 388.826 396.839, 394.184 393.977, 395.841 390.590 C 396.578 389.082, 396.994 387.661, 396.765 387.431 C 396.535 387.202, 393.941 386.558, 391 386 C 388.059 385.442, 385.470 384.803, 385.246 384.580 C 385.023 384.356, 385.609 383.001, 386.548 381.567 C 388.202 379.043, 388.159 378.765, 385.169 372.692 C 383.471 369.243, 380.264 364.452, 378.041 362.045 C 375.819 359.637, 374 357.500, 374 357.296 C 374 356.469, 361.488 342, 360.772 342 C 360.348 342, 359.993 341.438, 359.985 340.750 C 359.976 340.063, 357.770 337.025, 355.082 334 C 352.395 330.975, 349.271 327.375, 348.141 326 C 345.577 322.880, 327.174 300.365, 324.486 297.058 C 323.394 295.715, 321.262 293.318, 319.750 291.731 C 318.238 290.144, 317 288.592, 317 288.281 C 317 287.744, 309.721 278.773, 305.818 274.500 C 304.814 273.400, 291.048 256.750, 275.228 237.500 C 259.408 218.250, 245.706 201.600, 244.779 200.500 C 243.853 199.400, 240.572 195.393, 237.489 191.596 C 231.268 183.934, 231.619 185.990, 233.718 169.500 C 234.068 166.750, 234.387 162.405, 234.427 159.845 C 234.467 157.285, 234.772 155.359, 235.105 155.565 C 235.438 155.771, 236.268 150.665, 236.951 144.219 C 237.633 137.774, 238.337 131.375, 238.516 130 C 240.713 113.081, 241.929 102.755, 241.790 102.190 C 241.696 101.811, 241.927 100.150, 242.304 98.500 C 242.680 96.850, 243.249 92.800, 243.568 89.500 C 244.298 81.950, 244.864 77.094, 245.900 69.500 C 246.350 66.200, 246.594 63.350, 246.442 63.166 C 246.290 62.982, 243.766 62.618, 240.833 62.356 C 237.900 62.095, 234.150 61.673, 232.500 61.419 C 230.850 61.165, 227.925 60.765, 226 60.529 C 224.075 60.293, 219.800 59.670, 216.500 59.144 C 213.200 58.618, 209.825 58.169, 209 58.146 C 208.175 58.124, 202.806 57.397, 197.068 56.531 C 191.331 55.665, 184.581 54.746, 182.068 54.490 C 179.556 54.233, 176.375 53.833, 175 53.600 C 149.290 49.254, 141.282 47.637, 135.147 45.550 C 131.119 44.180, 127.525 43.118, 127.162 43.191 C 126.798 43.264, 125.233 42.800, 123.685 42.161 C 120.344 40.783, 118.315 40.682, 117.589 41.856" stroke="none" fill="#040404" fill-rule="evenodd"/></svg>