<svg xmlns="http://www.w3.org/2000/svg" width="577" height="433" viewBox="0 0 577 433" version="1.1"><path d="M 74.619 29.639 C 73.720 35.482, 65.343 110.695, 62.995 134 C 61.066 153.150, 52.222 232.640, 50.034 250.500 C 49.495 254.900, 48.363 265.700, 47.519 274.500 C 46.675 283.300, 43.919 308.868, 41.394 331.318 C 38.869 353.768, 36.992 372.326, 37.224 372.557 C 38.072 373.406, 125.334 382.742, 153 384.944 C 159.875 385.491, 181.475 387.289, 201 388.939 C 262.754 394.159, 327.397 398.772, 362.500 400.464 C 369.100 400.782, 378.550 401.247, 383.500 401.497 C 388.450 401.747, 398.350 402.194, 405.500 402.490 C 412.650 402.787, 423.675 403.249, 430 403.517 C 440.721 403.972, 469.689 405.025, 514.237 406.579 C 529.625 407.115, 533.049 406.988, 533.394 405.866 C 533.626 405.115, 534.324 377.275, 534.945 344 C 536.297 271.688, 537.723 202.972, 538.444 175.500 C 538.733 164.500, 539.270 133.614, 539.639 106.865 L 540.308 58.229 521.404 57.589 C 440.310 54.842, 339.694 49.582, 271 44.498 C 228.755 41.372, 92.932 28.541, 78.857 26.346 C 75.269 25.787, 75.204 25.837, 74.619 29.639" stroke="none" fill="#040404" fill-rule="evenodd"/></svg>