<svg xmlns="http://www.w3.org/2000/svg" width="360" height="360" viewBox="0 0 360 360" version="1.1"><path d="M 53.504 57.250 C 53.265 57.938, 51.466 85.050, 49.506 117.500 C 47.545 149.950, 45.120 188.650, 44.116 203.500 L 42.290 230.500 44.465 234.500 C 45.661 236.700, 48.301 241.074, 50.331 244.220 L 54.023 249.939 51.761 251.383 C 50.518 252.178, 41.175 257.872, 31 264.036 C 20.825 270.201, 12.322 275.405, 12.104 275.601 C 11.887 275.797, 14.474 280.478, 17.854 286.002 C 21.757 292.379, 24 297.132, 24 299.023 C 24 300.660, 24.450 302, 25 302 C 25.550 302, 26 301.536, 26 300.969 C 26 300.401, 26.787 299.653, 27.750 299.306 C 28.712 298.959, 30.705 297.840, 32.177 296.821 C 34.804 295.002, 34.867 295.005, 35.495 296.984 C 36.356 299.696, 39.374 299.539, 40.891 296.703 C 41.568 295.439, 42.994 293.861, 44.060 293.194 C 45.675 292.186, 46 292.250, 46 293.575 C 46 295.952, 48.343 294.715, 49.123 291.926 C 49.496 290.592, 49.845 289.893, 49.900 290.372 C 49.955 290.852, 50.578 290.766, 51.284 290.180 C 52.057 289.538, 53.131 289.463, 53.986 289.991 C 54.958 290.592, 56.139 290.134, 57.736 288.537 C 59.137 287.136, 60.814 286.400, 61.937 286.694 C 63.213 287.027, 64.018 286.518, 64.471 285.091 C 64.836 283.941, 65.779 283, 66.567 283 C 67.355 283, 68 282.298, 68 281.441 C 68 280.584, 68.370 280.110, 68.822 280.390 C 69.274 280.669, 70.499 279.908, 71.546 278.699 C 73.247 276.733, 73.486 276.686, 73.798 278.250 C 73.990 279.212, 74.901 279.993, 75.823 279.985 C 76.780 279.976, 77.071 279.654, 76.500 279.235 C 75.950 278.831, 74.917 277.461, 74.204 276.190 C 73.002 274.047, 73.050 273.956, 74.865 274.928 C 76.311 275.702, 77.561 275.588, 79.660 274.493 C 81.222 273.679, 83.232 273.010, 84.128 273.006 C 85.023 273.003, 86.299 272.345, 86.963 271.545 C 87.913 270.400, 88.566 270.337, 90.024 271.247 C 92.190 272.600, 97 270.590, 97 268.331 C 97 267.112, 98.151 266.628, 99.570 267.250 C 99.884 267.387, 100.564 266.743, 101.082 265.817 C 102.107 263.985, 108 260.670, 108 261.925 C 108 262.349, 109.704 263.465, 111.787 264.404 C 116.458 266.510, 121.156 265.314, 120.349 262.225 C 119.749 259.933, 128.659 250.654, 130.388 251.770 C 132.708 253.266, 136.230 252.590, 137.199 250.463 C 137.733 249.290, 139.482 247.556, 141.085 246.609 C 142.688 245.662, 144 244.447, 144 243.910 C 144 243.372, 145.589 241.995, 147.530 240.850 C 149.905 239.449, 150.897 238.232, 150.561 237.133 C 150.286 236.235, 150.937 234.375, 152.008 233 L 153.956 230.500 153.978 234.167 C 153.990 236.191, 154.560 238.022, 155.250 238.254 C 156.247 238.590, 156.245 238.984, 155.238 240.205 C 154.213 241.447, 154.246 241.959, 155.412 242.927 C 157.036 244.274, 164 243.378, 164 241.821 C 164 241.295, 164.863 241.139, 165.919 241.474 C 167.251 241.897, 167.980 241.535, 168.303 240.292 C 168.734 238.631, 168.776 238.628, 168.884 240.250 C 168.999 241.980, 172 242.819, 172 241.122 C 172 240.639, 173.864 239.770, 176.142 239.192 C 179.410 238.363, 180.575 238.432, 181.663 239.520 C 182.422 240.279, 184.330 240.737, 185.905 240.537 C 188.311 240.233, 188.687 240.480, 188.267 242.088 C 187.546 244.845, 189.697 244.456, 192.904 241.250 C 194.416 239.738, 196.744 238.414, 198.077 238.308 C 199.410 238.202, 203.032 237.889, 206.126 237.611 C 211.148 237.161, 211.999 237.370, 214.050 239.553 C 216.912 242.600, 218.586 242.661, 219.383 239.750 C 219.884 237.924, 220.176 237.774, 220.935 238.954 C 221.753 240.226, 222.210 240.226, 224.587 238.954 C 226.081 238.154, 228.135 237.641, 229.152 237.813 C 230.168 237.985, 231 237.664, 231 237.101 C 231 235.396, 241.879 235.961, 242.861 237.716 C 243.511 238.877, 244.664 239.064, 247.853 238.525 C 252.133 237.802, 253.831 235.095, 249.750 235.501 C 248.503 235.625, 248.294 235.530, 249.281 235.289 C 250.725 234.935, 250.956 234.155, 250.500 231.176 L 249.938 227.500 251.536 231.151 C 253.359 235.313, 255.378 236.155, 260.671 234.961 C 262.716 234.500, 264.721 234.328, 265.126 234.578 C 265.532 234.829, 266.456 234.202, 267.182 233.186 C 269.195 230.366, 272.797 229.784, 273.550 232.158 C 274.306 234.539, 276.565 233.992, 276.335 231.484 C 276.104 228.975, 277.738 225, 279 225 C 279.577 225, 280.522 226.238, 281.099 227.750 C 282.043 230.221, 282.274 230.330, 283.381 228.824 C 284.521 227.273, 284.700 227.290, 285.802 229.055 C 286.667 230.440, 287.859 230.861, 290.157 230.593 C 293.380 230.218, 297.340 226.359, 296.274 224.634 C 295.961 224.127, 295.550 222.315, 295.362 220.606 C 295.109 218.308, 295.273 217.890, 295.995 219 C 296.531 219.825, 296.976 221.443, 296.985 222.595 C 296.993 223.747, 297.927 225.529, 299.061 226.555 C 300.770 228.102, 301.270 228.182, 301.985 227.025 C 302.717 225.841, 303.098 225.837, 304.500 227 C 305.822 228.097, 306.309 228.118, 306.937 227.102 C 307.540 226.126, 307.862 226.199, 308.329 227.416 C 309.094 229.410, 311 229.492, 311 227.531 C 311 226.637, 311.586 226.288, 312.500 226.638 C 313.614 227.066, 314.008 226.479, 314.030 224.357 C 314.058 221.722, 314.147 221.655, 315.178 223.500 C 316.849 226.491, 316.840 226.490, 318.924 224.088 C 320.475 222.300, 321.247 222.062, 322.803 222.895 C 323.871 223.466, 325.693 223.752, 326.852 223.529 C 328.010 223.305, 329.286 223.653, 329.686 224.301 C 330.150 225.052, 330.623 224.597, 330.989 223.047 L 331.563 220.615 333.798 223.013 L 336.032 225.412 338.220 223.225 C 340.757 220.688, 341.403 214.371, 339.657 209.169 C 338.672 206.234, 338.775 205.698, 340.520 204.669 C 341.609 204.026, 343.400 203.500, 344.500 203.500 C 346.423 203.500, 346.534 202.538, 347.386 178.500 C 348.163 156.569, 346.932 63.534, 345.852 62.550 C 345.293 62.041, 255.490 59.978, 234.399 59.990 C 223.139 59.996, 214.006 60.451, 212.149 61.098 C 209.860 61.896, 208.136 61.895, 205.837 61.093 C 204.097 60.486, 197.634 59.702, 191.475 59.351 L 180.277 58.711 179.585 62.401 C 179.083 65.077, 178.203 66.353, 176.381 67.045 C 171.363 68.953, 170.320 68.377, 170.414 63.750 L 170.500 59.500 143.500 58.817 C 128.650 58.442, 105.655 57.655, 92.400 57.067 C 60.569 55.658, 54.045 55.688, 53.504 57.250 M 118 258 C 116.718 258.828, 116.754 258.972, 118.250 258.985 C 119.213 258.993, 120 258.550, 120 258 C 120 256.780, 119.887 256.780, 118 258 M 67.406 285.499 C 64.981 287.584, 64.812 287.998, 66.383 287.999 C 67.927 288, 72 284.627, 72 283.347 C 72 282.339, 69.979 283.285, 67.406 285.499 M 29 303 C 29 303.550, 29.450 304, 30 304 C 30.550 304, 31 303.550, 31 303 C 31 302.450, 30.550 302, 30 302 C 29.450 302, 29 302.450, 29 303" stroke="none" fill="#040404" fill-rule="evenodd"/></svg>