<svg xmlns="http://www.w3.org/2000/svg" width="418" height="597" viewBox="0 0 418 597" version="1.1"><path d="M 152.512 32.557 C 140.465 35.585, 125.056 44.898, 117.526 53.702 C 114.054 57.761, 109.050 67.108, 107.060 73.250 C 106.074 76.294, 105.362 77, 103.277 77 L 100.710 77 101.400 102.750 C 103.193 169.645, 104.824 203.756, 109.012 262 C 110.613 284.275, 112.391 310.600, 112.961 320.500 C 114.997 355.808, 116.054 373.718, 117.003 389 C 118.976 420.774, 120.393 452.093, 122.477 510 C 122.745 517.425, 123.254 531.600, 123.610 541.500 C 124.338 561.772, 124.628 562.591, 131.365 563.421 C 133.639 563.701, 153.725 564.413, 176 565.003 C 198.275 565.592, 220.100 566.257, 224.500 566.479 C 228.900 566.701, 252.035 567.201, 275.912 567.588 L 319.324 568.294 318.649 548.897 C 317.564 517.716, 315.509 505.550, 311.096 504.170 C 309.969 503.817, 309.817 504.648, 310.326 508.365 C 310.676 510.913, 311.244 514.124, 311.589 515.499 C 312.137 517.682, 311.889 518, 309.644 518 C 306.569 518, 305 520.492, 305 525.375 C 305 528.954, 303.094 531.597, 302.885 528.309 C 302.821 527.314, 302.665 526.050, 302.537 525.500 C 302.409 524.950, 302.236 523.774, 302.152 522.886 C 301.906 520.280, 296.951 516, 294.179 516 C 290.102 516, 283.879 519.551, 278.494 524.949 C 275.747 527.703, 273.211 529.966, 272.857 529.978 C 271.193 530.035, 271.312 526.874, 273.056 524.656 C 275.723 521.265, 275.507 520.270, 271.932 519.485 C 268.504 518.732, 266.970 516.259, 269.104 514.926 C 269.872 514.447, 273.004 514.120, 276.064 514.201 C 282.387 514.368, 283.749 513.791, 285.037 510.403 C 285.840 508.290, 286.579 508, 291.161 508 C 295.127 508, 296.921 507.483, 298.675 505.836 C 300.909 503.737, 301.040 503.726, 302.990 505.491 C 305.246 507.532, 305.694 506.331, 303.696 503.599 C 302.973 502.611, 300.185 501.412, 297.446 500.912 C 294.230 500.324, 291.800 499.174, 290.500 497.623 C 289.400 496.312, 287.038 494.498, 285.250 493.594 C 281.322 491.606, 281.047 490, 284.634 490 C 286.250 490, 288.156 491.034, 289.569 492.679 C 293.799 497.602, 298.994 496.351, 295.065 491.355 C 293.929 489.912, 293 487.877, 293 486.833 C 293 485.790, 292.319 483.306, 291.487 481.314 C 290.655 479.323, 290.092 477.591, 290.237 477.466 C 290.382 477.341, 293.587 477.660, 297.359 478.175 C 303.106 478.961, 304.500 478.858, 305.958 477.538 C 307.597 476.055, 307.735 476.595, 308.364 486.940 C 309.108 499.191, 309.541 501, 311.730 501 C 313.025 501, 313.167 499.431, 312.699 490.250 C 312.397 484.337, 311.633 476.350, 310.999 472.500 C 310.305 468.278, 310.100 461.476, 310.484 455.360 C 310.991 447.255, 310.798 444.453, 309.521 441.395 C 307.238 435.932, 306.113 435.665, 301.795 439.566 C 296.458 444.388, 292.536 444.235, 284.324 438.885 C 279.025 435.433, 276.282 432.416, 267.279 420.135 C 261.378 412.086, 252.601 401.337, 247.775 396.249 C 239.902 387.950, 239.004 386.613, 239.035 383.249 C 239.055 381.187, 239.714 378.375, 240.500 377 C 242.710 373.134, 242.306 367.058, 239.536 362.500 C 238.199 360.300, 235.252 355.259, 232.988 351.297 C 228.602 343.624, 223.934 338.835, 218.713 336.653 C 213.128 334.318, 212.477 332.742, 212.706 322.095 C 212.821 316.743, 212.264 309.291, 211.446 305.242 C 209.721 296.708, 210.359 291.025, 213.626 285.822 C 215.656 282.588, 215.893 281.137, 215.588 273.822 C 215.082 261.703, 212.371 253.464, 206.491 246.172 C 204.571 243.792, 203 240.777, 203 239.473 C 203 237.938, 201.766 236.160, 199.500 234.432 C 197.575 232.964, 196 231.157, 196 230.416 C 196 228.294, 192.613 227.026, 188.658 227.668 C 185.778 228.135, 184.897 227.895, 184.360 226.496 C 183.988 225.527, 184.255 223.821, 184.952 222.705 C 186.039 220.964, 185.930 220.448, 184.189 219.087 C 183.072 218.214, 180.972 213.900, 179.522 209.500 C 176.413 200.067, 173.671 195.618, 165.964 187.500 C 158.796 179.949, 158 178.376, 158 171.756 C 158 167.675, 158.817 164.708, 161.392 159.440 C 166.957 148.056, 167.257 139.181, 162.227 134.747 C 152.916 126.540, 152 125.325, 152 121.183 C 152 112.780, 156.989 105.802, 162.721 106.188 C 167.190 106.489, 168.255 105.216, 178.341 87.500 C 184.062 77.452, 187.429 70.301, 188.540 65.838 C 190.467 58.101, 193.813 54.042, 199.930 52.023 C 202.152 51.290, 204.688 49.897, 205.564 48.929 C 207.022 47.318, 207.019 46.959, 205.531 44.688 C 203.168 41.081, 197.038 37.139, 189.286 34.241 C 180.651 31.013, 162.044 30.161, 152.512 32.557 M 166.053 118.338 C 164.967 121.630, 165.446 125, 167 125 C 168.890 125, 169.846 116.641, 168.081 115.550 C 167.575 115.237, 166.663 116.492, 166.053 118.338 M 162.380 127.452 C 161.646 129.366, 162.511 130.639, 164.984 131.286 C 167.436 131.927, 167.687 129.830, 165.429 127.571 C 163.489 125.632, 163.085 125.616, 162.380 127.452 M 166.183 156.217 C 164.798 157.602, 164.608 160, 165.883 160 C 166.712 160, 168.246 155.913, 167.644 155.310 C 167.491 155.158, 166.834 155.566, 166.183 156.217 M 169.441 164.096 C 169.068 164.699, 169.492 165.920, 170.382 166.810 C 171.873 168.301, 172 168.215, 172 165.714 C 172 162.953, 170.668 162.110, 169.441 164.096" stroke="none" fill="#040b0b" fill-rule="evenodd"/></svg>