<svg xmlns="http://www.w3.org/2000/svg" width="360" height="360" viewBox="0 0 360 360" version="1.1"><path d="M 0.640 8.497 C -1.116 13.072, -0.030 16.973, 4.121 21.001 C 6.387 23.200, 8.566 25, 8.964 25 C 9.362 25, 9.645 27.791, 9.593 31.201 C 9.507 36.938, 9.678 37.445, 11.873 37.967 L 14.246 38.530 11.588 39.953 C 10.126 40.735, 9.136 41.911, 9.387 42.566 C 9.638 43.221, 9.339 44.261, 8.722 44.878 C 7.130 46.470, 10.053 46.338, 20.140 44.364 C 24.738 43.463, 29.400 42.601, 30.500 42.447 C 31.600 42.293, 32.500 42.098, 32.500 42.014 C 32.500 41.931, 33.850 41.624, 35.500 41.332 C 44.242 39.789, 61.597 41.244, 66.936 43.968 C 68.929 44.984, 73.102 46.555, 76.209 47.459 C 81.780 49.078, 84.015 50.427, 91.097 56.444 C 93.075 58.125, 97.228 61.472, 100.325 63.882 C 103.422 66.292, 105.671 68.724, 105.323 69.286 C 104.975 69.849, 105.160 70.019, 105.732 69.666 C 107.412 68.627, 109.008 71.423, 109.263 75.851 C 109.514 80.207, 111.719 82.254, 113.237 79.541 C 113.828 78.486, 115.618 78, 118.915 78 C 122.328 78, 124.526 77.374, 126.463 75.850 C 128.519 74.233, 129.387 74.009, 129.966 74.945 C 130.540 75.874, 132.353 75.338, 137.118 72.831 C 145.870 68.225, 149.391 67.079, 151.376 68.191 C 153.315 69.275, 155 68.462, 155 66.441 C 155 65.648, 154.100 65, 153 65 C 151.900 65, 151 64.520, 151 63.933 C 151 63.342, 151.842 63.132, 152.884 63.463 C 154.295 63.911, 154.920 63.454, 155.375 61.641 C 156.007 59.125, 159.618 57.532, 162.330 58.573 C 163.148 58.887, 165.414 58.704, 167.364 58.165 C 170.067 57.419, 171.176 57.507, 172.029 58.535 C 172.644 59.276, 176.098 61.365, 179.703 63.177 C 185.970 66.327, 190.931 71.094, 191.061 74.094 C 191.095 74.867, 193.007 76.869, 195.311 78.543 C 198.637 80.958, 199.526 82.246, 199.625 84.793 C 199.819 89.768, 199.903 90, 201.500 90 C 202.325 90, 203 90.473, 203 91.052 C 203 91.631, 204.327 92.567, 205.949 93.132 C 208.019 93.854, 209.240 95.198, 210.048 97.647 C 210.699 99.618, 212.229 101.603, 213.568 102.213 C 214.871 102.807, 215.725 103.636, 215.465 104.056 C 214.209 106.089, 216.365 107.645, 220.753 107.872 C 225.867 108.137, 228.168 109.398, 227.363 111.496 C 227.078 112.239, 227.681 113.294, 228.703 113.841 C 229.726 114.388, 230.636 115.823, 230.727 117.030 C 230.818 118.237, 231.661 120.073, 232.601 121.112 C 233.788 122.423, 233.919 123, 233.030 123 C 231.494 123, 232.409 129.016, 234.103 130.064 C 237.007 131.859, 234.682 148.952, 230.423 157.122 C 229.454 158.980, 228.756 162.188, 228.871 164.250 C 228.987 166.313, 228.671 168, 228.170 168 C 227.668 168, 226.953 170.695, 226.581 173.990 C 225.991 179.202, 226.169 180.265, 227.952 182.178 C 229.078 183.388, 230.056 184.742, 230.125 185.189 C 230.194 185.635, 230.306 186.412, 230.375 186.917 C 230.625 188.753, 232 189.284, 232 187.544 C 232 186.201, 232.320 186.021, 233.284 186.820 C 235.392 188.571, 236.961 186.675, 237.551 181.666 C 238.084 177.130, 237.986 176.897, 235.005 175.644 C 231.950 174.359, 231.931 174.307, 233.705 172.116 L 235.506 169.891 237.753 171.985 C 239.068 173.210, 240 175.261, 240 176.932 C 240 178.612, 240.651 180.036, 241.582 180.393 C 243.938 181.297, 243.989 181.239, 243.622 178.086 C 243.212 174.565, 245.163 174.868, 246.858 178.589 C 247.765 180.579, 247.703 181.177, 246.541 181.623 C 244.748 182.311, 238.500 191.916, 238.500 193.984 C 238.500 194.818, 237.481 195.645, 236.235 195.821 C 234.990 195.998, 234.209 196.530, 234.501 197.002 C 234.794 197.475, 234.565 198.151, 233.994 198.504 C 232.864 199.202, 237.686 209, 239.159 209 C 239.622 209, 240 209.689, 240 210.531 C 240 211.374, 240.675 212.322, 241.500 212.638 C 242.325 212.955, 243 213.994, 243 214.947 C 243 220.901, 254.143 235.650, 257.629 234.312 C 259.491 233.598, 259.358 230.501, 257.381 228.524 C 256.490 227.633, 256.048 226.619, 256.398 226.269 C 256.747 225.919, 257.545 226.145, 258.170 226.770 C 258.881 227.481, 259.920 227.578, 260.946 227.029 C 262.399 226.251, 262.601 227.104, 262.729 234.576 C 262.862 242.370, 262.030 245.126, 260.638 241.500 C 260.322 240.675, 259.620 240, 259.079 240 C 258.535 240, 258.837 241.999, 259.754 244.475 C 260.776 247.232, 261.696 248.492, 262.150 247.757 C 262.665 246.923, 263.511 247.307, 264.959 249.032 C 266.098 250.389, 267.924 252.463, 269.015 253.641 C 272.275 257.158, 274.955 264.185, 274.978 269.281 C 274.992 272.234, 275.491 274.251, 276.284 274.555 C 276.990 274.826, 277.663 276.202, 277.780 277.613 C 278.053 280.911, 278.757 282, 280.618 282 C 281.443 282, 281.829 281.532, 281.475 280.960 C 279.822 278.285, 293.357 283.514, 296.179 286.640 C 297.810 288.448, 298 288.902, 298 291 C 298 291.550, 298.675 292, 299.500 292 C 300.433 292, 301 292.944, 301 294.500 C 301 295.875, 301.900 297.900, 303 299 C 305.113 301.113, 305.684 302.541, 304 301.500 C 302.360 300.486, 302.858 302.645, 305.168 306.560 C 306.924 309.537, 307.114 310.588, 306.168 312.103 C 304.392 314.946, 304.765 318.371, 307.127 320.906 C 308.855 322.761, 309.933 323.078, 312.877 322.599 C 314.870 322.274, 318.842 322.029, 321.704 322.054 C 326.879 322.099, 333 319.869, 333 317.939 C 333 317.272, 333.664 317.285, 334.955 317.976 C 336.583 318.847, 337.505 318.428, 340.455 315.478 C 342.896 313.037, 344 311.024, 344 309.014 C 344 307.408, 344.413 305.060, 344.919 303.797 C 346.152 300.714, 347.302 297.612, 347.440 297 C 347.898 294.960, 351.535 291.020, 352.761 291.235 C 354.655 291.567, 354.691 291.387, 357.088 269 C 360.701 235.265, 360.700 233.869, 357.064 223.025 C 355.317 217.814, 352.618 210.839, 351.067 207.525 C 348.605 202.265, 347.668 199.563, 346.898 195.500 C 346.210 191.869, 340.505 177.854, 338.452 174.750 C 337.088 172.688, 336.316 170.993, 336.736 170.985 C 337.156 170.976, 336.908 170.594, 336.184 170.135 C 335.459 169.675, 334.706 168.445, 334.510 167.400 C 334.314 166.355, 334.068 165.500, 333.964 165.500 C 333.757 165.500, 333.370 161.775, 332.921 155.464 C 332.741 152.928, 333.301 150.299, 334.428 148.391 C 336.179 145.428, 336.168 145.249, 333.972 140.944 C 332.734 138.518, 329.483 132.962, 326.747 128.597 C 324.011 124.231, 321.695 120.174, 321.599 119.580 C 321.503 118.986, 319.835 116.025, 317.892 113 C 314.606 107.885, 311.537 101, 312.543 101 C 312.784 101, 311.673 98.862, 310.073 96.250 C 308.473 93.637, 306.840 89.700, 306.445 87.500 C 306.049 85.300, 304.783 81.475, 303.632 79 C 302.480 76.525, 301.668 73.724, 301.828 72.776 C 301.987 71.828, 301.165 68.903, 300.002 66.276 C 298.275 62.376, 294.232 45.228, 293.567 38.982 C 293.478 38.148, 293.060 36.906, 292.638 36.223 C 292.216 35.541, 292.106 34.199, 292.394 33.241 C 292.682 32.283, 293.136 29.587, 293.403 27.250 C 293.776 23.988, 293.553 23, 292.444 23 C 291.650 23, 291 23.648, 291 24.441 C 291 25.234, 290.480 26.203, 289.845 26.595 C 289.130 27.038, 288.962 26.870, 289.405 26.155 C 289.827 25.470, 289.483 25, 288.559 25 C 287.702 25, 287 24.325, 287 23.500 C 287 22.675, 286.212 21.948, 285.250 21.885 C 282.882 21.729, 281.771 21.495, 280 20.781 C 279.175 20.448, 277.150 19.733, 275.500 19.190 C 273.850 18.648, 271.825 17.931, 271 17.597 C 270.155 17.255, 268.330 17.998, 266.819 19.302 C 264.485 21.315, 264.210 22.147, 264.692 25.744 C 264.997 28.016, 264.930 32.828, 264.544 36.437 C 263.904 42.413, 263.635 43, 261.543 43 C 258.812 43, 257.258 41.361, 256.778 37.975 C 256.241 34.176, 254.642 32.014, 251.950 31.442 C 246.970 30.384, 232.252 29.129, 224.167 29.073 C 219.583 29.041, 215.533 28.829, 215.166 28.603 C 214.799 28.376, 208.804 27.905, 201.845 27.556 C 194.885 27.207, 188.361 26.764, 187.346 26.571 C 186.331 26.378, 180.775 25.928, 175 25.571 C 169.225 25.214, 158.425 24.537, 151 24.066 C 143.575 23.595, 135.982 23.318, 134.126 23.451 C 131 23.675, 130.602 23.355, 128.713 19.097 C 127.592 16.568, 126.673 13.938, 126.671 13.250 C 126.669 12.563, 126.265 12, 125.774 12 C 125.284 12, 125.129 11.601, 125.430 11.113 C 127.372 7.971, 123.063 7.709, 62.111 7.269 C 6.010 6.864, 1.230 6.960, 0.640 8.497 M 117 81 C 117 81.550, 117.450 82, 118 82 C 118.550 82, 119 81.550, 119 81 C 119 80.450, 118.550 80, 118 80 C 117.450 80, 117 80.450, 117 81 M 258.797 253.241 C 260.486 254.931, 261.349 255.150, 263.150 254.346 C 265.223 253.421, 265.061 253.259, 261.043 252.239 L 256.689 251.134 258.797 253.241 M 345 315.500 C 345 316.325, 345.177 317, 345.393 317 C 345.609 317, 346.045 316.325, 346.362 315.500 C 346.678 314.675, 346.501 314, 345.969 314 C 345.436 314, 345 314.675, 345 315.500 M 296.268 345.417 C 296.544 347.694, 298.667 348.716, 298.667 346.572 C 298.667 345.756, 298.330 345.296, 297.919 345.550 C 297.507 345.804, 296.915 345.447, 296.603 344.756 C 296.291 344.065, 296.140 344.363, 296.268 345.417 M 289.074 346.411 C 288.172 347.498, 288.201 347.994, 289.201 348.571 C 289.916 348.983, 290.166 348.952, 289.759 348.502 C 289.351 348.052, 289.519 347.080, 290.131 346.342 C 290.744 345.604, 291.020 345, 290.745 345 C 290.470 345, 289.718 345.635, 289.074 346.411" stroke="none" fill="#040404" fill-rule="evenodd"/></svg>