<svg xmlns="http://www.w3.org/2000/svg" width="302" height="360" viewBox="0 0 302 360" version="1.1"><path d="M 21 22.404 C 21 23.790, 33.090 100.334, 34.994 111 C 35.534 114.025, 37.339 125.725, 39.006 137 C 42.292 159.227, 44.664 171.823, 45.871 173.460 C 46.292 174.032, 46.722 175.830, 46.824 177.456 C 46.927 179.082, 47.459 180.859, 48.006 181.406 C 48.553 181.953, 49 183.348, 49 184.506 C 49 185.664, 50.125 188.136, 51.500 190 C 52.875 191.864, 54 194.175, 54 195.135 C 54 196.096, 54.452 197.161, 55.004 197.502 C 55.898 198.055, 55.740 200.024, 54.393 205.083 C 54.134 206.053, 54.944 207.109, 56.486 207.812 C 60.005 209.415, 59.630 211.226, 55 215 C 51.381 217.950, 51 218.701, 50.999 222.880 C 50.999 225.421, 50.099 229.867, 48.999 232.761 C 46.430 239.522, 46.493 241.834, 49.510 251.280 C 51.542 257.640, 51.829 259.830, 51.087 263.280 C 50.588 265.601, 49.896 271.100, 49.548 275.500 C 48.973 282.792, 49.142 283.936, 51.459 288.419 C 52.856 291.125, 54 294.389, 54 295.673 C 54 296.957, 54.900 299.686, 56 301.739 C 57.100 303.791, 58.010 306.827, 58.022 308.485 C 58.034 310.143, 58.822 312.453, 59.772 313.618 C 61.368 315.575, 63.101 315.828, 82.500 316.939 C 107.281 318.358, 188.347 323.727, 198.709 324.636 L 205.918 325.268 206.513 329.884 C 207.695 339.037, 207.673 339, 211.909 339 L 215.779 339 216.773 332.250 C 217.508 327.250, 217.449 324.722, 216.544 322.500 C 215.872 320.850, 215.438 319.050, 215.579 318.500 C 215.721 317.950, 216.126 315.775, 216.479 313.666 C 216.945 310.889, 217.519 309.985, 218.561 310.385 C 219.410 310.711, 220 310.336, 220 309.469 C 220 308.569, 220.968 308, 222.500 308 C 223.875 308, 225 308.450, 225 309 C 225 309.550, 225.691 310, 226.535 310 C 227.380 310, 229.272 310.788, 230.741 311.750 C 232.209 312.712, 234.331 313.598, 235.455 313.719 C 236.580 313.839, 239.863 314.321, 242.750 314.789 C 247.941 315.632, 248 315.612, 248.015 313.071 C 248.023 311.657, 248.679 308.700, 249.471 306.500 C 251.321 301.366, 251.388 298.914, 249.660 299.577 C 248.923 299.860, 247.805 299.471, 247.176 298.712 C 246.281 297.634, 246.574 296.862, 248.516 295.173 C 251.191 292.847, 252.238 287.727, 249.589 289.926 C 247.679 291.511, 247.055 290.008, 248.489 287.278 C 249.281 285.771, 249.984 285.384, 250.674 286.074 C 251.365 286.765, 252.519 286.009, 254.263 283.722 C 256.201 281.181, 256.833 279.168, 256.833 275.536 C 256.833 272.888, 257.264 270.446, 257.791 270.111 C 258.318 269.775, 259.713 267.700, 260.892 265.500 C 263.023 261.521, 263.024 261.498, 261.017 261.180 C 258.542 260.788, 258.482 260.141, 260.750 258.297 C 262.023 257.262, 262.160 256.733, 261.250 256.354 C 260.563 256.068, 260.015 255.308, 260.033 254.667 C 260.052 254.025, 260.946 254.556, 262.021 255.846 L 263.976 258.192 264.988 255.531 C 266.469 251.636, 266.241 250.296, 264 249.710 C 262.900 249.423, 262 248.444, 262 247.535 C 262 246.626, 262.450 246.160, 263 246.500 C 263.550 246.840, 264 246.551, 264 245.859 C 264 244.900, 264.278 244.878, 265.166 245.766 C 266.055 246.655, 266.912 246.308, 268.763 244.310 C 270.896 242.010, 270.998 241.578, 269.597 240.794 C 268.719 240.303, 268 239.192, 268 238.325 C 268 237.119, 268.682 236.886, 270.913 237.333 C 274.283 238.007, 276.689 236.089, 274.819 234.219 C 273.973 233.373, 274.020 232.681, 275 231.500 C 275.893 230.424, 276.642 230.242, 277.334 230.934 C 278.025 231.625, 278.778 231.600, 279.676 230.854 C 281.413 229.412, 281.364 228, 279.577 228 C 278.794 228, 276.816 226.875, 275.182 225.500 C 273.548 224.125, 271.257 223, 270.091 223 C 268.772 223, 267.222 221.772, 265.989 219.750 C 263.791 216.144, 263.471 212.858, 265.034 209.937 C 265.838 208.434, 265.512 207.010, 263.560 203.515 C 262.181 201.045, 261.289 198.411, 261.577 197.660 C 262.074 196.366, 258.537 192.852, 252.495 188.638 C 250.752 187.422, 249.991 186.142, 250.303 184.950 C 250.996 182.300, 248.657 171.058, 246.596 167.133 C 245.623 165.281, 245.052 162.909, 245.326 161.862 C 245.689 160.474, 244.588 159.013, 241.268 156.479 C 238.762 154.565, 236.172 153, 235.511 153 C 233.914 153, 231 149.711, 231 147.908 C 231 147.120, 229.988 146.030, 228.750 145.487 C 227.404 144.897, 226.378 143.450, 226.197 141.886 C 226.004 140.224, 224.957 138.846, 223.320 138.100 C 221.029 137.056, 220.805 136.494, 221.275 132.983 C 221.749 129.456, 221.396 128.592, 217.942 124.813 C 215.818 122.489, 212.650 119.893, 210.903 119.044 C 208.566 117.908, 207.225 116.179, 205.831 112.500 C 203.914 107.445, 201.117 104.363, 192.668 98 C 189.864 95.889, 186.642 92.081, 184.547 88.403 C 182.636 85.049, 180.382 81.732, 179.536 81.030 C 178.691 80.329, 178 78.731, 178 77.480 C 178 75.610, 175.299 69.354, 170.022 59 C 169.549 58.072, 167.837 57.500, 165.534 57.500 C 162.515 57.500, 161.070 56.747, 157.905 53.527 C 155.757 51.342, 154 49.204, 154 48.777 C 154 48.350, 153.213 47.987, 152.250 47.971 C 151.287 47.955, 148.994 46.572, 147.152 44.898 C 142.313 40.497, 143.251 36.637, 151.070 28.769 C 154.332 25.487, 157 22.397, 157 21.901 C 157 21.375, 128.689 21, 89 21 C 31.280 21, 21 21.212, 21 22.404" stroke="none" fill="#040404" fill-rule="evenodd"/></svg>