<svg xmlns="http://www.w3.org/2000/svg" width="583" height="428" viewBox="0 0 583 428" version="1.1"><path d="M 90.236 2.208 C 90.426 3.137, 89.166 3.455, 85.750 3.338 C 83.138 3.249, 81 3.587, 81 4.088 C 81 4.590, 81.487 5, 82.083 5 C 82.679 5, 82.970 5.563, 82.730 6.250 C 81.887 8.660, 76 5.879, 76 3.071 C 76 1.494, 73.437 1.768, 72 3.500 C 71.315 4.325, 69.868 5, 68.784 5 C 67.697 5, 66.593 5.842, 66.322 6.876 C 65.773 8.974, 62.767 10.813, 59 11.355 C 57.005 11.642, 56.492 12.299, 56.459 14.608 C 56.404 18.534, 55.122 21, 53.137 21 C 50.733 21, 48.482 26.602, 49.787 29.337 C 50.354 30.527, 51.028 32.175, 51.284 33 C 51.812 34.705, 60.335 37.529, 61.946 36.534 C 62.528 36.174, 63.406 36.938, 63.898 38.231 C 64.389 39.524, 65.514 41.181, 66.396 41.914 C 67.278 42.646, 68 43.836, 68 44.560 C 68 45.503, 68.986 45.714, 71.492 45.308 C 73.412 44.996, 75.549 45.168, 76.242 45.689 C 76.934 46.211, 78.816 46.720, 80.425 46.822 C 82.034 46.923, 84.133 47.715, 85.090 48.581 C 86.696 50.035, 87.104 49.861, 90.388 46.328 C 92.345 44.223, 93.958 42.163, 93.973 41.750 C 93.988 41.337, 94.675 41, 95.500 41 C 96.325 41, 97 40.598, 97 40.107 C 97 39.616, 96.325 38.955, 95.500 38.638 C 94.675 38.322, 94 37.599, 94 37.031 C 94 35.541, 97.994 35.758, 98.030 37.250 C 98.047 37.938, 98.549 37.659, 99.147 36.631 C 99.940 35.266, 99.922 34.570, 99.081 34.050 C 98.447 33.658, 97.661 31.687, 97.334 29.669 C 96.852 26.700, 97.050 26, 98.369 26 C 99.486 26, 100 25.124, 100 23.223 C 100 21.695, 100.687 19.465, 101.526 18.267 C 102.915 16.283, 102.866 15.703, 100.986 11.794 C 99.031 7.729, 89.656 -0.631, 90.236 2.208 M 16.200 32.200 C 15.540 32.860, 15 34.624, 15 36.121 C 15 38.330, 14.437 38.965, 12 39.500 C 10.350 39.862, 9 40.573, 9 41.079 C 9 41.586, 8.152 42, 7.115 42 C 4.999 42, 2 45.966, 2 48.765 C 2 49.774, 1.471 51.129, 0.824 51.776 C -0.078 52.678, 0.038 53.385, 1.324 54.805 C 2.246 55.824, 3.014 57.297, 3.032 58.079 C 3.049 58.860, 3.672 60.301, 4.415 61.281 C 5.647 62.905, 5.824 62.754, 6.423 59.560 C 7.299 54.887, 11.905 48, 14.153 48 C 15.142 48, 17.337 47.158, 19.030 46.128 C 21.408 44.682, 21.755 44.120, 20.554 43.659 C 18.435 42.846, 18.387 36, 20.500 36 C 22.114 36, 22.353 35.084, 21.393 32.582 C 20.675 30.710, 17.894 30.506, 16.200 32.200 M 234.250 75.767 C 231.363 78.874, 229 82.167, 229 83.083 C 229 85.364, 224.223 86.180, 217.897 84.980 C 211.594 83.785, 210.129 84.527, 213.524 87.197 C 215.917 89.080, 216.064 89.639, 215.452 94.538 C 214.804 99.722, 214.859 99.876, 217.895 101.446 C 219.815 102.439, 221 103.823, 221 105.074 C 221 106.186, 222.146 108.087, 223.546 109.298 C 225.049 110.597, 226.620 113.550, 227.379 116.500 C 228.511 120.901, 228.955 121.469, 231.083 121.239 C 232.412 121.096, 235.745 120.863, 238.490 120.722 C 244.665 120.404, 245.827 117.948, 241.080 115.246 C 239.393 114.286, 238.010 113.162, 238.006 112.750 C 237.990 110.796, 242.037 113.082, 249.337 119.149 C 252.656 121.907, 256.185 124, 257.516 124 C 258.804 124, 260.540 124.683, 261.375 125.518 C 262.732 126.875, 263.243 126.822, 266.196 125.022 C 270.391 122.464, 272 122.468, 272 125.035 C 272 126.760, 272.305 126.907, 274 126 C 275.100 125.411, 276 124.293, 276 123.515 C 276 122.736, 276.770 121.668, 277.712 121.141 C 279.192 120.313, 278.927 119.890, 275.757 118.019 C 271.671 115.608, 270.217 112.649, 272.040 110.452 C 272.998 109.298, 272.951 109, 271.814 109 C 271.026 109, 269.541 108.385, 268.513 107.633 C 266.717 106.320, 266.746 106.163, 269.272 103.637 L 271.900 101.009 268.466 101.255 C 266.577 101.390, 265.077 101.950, 265.134 102.500 C 265.518 106.232, 265.004 107.019, 263 105.768 C 261.900 105.081, 261 103.727, 261 102.759 C 261 101.792, 260.314 101, 259.475 101 C 257.484 101, 255.535 96.065, 256.963 94.637 C 258.611 92.989, 258.168 89.192, 256.250 88.535 C 253.756 87.681, 249 80.433, 249 77.487 C 249 76.119, 248.559 75, 248.019 75 C 247.480 75, 246.756 73.875, 246.411 72.500 C 245.903 70.478, 245.182 70.011, 242.642 70.058 C 240.146 70.105, 238.421 71.278, 234.250 75.767 M 320.262 133.049 C 321.155 134.478, 320.848 135.511, 318.687 138.344 C 317.210 140.280, 315.563 143.019, 315.026 144.432 C 314.213 146.571, 314.338 147.005, 315.775 147.032 C 316.724 147.049, 318.350 147.707, 319.388 148.493 C 320.810 149.570, 321.770 149.658, 323.276 148.852 C 325.342 147.747, 326.578 147.513, 336.144 146.417 C 341.385 145.816, 342.376 146.064, 350.010 149.885 C 359.245 154.507, 359.737 154.585, 365.992 152.407 C 371.362 150.537, 372.472 149.686, 376.167 144.600 C 379.527 139.975, 379.672 139, 377 139 C 375.900 139, 375 138.494, 375 137.875 C 375 137.130, 373.903 136.985, 371.750 137.446 C 369.962 137.828, 365.238 138.354, 361.250 138.613 C 354.935 139.025, 354 138.869, 354 137.403 C 354 135.328, 351.053 133.043, 349.262 133.730 C 348.483 134.029, 348.186 135.010, 348.538 136.118 C 348.984 137.524, 348.639 138, 347.174 138 C 346.096 138, 344.981 137.392, 344.696 136.650 C 344.188 135.328, 336.127 133.689, 330.839 133.833 C 329.375 133.873, 327.950 133.313, 327.673 132.589 C 327.371 131.804, 325.551 131.273, 323.160 131.273 C 319.572 131.273, 319.269 131.458, 320.262 133.049 M 387.170 156.716 C 384.370 157.250, 381 160.416, 381 162.514 C 381 163.346, 380.456 164.898, 379.792 165.962 C 378.785 167.573, 379.049 168.869, 381.365 173.699 C 384.205 179.622, 388.209 185, 389.778 185 C 390.258 185, 391.708 186.125, 393 187.500 C 394.292 188.875, 395.648 190, 396.014 190 C 396.380 190, 397.192 188.875, 397.818 187.500 C 399.320 184.204, 401.138 184.343, 403.812 187.960 C 405.629 190.418, 406 192.261, 406 198.837 C 406 204.409, 406.415 207.100, 407.402 207.919 C 408.173 208.558, 409.080 210.184, 409.418 211.531 C 409.983 213.782, 410.457 213.961, 415.267 213.740 C 418.145 213.608, 420.725 213.275, 421 213 C 424.171 209.829, 430.815 208.377, 439.500 208.957 C 440.600 209.031, 442.175 208.272, 443 207.272 C 443.825 206.271, 446.637 204.207, 449.250 202.684 C 453.158 200.406, 454 199.411, 454 197.065 C 454 195.453, 454.652 193.964, 455.500 193.638 C 457.936 192.703, 457.220 189.539, 454.040 187.188 C 452.413 185.985, 450.536 185, 449.869 185 C 449.203 185, 447.798 184.222, 446.747 183.271 C 444.935 181.631, 444.785 181.632, 443.857 183.292 C 442.502 185.712, 441 184.476, 441 180.941 C 441 178.714, 440.537 178, 439.093 178 C 438.044 178, 435.230 175.825, 432.840 173.167 C 429.353 169.289, 427.647 168.199, 424.196 167.647 C 421.070 167.147, 419.303 167.375, 417.725 168.480 C 416.532 169.316, 414.585 170, 413.400 170 C 412.215 170, 410.685 170.675, 410 171.500 C 409.315 172.325, 407.896 173, 406.846 173 C 405.796 173, 404.678 172.325, 404.362 171.500 C 404.045 170.675, 403.208 170, 402.502 170 C 401.795 170, 400.453 168.088, 399.518 165.750 C 397.875 161.640, 392.545 155.981, 390.500 156.177 C 389.950 156.229, 388.451 156.472, 387.170 156.716 M 343.388 169.986 C 342.227 170.452, 341.029 171.780, 340.727 172.937 C 340.301 174.563, 340.893 175.407, 343.338 176.660 C 347.452 178.767, 347.966 179.661, 347.985 184.739 C 348.006 190.769, 350.231 193, 356.222 193 C 359.802 193, 361 192.624, 361 191.500 C 361 190.567, 361.944 190, 363.500 190 C 365.302 190, 366 189.462, 366 188.071 C 366 187.011, 366.765 185.378, 367.700 184.443 C 369.300 182.843, 369.271 182.638, 367.200 180.961 C 365.990 179.981, 365 178.837, 365 178.418 C 365 178, 363.030 175.770, 360.623 173.463 C 356.624 169.631, 355.781 169.263, 350.873 169.203 C 347.918 169.167, 344.550 169.519, 343.388 169.986 M 393 210.994 C 393 211.507, 390.413 213.180, 387.250 214.713 C 381.582 217.460, 380.174 219.405, 381.448 222.726 C 381.869 223.822, 382.391 224.009, 383.088 223.312 C 383.714 222.686, 385.724 222.584, 388.265 223.049 C 391.504 223.641, 392.671 223.465, 393.558 222.251 C 394.280 221.264, 395.209 220.996, 396.098 221.519 C 396.869 221.973, 396.643 221.366, 395.595 220.172 C 393.807 218.134, 393.793 217.886, 395.369 216.145 C 396.293 215.124, 396.778 213.584, 396.447 212.722 C 395.767 210.951, 393 209.564, 393 210.994 M 469 255.340 C 467.075 255.926, 464.938 256.958, 464.250 257.632 C 462.596 259.253, 462.720 263.886, 464.500 267 C 465.286 268.375, 465.945 270.722, 465.965 272.215 C 465.985 273.778, 467.296 276.406, 469.053 278.408 C 474.672 284.807, 475.126 292, 469.913 292 C 467.445 292, 466.716 292.724, 464.529 297.346 C 463.138 300.287, 462 303.465, 462 304.409 C 462 305.445, 461.306 306.055, 460.250 305.948 C 456.780 305.595, 456.005 306.051, 454.644 309.250 C 453.883 311.038, 452.026 313.554, 450.517 314.842 C 448.035 316.961, 447.846 317.579, 448.537 321.342 C 448.956 323.629, 449.277 326.566, 449.248 327.869 C 449.215 329.403, 449.883 330.418, 451.144 330.748 C 454.281 331.568, 457.027 338.215, 457.243 345.511 C 457.406 351.015, 457.738 352.099, 459.421 352.634 C 460.513 352.980, 461.974 353.831, 462.668 354.525 C 463.682 355.539, 463.507 355.896, 461.770 356.350 C 459.757 356.876, 459.722 357.035, 461.247 358.720 C 462.145 359.713, 463.397 362.770, 464.027 365.513 C 464.658 368.256, 465.631 372.008, 466.189 373.852 C 466.914 376.249, 466.852 378.457, 465.970 381.606 C 465.292 384.027, 464.968 387.726, 465.250 389.825 C 465.554 392.091, 465.215 394.630, 464.416 396.071 C 462.959 398.702, 462.511 405, 463.781 405 C 464.210 405, 465.064 406.332, 465.679 407.960 C 466.574 410.332, 467.711 411.150, 471.398 412.079 C 473.929 412.716, 476 413.590, 476 414.021 C 476 414.453, 478.416 416.409, 481.368 418.369 C 485.411 421.052, 486.925 422.743, 487.499 425.216 C 488.016 427.444, 488.404 427.937, 488.704 426.750 C 488.948 425.788, 489.789 425, 490.573 425 C 491.358 425, 492 424.561, 492 424.024 C 492 423.488, 493.575 421.615, 495.500 419.864 C 497.425 418.112, 499 415.888, 499 414.921 C 499 412.091, 500.108 410, 501.607 410 C 503.160 410, 503.409 408.193, 502.132 406.180 C 501.065 404.496, 506.816 398.467, 509.141 398.831 C 510.855 399.100, 517 392.445, 517 390.319 C 517 388.105, 525.801 385.087, 533.689 384.595 C 537.863 384.335, 541.755 383.645, 542.339 383.061 C 542.923 382.477, 544.327 382, 545.459 382 C 546.592 382, 548.087 381.090, 548.782 379.977 C 549.477 378.865, 552.418 376.906, 555.317 375.623 C 562.099 372.624, 570.732 366.420, 571.502 363.992 C 571.832 362.953, 572.980 361.824, 574.052 361.483 C 576.332 360.760, 577.929 358.126, 578.220 354.608 C 578.359 352.934, 579.182 351.920, 580.714 351.536 C 583.416 350.858, 583.806 348, 581.196 348 C 578.748 348, 570.851 342.807, 569 339.980 C 568.175 338.720, 566.712 336.984, 565.750 336.122 C 564.788 335.260, 564 333.470, 564 332.144 C 564 330.817, 563.479 327.992, 562.842 325.866 C 561.830 322.489, 561.293 321.991, 558.592 321.930 C 552.042 321.781, 551.484 321.055, 551.849 313.155 C 552.110 307.495, 551.866 305.886, 550.673 305.428 C 549.844 305.110, 547.954 302.971, 546.472 300.675 C 543.565 296.172, 537.478 290, 535.944 290 C 535.425 290, 534.125 289.125, 533.055 288.055 C 530.654 285.654, 517.954 279, 515.772 279 C 514.894 279, 511.773 277.402, 508.837 275.449 C 504.224 272.380, 502.947 271.978, 499.426 272.484 C 495.859 272.997, 494.924 272.686, 491.926 269.993 C 490.041 268.301, 487.294 266.265, 485.821 265.469 C 484.348 264.673, 482.998 263.055, 482.821 261.874 C 482.614 260.489, 480.722 258.756, 477.500 257 C 473.111 254.607, 472.073 254.404, 469 255.340" stroke="none" fill="#050a06" fill-rule="evenodd"/></svg>