<svg xmlns="http://www.w3.org/2000/svg" width="558" height="447" viewBox="0 0 558 447" version="1.1"><path d="M 175.618 42.809 C 175.312 43.304, 175.018 75.388, 174.965 114.105 C 174.880 175.886, 175.060 184.955, 176.434 188.218 C 177.295 190.263, 178 194.223, 178 197.018 C 178 203.755, 179.935 207.167, 185.975 211.081 C 188.730 212.866, 191.665 215.366, 192.498 216.637 C 194.808 220.163, 194.604 225.913, 191.990 231 C 190.718 233.475, 188.410 239.067, 186.861 243.427 C 185.313 247.787, 183.592 251.634, 183.036 251.978 C 182.133 252.536, 181.253 256.630, 181.067 261.141 C 181.030 262.044, 179.232 264.921, 177.072 267.535 C 174.912 270.150, 172.857 273.434, 172.506 274.833 C 172.154 276.233, 170.997 278.600, 169.934 280.093 C 168.809 281.672, 168 284.457, 168 286.746 C 168 290.501, 168.197 290.745, 172.250 292.024 C 174.588 292.761, 176.950 293.244, 177.500 293.099 C 178.050 292.953, 178.161 293.172, 177.746 293.587 C 177.332 294.001, 177.688 295.401, 178.538 296.698 C 179.388 297.995, 179.780 299.547, 179.410 300.146 C 179.039 300.745, 178.641 302.870, 178.524 304.868 C 178.407 306.865, 177.574 309.924, 176.674 311.665 C 175.232 314.453, 175.030 320.160, 174.979 359.543 C 174.948 384.135, 175.086 404.419, 175.286 404.619 C 175.486 404.819, 223.735 404.995, 282.505 405.009 C 367.684 405.030, 389.532 404.778, 390.205 403.767 C 390.670 403.070, 390.926 375.404, 390.775 342.288 L 390.499 282.075 385.618 277.120 C 380.204 271.623, 377.523 271.299, 378.247 276.228 C 378.739 279.580, 377.609 280.271, 369.750 281.425 C 367.137 281.809, 365 282.631, 365 283.252 C 365 283.874, 364.378 283.532, 363.618 282.492 C 362.436 280.876, 361.097 280.637, 354.368 280.841 C 347.618 281.046, 346.262 281.390, 344.828 283.263 C 343.246 285.327, 342.850 285.381, 337.504 284.260 C 333.120 283.340, 331.421 283.344, 329.927 284.278 C 328.867 284.940, 328 285.737, 328 286.049 C 328 286.362, 327.399 287.439, 326.665 288.443 C 325.401 290.172, 325.185 290.115, 322.600 287.384 C 319.188 283.780, 317.221 280.107, 315.374 273.889 C 314.124 269.678, 310.984 266.196, 309 266.819 C 305.931 267.783, 300.899 259.978, 301.743 255.563 C 302.105 253.670, 301.791 252.314, 300.822 251.594 C 300.013 250.992, 297.749 248.161, 295.789 245.303 C 293.830 242.445, 292.048 240.286, 291.828 240.505 C 291.608 240.725, 291.361 240.139, 291.278 239.202 C 290.872 234.592, 288.687 226.241, 287.342 224.156 C 285.841 221.829, 285.814 221.825, 283.665 223.744 C 282.474 224.807, 279.813 226.686, 277.750 227.920 C 275.687 229.154, 274 230.528, 274 230.975 C 274 233.113, 270.498 232.925, 268.566 230.682 C 267.430 229.365, 265.554 227.988, 264.397 227.622 C 262.521 227.030, 262.294 226.197, 262.294 219.891 C 262.294 215.085, 262.702 212.668, 263.570 212.335 C 265.720 211.510, 266.067 209.048, 264.943 202.595 C 264.064 197.544, 264.164 195.223, 265.491 189.954 C 266.384 186.404, 267.223 182.817, 267.355 181.982 C 267.487 181.148, 267.894 179.980, 268.261 179.387 C 268.627 178.794, 269.231 176.408, 269.603 174.083 L 270.278 169.857 266.801 170.510 C 259.190 171.937, 254.342 167.574, 240.435 146.782 C 234.917 138.533, 233.241 136.758, 229.340 135.032 C 224.575 132.924, 221.380 132.307, 224 134 C 224.825 134.533, 224.993 134.976, 224.372 134.985 C 223.752 134.993, 222.627 134.239, 221.872 133.308 C 220.940 132.158, 220.901 131.857, 221.750 132.367 C 223.732 133.558, 223.200 131.256, 221.159 129.807 C 217.668 127.330, 216.642 124.114, 218.015 119.955 C 219.237 116.252, 219.169 116.069, 213.381 107.349 L 207.507 98.500 207.240 86.500 C 207.093 79.900, 206.867 67.300, 206.737 58.500 L 206.500 42.500 191.338 42.204 C 182.998 42.041, 175.925 42.313, 175.618 42.809" stroke="none" fill="#040404" fill-rule="evenodd"/></svg>