<svg xmlns="http://www.w3.org/2000/svg" width="357" height="612" viewBox="0 0 357 612" version="1.1"><path d="M 76.784 1.884 C 76.377 3.999, 79.842 7.447, 83.700 8.766 C 88.605 10.444, 95.917 16.229, 95.961 18.467 C 96.033 22.085, 99.229 28.938, 101.126 29.540 C 102.158 29.868, 103.467 31.005, 104.036 32.068 C 104.605 33.130, 105.559 34, 106.155 34 C 106.752 34, 109.119 35.224, 111.414 36.719 C 117.126 40.441, 121.033 50.198, 121.014 60.691 C 121.006 64.646, 120.550 68.160, 120 68.500 C 119.450 68.840, 119 69.944, 119 70.953 C 119 73.164, 113.768 79, 111.786 79 C 111.009 79, 109.104 80.326, 107.551 81.947 C 105.093 84.512, 104.810 85.411, 105.365 88.879 C 106.019 92.971, 104.917 97.277, 102.526 99.973 C 96.601 106.655, 94.931 108, 92.563 108 C 90.023 108, 89.036 108.347, 84 111.010 C 75.064 115.735, 71.878 116.809, 65 117.413 C 50.776 118.664, 46.448 119.545, 43.215 121.847 C 40.830 123.545, 40 124.903, 40 127.108 C 40 128.742, 39.100 131.844, 38 134 C 36.900 136.156, 36 139.063, 36 140.460 C 36 142.333, 36.525 143, 38 143 C 39.100 143, 40 143.450, 40 144 C 40 144.550, 40.597 145, 41.326 145 C 42.055 145, 43.742 146.166, 45.076 147.591 C 47.385 150.059, 47.486 150.712, 47.209 161.341 C 46.956 171.042, 46.615 172.959, 44.602 176.013 C 43.328 177.945, 41.966 180.533, 41.575 181.763 C 41.185 182.993, 40.494 184, 40.040 184 C 38.684 184, 37.773 187.051, 36.605 195.500 C 35.627 202.579, 35.246 203.536, 33.297 203.813 C 32.086 203.986, 30.818 204.997, 30.481 206.061 C 29.909 207.862, 26.581 209.421, 24.436 208.894 C 21.691 208.218, 14.984 210.750, 11.252 213.870 C 8.913 215.824, 7 217.744, 7 218.135 C 7 218.526, 8.174 220.242, 9.610 221.948 C 11.508 224.204, 12.079 225.793, 11.703 227.775 C 11.013 231.417, 6.783 242.347, 5.384 244.101 C 3.489 246.477, 1.373 257.443, 0.601 268.883 C 0.085 276.529, 0.175 276.993, 2.533 278.847 C 5.112 280.876, 5.461 282.860, 4.388 289.390 C 3.910 292.299, 4.126 293.491, 5.246 294.118 C 6.070 294.579, 7.966 297.553, 9.461 300.728 C 10.955 303.903, 12.921 308.075, 13.830 310 C 17.193 317.125, 23.981 324.613, 36.361 334.856 C 40.587 338.352, 44.500 342.065, 45.057 343.106 C 45.637 344.189, 47.141 345, 48.570 345 C 51.299 345, 55.971 347.597, 57.402 349.910 C 57.899 350.711, 60.451 353.344, 63.075 355.761 C 68.572 360.825, 71.254 366.480, 70.335 371.073 C 69.915 373.176, 70.149 374.474, 71.048 375.030 C 72.119 375.692, 72.148 376.380, 71.193 378.475 C 69.335 382.555, 69.785 387.134, 72.474 391.500 C 73.829 393.700, 74.952 396.445, 74.969 397.600 C 74.998 399.600, 80.470 404.746, 82.069 404.279 C 83.670 403.812, 90.336 398.923, 91.450 397.400 C 93.067 395.188, 98.432 395.392, 104.787 397.907 C 107.695 399.058, 111.135 400, 112.432 400 C 115.349 400, 124.003 407.933, 123.994 410.600 C 123.990 411.669, 122.650 413.261, 120.931 414.240 C 117.977 415.920, 117.901 416.140, 118.664 420.740 C 119.792 427.550, 118.777 439.461, 116.898 441.450 C 116.404 441.973, 116 442.962, 116 443.650 C 116 445.856, 110.230 453.435, 106.978 455.500 C 103.441 457.747, 102 460.603, 102 465.365 C 102 467.144, 101.525 469.075, 100.945 469.655 C 99.288 471.312, 100.961 475.911, 104.050 478.195 C 105.592 479.335, 108.264 482.232, 109.989 484.634 C 111.861 487.240, 113.915 489, 115.087 489 C 116.260 489, 117.432 490.005, 118 491.500 C 118.523 492.875, 119.318 494, 119.767 494 C 120.216 494, 122.253 495.575, 124.294 497.500 C 126.335 499.425, 128.570 501, 129.262 501 C 129.953 501, 131.062 501.870, 131.727 502.934 C 132.427 504.055, 134.312 505.001, 136.209 505.184 C 139.605 505.512, 141.766 509, 138.573 509 C 136.046 509, 136.778 512.390, 139.586 513.693 C 141.449 514.557, 142.799 514.593, 144.488 513.823 C 146.419 512.943, 147.394 513.191, 150.160 515.266 C 151.997 516.644, 155.300 518.713, 157.500 519.863 C 162.991 522.734, 165.555 525.109, 166.316 528.027 C 166.734 529.632, 168.702 531.454, 171.925 533.219 C 177.868 536.474, 179.328 540.180, 178.373 549.595 C 177.765 555.600, 177.809 555.742, 181.401 559.334 C 186.336 564.269, 187.048 568.124, 183.614 571.307 C 182.176 572.639, 181 574.203, 181 574.781 C 181 575.360, 180.620 575.983, 180.155 576.167 C 179.690 576.350, 179.010 577.724, 178.643 579.219 C 178.103 581.425, 178.452 582.250, 180.489 583.584 C 182.351 584.805, 183 586.104, 183 588.613 C 183 590.534, 184.513 594.897, 186.500 598.708 C 188.425 602.400, 190 606.001, 190 606.711 C 190 607.420, 190.627 608, 191.393 608 C 192.159 608, 193.045 608.675, 193.362 609.500 C 193.678 610.325, 195.124 611, 196.574 611 C 199.046 611, 199.186 610.752, 198.829 607 C 198.619 604.800, 198.797 603, 199.224 603 C 199.651 603, 200 603.420, 200 603.933 C 200 604.446, 200.900 605.151, 202 605.500 C 203.100 605.849, 204 606.710, 204 607.412 C 204 608.115, 204.904 609.508, 206.009 610.509 C 207.988 612.299, 208.013 612.275, 207.646 608.921 C 207.202 604.865, 208.728 599.945, 210.921 598.359 C 214.087 596.070, 218 592.071, 218 591.125 C 218 590.592, 219.575 589.635, 221.500 589 C 223.425 588.365, 225 587.478, 225 587.029 C 225 585.531, 227.987 585.045, 230.759 586.092 C 232.266 586.661, 234.712 588.449, 236.194 590.064 C 238.114 592.157, 239.820 593, 242.135 593 C 244.123 593, 247.934 594.515, 251.953 596.903 C 259.707 601.510, 270.603 604.211, 272.109 601.900 C 273.814 599.283, 272.001 592.666, 268.897 590.178 C 266.185 588.003, 266 587.396, 266 580.667 C 266 574.554, 266.344 573.108, 268.301 570.990 C 269.567 569.620, 270.903 567.712, 271.270 566.750 C 271.935 565.006, 273.410 564.606, 277.828 564.971 C 279.109 565.077, 281.983 563.898, 284.216 562.350 C 287.691 559.942, 289.313 559.521, 295.479 559.426 C 299.441 559.365, 303.204 558.992, 303.841 558.598 C 305.674 557.465, 305.194 553.528, 302.902 550.903 C 296.487 543.553, 295.830 536.004, 301.212 531.475 C 302.830 530.114, 305.003 529, 306.042 529 C 308.158 529, 310.647 525.221, 309.343 523.990 C 308.879 523.552, 307.605 523.033, 306.511 522.836 C 304.020 522.386, 303.157 519, 305.534 519 C 306.655 519, 307.012 518.474, 306.607 517.418 C 306.273 516.548, 306 515.648, 306 515.418 C 306 515.188, 304.650 515, 303 515 C 301.205 515, 300 514.478, 300 513.700 C 300 512.876, 301.307 512.400, 303.567 512.400 C 307.276 512.400, 309.689 510.289, 307.958 508.558 C 306.586 507.186, 306.773 497.627, 308.200 496.200 C 308.860 495.540, 310.057 495, 310.861 495 C 312.837 495, 318 489.084, 318 486.820 C 318 485.579, 317.256 485, 315.661 485 C 314.137 485, 312.925 484.130, 312.184 482.505 C 310.856 479.589, 311.716 473.852, 313.654 472.700 C 314.394 472.260, 315 471.232, 315 470.416 C 315 469.216, 315.942 469.056, 319.916 469.583 C 327.375 470.573, 328.993 468.567, 331.946 454.674 C 332.498 452.079, 334.236 449.413, 337.352 446.385 C 340.508 443.317, 342.265 440.604, 342.971 437.711 C 344.632 430.905, 347.322 426.825, 350.952 425.603 C 353.552 424.728, 354.527 423.614, 355.663 420.221 C 356.996 416.237, 356.954 415.744, 355.047 413.067 C 353.921 411.485, 353 409.494, 353 408.643 C 353 407.791, 352.467 405.924, 351.815 404.494 C 350.838 402.348, 350.934 401.382, 352.368 398.954 C 354.085 396.047, 354.070 395.970, 351.059 392.223 C 349.384 390.139, 347.907 387.147, 347.777 385.575 C 347.615 383.621, 346.540 382.061, 344.376 380.643 C 338.904 377.056, 338.627 375.658, 342.542 371.385 C 346.017 367.591, 347.298 361.920, 345 360.500 C 343.224 359.402, 343.972 357.589, 348.027 353.164 L 352 348.829 352 217.014 L 352 85.199 349.510 79.849 C 348.140 76.907, 347 72.700, 346.976 70.500 C 346.952 68.300, 346.063 64.700, 345 62.500 C 343.937 60.300, 343.053 56.828, 343.034 54.785 C 342.994 50.418, 338.387 44.477, 333.436 42.409 C 329.346 40.700, 328.169 39.136, 327.425 34.424 C 327.085 32.266, 326.111 29.319, 325.261 27.875 C 324.008 25.745, 323.932 24.634, 324.858 21.976 C 325.486 20.175, 326 17.249, 326 15.473 C 326 13.698, 326.625 11.726, 327.389 11.092 C 329.080 9.689, 330.069 5.161, 328.850 4.407 C 328.364 4.107, 328.207 3.474, 328.500 3 C 328.793 2.526, 328.512 1.816, 327.875 1.423 C 327.238 1.029, 270.549 0.626, 201.899 0.526 C 90.249 0.364, 77.049 0.508, 76.784 1.884" stroke="none" fill="#040b04" fill-rule="evenodd"/></svg>