<svg xmlns="http://www.w3.org/2000/svg" width="360" height="360" viewBox="0 0 360 360" version="1.1"><path d="M 3 66.378 C 3 67.693, 3.949 69.386, 5.124 70.166 C 6.954 71.382, 7.149 72.158, 6.536 75.788 C 6.144 78.105, 5.456 80, 5.006 80 C 3.916 80, 4.984 83.965, 6.117 84.125 C 6.602 84.194, 7.512 84.306, 8.139 84.375 C 10.255 84.607, 11.213 97.096, 9.167 97.778 C 8.525 97.992, 8 99.297, 8 100.679 C 8 104.569, 4.937 114.233, 2.864 116.885 C 0.285 120.184, 0.514 123.452, 3.461 125.382 C 4.909 126.331, 6.375 128.679, 7.024 131.089 C 8.896 138.042, 10.135 140, 12.661 140 C 15.270 140, 15.578 141.498, 14.058 146.798 C 13.263 149.568, 13.498 150.645, 15.558 153.681 C 18.131 157.473, 18.595 159.514, 17.094 160.442 C 15.730 161.285, 17.020 164.996, 19.137 166.317 C 20.162 166.957, 21 168.408, 21 169.541 C 21 172.980, 23.266 176.662, 26.025 177.703 C 28.301 178.563, 28.581 179.147, 28.216 182.278 C 27.895 185.025, 28.409 186.670, 30.407 189.290 C 32.874 192.523, 32.939 192.901, 31.597 196.115 C 30.707 198.244, 30.340 201.571, 30.616 205.008 C 30.978 209.519, 31.590 210.991, 34.044 213.250 C 35.687 214.762, 37.757 216, 38.643 216 C 39.968 216, 40.171 216.864, 39.788 220.860 C 39.407 224.816, 39.663 225.933, 41.160 226.868 C 43.091 228.074, 43.640 230.598, 42.095 231.167 C 41.598 231.350, 41.035 232.625, 40.845 234 C 40.575 235.961, 40.986 236.569, 42.750 236.820 C 44.891 237.124, 46.026 239, 44.069 239 C 42.580 239, 44.398 254.250, 46.484 259.250 C 46.939 260.342, 46.769 261, 46.032 261 C 45.326 261, 44.971 262.159, 45.151 263.875 C 45.317 265.456, 44.814 267.519, 44.034 268.459 C 43.103 269.581, 42.939 270.598, 43.558 271.422 C 44.076 272.112, 45.850 274.495, 47.500 276.719 L 50.500 280.761 81 281.532 C 108.486 282.226, 234.151 280.682, 263.025 279.295 L 273.550 278.790 274.944 281.395 C 275.711 282.828, 276.948 284, 277.694 284 C 278.439 284, 279.463 285.089, 279.969 286.419 C 280.475 287.750, 281.622 289.249, 282.518 289.750 C 283.414 290.252, 284.687 291.750, 285.347 293.081 C 286.089 294.578, 287.585 295.621, 289.273 295.816 C 291.925 296.124, 292 295.994, 292 291.066 C 292 288.280, 291.550 286, 291 286 C 290.450 286, 290 285.131, 290 284.068 C 290 281.872, 294.879 278.002, 297.654 277.996 C 298.669 277.994, 300.945 277.112, 302.710 276.035 C 305.423 274.381, 306.024 273.299, 306.587 269.056 C 307.086 265.294, 308.377 262.522, 311.737 258 C 315.980 252.292, 316.185 251.716, 315.531 247.355 C 314.630 241.347, 314.068 240, 312.461 240 C 310.330 240, 306.720 234.171, 307.319 231.696 C 310.200 219.789, 310.345 219.547, 315.064 218.765 C 317.504 218.360, 322.132 217.834, 325.349 217.596 C 329.469 217.291, 331.853 216.547, 333.413 215.081 C 334.632 213.937, 336.950 212.983, 338.564 212.962 C 340.388 212.939, 342.927 211.702, 345.269 209.696 C 348.489 206.938, 349.131 205.692, 349.669 201.149 C 350.234 196.378, 350.695 195.569, 354.146 193.285 C 358.976 190.088, 360.480 185.256, 359.606 175.742 C 358.914 168.214, 358.090 167.001, 350.748 162.698 C 345.782 159.788, 344 157.498, 344 154.026 C 344 151.737, 336.946 144.435, 333.757 143.423 C 332.216 142.934, 331.912 142.192, 332.351 139.996 C 333.199 135.756, 329.775 129.466, 325.880 128.108 C 324.132 127.499, 321.629 127, 320.318 127 C 319.006 127, 315.743 125.890, 313.065 124.533 C 308.389 122.163, 308.168 121.859, 307.473 116.807 C 307.076 113.915, 306.151 110.634, 305.419 109.516 C 304.686 108.399, 303.780 103.805, 303.405 99.309 C 302.838 92.501, 302.993 90.864, 304.335 89.522 C 305.221 88.636, 306.497 86.072, 307.171 83.824 C 308.313 80.012, 308.240 79.613, 306.087 77.869 C 304.817 76.841, 303.153 76, 302.389 76 C 301.453 76, 300.996 74.777, 300.986 72.250 C 300.979 70.188, 300.701 67.487, 300.370 66.250 L 299.767 64 151.383 64 L 3 64 3 66.378" stroke="none" fill="#040404" fill-rule="evenodd"/></svg>