<svg xmlns="http://www.w3.org/2000/svg" width="500" height="500" viewBox="0 0 500 500" version="1.1"><path d="M 42.336 195.750 C 42.698 224.213, 42.996 271.913, 42.997 301.750 L 43 356 250.006 356 L 457.012 356 456.756 279.907 L 456.500 203.814 452.655 202.492 C 447.466 200.708, 444.210 197.440, 442.761 192.560 C 442.006 190.019, 439.786 186.796, 436.828 183.948 C 431.377 178.699, 429.133 174.143, 431.203 172.530 C 431.930 171.963, 433.099 170.375, 433.802 169 C 436.874 162.987, 438.047 161.500, 439.720 161.500 C 442.116 161.500, 442.818 156.037, 440.582 154.786 C 439.712 154.299, 439 153.248, 439 152.450 C 439 150.701, 438.773 150.688, 433.864 152.159 C 430.087 153.291, 429.855 153.208, 423.997 148.659 L 417.997 144 229.837 144 L 41.676 144 42.336 195.750" stroke="none" fill="#040404" fill-rule="evenodd"/></svg>