<svg xmlns="http://www.w3.org/2000/svg" width="540" height="360" viewBox="0 0 540 360" version="1.1"><path d="M 336.779 70.330 C 336.076 71.015, 333.810 72.609, 331.744 73.873 C 329.508 75.241, 328.259 76.642, 328.658 77.335 C 329.026 77.976, 330.148 79.685, 331.149 81.134 C 332.918 83.692, 332.915 83.839, 331.018 86.250 C 328.976 88.846, 329.249 89.990, 331.917 90.015 C 332.787 90.024, 334.157 90.446, 334.960 90.954 C 336.214 91.747, 336.166 92.159, 334.620 93.867 C 333.399 95.216, 333.046 96.571, 333.524 98.076 C 334.171 100.115, 333.979 100.246, 331.153 99.681 C 329.462 99.342, 327.809 99.501, 327.480 100.033 C 327.151 100.565, 325.543 101, 323.906 101 C 320.668 101, 315.707 103.716, 316.525 105.040 C 316.804 105.492, 316.506 106.187, 315.862 106.585 C 315.131 107.037, 314.959 106.876, 315.405 106.155 C 316.452 104.459, 314.456 104.746, 313 106.500 C 311.252 108.606, 307.370 108.367, 305.750 106.054 C 304.637 104.465, 303.258 104.124, 298.240 104.195 C 290.993 104.297, 290.804 104.631, 292.824 113.744 L 294.207 119.988 291.354 123.449 C 289.784 125.352, 287.375 127.181, 286 127.514 C 281.621 128.574, 280.559 129.599, 279.286 133.998 C 277.359 140.651, 272.279 145.306, 269.480 142.983 C 267.786 141.578, 266.006 142.507, 265.983 144.809 C 265.973 145.739, 264.848 147.560, 263.483 148.855 C 261.393 150.837, 261 152.132, 261 157.034 C 261 163.315, 259.453 166, 255.835 166 C 254.654 166, 253.595 166.832, 253.290 168 C 252.588 170.685, 251.558 170.519, 250.182 167.500 C 249.252 165.459, 248.331 165, 245.167 165 C 240.108 165, 235.511 161.084, 236.402 157.534 C 236.828 155.837, 236.256 154.269, 234.409 152.074 C 232.984 150.380, 231.409 149.247, 230.909 149.556 C 229.366 150.510, 229.900 151.740, 232.105 152.317 C 234.609 152.972, 234.126 155.498, 231.496 155.504 C 230.488 155.507, 229.468 156.097, 229.228 156.815 C 228.890 157.831, 228.391 157.759, 226.996 156.496 C 225.730 155.350, 224.992 155.204, 224.499 156.001 C 224.114 156.624, 224.511 157.666, 225.381 158.317 C 227.371 159.806, 226.113 162.040, 223.160 162.263 C 220.552 162.459, 219.593 165.015, 220.437 169.517 C 221.007 172.553, 220.828 172.890, 218.501 173.180 C 217.091 173.356, 215.907 173.950, 215.870 174.500 C 215.730 176.574, 213.874 179, 212.427 179 C 211.385 179, 211.012 178.158, 211.212 176.250 C 211.506 173.443, 211.428 173.417, 206.719 174.747 C 205.365 175.129, 204.548 174.259, 203.317 171.125 C 201.426 166.311, 198.889 165.714, 196.408 169.500 C 195.354 171.109, 193.831 172.005, 192.135 172.015 C 188.214 172.038, 187.160 173.100, 185.496 178.703 C 183.835 184.295, 181.330 186.172, 179.276 183.363 C 178.574 182.403, 178 181.254, 178 180.809 C 178 180.364, 177.360 180, 176.577 180 C 175.794 180, 173.881 178.958, 172.327 177.685 C 170.772 176.411, 167.783 174.331, 165.684 173.063 C 161.958 170.810, 161.779 170.796, 158.056 172.475 C 153.255 174.640, 150.756 174.182, 149.983 170.995 C 149.379 168.507, 149.374 168.506, 148.210 170.645 C 147.275 172.361, 147.338 173.035, 148.521 174.017 C 150.640 175.776, 150.345 178.745, 147.922 180.042 C 144.818 181.703, 142.825 180.545, 143.584 177.522 C 144.142 175.297, 143.902 175, 141.543 175 C 140.072 175, 138.031 175.448, 137.007 175.996 C 135.558 176.772, 134.489 176.441, 132.188 174.505 C 129.538 172.275, 129.096 172.180, 127.926 173.590 C 126.903 174.822, 126.878 175.575, 127.810 177.068 C 128.465 178.116, 129 179.771, 129 180.746 C 129 182.813, 125.666 185.193, 123.783 184.470 C 123.070 184.196, 120.352 185.932, 117.743 188.327 C 113.779 191.967, 113 193.270, 113 196.264 C 113 198.626, 113.851 200.858, 115.500 202.818 C 119.351 207.395, 118.831 209.553, 113.557 210.881 C 111.114 211.497, 107.799 212, 106.192 212 C 104.585 212, 102.070 212.944, 100.604 214.097 C 98.440 215.799, 97.658 215.961, 96.450 214.959 C 95.248 213.961, 94.583 214.068, 92.981 215.517 C 91.892 216.503, 91 217.996, 91 218.834 C 91 219.672, 90.496 221.751, 89.881 223.453 C 88.878 226.226, 89.085 227.026, 91.881 231.169 C 93.596 233.710, 95 236.107, 95 236.494 C 95 238.236, 91.703 243.900, 90.397 244.401 C 89.600 244.707, 86.120 243.504, 82.663 241.729 C 79.207 239.953, 75.281 237.981, 73.939 237.346 C 72.598 236.712, 69.250 235.038, 66.500 233.628 C 63.750 232.217, 60.600 231.050, 59.500 231.035 C 56.828 230.998, 51.086 234.577, 50.320 236.756 C 49.983 237.715, 48.714 239.625, 47.500 241 C 43.859 245.125, 43.755 246.762, 46.926 250.080 C 49.565 252.842, 49.726 253.415, 48.810 256.800 C 48.259 258.835, 46.904 261.479, 45.799 262.676 C 43.710 264.939, 44.072 267, 46.559 267 C 47.352 267, 48 267.675, 48 268.500 C 48 269.325, 47.127 270, 46.059 270 C 44.991 270, 43.865 270.409, 43.556 270.910 C 42.666 272.350, 44.088 275.058, 45.355 274.334 C 45.985 273.974, 46.178 274.036, 45.785 274.471 C 45.392 274.907, 45.524 276.110, 46.078 277.146 C 46.827 278.545, 46.760 278.961, 45.815 278.764 C 45.117 278.619, 43.891 279.962, 43.092 281.750 C 41.348 285.651, 39.170 285.875, 35.982 282.481 C 34.680 281.095, 33.183 280.106, 32.655 280.282 C 32.127 280.458, 31.159 282.716, 30.502 285.301 L 29.309 290 71.405 290.152 C 94.557 290.236, 114.175 290.379, 115 290.469 C 115.825 290.560, 117.330 290.228, 118.345 289.731 C 120.230 288.808, 120.231 288.021, 118.357 278.617 L 117.783 275.734 124.619 276.398 C 128.379 276.763, 131.762 277.610, 132.136 278.281 C 132.667 279.230, 142.297 279.318, 175.659 278.676 C 205.170 278.108, 225.967 278.213, 242.500 279.012 C 255.700 279.650, 280.450 280.564, 297.500 281.042 C 314.550 281.520, 346.210 282.415, 367.855 283.031 C 406.489 284.130, 407.250 284.114, 409.355 282.171 C 412.214 279.533, 418.532 277, 422.254 277 C 423.910 277, 426.667 276.160, 428.382 275.132 C 430.097 274.105, 434.427 272.493, 438.005 271.550 C 443.938 269.987, 444.678 269.491, 446.416 265.918 C 447.464 263.763, 448.812 261.931, 449.411 261.848 C 457.387 260.732, 460.097 259.781, 461.530 257.594 C 462.364 256.322, 462.760 254.538, 462.411 253.628 C 461.636 251.608, 463.629 249, 465.948 249 C 468.035 249, 472.209 244.732, 471.951 242.862 C 471.567 240.078, 472.056 239.117, 474.206 238.435 C 475.419 238.050, 478.906 236.040, 481.956 233.969 C 485.005 231.897, 489.439 229.628, 491.809 228.925 C 494.882 228.014, 499.703 224.509, 508.610 216.708 C 515.481 210.691, 520.906 205.572, 520.666 205.333 C 520.427 205.094, 519.167 204.752, 517.866 204.573 C 513.732 204.005, 511 202.805, 511 201.558 C 511 199.717, 506.016 195.310, 505.932 197.076 C 505.895 197.868, 505.383 197.502, 504.780 196.250 C 504.183 195.012, 503.063 194, 502.291 194 C 501.519 194, 499.948 191.876, 498.800 189.281 C 497.652 186.685, 495.652 183.728, 494.356 182.708 C 493.060 181.689, 492 179.962, 492 178.871 C 492 177.780, 490.575 175.586, 488.834 173.996 C 486.140 171.535, 485.863 170.870, 486.972 169.533 C 488.069 168.212, 487.927 167.608, 486.079 165.731 C 481.926 161.514, 477 154.809, 477 153.374 C 477 152.584, 477.698 151.669, 478.552 151.342 C 479.681 150.908, 479.932 149.965, 479.472 147.873 C 479.049 145.945, 479.239 145, 480.051 145 C 480.926 145, 481.065 143.688, 480.554 140.250 C 480.166 137.637, 479.894 133.674, 479.951 131.441 C 480.039 128.006, 479.442 126.739, 476.067 123.191 C 473.520 120.514, 471.203 119, 469.651 119 C 465.222 119, 463.088 116.114, 462.626 109.500 C 462.302 104.850, 461.823 103.423, 460.498 103.156 C 459.557 102.967, 458.295 103.305, 457.694 103.906 C 457.092 104.508, 455.448 105, 454.041 105 C 452.564 105, 450.953 105.846, 450.232 107 C 449.545 108.100, 448.384 109, 447.652 109 C 446.920 109, 445.783 110.180, 445.126 111.622 C 444.060 113.963, 443.529 114.180, 440.191 113.647 C 437.134 113.158, 436.221 113.417, 435.193 115.063 C 433.645 117.542, 432 116.716, 432 113.460 C 432 111.627, 431.331 110.895, 429.250 110.450 C 427.738 110.126, 424.670 109.212, 422.434 108.418 C 417.631 106.713, 412.462 107.970, 411.473 111.084 C 411.139 112.138, 410.501 113, 410.055 113 C 407.892 113, 402 109.816, 402 108.647 C 402 107.918, 400.875 106.808, 399.500 106.182 C 398.125 105.555, 397 104.449, 397 103.722 C 397 101.782, 390.605 99.796, 386.710 100.527 C 384.698 100.904, 381.071 100.495, 377.674 99.508 C 372.058 97.875, 372 97.819, 372 94.051 C 372 91.958, 371.373 89.725, 370.608 89.089 C 369.842 88.454, 368.643 86.486, 367.943 84.717 C 366.234 80.396, 364.071 78, 361.880 78 C 360.885 78, 359.589 77.100, 359 76 C 358.411 74.900, 358.226 74, 358.587 74 C 358.949 74, 358.675 73.314, 357.979 72.475 C 356.848 71.111, 356.523 71.122, 354.920 72.573 C 353.933 73.465, 352.619 73.883, 352 73.500 C 351.381 73.117, 350.106 73.499, 349.167 74.349 C 347.621 75.748, 347.156 75.701, 344.230 73.849 C 342.453 72.724, 341 71.446, 341 71.009 C 341 69.543, 338.072 69.072, 336.779 70.330 M 19.057 284.944 C 17.011 286.238, 19.255 291, 21.911 291 C 24.304 291, 25.616 287.448, 23.960 285.452 C 22.579 283.788, 21.122 283.637, 19.057 284.944" stroke="none" fill="#040404" fill-rule="evenodd"/></svg>