<svg xmlns="http://www.w3.org/2000/svg" width="360" height="360" viewBox="0 0 360 360" version="1.1"><path d="M 12 64.774 C 12 97.990, 12.216 103.869, 13.455 104.344 C 14.255 104.651, 15.811 106.669, 16.912 108.828 C 18.014 110.987, 19.609 113.020, 20.457 113.345 C 21.306 113.671, 22 114.454, 22 115.087 C 22 115.719, 23.350 117.774, 25 119.653 C 27.667 122.690, 28 123.782, 28 129.488 C 28 135.718, 29.450 141, 31.161 141 C 31.622 141, 32 141.832, 32 142.850 C 32 143.867, 33.342 146.679, 34.982 149.100 C 36.622 151.520, 37.964 154.175, 37.963 155 C 37.963 158.123, 41.551 167.983, 42.691 167.991 C 44.619 168.005, 45.273 169.967, 43.900 171.620 C 42.866 172.866, 42.883 173.310, 43.990 173.994 C 46.352 175.454, 46.192 178.716, 43.727 179.361 L 41.500 179.944 43.702 182.147 C 45.723 184.167, 45.767 184.450, 44.241 185.566 C 43.108 186.394, 42.656 187.967, 42.826 190.493 C 42.964 192.534, 42.671 194.720, 42.176 195.352 C 41.681 195.983, 40.989 197.703, 40.638 199.173 C 40.288 200.643, 38.873 203.186, 37.494 204.825 C 35.995 206.607, 35.236 208.450, 35.605 209.413 C 36.044 210.556, 35.791 210.857, 34.735 210.452 C 32.780 209.701, 31.451 214.633, 33.079 216.596 C 33.720 217.368, 33.949 218, 33.587 218 C 33.226 218, 33.358 218.800, 33.882 219.779 C 34.604 221.128, 34.282 222.089, 32.552 223.754 C 29.980 226.229, 29.783 229.081, 32 231.734 C 35.262 235.635, 36.264 238.639, 35.056 240.896 C 34.424 242.076, 34.161 243.451, 34.470 243.952 C 34.779 244.452, 34.575 245.144, 34.016 245.490 C 33.457 245.835, 33 247.156, 33 248.424 C 33 249.693, 32.100 251.874, 31 253.273 C 29.900 254.671, 29 256.273, 29 256.831 C 29 257.390, 27.518 259.794, 25.706 262.173 C 23.894 264.553, 22.091 267.025, 21.699 267.666 C 20.908 268.960, 22.156 272.523, 24.383 275.327 C 25.737 277.033, 25.999 277.047, 28.314 275.530 C 29.678 274.636, 32.078 273.701, 33.647 273.452 C 35.216 273.203, 38 272.747, 39.834 272.439 C 41.667 272.130, 48.596 271.688, 55.231 271.455 C 69.102 270.969, 75.288 272.355, 90 279.251 C 99.478 283.693, 102.875 284.889, 108 285.591 C 109.925 285.854, 113.210 286.527, 115.301 287.087 C 122.735 289.077, 125.901 289.057, 129.747 286.995 C 131.795 285.898, 135.277 284.964, 137.485 284.921 C 139.693 284.878, 140.914 284.607, 140.197 284.320 C 139.221 283.929, 139.347 283.451, 140.697 282.417 C 142.322 281.172, 142.193 281.093, 139.394 281.614 C 136.974 282.065, 136.133 281.789, 135.587 280.365 C 135.196 279.347, 135.353 278.382, 135.943 278.186 C 137.927 277.524, 137.006 276, 134.622 276 C 133.315 276, 131.685 275.325, 131 274.500 C 130.246 273.592, 130.166 273, 130.796 273 C 131.368 273, 132.626 272.697, 133.592 272.326 C 134.945 271.807, 135.200 272.036, 134.705 273.326 C 133.879 275.480, 134.570 275.437, 137.846 273.131 C 139.306 272.103, 141.513 270.948, 142.750 270.564 C 143.988 270.180, 145 269.205, 145 268.397 C 145 267.255, 145.430 267.160, 146.939 267.968 C 148.128 268.604, 149.103 268.642, 149.459 268.066 C 150.304 266.699, 153.861 267.194, 154.462 268.763 C 154.746 269.500, 154.583 269.860, 154.102 269.563 C 153.620 269.265, 152.613 269.765, 151.863 270.674 C 150.765 272.004, 150.751 272.410, 151.792 272.760 C 152.784 273.094, 152.814 273.520, 151.919 274.597 C 150.989 275.718, 151.141 276, 152.678 276 C 153.735 276, 155.130 275.470, 155.777 274.823 C 157.184 273.416, 166.767 272.814, 167.552 274.084 C 167.854 274.573, 167.670 276.535, 167.143 278.443 C 166.197 281.871, 166.219 281.906, 168.981 281.354 C 171.487 280.853, 171.900 281.166, 172.960 284.378 C 173.610 286.348, 173.799 288.532, 173.379 289.230 C 172.829 290.146, 173.084 290.121, 174.291 289.141 C 175.760 287.950, 176.089 288.104, 176.959 290.391 C 178.098 293.387, 178.074 293.379, 181.423 291.853 C 183.380 290.961, 184.292 290.997, 185.518 292.015 C 186.782 293.064, 186.838 293.505, 185.797 294.238 C 184.823 294.925, 184.797 295.274, 185.694 295.641 C 186.350 295.909, 186.645 296.888, 186.349 297.815 C 185.927 299.138, 186.022 299.204, 186.794 298.122 C 187.334 297.364, 188.246 297.034, 188.819 297.388 C 189.393 297.743, 190.144 297.575, 190.490 297.016 C 191.606 295.211, 193.767 295.936, 194.365 298.317 C 194.684 299.591, 196.067 301.233, 197.437 301.966 C 199.383 303.008, 199.900 304.032, 199.802 306.650 C 199.724 308.718, 199.164 310, 198.338 310 C 197.602 310, 197.053 309.662, 197.118 309.250 C 197.577 306.345, 196.846 304.122, 195.590 304.604 C 194.743 304.929, 193.918 304.318, 193.523 303.072 C 192.654 300.334, 191.585 300.458, 189.571 303.532 C 188.659 304.924, 187.435 305.769, 186.852 305.409 C 186.269 305.048, 186.544 305.900, 187.462 307.302 C 189.121 309.834, 193.594 312, 197.163 312 C 198.188 312, 199.910 312.551, 200.989 313.225 C 202.536 314.192, 203.208 314.192, 204.175 313.225 C 205.077 312.323, 205.092 312, 204.231 312 C 203.589 312, 203.329 311.306, 203.654 310.458 C 204.285 308.816, 208.016 308.824, 209.196 310.471 C 210.506 312.301, 211.163 310.173, 209.974 307.951 C 209.013 306.155, 208.599 305.995, 207.812 307.115 C 207.137 308.074, 207.041 307.581, 207.498 305.510 C 207.861 303.866, 208.685 302.185, 209.329 301.775 C 211.045 300.684, 213.218 300.838, 212.500 302 C 212.160 302.550, 212.407 303, 213.048 303 C 213.689 303, 213.955 303.675, 213.638 304.500 C 213.322 305.325, 213.611 306.007, 214.281 306.015 C 215.067 306.025, 214.979 306.360, 214.034 306.958 C 212.860 307.700, 213.122 308.096, 215.349 308.943 C 216.879 309.524, 218.551 310, 219.065 310 C 220.564 310, 220.142 311.731, 218.489 312.366 C 217.658 312.685, 215.633 312.677, 213.989 312.348 C 210.185 311.587, 209.965 313.679, 213.500 317 C 215.569 318.944, 216 319.060, 216 317.674 C 216 316.753, 216.735 316, 217.633 316 C 218.531 316, 219.993 315.212, 220.883 314.250 C 221.772 313.287, 223.357 312.500, 224.405 312.500 C 226.620 312.500, 227.114 310.817, 227.338 302.500 C 227.507 296.224, 229.080 294.582, 231.391 298.269 C 232.246 299.634, 232.100 300.738, 230.750 303.100 C 228.694 306.697, 228.390 311.172, 230.250 310.455 C 230.938 310.190, 231.617 308.292, 231.760 306.237 C 231.903 304.182, 232.916 301.281, 234.010 299.790 C 235.105 298.300, 236 296.388, 236 295.540 C 236 293.795, 240.491 293.368, 241.510 295.016 C 241.856 295.575, 242.627 295.731, 243.224 295.362 C 243.860 294.969, 244.022 295.155, 243.616 295.812 C 243.228 296.440, 244.652 298.594, 246.858 300.716 C 249.022 302.797, 251.098 305.524, 251.472 306.776 C 251.872 308.117, 252.810 308.939, 253.754 308.776 C 254.958 308.569, 255.750 310.078, 256.943 314.853 L 258.529 321.205 264.752 316.527 C 271.789 311.238, 274.522 308.161, 267.964 312.911 C 265.619 314.610, 262.809 316, 261.719 316 C 259.989 316, 259.815 315.526, 260.346 312.258 C 260.680 310.200, 261.413 308.362, 261.976 308.175 C 264.032 307.489, 263.053 302.187, 260.500 300.179 C 257.479 297.802, 257.237 295.988, 260.040 296.721 C 261.162 297.014, 262.800 298.660, 263.680 300.377 C 265.727 304.375, 266.892 305.085, 269.120 303.693 C 270.815 302.634, 270.821 302.460, 269.223 300.694 C 268.290 299.663, 267.521 298.190, 267.513 297.421 C 267.506 296.652, 267.050 295.985, 266.500 295.940 C 265.950 295.895, 264.710 295.142, 263.744 294.268 C 262.778 293.394, 261.699 292.968, 261.345 293.321 C 260.992 293.675, 259.898 293.035, 258.914 291.901 C 257.021 289.719, 257.371 287.254, 259.835 285.406 C 260.768 284.707, 261.076 283.439, 260.689 281.897 C 259.786 278.300, 261.267 276.410, 263.355 278.498 C 265.406 280.549, 265.469 283.366, 263.500 285 C 261.392 286.749, 261.608 287.394, 264.750 288.736 C 266.262 289.382, 268.603 290.719, 269.950 291.706 C 272.210 293.360, 272.349 293.366, 271.744 291.782 C 270.926 289.642, 272.907 288.244, 274.096 290.122 C 274.832 291.282, 274.972 291.276, 274.985 290.083 C 274.993 289.304, 275.289 288.956, 275.643 289.309 C 275.996 289.663, 275.707 290.648, 275 291.500 C 273.452 293.365, 274.535 294.865, 276.217 293.183 C 277.617 291.783, 279.370 291.592, 278.543 292.931 C 278.226 293.443, 278.394 294.125, 278.915 294.447 C 279.436 294.769, 280.144 294.575, 280.490 294.016 C 281.451 292.461, 283.288 292.808, 282.666 294.427 C 281.823 296.624, 284.164 297.922, 289.754 298.359 C 292.936 298.608, 296.048 299.610, 298.038 301.027 C 299.791 302.275, 303.043 303.426, 305.264 303.584 C 309.169 303.862, 310.953 305.158, 310.985 307.738 C 310.993 308.419, 310.212 308.869, 309.250 308.738 C 308.287 308.607, 307.387 308.950, 307.250 309.500 C 307.113 310.050, 307.412 310.500, 307.917 310.500 C 308.421 310.500, 309.208 310.875, 309.667 311.333 C 310.125 311.792, 310.050 312.076, 309.500 311.965 C 307.526 311.567, 306 312.018, 306 313 C 306 314.600, 309.165 314.156, 311.341 312.250 C 313.119 310.693, 313.273 310.682, 312.739 312.151 C 312.118 313.860, 313.470 314.087, 315.757 312.658 C 317.357 311.659, 318.485 314.374, 317.457 316.750 C 317.040 317.713, 316.529 319.389, 316.322 320.476 C 316.114 321.563, 315.281 322.823, 314.472 323.276 C 313.662 323.729, 313 324.569, 313 325.142 C 313 325.715, 312.100 327.329, 311 328.727 C 307.828 332.760, 308.508 335.101, 311.766 331.366 C 318.092 324.113, 319 322.937, 319 321.992 C 319 321.447, 319.450 321, 320 321 C 320.550 321, 321 321.609, 321 322.354 C 321 323.690, 325.371 329, 326.471 329 C 326.783 329, 326.808 327.988, 326.526 326.750 C 325.960 324.265, 329.300 319.449, 330.903 320.440 C 331.430 320.766, 332.163 320.545, 332.532 319.949 C 332.907 319.341, 332.279 318.624, 331.101 318.316 C 329.945 318.014, 329 317.385, 329 316.919 C 329 315.748, 332.592 313.925, 333.369 314.702 C 333.716 315.049, 334 314.820, 334 314.192 C 334 313.456, 332.932 313.264, 331 313.650 C 328.432 314.164, 328 313.949, 328 312.159 C 328 309.787, 324.990 303, 323.937 303 C 322.763 303, 321.194 305.379, 320.472 308.256 C 319.661 311.486, 318.907 311.659, 316.627 309.140 C 315.303 307.677, 315.158 306.715, 315.947 304.640 C 316.620 302.870, 316.619 302, 315.944 302 C 315.390 302, 314.669 302.699, 314.341 303.554 C 313.836 304.870, 313.373 304.760, 311.324 302.835 C 309.876 301.475, 307.538 300.514, 305.501 300.444 C 301.736 300.313, 298.202 298.111, 299.987 297.008 C 301.585 296.020, 300.073 293, 297.980 293 C 296.986 293, 294.784 291.111, 293.087 288.803 C 289.721 284.227, 289.197 282.478, 291.449 283.342 C 292.421 283.715, 292.714 283.418, 292.338 282.438 C 291.932 281.380, 292.253 281.160, 293.505 281.640 C 295.003 282.215, 295.080 282.018, 294.081 280.152 C 292.783 277.725, 293.535 277.493, 297.638 279.053 L 300.407 280.105 297.170 277.012 C 295.389 275.310, 294.162 273.547, 294.442 273.094 C 295.289 271.724, 302.272 272.967, 306 275.151 L 309.500 277.202 307.175 274.706 C 305.615 273.032, 305.219 271.982, 305.973 271.516 C 306.799 271.006, 306.787 270.448, 305.926 269.411 C 305.240 268.584, 305.169 268, 305.755 268 C 306.305 268, 307.277 268.629, 307.914 269.397 C 308.581 270.200, 309.982 270.556, 311.213 270.234 L 313.353 269.675 311.112 268.846 C 309.880 268.390, 309.157 267.556, 309.505 266.992 C 309.853 266.429, 310.557 266.226, 311.069 266.543 C 311.581 266.859, 312.056 266.641, 312.125 266.059 C 312.194 265.477, 312.313 264.438, 312.390 263.750 C 312.468 263.063, 311.624 262.243, 310.515 261.928 C 309.172 261.547, 308.579 260.630, 308.738 259.178 C 308.888 257.810, 308.423 257, 307.488 257 C 305.722 257, 305.654 256.516, 307.050 253.906 C 307.628 252.827, 308.497 252.189, 308.981 252.488 C 309.465 252.788, 310.144 252.575, 310.490 252.016 C 310.835 251.457, 310.564 251, 309.888 251 C 309.211 251, 307.835 250.255, 306.829 249.345 C 305.187 247.860, 305 247.853, 305 249.277 C 305 250.150, 303.749 251.755, 302.219 252.844 C 300.690 253.933, 299.374 255.651, 299.295 256.662 C 299.043 259.897, 297.078 264.033, 295.507 264.636 C 293.112 265.555, 288.719 262.183, 289.320 259.886 C 289.769 258.168, 289.444 258.014, 286.529 258.561 C 282.193 259.374, 280.262 256.772, 282.219 252.750 C 283.208 250.718, 286.993 250.437, 288.947 252.250 C 290.039 253.263, 290.194 253.210, 289.762 251.968 C 289.456 251.087, 290.455 249.211, 292.115 247.552 C 293.702 245.965, 295 244.089, 295 243.383 C 295 242.677, 295.722 241.695, 296.604 241.202 C 298.072 240.380, 298.067 240.031, 296.544 237.085 C 295.628 235.314, 295.051 233.108, 295.262 232.183 C 295.472 231.257, 294.824 228.830, 293.822 226.790 C 292.820 224.749, 292 222.387, 292 221.541 C 292 220.695, 290.200 218.148, 288 215.881 C 285.800 213.614, 283.931 211.026, 283.848 210.129 C 283.616 207.652, 283.376 206.659, 282.546 204.750 C 282.128 203.787, 282.131 202.213, 282.552 201.250 C 282.973 200.287, 283.240 199.144, 283.145 198.709 C 283.051 198.275, 283.533 196.925, 284.218 195.709 C 284.902 194.494, 285.560 192.825, 285.679 192 C 285.798 191.175, 286.653 188.346, 287.578 185.714 C 288.504 183.081, 289.059 180.725, 288.811 180.478 C 288.564 180.231, 261.247 180.009, 228.107 179.985 C 169.427 179.941, 167.912 179.892, 170.126 178.099 C 172.342 176.305, 172.354 176.190, 170.634 173.565 C 169.412 171.699, 169.072 169.948, 169.529 167.868 C 170.007 165.691, 169.693 164.318, 168.384 162.872 C 166.198 160.457, 167.717 159.032, 171.671 159.788 C 175.108 160.445, 176.243 158.321, 174.186 155.082 C 173.284 153.662, 172.146 152.216, 171.657 151.869 C 171.149 151.509, 171.216 150.436, 171.813 149.369 C 172.780 147.642, 172.938 147.708, 173.898 150.231 C 174.594 152.062, 175.434 152.771, 176.447 152.382 C 178.118 151.741, 177.997 149.882, 176.018 145.780 C 174.961 143.588, 174.951 142.764, 175.966 141.541 C 176.659 140.705, 177.565 140.231, 177.980 140.487 C 179.053 141.151, 182.312 137.313, 181.622 136.197 C 181.306 135.686, 179.976 135.473, 178.665 135.724 C 177.052 136.032, 176.072 135.630, 175.630 134.478 C 175.094 133.081, 175.411 132.886, 177.409 133.388 C 181.217 134.344, 182.998 133.154, 183.015 129.643 C 183.036 125.337, 184.065 124.073, 187.263 124.424 C 188.794 124.593, 190.533 124.062, 191.239 123.212 C 192.325 121.903, 192.046 121.766, 189.154 122.191 C 185.056 122.792, 184.083 121.049, 186.477 117.394 L 188.174 114.804 189.656 116.919 C 190.470 118.082, 191.578 118.761, 192.117 118.428 C 192.746 118.039, 192.715 117.362, 192.031 116.537 C 191.234 115.577, 191.600 114.837, 193.483 113.603 C 195.020 112.596, 196 111.016, 196 109.544 C 196 107.345, 198.201 105.722, 201.417 105.549 C 202.931 105.468, 203.200 103.243, 201.803 102.357 C 200.508 101.536, 199.971 101.365, 197.941 101.125 C 197.359 101.056, 197.161 100.549, 197.502 99.997 C 197.916 99.327, 198.743 99.327, 199.995 99.997 C 202.546 101.362, 203.312 101.257, 202.687 99.626 C 202.383 98.834, 203.202 97.695, 204.624 96.934 C 206.204 96.088, 206.983 94.904, 206.794 93.636 C 206.415 91.084, 204.001 90.247, 203.998 92.667 C 203.996 94.041, 203.135 94.561, 200.554 94.745 C 194.219 95.196, 194.969 90.696, 201.614 88.383 C 206.549 86.665, 207 86.675, 207 88.500 C 207 89.325, 207.450 90, 208 90 C 208.875 90, 209.532 86.115, 209.078 83.627 C 208.990 83.147, 209.583 83.010, 210.396 83.322 C 212.039 83.952, 216.255 78.222, 215.293 76.666 C 214.980 76.158, 214.313 76.476, 213.812 77.372 C 213.311 78.267, 212.009 79, 210.919 79 C 208.555 79, 207.271 76.329, 208.867 74.733 C 211.117 72.483, 210.184 70.801, 207.065 71.486 C 204.888 71.964, 203.627 71.627, 202.182 70.182 C 199.855 67.855, 200.323 63.350, 202.979 62.507 C 203.945 62.200, 205.550 61.050, 206.544 59.951 C 207.966 58.380, 208.092 57.692, 207.135 56.735 C 206.177 55.777, 205.726 55.826, 205.024 56.961 C 204.534 57.755, 204.294 58.667, 204.492 58.987 C 204.690 59.307, 203.466 59.554, 201.772 59.535 C 197.424 59.486, 197.310 56.636, 201.521 53.276 C 205.313 50.250, 205.175 49, 201.048 49 C 199.489 49, 198.012 48.438, 197.765 47.750 C 197.006 45.637, 198.973 40, 200.470 40 C 202.651 40, 203.225 38.289, 202.494 33.963 C 201.755 29.590, 199 28.340, 199 32.378 C 199 33.685, 198.330 35.311, 197.512 35.990 C 195.424 37.723, 194.327 34.622, 195.720 30.930 L 196.768 28.155 189.634 27.786 C 185.710 27.583, 153.700 27.316, 118.500 27.193 C 83.300 27.070, 44.938 26.698, 33.250 26.366 L 12 25.763 12 64.774 M 203 63.741 C 203 65.708, 205.757 68.193, 207.555 67.847 C 209.211 67.528, 209.028 67.156, 206.239 65.170 C 204.458 63.902, 203 63.258, 203 63.741 M 298.559 241.532 C 297.491 242.339, 297.041 242.986, 297.559 242.968 C 298.076 242.951, 299.374 242.276, 300.441 241.468 C 301.509 240.661, 301.959 240.014, 301.441 240.032 C 300.924 240.049, 299.626 240.724, 298.559 241.532 M 147.500 282.227 C 146.400 282.825, 144.852 283.614, 144.060 283.979 C 141.174 285.309, 142.079 286.653, 147.473 289.051 C 150.502 290.398, 152.984 291.837, 152.990 292.250 C 153.014 294.018, 155.890 292.739, 159.555 289.331 C 161.725 287.314, 162.726 285.944, 161.779 286.289 C 160.832 286.633, 159.423 286.281, 158.648 285.505 C 157.873 284.730, 156.955 284.378, 156.609 284.725 C 156.263 285.071, 155.421 284.645, 154.740 283.778 C 153.027 281.601, 149.886 280.928, 147.500 282.227 M 244 301.592 C 244 301.918, 244.900 303.329, 246 304.727 C 247.915 307.161, 248 307.179, 248 305.135 C 248 303.868, 247.366 303, 246.441 303 C 245.584 303, 245.160 302.550, 245.500 302 C 245.840 301.450, 245.641 301, 245.059 301 C 244.477 301, 244 301.267, 244 301.592 M 276.611 306.025 C 274.756 307.897, 274.778 307.910, 277.861 306.746 C 279.588 306.095, 281 305.210, 281 304.781 C 281 303.379, 278.543 304.076, 276.611 306.025" stroke="none" fill="#040404" fill-rule="evenodd"/></svg>