<svg xmlns="http://www.w3.org/2000/svg" width="360" height="360" viewBox="0 0 360 360" version="1.1"><path d="M 161.474 23.148 C 157.638 28.821, 148.493 42.233, 141.152 52.953 L 127.803 72.443 126.012 82.956 C 124.315 92.918, 124.027 93.638, 120.520 96.670 C 114.904 101.524, 110.263 111.809, 112.941 113.464 C 114.363 114.342, 114.284 117.316, 112.800 118.800 C 111.471 120.129, 110.687 129.312, 111.969 128.519 C 112.411 128.246, 113.288 128.642, 113.916 129.399 C 115.547 131.365, 113.345 135.770, 109.820 137.593 C 107.165 138.966, 106.416 140.498, 105.780 145.859 C 105.592 147.438, 104.178 148.929, 101.500 150.371 C 96.602 153.008, 93.110 156.523, 90.586 161.357 C 88.691 164.987, 88.692 165.045, 90.688 167.261 C 93.564 170.457, 94.085 171.616, 93.421 173.346 C 92.911 174.675, 92.388 174.622, 89.387 172.937 C 84.651 170.277, 84 170.468, 84 174.516 C 84 178.316, 81.912 186, 80.879 186 C 79.800 186, 78.305 183.624, 77.647 180.860 C 77.002 178.155, 74.119 176.233, 73.080 177.816 C 72.761 178.302, 71.825 178.918, 71 179.183 C 69.834 179.559, 69.560 181.094, 69.769 186.083 C 69.917 189.613, 71.156 217.700, 72.523 248.500 C 75.499 315.552, 75.589 318.743, 74.587 322.207 C 73.949 324.414, 74.285 325.359, 76.402 327.322 C 77.831 328.646, 79 330.034, 79 330.406 C 79 330.779, 79.931 332.077, 81.069 333.292 C 82.522 334.843, 82.977 336.311, 82.598 338.228 C 81.942 341.545, 85.550 346.264, 88.932 346.513 C 90.736 346.646, 91.633 345.627, 93.576 341.231 C 94.901 338.236, 95.749 335.403, 95.461 334.936 C 95.172 334.470, 95.603 332.493, 96.417 330.544 C 97.564 327.798, 98.473 327, 100.449 327 C 101.852 327, 103 326.619, 103 326.153 C 103 325.687, 103.924 324.240, 105.054 322.937 C 106.359 321.433, 106.909 319.772, 106.560 318.385 C 105.951 315.957, 108.382 309.191, 109.319 310.707 C 109.645 311.235, 111.251 311.470, 112.888 311.230 C 115.324 310.872, 115.830 310.351, 115.677 308.357 C 115.574 307.017, 114.817 305.495, 113.995 304.976 C 113.173 304.456, 112.950 304.017, 113.500 304 C 114.050 303.983, 113.876 303.574, 113.114 303.092 C 111.990 302.380, 112.132 301.868, 113.864 300.385 C 115.039 299.379, 116 298.065, 116 297.466 C 116 296.317, 121.618 291.769, 122.466 292.231 C 122.739 292.379, 123.683 291.469, 124.566 290.210 C 125.686 288.610, 126.762 288.107, 128.133 288.542 C 129.213 288.885, 130.718 288.649, 131.478 288.018 C 132.560 287.120, 133.102 287.322, 133.971 288.947 C 134.583 290.088, 135.011 291.580, 134.923 292.261 C 134.835 292.943, 134.816 295.018, 134.882 296.872 C 134.986 299.842, 135.191 300.087, 136.596 298.921 C 137.769 297.947, 138.033 296.607, 137.593 293.859 C 137.265 291.803, 137.353 289.900, 137.790 289.630 C 138.227 289.359, 138.692 290.546, 138.824 292.267 C 139.111 296.046, 139.664 296.736, 141.185 295.215 C 142.053 294.347, 142.032 293.050, 141.099 289.937 C 140.015 286.317, 140.077 285.572, 141.608 283.881 C 143.873 281.378, 144.767 282.830, 144.525 288.621 C 144.423 291.080, 144.713 293.323, 145.170 293.605 C 145.626 293.887, 146 293.240, 146 292.166 C 146 291.092, 146.675 289.955, 147.500 289.638 C 148.428 289.282, 149 287.761, 149 285.646 C 149 283.767, 149.657 280.715, 150.461 278.865 C 152.081 275.133, 152.558 276.403, 151.038 280.401 C 150.360 282.182, 150.434 283.313, 151.288 284.216 C 151.954 284.922, 152.655 286.400, 152.845 287.500 C 153.390 290.657, 153.677 290.426, 155.554 285.311 C 156.525 282.665, 157.916 280.006, 158.645 279.401 C 159.373 278.797, 159.710 278.043, 159.393 277.726 C 158.570 276.904, 159.953 273, 161.067 273 C 161.580 273, 162 274.561, 162 276.469 C 162 279.293, 162.309 279.819, 163.664 279.299 C 164.881 278.832, 165.131 279.042, 164.593 280.080 C 164.189 280.861, 165.752 279.475, 168.065 277 C 171.877 272.921, 172.118 272.798, 170.642 275.687 C 169.747 277.439, 168.561 279.153, 168.007 279.496 C 167.453 279.838, 167 281.047, 167 282.181 C 167 283.902, 167.249 284.038, 168.500 283 C 169.325 282.315, 170 281.309, 170 280.763 C 170 280.218, 171.912 278.042, 174.250 275.927 C 177.417 273.062, 178.037 272.072, 176.683 272.041 C 174.679 271.996, 174.742 271.586, 178.165 262.341 C 179.216 259.504, 180.734 256.636, 181.538 255.969 C 183.203 254.586, 183.500 250.427, 182 249.500 C 180.690 248.691, 180.707 246, 182.021 246 C 182.583 246, 184.833 244.815, 187.021 243.367 C 190.054 241.361, 191 240.081, 191 237.990 C 191 236.480, 190.325 234.685, 189.500 234 C 187.771 232.565, 187.526 231, 189.031 231 C 189.599 231, 190.361 231.787, 190.725 232.750 C 191.090 233.712, 192.013 235.132, 192.776 235.904 C 194.249 237.393, 193.691 243.628, 191.922 245.450 C 191.415 245.972, 191.002 247.097, 191.005 247.950 C 191.008 248.960, 191.867 248.454, 193.469 246.500 C 195.805 243.651, 195.930 243.613, 195.964 245.750 C 195.985 247.030, 195.461 247.892, 194.750 247.750 C 194.063 247.613, 193.500 248.175, 193.500 249 C 193.500 249.825, 192.675 251.115, 191.666 251.866 C 190.306 252.878, 190.123 253.523, 190.957 254.357 C 191.792 255.192, 192.300 255.133, 192.920 254.129 C 193.575 253.069, 195.088 253.658, 199.864 256.830 C 205.381 260.495, 205.930 260.675, 205.559 258.693 C 205.333 257.487, 205.054 256.500, 204.939 256.500 C 204.823 256.500, 204.649 254.591, 204.552 252.258 C 204.414 248.944, 204.772 247.890, 206.188 247.440 C 207.185 247.124, 208 246.221, 208 245.433 C 208 244.645, 208.505 244, 209.122 244 C 209.917 244, 209.895 243.579, 209.047 242.556 C 208.065 241.373, 208.223 241.141, 209.924 241.269 C 211.593 241.395, 212 242.101, 212 244.866 L 212 248.306 213.867 246.153 C 214.894 244.969, 216.443 244, 217.308 244 C 219.535 244, 220.389 242.173, 218.964 240.456 C 218.077 239.388, 218.062 239, 218.909 239 C 219.544 239, 220.321 239.672, 220.636 240.494 C 220.952 241.316, 221.612 241.740, 222.105 241.435 C 223.622 240.497, 223.100 239.166, 220.945 238.483 C 218.814 237.806, 218.738 235.921, 220.813 235.229 C 221.510 234.997, 221.771 235.434, 221.443 236.287 C 221.136 237.088, 221.585 238.011, 222.443 238.340 C 223.299 238.668, 224 239.646, 224 240.512 C 224 241.379, 224.563 242.015, 225.250 241.925 C 228.055 241.561, 228.667 242.146, 228.667 245.194 C 228.667 246.951, 229.192 248.564, 229.833 248.778 C 230.475 248.992, 231.048 250.142, 231.106 251.333 C 231.200 253.241, 231.344 253.168, 232.310 250.721 C 232.948 249.103, 233.948 248.150, 234.703 248.440 C 235.416 248.713, 236 248.262, 236 247.437 C 236 246.612, 235.325 245.678, 234.500 245.362 C 233.675 245.045, 233 244.133, 233 243.334 C 233 242.535, 233.450 242.160, 234 242.500 C 234.550 242.840, 235 242.641, 235 242.059 C 235 239.747, 236.578 241.171, 236.785 243.669 C 237.082 247.258, 238 248.012, 238 244.667 C 238 242.618, 238.490 242, 240.117 242 C 241.741 242, 242.112 241.535, 241.710 240 C 241.423 238.900, 241.595 238, 242.094 238 C 242.592 238, 243 237.100, 243 236 C 243 233.731, 245.151 233.731, 246.180 236 C 246.670 237.082, 246.879 236.874, 246.930 235.250 C 246.968 234.012, 247.480 233, 248.067 233 C 248.654 233, 248.869 233.837, 248.545 234.859 C 248.220 235.882, 248.247 237.481, 248.605 238.413 C 249.191 239.939, 249.493 239.886, 251.628 237.880 C 252.933 236.654, 254 236.180, 254 236.826 C 254 237.472, 254.818 238, 255.818 238 C 257.278 238, 257.582 237.318, 257.363 234.531 C 257.027 230.277, 258.317 229.322, 261.544 231.437 C 263.946 233.011, 264.002 232.985, 264.081 230.273 L 264.162 227.500 265.456 230.433 C 266.691 233.234, 266.780 233.268, 267.439 231.191 C 267.819 229.996, 267.817 228.514, 267.436 227.897 C 266.726 226.748, 268.614 225.043, 270.625 225.015 C 271.244 225.007, 272.069 226.462, 272.460 228.250 C 273.087 231.125, 273.267 231.269, 274.014 229.500 C 274.479 228.400, 274.891 228.063, 274.930 228.750 C 274.968 229.438, 275.384 230, 275.854 230 C 276.964 230, 280.962 226.190, 283.487 222.726 C 284.580 221.227, 286.013 220, 286.670 220 C 288.352 220, 289.424 216.024, 288.099 214.699 C 287.495 214.095, 287 213.985, 287 214.455 C 287 214.925, 286.100 214.495, 285 213.500 C 283.067 211.750, 282.999 211.753, 282.985 213.595 C 282.972 215.191, 282.812 215.257, 282 214 C 281.226 212.802, 281.004 213.003, 280.899 215 C 280.793 217.034, 280.675 217.135, 280.271 215.542 C 279.997 214.465, 279.097 212.552, 278.272 211.292 C 277.402 209.964, 277.214 209, 277.826 209 C 278.407 209, 279.160 209.450, 279.500 210 C 279.840 210.550, 280.597 211, 281.181 211 C 281.852 211, 281.785 210.446, 281 209.500 C 279.722 207.960, 280.515 207.505, 283.750 207.925 C 285.472 208.149, 285.326 203.813, 283.532 201.441 C 282.724 200.374, 282.049 198.697, 282.032 197.715 C 281.984 195.045, 279.004 191, 277.085 191 C 276.158 191, 274.860 190.460, 274.200 189.800 C 273.267 188.867, 273 188.951, 273 190.178 C 273 191.045, 272.311 192.327, 271.469 193.026 C 269.730 194.469, 268.940 193.699, 264.408 186.147 C 261.809 181.818, 261.805 181.777, 263.620 178.408 C 265.353 175.189, 265.358 174.876, 263.722 172.106 C 261.913 169.044, 261.411 165, 262.839 165 C 263.301 165, 264.215 163.825, 264.869 162.388 C 265.788 160.372, 265.788 159.450, 264.872 158.346 C 264.181 157.514, 263.314 157.286, 262.798 157.802 C 261.790 158.810, 252.262 156.001, 251.188 154.379 C 250.810 153.807, 249.118 152.739, 247.428 152.005 C 244.630 150.788, 244.373 150.287, 244.536 146.358 C 244.635 143.987, 245.252 141.402, 245.907 140.613 C 246.718 139.635, 246.763 138.972, 246.049 138.530 C 244.675 137.681, 244.690 134, 246.067 134 C 246.654 134, 246.907 133.212, 246.628 132.250 C 246.349 131.287, 245.981 110.936, 245.811 87.025 L 245.500 43.549 241.500 39.199 C 233.665 30.679, 224.804 21.965, 222.982 20.990 C 221.964 20.446, 219.527 20, 217.566 20 C 214.297 20, 214 20.242, 214 22.901 C 214 25.733, 213.881 25.798, 209.045 25.651 C 205.251 25.535, 203.770 25.936, 202.728 27.360 C 201.979 28.383, 199.874 29.393, 198.051 29.606 C 196.228 29.818, 192.833 30.942, 190.508 32.103 L 186.281 34.214 182.079 31.434 L 177.877 28.653 178.104 21.659 C 178.351 14.039, 178.726 14.510, 171.474 13.327 C 168.594 12.857, 168.114 13.329, 161.474 23.148 M 216 247 C 215.175 247.533, 214.831 247.976, 215.235 247.985 C 215.640 247.993, 215.079 249.463, 213.989 251.250 C 211.502 255.329, 211.504 256.504, 214 259 C 216.729 261.729, 218.357 261.560, 217.621 258.625 C 217.109 256.585, 217.388 256.250, 219.602 256.250 C 221.019 256.250, 222.887 255.542, 223.753 254.676 C 225.185 253.243, 225.110 252.782, 222.914 249.557 C 220.449 245.939, 218.664 245.279, 216 247 M 186 251.500 C 186 252.325, 186.177 253, 186.393 253 C 186.609 253, 187.045 252.325, 187.362 251.500 C 187.678 250.675, 187.501 250, 186.969 250 C 186.436 250, 186 250.675, 186 251.500 M 206.710 252 C 206.423 253.100, 206.595 254, 207.094 254 C 207.592 254, 208 253.100, 208 252 C 208 250.900, 207.827 250, 207.617 250 C 207.406 250, 206.998 250.900, 206.710 252 M 198 259.465 C 198 260.309, 197.550 261, 197 261 C 195.673 261, 195.710 265.703, 197.044 266.527 C 197.618 266.882, 198.764 266.611, 199.591 265.924 C 200.797 264.924, 200.838 264.513, 199.797 263.854 C 198.961 263.323, 198.906 263.025, 199.643 263.015 C 201.754 262.987, 201.985 260.062, 199.963 258.980 C 198.409 258.148, 198 258.249, 198 259.465 M 188.070 265.935 C 184.960 267.903, 186.587 276.454, 189.843 275.256 C 193.651 273.854, 192.853 270, 188.755 270 C 187.097 270, 186.967 269.745, 187.991 268.511 C 188.671 267.692, 189.620 267.265, 190.102 267.563 C 190.583 267.860, 190.709 267.406, 190.382 266.552 C 189.686 264.741, 189.878 264.792, 188.070 265.935 M 210 265.992 L 207.500 266.613 209.956 267.267 C 212.576 267.964, 213.426 267.665, 212.854 266.248 C 212.659 265.765, 211.375 265.650, 210 265.992 M 199.748 274.540 C 199.441 276.142, 199.675 276.944, 200.381 276.711 C 201.769 276.255, 202.496 272, 201.186 272 C 200.662 272, 200.015 273.143, 199.748 274.540 M 135.697 277.133 C 132.762 280.476, 131.815 284.228, 134.459 282.034 C 135.667 281.032, 136.026 281.312, 136.546 283.662 C 137.680 288.779, 138.019 288.592, 137.458 283.159 C 137.105 279.732, 137.333 277.303, 138.096 276.384 C 140.509 273.477, 138.300 274.166, 135.697 277.133 M 142.374 285.467 C 142.065 286.274, 142.004 287.511, 142.240 288.217 C 142.476 288.923, 142.906 288.262, 143.196 286.750 C 143.762 283.797, 143.295 283.068, 142.374 285.467 M 131.490 290.016 C 131.144 290.575, 130.485 290.800, 130.024 290.515 C 129.563 290.230, 129.464 291.010, 129.803 292.249 C 130.308 294.094, 130.485 294.182, 130.785 292.738 C 130.987 291.769, 131.567 291.233, 132.076 291.547 C 132.584 291.861, 133 291.416, 133 290.559 C 133 288.766, 132.397 288.549, 131.490 290.016 M 127 294 C 126.411 295.100, 126.155 296, 126.430 296 C 126.705 296, 127.411 295.100, 128 294 C 128.589 292.900, 128.845 292, 128.570 292 C 128.295 292, 127.589 292.900, 127 294" stroke="none" fill="#040404" fill-rule="evenodd"/></svg>