<svg xmlns="http://www.w3.org/2000/svg" width="360" height="360" viewBox="0 0 360 360" version="1.1"><path d="M 0.441 110.121 C 0.694 129.243, 1.087 135.422, 2.135 136.759 C 3.371 138.335, 3.334 138.370, 1.750 137.128 C 0.179 135.896, 0 136.024, 0 138.378 C 0 142.816, 1.683 141.947, 8.500 133.990 C 9.600 132.707, 9.868 132.028, 9.095 132.483 C 8.185 133.018, 7.925 132.930, 8.357 132.231 C 8.913 131.332, 12.698 130.070, 15.733 129.773 C 16.155 129.732, 17.028 128.979, 17.674 128.099 C 18.601 126.836, 18.496 126.096, 17.174 124.578 C 16.253 123.521, 16.063 122.985, 16.750 123.387 C 17.457 123.801, 18 123.605, 18 122.937 C 18 122.031, 18.333 122.032, 19.430 122.942 C 20.576 123.893, 21.087 123.705, 22 122 C 22.934 120.255, 23.407 120.093, 24.626 121.105 C 25.444 121.783, 26.034 121.925, 25.938 121.419 C 25.381 118.492, 26.147 117.040, 28.130 117.262 C 30.160 117.489, 30.893 116.279, 31.225 112.158 C 31.352 110.582, 36.986 111.359, 38.062 113.100 C 38.426 113.689, 39.011 114.132, 39.362 114.085 C 39.713 114.038, 40.112 114.034, 40.250 114.077 C 42.997 114.917, 43.707 114.597, 43.221 112.737 C 42.926 111.610, 43.098 110.943, 43.604 111.255 C 44.563 111.848, 48.210 109.635, 48.029 108.570 C 47.971 108.233, 48.378 107.180, 48.932 106.229 C 49.486 105.278, 49.953 104.816, 49.970 105.202 C 49.986 105.588, 51.166 104.824, 52.591 103.504 C 54.016 102.183, 54.908 100.661, 54.574 100.120 C 54.241 99.580, 54.405 98.868, 54.940 98.537 C 55.475 98.206, 55.677 97.321, 55.388 96.570 C 55.025 95.621, 55.621 95.249, 57.336 95.352 C 58.696 95.433, 59.619 95.806, 59.388 96.181 C 59.157 96.555, 59.425 97.144, 59.984 97.490 C 60.543 97.835, 60.993 98.654, 60.985 99.309 C 60.974 100.106, 60.685 100.051, 60.110 99.143 C 59.506 98.191, 59.045 98.118, 58.562 98.900 C 58.182 99.514, 58.687 100.317, 59.687 100.690 C 60.684 101.061, 62.753 102.279, 64.285 103.396 C 67.353 105.634, 71.829 106.297, 73.710 104.791 C 74.593 104.083, 74.814 104.372, 74.527 105.861 C 74.191 107.604, 74.459 107.776, 76.370 107.050 C 77.616 106.576, 79.298 106.587, 80.170 107.075 C 81.257 107.683, 82.274 107.355, 83.501 105.999 C 84.472 104.925, 85.770 104.295, 86.384 104.598 C 86.998 104.901, 86.646 104.454, 85.603 103.606 C 84.559 102.758, 83.252 102.344, 82.698 102.687 C 82.144 103.029, 81.988 102.828, 82.352 102.240 C 82.715 101.652, 82.447 100.941, 81.756 100.660 C 81.065 100.379, 81.948 100.280, 83.718 100.440 C 87.599 100.790, 88.393 100.190, 86.741 98.155 C 85.703 96.875, 85.781 96.731, 87.218 97.269 C 88.163 97.623, 89.219 97.455, 89.565 96.895 C 89.911 96.335, 91.331 95.444, 92.721 94.916 C 94.698 94.164, 95.513 94.319, 96.472 95.631 C 97.675 97.276, 100.540 96.683, 99.502 95.003 C 99.210 94.531, 99.962 93.830, 101.172 93.445 C 103.223 92.794, 103.254 92.659, 101.627 91.469 C 100.519 90.659, 100.268 89.952, 100.940 89.537 C 101.523 89.177, 102.007 89.471, 102.015 90.191 C 102.027 91.218, 102.218 91.204, 102.904 90.122 C 103.384 89.364, 104.296 89.065, 104.932 89.458 C 105.568 89.851, 106.743 89.628, 107.544 88.964 C 108.684 88.017, 109 88.022, 109 88.985 C 109 89.661, 109.646 89.966, 110.435 89.663 C 111.225 89.360, 112.091 89.650, 112.359 90.306 C 112.723 91.194, 113.088 91.158, 113.785 90.166 C 114.542 89.088, 114.842 89.146, 115.349 90.468 C 115.780 91.590, 115.588 91.879, 114.739 91.388 C 114.057 90.995, 114.625 91.829, 116 93.242 C 117.375 94.655, 119.150 96.604, 119.945 97.572 C 120.818 98.636, 121.536 98.893, 121.759 98.222 C 121.963 97.612, 122.775 97.360, 123.565 97.663 C 124.354 97.966, 125 97.684, 125 97.036 C 125 96.298, 125.588 96.445, 126.571 97.429 C 128.548 99.406, 128.894 99.393, 131.343 97.250 C 132.444 96.288, 133.013 96.066, 132.609 96.757 C 132.188 97.476, 132.471 98.243, 133.270 98.550 C 134.038 98.845, 134.667 99.735, 134.667 100.529 C 134.667 102.256, 131.527 103.435, 129.759 102.373 C 128.876 101.842, 128.907 102.118, 129.863 103.297 C 130.613 104.222, 131.738 104.672, 132.363 104.297 C 132.988 103.923, 132.882 104.377, 132.128 105.308 C 130.918 106.800, 131.013 107, 132.937 107 C 134.308 107, 134.858 107.421, 134.417 108.134 C 133.931 108.920, 134.681 109.127, 136.858 108.808 C 139.939 108.355, 141.025 109.249, 138.951 110.530 C 138.223 110.980, 138.229 111.571, 138.973 112.467 C 139.780 113.440, 139.497 113.898, 137.815 114.338 C 135.699 114.892, 135.994 116.500, 138.211 116.500 C 138.786 116.500, 139.928 117.513, 140.750 118.750 C 141.625 120.068, 141.804 121, 141.181 121 C 140.475 121, 140.528 121.789, 141.338 123.350 C 143.230 126.997, 145.236 128.486, 148.500 128.663 C 155.337 129.035, 158 130.284, 158 133.118 C 158 134.218, 158.342 134.907, 158.760 134.648 C 159.178 134.390, 161 134.801, 162.810 135.562 C 165.735 136.792, 165.975 137.178, 164.973 139.051 C 164.353 140.209, 164.096 141.807, 164.400 142.601 C 164.854 143.782, 164.571 143.841, 162.857 142.923 C 161.365 142.125, 160.955 142.118, 161.438 142.900 C 161.824 143.524, 161.429 144, 160.525 144 C 159.355 144, 159.040 144.731, 159.338 146.750 C 159.562 148.262, 160.244 149.390, 160.854 149.256 C 161.463 149.122, 162.695 150.131, 163.590 151.498 C 164.486 152.865, 165.620 153.735, 166.109 153.432 C 166.599 153.130, 167 153.260, 167 153.722 C 167 154.184, 168.575 154.548, 170.499 154.531 C 172.424 154.514, 173.999 154.062, 173.999 153.527 C 174 152.993, 174.706 153.563, 175.568 154.794 C 176.431 156.026, 177.444 156.860, 177.818 156.649 C 178.193 156.437, 179.528 157.329, 180.785 158.632 C 182.042 159.934, 182.601 161, 182.027 161 C 179.475 161, 183.519 164.710, 186.153 164.785 C 187.724 164.830, 189.714 165.571, 190.574 166.431 C 192.242 168.099, 194.553 167.448, 196.869 164.658 C 198.387 162.829, 201.330 163.560, 203.685 166.350 L 205.500 168.500 203 166.507 L 200.500 164.514 202.895 167.226 C 204.213 168.718, 205.788 169.655, 206.395 169.309 C 207.003 168.963, 207.166 169.048, 206.759 169.498 C 206.351 169.948, 206.529 170.933, 207.155 171.687 C 208.037 172.749, 207.770 173.616, 205.972 175.529 C 203.875 177.762, 203.977 178.501, 206.324 178.094 C 206.778 178.015, 206.859 178.419, 206.505 178.992 C 206.151 179.564, 205.475 179.794, 205.003 179.502 C 204.531 179.210, 202.875 180.139, 201.322 181.566 C 199.770 182.994, 199.175 183.814, 200 183.389 C 201.233 182.753, 201.282 182.886, 200.274 184.132 C 199.306 185.329, 199.306 185.921, 200.274 186.949 C 201.243 187.977, 201.236 188.347, 200.244 188.710 C 199.553 188.964, 199.242 189.582, 199.553 190.085 C 199.864 190.588, 199.641 191, 199.059 191 C 198.477 191, 198 191.675, 198 192.500 C 198 193.805, 196.173 194.501, 193.750 194.118 C 193.338 194.053, 192.944 194.450, 192.875 195 C 192.806 195.550, 192.637 196.900, 192.500 198 C 192.363 199.100, 192.137 200.225, 192 200.500 C 191.863 200.775, 191.694 201.413, 191.625 201.917 C 191.556 202.421, 191.090 203.208, 190.590 203.667 C 190.061 204.151, 189.981 203.976, 190.399 203.250 C 190.794 202.563, 190.641 202, 190.059 202 C 189.130 202, 188.493 204.944, 188.906 207.324 C 188.985 207.778, 188.587 207.863, 188.021 207.513 C 187.453 207.162, 187.284 205.718, 187.642 204.290 C 188.074 202.568, 187.933 201.923, 187.220 202.364 C 186.631 202.728, 186.319 204.370, 186.527 206.013 C 186.735 207.656, 186.476 209, 185.952 209 C 182.994 209, 178.702 217.080, 180.930 218.457 C 181.344 218.713, 181.632 220.689, 181.570 222.848 C 181.468 226.351, 181.698 226.747, 183.700 226.527 C 184.934 226.392, 185.705 226.668, 185.413 227.141 C 185.121 227.613, 185.584 228, 186.441 228 C 187.298 228, 188 227.523, 188 226.941 C 188 226.359, 188.562 226.206, 189.250 226.601 C 189.938 226.997, 190.161 226.947, 189.746 226.490 C 189.332 226.033, 189.680 224.611, 190.520 223.330 C 191.886 221.245, 191.886 221, 190.523 221 C 188.339 221, 188.642 219.327, 190.935 218.727 C 192.911 218.211, 194.514 220.360, 193.444 222.090 C 193.135 222.591, 193.610 223, 194.500 223 C 195.390 223, 195.905 222.655, 195.644 222.234 C 195.384 221.812, 196.243 220.961, 197.553 220.343 C 199.474 219.436, 200.185 219.525, 201.218 220.801 C 202.296 222.132, 202.261 222.243, 201 221.500 C 199.755 220.766, 199.711 220.877, 200.741 222.150 C 201.424 222.994, 201.687 223.980, 201.325 224.342 C 200.963 224.704, 201.218 225, 201.892 225 C 202.566 225, 202.842 225.446, 202.505 225.992 C 202.168 226.537, 203.147 228.225, 204.680 229.742 C 206.213 231.259, 207.368 232.821, 207.246 233.214 C 207.124 233.607, 207.648 233.689, 208.411 233.396 C 209.174 233.103, 210.138 233.414, 210.553 234.086 C 211.037 234.868, 210.893 235.052, 210.155 234.595 C 209.464 234.168, 209 234.532, 209 235.500 C 209 236.390, 209.423 236.856, 209.940 236.537 C 210.458 236.217, 211.714 236.850, 212.732 237.943 C 214.565 239.910, 214.583 239.901, 214.545 237.047 C 214.518 235.041, 214.167 234.446, 213.390 235.091 C 212.599 235.747, 212.422 235.243, 212.782 233.360 C 213.084 231.783, 212.896 230.946, 212.321 231.302 C 211.788 231.631, 211.385 230.918, 211.426 229.717 C 211.467 228.517, 210.975 227.526, 210.333 227.517 C 209.692 227.508, 208.792 227.090, 208.333 226.590 C 207.853 226.065, 208.004 225.968, 208.689 226.361 C 209.342 226.735, 210.341 226.245, 210.908 225.271 C 211.594 224.093, 211.949 223.957, 211.970 224.867 C 211.988 225.694, 212.723 226.044, 213.833 225.754 C 214.902 225.474, 215.667 225.805, 215.667 226.548 C 215.667 227.248, 214.868 227.667, 213.891 227.479 C 212.721 227.254, 212.295 227.604, 212.640 228.505 C 212.929 229.258, 213.707 229.666, 214.368 229.412 C 215.124 229.122, 215.661 230.134, 215.813 232.133 C 215.947 233.883, 216.758 236.795, 217.616 238.603 C 219.030 241.582, 219.568 241.880, 223.338 241.772 C 225.627 241.707, 228.400 241.994, 229.500 242.410 C 231.221 243.062, 231.171 242.877, 229.139 241.084 C 227.841 239.938, 227.200 239, 227.715 239 C 228.230 239, 229.721 240.138, 231.028 241.529 C 232.335 242.921, 233.988 243.835, 234.702 243.561 C 235.416 243.287, 236 243.525, 236 244.090 C 236 244.656, 236.526 244.793, 237.170 244.395 C 237.968 243.902, 238.127 244.228, 237.669 245.420 C 237.231 246.562, 237.419 247.027, 238.213 246.762 C 238.881 246.540, 240.412 247.421, 241.616 248.720 C 242.821 250.019, 243.967 250.600, 244.163 250.010 C 244.360 249.420, 246.139 250.752, 248.117 252.969 C 250.095 255.186, 251.441 257.014, 251.107 257.032 C 249.918 257.094, 254.406 260, 255.691 260 C 257.343 260, 256.967 257.921, 255 256.179 C 254.175 255.449, 254.063 255.137, 254.750 255.485 C 255.447 255.838, 256 255.517, 256 254.759 C 256 254.012, 255.438 252.833, 254.750 252.141 C 253.747 251.131, 253.873 251.024, 255.386 251.600 C 256.768 252.126, 257.136 251.941, 256.761 250.909 C 256.480 250.134, 255.760 249.607, 255.161 249.738 C 254.562 249.869, 254.327 249.310, 254.640 248.496 C 254.952 247.683, 254.581 246.776, 253.815 246.482 C 253.048 246.188, 252.351 245.009, 252.265 243.862 C 252.178 242.715, 251.380 240.972, 250.490 239.989 C 248.989 238.331, 249.037 238.087, 251.159 236.601 C 252.416 235.721, 253.007 234.948, 252.473 234.885 C 249.082 234.483, 248.335 234.525, 246.855 235.204 C 245.142 235.989, 242.152 233.515, 243.357 232.309 C 243.711 231.956, 244 232.278, 244 233.024 C 244 233.921, 244.535 233.723, 245.574 232.441 C 246.440 231.374, 246.863 231.063, 246.515 231.750 C 245.630 233.498, 247.545 233.312, 249.386 231.471 C 250.227 230.630, 250.661 229.280, 250.351 228.471 C 250.040 227.662, 250.284 227, 250.893 227 C 251.502 227, 252 226.502, 252 225.893 C 252 225.284, 251.302 225.054, 250.448 225.382 C 249.533 225.733, 249.155 225.559, 249.525 224.959 C 250.244 223.797, 244.063 216.356, 242.728 216.775 C 242.246 216.926, 242.107 216.635, 242.420 216.129 C 242.733 215.622, 242.342 213.960, 241.550 212.434 C 240.568 210.540, 240.411 209.101, 241.056 207.896 C 242.134 205.882, 242.313 201.646, 241.360 200.693 C 241.008 200.341, 240.536 197.917, 240.312 195.306 C 240.087 192.695, 239.396 190.245, 238.776 189.862 C 236.708 188.583, 236.896 185.168, 239.073 184.477 C 240.196 184.120, 241.539 182.713, 242.057 181.349 C 243.292 178.103, 243.264 177.962, 241.514 178.633 C 240.535 179.009, 239.682 178.293, 239.014 176.537 C 238.456 175.070, 238 173.674, 238 173.435 C 238 172.486, 240.926 173.071, 241.595 174.155 C 242.068 174.918, 241.866 175.035, 241 174.500 C 240.127 173.961, 239.932 174.081, 240.415 174.862 C 241.312 176.314, 243 175.386, 243 173.441 C 243 172.637, 242.006 171.965, 240.750 171.921 C 239.247 171.868, 238.998 171.653, 240 171.271 C 240.825 170.957, 241.831 170.205, 242.235 169.600 C 242.752 168.825, 242.974 168.820, 242.985 169.583 C 242.993 170.179, 243.675 170.667, 244.500 170.667 C 245.325 170.667, 246 169.815, 246 168.774 C 246 167.734, 245.601 167.129, 245.113 167.430 C 244.625 167.732, 244.288 167.196, 244.363 166.239 C 244.438 165.283, 243.937 164.613, 243.250 164.750 C 242.562 164.888, 242.053 164.663, 242.118 164.250 C 242.444 162.187, 241.853 161, 240.500 161 C 239.675 161, 239 160.534, 239 159.965 C 239 158.794, 243.074 160.646, 244.158 162.309 C 245.087 163.737, 250.667 161.284, 250.667 159.448 C 250.667 158.651, 250.324 158, 249.905 158 C 249.486 158, 248.540 157.397, 247.804 156.661 C 247.067 155.924, 245.122 154.835, 243.482 154.240 L 240.500 153.158 243.191 153.079 C 244.671 153.036, 246.160 153.450, 246.500 154 C 247.423 155.493, 249 155.207, 249 153.547 C 249 151.422, 246.825 147, 245.780 147 C 245.286 147, 245.157 147.445, 245.493 147.989 C 245.858 148.580, 245.400 148.707, 244.352 148.305 C 243.276 147.892, 243.063 147.479, 243.801 147.233 C 244.460 147.013, 245 146.210, 245 145.448 C 245 144.673, 244.385 144.299, 243.604 144.599 C 242.198 145.138, 238.726 141.252, 239.498 140.004 C 239.726 139.635, 239.257 139.333, 238.456 139.333 C 237.655 139.333, 237 139.933, 237 140.667 C 237 141.400, 236.550 142, 236 142 C 234.514 142, 234.788 140.354, 236.571 138.571 C 238.073 137.070, 237.416 136.461, 234.750 136.882 C 234.338 136.947, 234 136.541, 234 135.981 C 234 134.791, 239.324 135.863, 239.833 137.155 C 240.487 138.812, 241.927 137.967, 241.374 136.250 C 240.915 134.823, 241.001 134.768, 241.840 135.952 C 242.405 136.751, 242.616 137.812, 242.309 138.309 C 241.992 138.822, 242.724 138.905, 244 138.500 C 245.456 138.038, 246.024 138.152, 245.609 138.824 C 245.256 139.395, 245.444 140.157, 246.027 140.517 C 247.430 141.384, 250.219 139.014, 249.624 137.462 C 249.367 136.792, 249.661 135.739, 250.278 135.122 C 250.895 134.505, 251.030 134, 250.578 134 C 250.125 134, 250.373 133.239, 251.128 132.308 C 252.060 131.158, 252.099 130.857, 251.250 131.367 C 250.563 131.780, 250 131.641, 250 131.059 C 250 130.477, 250.702 130, 251.559 130 C 252.416 130, 252.866 129.592, 252.558 129.093 C 252.249 128.595, 253.010 128.448, 254.249 128.767 C 256.254 129.283, 256.350 129.164, 255.128 127.673 C 254.235 126.585, 254.147 126, 254.878 126 C 255.495 126, 256 125.052, 256 123.893 C 256 122.400, 255.548 121.959, 254.448 122.382 C 253.519 122.738, 253.153 122.561, 253.537 121.941 C 253.898 121.357, 255.725 121.151, 257.724 121.469 C 260.994 121.988, 261.166 121.894, 259.919 120.266 C 259.175 119.295, 258.942 118.816, 259.402 119.202 C 259.862 119.589, 260.860 119.283, 261.619 118.524 C 263.296 116.847, 263.441 115.609, 261.845 116.595 C 261.101 117.055, 260.964 116.868, 261.458 116.067 C 262.893 113.746, 264.133 116.520, 262.996 119.510 C 261.774 122.726, 262.302 125, 264.272 125 C 265.921 125, 272.231 118.628, 271.518 117.684 C 271.233 117.308, 271.296 117.221, 271.658 117.491 C 272.577 118.177, 275.087 115.950, 274.488 114.980 C 274.218 114.544, 274.943 114.434, 276.099 114.736 C 277.759 115.170, 278.125 114.888, 277.838 113.395 C 277.626 112.298, 276.639 111.503, 275.487 111.502 C 274.230 111.501, 273.631 110.949, 273.855 110 C 274.050 109.175, 274.288 108.050, 274.383 107.500 C 274.756 105.346, 276.269 103.889, 277.601 104.400 C 278.408 104.710, 279 104.316, 279 103.469 C 279 102.661, 279.477 102, 280.059 102 C 280.641 102, 280.840 102.450, 280.500 103 C 279.572 104.501, 281.263 104.204, 283.812 102.419 C 285.988 100.895, 286.052 100.927, 285.616 103.332 C 285.368 104.703, 284.625 106.832, 283.966 108.064 C 282.925 110.009, 282.986 110.219, 284.436 109.663 C 285.417 109.286, 285.852 109.430, 285.493 110.011 C 285.157 110.555, 284.329 111, 283.654 111 C 282.978 111, 282.360 111.877, 282.279 112.949 C 282.146 114.707, 282.420 114.641, 285.066 112.284 C 286.680 110.846, 288 109.042, 288 108.276 C 288 107.509, 288.450 107.160, 289 107.500 C 289.550 107.840, 290.007 107.754, 290.016 107.309 C 290.025 106.864, 291.360 104.993, 292.983 103.152 L 295.935 99.804 295.717 102.815 C 295.598 104.472, 295.316 105.645, 295.092 105.422 C 294.283 104.619, 292.038 107.252, 292.666 108.268 C 293.019 108.840, 292.840 109.019, 292.268 108.666 C 291.695 108.312, 290.628 108.805, 289.896 109.761 C 289.165 110.717, 288.948 111.178, 289.414 110.785 C 290.400 109.955, 294 111.653, 294 112.948 C 294 113.431, 292.716 113.342, 291.147 112.750 C 288.149 111.618, 284.479 112.349, 285.431 113.888 C 285.738 114.384, 285.269 115.066, 284.391 115.404 C 283.510 115.742, 283.041 116.664, 283.345 117.458 C 283.673 118.312, 283.411 118.720, 282.699 118.460 C 282.040 118.218, 280.829 118.448, 280.008 118.969 C 277.902 120.307, 279.732 121.786, 283.978 122.179 L 287.455 122.500 284.664 123.758 C 283.129 124.449, 282.153 124.562, 282.495 124.008 C 282.838 123.453, 282.390 123, 281.500 123 C 280.610 123, 280.160 123.450, 280.500 124 C 280.840 124.550, 280.593 125, 279.952 125 C 279.311 125, 279.032 124.359, 279.333 123.575 C 279.747 122.495, 279.049 122.193, 276.444 122.325 C 274.459 122.426, 273.007 123.028, 273.004 123.750 C 273.002 124.438, 272.523 125, 271.941 125 C 271.359 125, 271.167 125.461, 271.515 126.025 C 271.864 126.588, 271.778 126.967, 271.324 126.866 C 270.871 126.765, 269.721 127.024, 268.768 127.441 C 267.500 127.997, 267.281 128.656, 267.948 129.903 C 268.622 131.162, 268.346 131.928, 266.891 132.836 C 265.808 133.512, 265.142 134.420, 265.410 134.854 C 265.678 135.288, 264.983 136.426, 263.865 137.383 C 262.735 138.351, 262.087 139.785, 262.405 140.614 C 262.720 141.433, 262.545 141.837, 262.018 141.511 C 261.490 141.185, 260.778 142.036, 260.435 143.402 C 259.798 145.941, 260.595 148.367, 261.819 147.614 C 262.194 147.383, 262.619 148.807, 262.764 150.778 C 262.909 152.748, 263.271 154.604, 263.568 154.901 C 264.316 155.649, 265.984 152.783, 265.375 151.798 C 265.104 151.359, 265.610 151, 266.500 151 C 267.390 151, 267.835 150.543, 267.490 149.984 C 267.144 149.425, 266.330 149.272, 265.681 149.644 C 265.031 150.016, 264.834 149.952, 265.241 149.502 C 265.649 149.052, 265.432 147.968, 264.759 147.092 C 263.839 145.896, 264.048 145.936, 265.596 147.250 C 268.500 149.715, 269.683 149.428, 267.405 146.811 L 265.500 144.622 268.720 146.857 C 272.327 149.362, 273.647 151, 272.059 151 C 271.477 151, 271 150.550, 271 150 C 271 149.450, 270.550 149, 270 149 C 267.944 149, 269.095 150.986, 271.500 151.589 C 272.875 151.934, 274 152.891, 274 153.715 C 274 154.637, 273.422 154.992, 272.500 154.638 C 269.797 153.601, 268.319 154.961, 268.529 158.294 C 268.640 160.057, 268.229 162.175, 267.615 163 C 266.287 164.786, 263 165.529, 263 164.044 C 263 163.470, 262.560 163, 262.021 163 C 261.426 163, 261.489 163.979, 262.182 165.500 C 262.808 166.875, 263.643 168, 264.036 168 C 264.428 168, 265.026 169.380, 265.363 171.066 C 265.910 173.798, 268 174.445, 268 171.882 C 268 171.332, 267.625 171.114, 267.167 171.397 C 266.708 171.680, 266.333 171.349, 266.333 170.662 C 266.333 169.969, 267.485 169.438, 268.917 169.471 C 270.963 169.518, 271.408 169.943, 271.058 171.515 C 270.815 172.607, 270.590 174.716, 270.558 176.201 C 270.503 178.770, 270.390 178.830, 268.250 177.428 C 266.256 176.122, 266 176.127, 266 177.477 C 266 178.315, 266.388 179, 266.861 179 C 267.335 179, 267.507 180.128, 267.244 181.506 C 266.980 182.884, 267.155 184.593, 267.632 185.303 C 268.110 186.013, 267.715 185.739, 266.755 184.693 C 265.796 183.647, 265.257 182.394, 265.557 181.907 C 265.858 181.421, 265.332 181.319, 264.388 181.681 C 263.224 182.128, 262.904 181.964, 263.395 181.170 C 263.793 180.526, 263.615 180, 263 180 C 262.385 180, 262.146 179.574, 262.468 179.052 C 262.794 178.524, 262.078 178.292, 260.850 178.529 C 258.497 178.982, 256.832 180.866, 257.347 182.491 C 257.519 183.036, 257.062 184.081, 256.330 184.813 C 254.868 186.275, 254.529 189, 255.809 189 C 256.254 189, 257.472 188.375, 258.517 187.611 C 259.562 186.847, 261.071 186.474, 261.872 186.781 C 262.887 187.171, 263.105 186.910, 262.590 185.920 C 262.184 185.139, 262.560 185.373, 263.426 186.441 C 264.292 187.509, 264.618 188.634, 264.151 188.941 C 263.036 189.676, 263.394 193.794, 264.687 195.087 C 265.375 195.775, 266.236 195.289, 267.353 193.583 C 268.463 191.889, 269.548 191.273, 270.666 191.702 C 271.900 192.176, 272.119 191.974, 271.517 190.920 C 270.887 189.817, 270.988 189.759, 271.966 190.663 C 273.503 192.082, 272.328 194.340, 270.431 193.612 C 269.679 193.323, 268.752 193.630, 268.372 194.294 C 267.991 194.957, 268.030 195.184, 268.459 194.798 C 269.639 193.734, 272.075 196.640, 271.425 198.335 C 271.082 199.228, 271.581 200.065, 272.678 200.436 C 274.317 200.991, 280.001 205.467, 279.999 206.202 C 279.999 206.366, 278.805 206.569, 277.346 206.654 C 275.715 206.748, 275.179 206.508, 275.953 206.029 C 276.846 205.477, 276.891 205.050, 276.107 204.566 C 275.498 204.190, 274.581 204.141, 274.069 204.457 C 273.557 204.774, 271.886 203.872, 270.354 202.453 C 268.332 200.578, 267.424 200.232, 267.035 201.186 C 266.219 203.190, 262.575 203.551, 263.342 201.552 C 263.846 200.237, 263.611 200.138, 262.015 200.992 C 260.878 201.600, 260.310 202.645, 260.644 203.515 C 261.002 204.449, 260.617 205, 259.607 205 C 257.377 205, 257.600 206.269, 260.105 207.833 C 261.262 208.556, 261.911 208.664, 261.546 208.074 C 261.181 207.483, 261.355 207, 261.933 207 C 262.510 207, 263.517 207.855, 264.170 208.900 C 264.847 209.985, 265.994 210.556, 266.842 210.230 C 267.857 209.841, 268.080 210.061, 267.547 210.924 C 267.116 211.621, 265.685 211.982, 264.358 211.728 C 263.013 211.471, 261.630 211.828, 261.225 212.538 C 260.826 213.236, 259.410 213.963, 258.078 214.154 C 256.746 214.344, 255.448 215.134, 255.192 215.909 C 254.861 216.913, 255.239 217.122, 256.505 216.636 C 257.928 216.090, 258.056 216.228, 257.144 217.327 C 256.269 218.380, 256.434 219.195, 257.854 220.831 C 258.871 222.004, 259.918 222.749, 260.180 222.486 C 260.443 222.224, 260.622 223.019, 260.579 224.254 C 260.499 226.523, 261.062 226.708, 264.261 225.463 C 265.652 224.922, 265.879 225.151, 265.341 226.553 C 264.875 227.769, 265.029 228.100, 265.830 227.605 C 266.522 227.178, 267.051 227.519, 267.125 228.441 C 267.372 231.522, 267.520 231.918, 268.897 233.200 C 270.047 234.271, 270.158 234.261, 269.524 233.146 C 268.992 232.211, 269.540 232.307, 271.293 233.456 C 274.022 235.244, 275.352 237.622, 274.444 239.090 C 274.135 239.591, 274.326 240, 274.870 240 C 275.413 240, 276.536 240.678, 277.365 241.508 C 278.299 242.442, 279.109 242.632, 279.495 242.008 C 279.838 241.453, 279.738 241, 279.273 241 C 277.715 241, 278.401 237.001, 279.964 236.970 C 281.176 236.946, 281.116 236.716, 279.680 235.881 C 278.088 234.955, 278.048 234.677, 279.358 233.661 C 281.187 232.242, 281.768 229.008, 280.544 227.053 C 280.044 226.254, 281.001 226.577, 282.682 227.774 C 284.356 228.966, 286.110 229.617, 286.580 229.220 C 287.050 228.824, 286.848 229.268, 286.131 230.206 C 285.414 231.145, 285.062 232.291, 285.348 232.754 C 285.634 233.217, 285.405 234.249, 284.840 235.048 C 283.989 236.249, 283.904 236.209, 284.349 234.816 C 284.735 233.606, 284.340 233.174, 282.943 233.279 C 280.600 233.456, 280.600 233.459, 282.575 236.475 C 283.511 237.902, 284.745 238.651, 285.613 238.318 C 287.136 237.734, 290.282 231.266, 289.589 230.144 C 289.371 229.790, 290.252 229.436, 291.548 229.359 C 293.807 229.223, 293.839 229.316, 292.337 231.609 C 291.475 232.924, 291.079 234, 291.456 234 C 291.834 234, 291.436 234.707, 290.571 235.571 C 288.797 237.346, 288.491 240.567, 290.007 241.504 C 290.561 241.847, 291.255 241.498, 291.550 240.730 C 292.241 238.931, 294.757 238.923, 295.446 240.719 C 295.738 241.481, 295.532 241.829, 294.989 241.493 C 294.445 241.157, 294 241.359, 294 241.941 C 294 242.523, 294.563 243.016, 295.250 243.035 C 295.938 243.055, 295.398 243.681, 294.050 244.427 C 292.703 245.174, 291.010 245.557, 290.288 245.280 C 288.210 244.483, 286 246.979, 286 250.122 C 286 253.119, 287.356 253.519, 289.804 251.244 C 290.662 250.446, 291.726 250.307, 292.720 250.863 C 293.580 251.345, 295.120 251.520, 296.142 251.253 C 297.175 250.983, 298 251.289, 298 251.942 C 298 252.589, 297.610 252.877, 297.134 252.583 C 295.774 251.742, 293.073 255.324, 293.254 257.728 C 293.381 259.401, 293.719 259.648, 294.733 258.807 C 296.294 257.511, 296.919 257.982, 297.476 260.874 C 297.818 262.654, 297.493 262.947, 295.565 262.598 C 292.816 262.099, 290.547 265.735, 292.135 268.092 C 292.926 269.267, 293.035 269.247, 292.792 267.970 C 292.631 267.129, 292.950 266.454, 293.500 266.470 C 294.050 266.487, 294.330 266.950, 294.123 267.500 C 293.915 268.050, 293.728 269.037, 293.706 269.694 C 293.684 270.351, 293.190 270.801, 292.607 270.694 C 292.024 270.587, 291.393 271.509, 291.205 272.743 C 290.906 274.704, 291.154 274.881, 293.181 274.152 C 294.457 273.694, 295.942 272.351, 296.483 271.169 C 297.024 269.987, 297.924 269.068, 298.483 269.128 C 301.054 269.403, 302.172 268.891, 301.698 267.656 C 301.329 266.694, 301.866 266.443, 303.591 266.773 C 304.916 267.026, 306 267.657, 306 268.176 C 306 268.694, 306.450 268.840, 307 268.500 C 307.550 268.160, 308 268.374, 308 268.976 C 308 269.735, 308.573 269.764, 309.869 269.070 C 310.896 268.520, 312.059 268.392, 312.452 268.785 C 312.845 269.178, 313.017 269.050, 312.833 268.500 C 312.650 267.950, 312.725 267.355, 313 267.177 C 314.767 266.035, 325.396 264.314, 329.362 264.528 C 331.978 264.669, 333.870 264.536, 333.567 264.234 C 333.265 263.931, 333.479 263.127, 334.044 262.447 C 334.608 261.767, 334.959 260.826, 334.823 260.355 C 334.397 258.883, 337.052 254.914, 338.050 255.531 C 338.573 255.854, 339 255.416, 339 254.559 C 339 253.702, 339.502 253, 340.117 253 C 340.741 253, 341.003 252.118, 340.710 251 C 340.423 249.900, 340.555 249, 341.006 249 C 341.456 249, 341.703 247.896, 341.555 246.548 C 341.404 245.175, 341.773 244.184, 342.393 244.298 C 343.002 244.409, 343.376 243.904, 343.225 243.176 C 343.074 242.447, 343.381 242.117, 343.906 242.442 C 344.432 242.767, 345.187 242.507, 345.584 241.865 C 346.095 241.037, 346.678 241.206, 347.584 242.446 C 348.735 244.020, 349.119 243.711, 351.428 239.347 C 353.525 235.383, 353.891 235.046, 353.433 237.500 C 353.033 239.646, 353.148 240.073, 353.839 239 C 355.678 236.140, 355.531 232.247, 353.493 229.865 C 352.356 228.535, 352.193 228.067, 353.113 228.776 C 354.516 229.856, 354.663 229.690, 354.246 227.509 C 353.943 225.922, 354.222 225, 355.006 225 C 355.939 225, 355.906 224.582, 354.872 223.308 C 353.691 221.851, 353.709 221.723, 355 222.382 C 356.001 222.893, 355.943 222.690, 354.827 221.770 C 353.291 220.505, 353.287 220.309, 354.773 219.371 C 355.900 218.661, 349.522 218.378, 333.782 218.439 C 320.447 218.492, 311.404 218.155, 311.735 217.619 C 312.044 217.119, 311.205 216.919, 309.871 217.174 C 307.640 217.600, 307.475 217.369, 307.832 214.312 C 308.062 212.346, 307.567 209.987, 306.621 208.545 C 305.498 206.831, 305.354 205.899, 306.136 205.416 C 306.879 204.957, 307.051 202.364, 306.653 197.614 C 306.324 193.701, 305.816 185.550, 305.524 179.500 C 305.231 173.450, 304.757 165.800, 304.471 162.500 C 304.185 159.200, 303.713 152.675, 303.421 148 C 302.632 135.325, 302.545 134.619, 301.580 133.095 C 300.998 132.176, 301.055 131.916, 301.745 132.343 C 302.408 132.752, 302.800 131.695, 302.800 129.500 C 302.800 127.578, 302.508 126.186, 302.150 126.406 C 301.793 126.626, 301.469 123.362, 301.432 119.153 C 301.321 106.816, 300.573 99.007, 299.500 98.987 C 298.950 98.977, 299.084 98.599, 299.797 98.146 C 300.829 97.492, 300.769 97.053, 299.500 96 C 298.288 94.994, 298.201 94.494, 299.138 93.914 C 300.108 93.315, 300.092 92.815, 299.063 91.576 C 298.309 90.668, 298.193 90, 298.789 90 C 299.358 90, 299.672 89.213, 299.488 88.250 C 299.304 87.287, 299.118 86.275, 299.076 86 C 299.006 85.542, 293.160 85.508, 292 85.959 C 290.212 86.654, 288.071 86.694, 288.485 86.025 C 288.757 85.585, 286.326 85.285, 283.083 85.359 C 279.840 85.433, 277.331 85.726, 277.506 86.010 C 277.945 86.719, 271.749 86.373, 269.131 85.541 C 267.865 85.140, 267 85.298, 267 85.933 C 267 86.520, 266.325 87, 265.500 87 C 264.675 87, 263.993 86.438, 263.985 85.750 C 263.973 84.830, 263.742 84.858, 263.110 85.857 C 262.476 86.857, 262.061 86.907, 261.529 86.047 C 261.019 85.221, 260.376 85.409, 259.330 86.690 C 258.517 87.686, 258.093 88.008, 258.388 87.407 C 258.762 86.643, 252.572 86.109, 237.898 85.637 C 226.333 85.266, 216.508 85.186, 216.066 85.459 C 215.408 85.866, 189.458 86.008, 132.500 85.917 C 129.200 85.912, 110.300 85.934, 90.500 85.967 C 70.700 86, 54.050 85.973, 53.500 85.908 C 49.353 85.416, 43.298 85.623, 42.339 86.290 C 41.696 86.737, 40.876 86.608, 40.500 86 C 40.039 85.254, 33.461 84.954, 19.967 85.063 L 0.112 85.224 0.441 110.121 M 264.587 89.218 C 264.890 89.923, 266.508 91.590, 268.184 92.922 C 270.624 94.861, 270.990 94.961, 270.020 93.422 C 268.531 91.060, 263.812 87.408, 264.587 89.218 M 57.566 92.898 C 56.396 93.356, 56.055 93.916, 56.703 94.316 C 57.292 94.680, 58.329 94.308, 59.009 93.489 C 60.379 91.839, 60.326 91.817, 57.566 92.898 M 272.465 98.750 C 273.338 100.537, 274.265 102, 274.526 102 C 275.520 102, 274.880 100.407, 272.918 98 L 270.880 95.500 272.465 98.750 M 265.038 121.545 C 265.692 122.333, 266.626 122.731, 267.113 122.430 C 268.653 121.478, 268.077 120.431, 265.924 120.269 C 264.231 120.142, 264.068 120.376, 265.038 121.545 M 257.758 122.575 C 257.442 122.892, 257.563 124.475, 258.027 126.094 C 258.491 127.713, 258.863 129.291, 258.852 129.602 C 258.801 131.147, 259.954 130.954, 260.857 129.267 C 262.350 126.478, 261.613 123.438, 259.536 123.817 C 258.507 124.005, 258.068 123.699, 258.459 123.067 C 259.161 121.930, 258.716 121.617, 257.758 122.575 M 243 130.719 C 243 131.306, 243.675 132.045, 244.500 132.362 C 245.325 132.678, 246 133.825, 246 134.910 C 246 135.994, 246.450 137.160, 247 137.500 C 249.121 138.811, 247.871 134.228, 245.500 132 C 244.125 130.708, 243 130.132, 243 130.719 M 233.800 133.200 C 234.733 134.133, 235.267 134.133, 236.200 133.200 C 237.133 132.267, 236.867 132, 235 132 C 233.133 132, 232.867 132.267, 233.800 133.200 M 251.505 135.372 C 249.723 136.676, 249.747 136.739, 251.981 136.622 C 253.276 136.555, 254.522 135.938, 254.751 135.250 C 255.298 133.607, 253.845 133.661, 251.505 135.372 M 263.395 158.179 C 263.453 159.195, 263.837 160.020, 264.250 160.013 C 264.663 160.006, 265.505 160, 266.122 160 C 266.948 160, 266.950 159.645, 266.131 158.658 C 265.519 157.920, 265.238 157.095, 265.509 156.825 C 265.779 156.554, 265.390 156.333, 264.645 156.333 C 263.899 156.333, 263.337 157.164, 263.395 158.179 M 255.955 161.250 C 255.272 163.037, 254.778 164.838, 254.857 165.250 C 254.936 165.662, 254.523 166, 253.941 166 C 253.359 166, 253.141 166.419, 253.457 166.931 C 253.774 167.443, 253.575 168.144, 253.016 168.490 C 252.066 169.077, 251.505 178, 252.418 178 C 254.247 178, 256 176.450, 256 174.834 C 256 173.595, 255.571 173.147, 254.827 173.607 C 254.182 174.006, 254.357 173.328, 255.217 172.101 C 256.076 170.874, 256.533 168.929, 256.232 167.779 C 255.840 166.281, 256.038 165.905, 256.930 166.456 C 257.614 166.880, 257.952 168.074, 257.681 169.112 C 257.410 170.149, 257.596 171.250, 258.094 171.558 C 258.592 171.866, 259 171.416, 259 170.559 C 259 168.695, 260.613 168.484, 261.367 170.250 C 261.660 170.938, 261.682 169.985, 261.415 168.133 C 261.148 166.281, 260.289 163.525, 259.505 162.010 C 258.721 160.494, 258.362 158.972, 258.707 158.627 C 259.051 158.282, 258.852 158, 258.264 158 C 257.677 158, 256.637 159.463, 255.955 161.250 M 235.590 165.854 C 235.300 166.323, 236.277 167.261, 237.762 167.937 C 240.453 169.164, 240.456 169.161, 238.576 167.084 C 236.442 164.726, 236.319 164.675, 235.590 165.854 M 258.583 188.866 C 258.152 189.563, 258.050 190.384, 258.357 190.690 C 259.269 191.603, 262.001 190.165, 261.985 188.781 C 261.973 187.801, 261.767 187.820, 261.106 188.863 C 260.403 189.972, 260.160 189.981, 259.804 188.912 C 259.454 187.862, 259.209 187.852, 258.583 188.866 M 254.607 192.582 C 253.795 194.699, 253.797 194.708, 255.390 195.319 C 256.359 195.691, 256.737 195.119, 256.640 193.427 C 256.480 190.658, 255.501 190.251, 254.607 192.582 M 282 191.882 C 282 192.432, 282.450 193.160, 283 193.500 C 283.550 193.840, 284 193.668, 284 193.118 C 284 192.568, 283.550 191.840, 283 191.500 C 282.450 191.160, 282 191.332, 282 191.882 M 199 193.031 C 199 193.564, 199.675 194, 200.500 194 C 201.325 194, 202 193.823, 202 193.607 C 202 193.391, 201.325 192.955, 200.500 192.638 C 199.675 192.322, 199 192.499, 199 193.031 M 284.616 199.559 C 283.817 201.641, 284.160 202.137, 285.726 201.169 C 286.402 200.751, 286.554 199.896, 286.086 199.140 C 285.459 198.125, 285.130 198.219, 284.616 199.559 M 228.284 208.185 C 228.616 209.112, 228.477 210.012, 227.976 210.185 C 227.437 210.371, 227.453 211.113, 228.017 212 C 228.823 213.269, 228.972 213.221, 228.985 211.691 C 228.995 210.512, 229.435 210.143, 230.250 210.633 C 231.032 211.103, 230.950 210.656, 230.033 209.442 C 227.799 206.484, 227.633 206.365, 228.284 208.185 M 265 208.062 C 265 208.578, 265.900 209, 267 209 C 268.100 209, 269 208.646, 269 208.213 C 269 207.780, 268.100 207.358, 267 207.275 C 265.900 207.192, 265 207.546, 265 208.062 M 224.459 209.067 C 223.433 210.727, 224.354 210.957, 225.789 209.399 C 226.499 208.630, 226.638 208, 226.098 208 C 225.559 208, 224.821 208.480, 224.459 209.067 M 198.658 215.449 C 198.286 216.418, 198.582 216.714, 199.551 216.342 C 200.348 216.036, 201 215.384, 201 214.893 C 201 213.455, 199.265 213.867, 198.658 215.449 M 227.333 215.456 C 227.333 216.257, 227.708 216.680, 228.167 216.397 C 228.625 216.114, 229 215.459, 229 214.941 C 229 214.423, 228.625 214, 228.167 214 C 227.708 214, 227.333 214.655, 227.333 215.456 M 229.747 217.218 C 229.372 218.193, 229.737 219.069, 230.667 219.426 C 231.576 219.775, 231.960 220.662, 231.603 221.592 C 231.227 222.571, 231.458 223.014, 232.213 222.762 C 232.881 222.540, 234.456 223.468, 235.713 224.825 C 236.971 226.182, 238 226.915, 238 226.455 C 238 225.994, 238.708 226.491, 239.574 227.559 C 240.440 228.626, 240.804 228.825, 240.382 228 C 239.724 226.712, 239.854 226.693, 241.297 227.863 C 242.222 228.613, 242.731 229.626, 242.430 230.113 C 242.129 230.601, 242.544 231, 243.352 231 C 244.812 231, 245.029 228.696, 243.696 227.362 C 242.253 225.920, 243.083 224.886, 245.250 225.423 C 246.488 225.730, 246.919 225.717, 246.208 225.394 C 245.153 224.913, 245.153 224.511, 246.208 223.192 C 246.951 222.264, 246.122 222.545, 244.257 223.852 C 241.998 225.436, 241.190 225.667, 241.595 224.613 C 242.048 223.433, 241.588 223.207, 239.508 223.584 C 238.040 223.850, 237.076 223.685, 237.366 223.218 C 237.655 222.750, 236.558 221.579, 234.928 220.617 C 233.280 219.643, 232.263 218.383, 232.637 217.779 C 233.019 217.160, 232.848 216.976, 232.240 217.352 C 231.652 217.715, 230.990 217.470, 230.769 216.807 C 230.508 216.023, 230.150 216.167, 229.747 217.218 M 349 223.059 C 349 223.641, 348.480 223.797, 347.845 223.405 C 347.178 222.992, 346.961 223.127, 347.331 223.726 C 347.683 224.295, 349.083 224.974, 350.442 225.234 C 352.591 225.644, 352.784 225.464, 351.921 223.853 C 350.847 221.846, 349 221.344, 349 223.059 M 286.352 224.760 C 286.715 225.348, 286.447 226.057, 285.756 226.336 C 284.857 226.698, 284.839 226.865, 285.691 226.921 C 287.412 227.035, 288.239 225.265, 286.862 224.415 C 286.164 223.983, 285.958 224.123, 286.352 224.760 M 262.553 228.915 C 262.231 229.436, 262.394 230.125, 262.915 230.447 C 263.436 230.769, 264.125 230.606, 264.447 230.085 C 264.769 229.564, 264.606 228.875, 264.085 228.553 C 263.564 228.231, 262.875 228.394, 262.553 228.915 M 266 235.566 C 266 236.655, 268.310 240.507, 269.400 241.235 C 270.951 242.270, 273 242.175, 273 241.067 C 273 240.554, 272.149 239.865, 271.108 239.534 C 270.067 239.204, 268.984 238.049, 268.702 236.967 C 268.250 235.240, 266 234.073, 266 235.566 M 285 240 C 285 240.550, 285.423 241, 285.941 241 C 286.459 241, 287.160 240.550, 287.500 240 C 287.840 239.450, 287.416 239, 286.559 239 C 285.702 239, 285 239.450, 285 240 M 244 244.500 C 244 245.462, 244.966 246, 246.691 246 C 249.272 246, 249.303 245.940, 247.441 244.532 C 244.943 242.642, 244 242.634, 244 244.500 M 277.537 244.940 C 277.177 245.523, 277.434 246, 278.108 246 C 278.782 246, 279.044 246.289, 278.691 246.643 C 278.337 246.996, 277.424 246.767, 276.660 246.133 C 275.543 245.206, 275.294 245.420, 275.386 247.227 C 275.500 249.473, 279 251.204, 279 249.014 C 279 248.392, 279.450 248.160, 280 248.500 C 281.422 249.379, 281.181 247.822, 279.564 245.690 C 278.697 244.546, 277.951 244.270, 277.537 244.940 M 350.543 245.930 C 349.681 247.325, 348.984 251, 349.582 251 C 350.266 251, 352.132 245.798, 351.628 245.295 C 351.393 245.059, 350.905 245.345, 350.543 245.930 M 246 248.441 C 246 249.234, 246.450 250.160, 247 250.500 C 247.550 250.840, 248 250.191, 248 249.059 C 248 247.927, 247.550 247, 247 247 C 246.450 247, 246 247.648, 246 248.441 M 238.015 248.750 C 238.052 250.528, 239.762 252.194, 240.434 251.107 C 240.810 250.498, 240.615 250, 240 250 C 239.385 250, 239.160 249.550, 239.500 249 C 239.840 248.450, 239.641 248, 239.059 248 C 238.477 248, 238.007 248.338, 238.015 248.750 M 279.258 255.231 C 279.179 256.275, 279.612 256.963, 280.220 256.760 C 281.741 256.253, 282.054 253.333, 280.587 253.333 C 279.935 253.333, 279.336 254.187, 279.258 255.231 M 300.540 255.347 C 299.325 256.235, 299.073 256.927, 299.798 257.375 C 300.404 257.750, 301.388 257.143, 301.985 256.028 C 303.261 253.643, 303.023 253.531, 300.540 255.347 M 343.872 258.963 C 343.802 259.258, 343.638 260.517, 343.508 261.760 C 343.320 263.565, 343.546 263.792, 344.636 262.887 C 345.386 262.264, 346 261.173, 346 260.461 C 346 259.749, 346.563 258.950, 347.250 258.685 C 347.938 258.420, 347.488 258.254, 346.250 258.315 C 345.012 258.376, 343.943 258.667, 343.872 258.963 M 278.625 265.125 C 277.714 269.680, 277.765 269.802, 280.499 269.644 C 283.324 269.481, 283.772 268.510, 281.437 267.614 C 280.577 267.284, 280.141 266.581, 280.469 266.051 C 280.796 265.521, 281.777 265.361, 282.648 265.695 C 283.990 266.210, 284.056 265.974, 283.081 264.152 C 281.422 261.052, 279.349 261.505, 278.625 265.125" stroke="none" fill="#040404" fill-rule="evenodd"/></svg>