<svg xmlns="http://www.w3.org/2000/svg" width="360" height="360" viewBox="0 0 360 360" version="1.1"><path d="M 248.500 78.024 C 244.067 79.581, 242.120 81.410, 240.745 85.312 C 240.587 85.759, 239.292 85.681, 237.867 85.140 C 235.837 84.368, 234.586 84.573, 232.095 86.089 C 229.218 87.838, 228.976 88.356, 229.568 91.509 C 230.211 94.940, 230.176 94.985, 227.258 94.402 C 224.774 93.905, 223.901 94.312, 221.862 96.917 L 219.430 100.024 192.465 99.029 C 111.664 96.044, 71.462 94.825, 46.619 94.605 L 34.737 94.500 33.522 99 C 32.854 101.475, 30.886 108.900, 29.149 115.500 C 27.412 122.100, 22.782 138.815, 18.861 152.645 C 14.001 169.784, 11.939 178.620, 12.384 180.395 C 13.023 182.939, 13.242 183.003, 21.769 183.131 C 26.571 183.203, 40.850 183.541, 53.500 183.881 C 76.377 184.497, 76.502 184.512, 76.820 186.750 C 77.229 189.631, 80.282 189.714, 82.154 186.894 C 83.327 185.128, 84.516 184.799, 89.526 184.858 C 156.678 185.651, 171.513 186.040, 171.838 187.014 C 172.092 187.775, 178.051 187.892, 191.850 187.405 L 211.500 186.711 211.171 194.356 C 210.866 201.450, 210.986 202, 212.848 202 C 215.186 202, 215.932 204.342, 214.861 208.318 C 213.827 212.152, 215.221 215.313, 219.181 218.111 C 221.006 219.401, 223.273 221.366, 224.217 222.478 C 225.288 223.740, 225.946 224.008, 225.967 223.191 C 225.985 222.471, 226.457 222.165, 227.016 222.510 C 227.575 222.856, 227.774 223.557, 227.457 224.069 C 227.141 224.581, 228.103 225, 229.596 225 C 232.273 225, 232.285 225.028, 230.445 227.061 C 228.848 228.825, 228.790 229.255, 230.040 230.046 C 230.843 230.554, 231.997 230.976, 232.605 230.985 C 233.239 230.993, 233.980 233.883, 234.340 237.750 C 234.775 242.416, 235.496 244.886, 236.676 245.750 C 238.277 246.923, 238.274 247, 236.622 247 C 235.368 247, 234.953 247.648, 235.180 249.250 C 235.439 251.068, 236.045 251.442, 238.336 251.199 C 239.895 251.033, 241.822 251.437, 242.617 252.097 C 243.769 253.054, 244.330 252.932, 245.380 251.496 C 246.104 250.505, 247.215 250.015, 247.848 250.406 C 248.529 250.827, 249 250.481, 249 249.559 C 249 248.702, 249.450 248, 250 248 C 250.550 248, 251 248.536, 251 249.191 C 251 251.003, 253.932 246.738, 253.968 244.872 C 253.986 243.977, 253.325 242.685, 252.500 242 C 251.675 241.315, 251 240.274, 251 239.686 C 251 239.099, 251.661 239.491, 252.468 240.559 C 253.295 241.652, 253.950 241.954, 253.968 241.250 C 253.986 240.563, 254.727 240, 255.617 240 C 256.741 240, 257.074 239.391, 256.710 238 C 256.313 236.483, 256.708 235.963, 258.344 235.847 C 267.852 235.175, 267.814 235.188, 265.500 233.334 L 263.500 231.731 265.500 232.440 C 268.978 233.672, 269.500 233.549, 269.500 231.500 C 269.500 228.477, 271.176 226.941, 272.937 228.350 C 274.102 229.282, 274.250 229.168, 273.719 227.750 C 273.347 226.759, 273.531 226, 274.142 226 C 274.736 226, 274.159 225.127, 272.861 224.059 L 270.500 222.118 273.857 222.525 C 275.703 222.749, 277.840 223.452, 278.607 224.088 C 280.234 225.439, 280.510 223.910, 278.925 222.325 C 278.158 221.558, 278.601 221.250, 280.467 221.250 C 281.906 221.250, 282.855 221.478, 282.577 221.756 C 282.298 222.035, 282.506 223.076, 283.038 224.071 C 283.670 225.252, 283.657 226.094, 282.999 226.501 C 282.446 226.843, 282.257 228.176, 282.580 229.465 C 282.968 231.008, 282.644 232.100, 281.633 232.666 C 280.611 233.238, 279.958 235.499, 279.679 239.431 C 279.375 243.716, 278.745 245.713, 277.385 246.708 C 275.758 247.897, 275.708 248.215, 277.005 249.105 C 278.151 249.892, 277.964 249.980, 276.203 249.483 C 274.456 248.990, 272.789 249.752, 269.230 252.668 C 266.658 254.776, 264.129 256.500, 263.610 256.500 C 263.091 256.500, 262.479 257.063, 262.250 257.750 C 261.373 260.381, 266.683 258.906, 270.270 255.522 C 272.298 253.610, 275.542 251.383, 277.479 250.573 C 279.415 249.764, 281 248.683, 281 248.170 C 281 246.995, 288.766 245, 293.336 245 C 297.138 245, 298.059 243.759, 297.280 239.687 C 296.971 238.069, 297.211 237, 297.883 237 C 298.498 237, 299 237.679, 299 238.508 C 299 239.765, 299.333 239.809, 300.993 238.773 C 302.249 237.988, 302.778 236.876, 302.425 235.764 C 302.117 234.794, 302.346 234, 302.933 234 C 303.520 234, 304 234.900, 304 236 C 304 238.376, 305.534 238.656, 306.387 236.435 C 306.763 235.454, 308.015 234.951, 309.743 235.086 C 314.210 235.435, 316.160 235.068, 315.500 234 C 314.666 232.650, 316.325 232.725, 317.699 234.099 C 318.968 235.368, 323.312 234.314, 322.465 232.943 C 322.142 232.422, 323.205 232.291, 324.944 232.639 C 326.618 232.974, 329.269 232.717, 330.834 232.069 C 334.273 230.644, 344 230.041, 344 231.253 C 344 231.729, 344.450 231.840, 345 231.500 C 345.550 231.160, 346 229.559, 346 227.941 C 346 225.318, 345.136 224.505, 342.750 224.882 C 342.337 224.947, 342 224.325, 342 223.500 C 342 222.675, 342.420 222, 342.934 222 C 343.447 222, 344.010 220.762, 344.184 219.250 C 344.362 217.703, 345.047 216.609, 345.750 216.750 C 347.476 217.095, 347.313 215.408, 345.329 212.379 C 344.148 210.577, 343.988 209.625, 344.784 209.133 C 345.927 208.427, 345.900 204.264, 344.740 202.388 C 344.390 201.822, 343.902 200.266, 343.655 198.930 C 343.072 195.780, 341.156 191.454, 338.227 186.677 C 334.400 180.435, 320.021 175.176, 318.392 179.422 C 317.737 181.129, 322.869 187.199, 324.247 186.347 C 324.810 186, 324.646 185.399, 323.857 184.911 C 322.740 184.221, 322.788 183.784, 324.126 182.446 C 325.605 180.966, 326.021 180.960, 328.755 182.373 C 332.128 184.118, 332.994 185.735, 333.014 190.332 C 333.039 196.174, 333.887 197.744, 336.725 197.202 C 338.501 196.862, 339.077 197.067, 338.585 197.862 C 338.193 198.496, 338.555 199.276, 339.391 199.596 C 340.621 200.069, 340.799 201.437, 340.330 206.839 C 339.678 214.335, 338.063 216.407, 332.013 217.503 C 325.951 218.601, 320.113 220.887, 318.018 222.982 C 316.908 224.092, 314.912 225, 313.582 225 C 312.252 225, 310.527 225.244, 309.748 225.543 C 308.890 225.873, 308.333 225.454, 308.333 224.477 C 308.333 223.170, 309.094 222.975, 312.392 223.437 C 316.181 223.967, 316.312 223.907, 314.353 222.535 C 313.200 221.727, 311.210 221.267, 309.931 221.513 C 308.653 221.759, 305.390 221.302, 302.680 220.498 C 299.970 219.693, 297.356 219.280, 296.870 219.581 C 296.384 219.881, 295.687 219.311, 295.323 218.313 C 294.958 217.316, 293.586 215.198, 292.273 213.606 C 290.598 211.574, 290.202 210.398, 290.944 209.656 C 292.305 208.295, 292.317 202.314, 290.959 201.475 C 290.387 201.121, 290.167 200.048, 290.471 199.091 C 291.144 196.972, 287.807 195.079, 283.576 195.180 C 281.420 195.232, 279.926 194.364, 277.887 191.875 C 275.489 188.948, 275.346 188.434, 276.811 188 C 277.958 187.661, 278.489 186.456, 278.466 184.250 C 278.447 182.420, 278.942 181, 279.599 181 C 280.241 181, 280.987 180.157, 281.257 179.127 C 281.748 177.246, 276.112 170, 274.158 170 C 273.639 170, 272.957 169.330, 272.643 168.512 C 272.313 167.652, 272.584 167.124, 273.286 167.262 C 275.120 167.621, 274.161 163.161, 271.924 160.924 C 270.866 159.866, 269.993 158.438, 269.985 157.750 C 269.974 156.903, 269.628 156.983, 268.909 158 C 268.106 159.135, 267.724 159.194, 267.338 158.244 C 267.058 157.553, 266.305 157.287, 265.665 157.654 C 265.024 158.021, 264.834 157.952, 265.241 157.502 C 266.589 156.015, 263.955 153.954, 262.026 154.986 C 261.057 155.505, 259.979 155.645, 259.631 155.298 C 259.284 154.951, 259 155.247, 259 155.956 C 259 156.852, 258.619 156.941, 257.750 156.248 C 257.063 155.700, 255.488 155.417, 254.250 155.619 C 251.936 155.998, 251.024 153.721, 253 152.500 C 253.550 152.160, 253.998 151.346, 253.995 150.691 C 253.992 150.036, 252.921 150.837, 251.613 152.471 C 249.658 154.914, 248.974 155.223, 247.758 154.214 C 246.895 153.498, 246.435 151.846, 246.654 150.244 C 246.969 147.928, 246.886 147.812, 246.121 149.500 C 245.256 151.409, 245.181 151.416, 244.462 149.649 C 243.981 148.467, 244.213 147.467, 245.104 146.880 C 246.253 146.124, 246.157 145.700, 244.559 144.481 C 243.491 143.666, 243.127 143, 243.750 143 C 244.373 143, 245.148 143.430, 245.473 143.956 C 245.798 144.482, 246.744 144.652, 247.575 144.333 C 248.884 143.830, 248.849 143.469, 247.309 141.626 C 246.331 140.457, 247.031 140.850, 248.865 142.500 L 252.198 145.500 250.551 141.512 C 248.575 136.729, 249.218 133, 252.019 133 C 253.151 133, 254 132.328, 254 131.433 C 254 130.353, 254.586 130.051, 255.882 130.462 C 257.074 130.841, 257.980 130.494, 258.356 129.515 C 258.682 128.665, 260.198 127.473, 261.724 126.866 C 263.280 126.247, 263.950 125.558, 263.250 125.297 C 262.563 125.042, 262 124.196, 262 123.417 C 262 121.666, 260.823 121.599, 259.082 123.250 C 257.993 124.283, 257.989 124.128, 259.059 122.352 C 259.772 121.170, 262.187 119.654, 264.427 118.984 C 266.667 118.313, 269.175 117.530, 270 117.243 C 270.825 116.957, 272.362 116.630, 273.415 116.516 C 274.469 116.403, 276.231 115.228, 277.331 113.905 C 278.579 112.405, 279.098 112.146, 278.710 113.218 C 278.367 114.163, 278.541 115.216, 279.096 115.559 C 279.651 115.902, 280.630 114.791, 281.273 113.089 C 281.915 111.387, 283.212 109.750, 284.155 109.451 C 286.118 108.828, 286.233 105, 284.287 105 C 283.579 105, 283 104.100, 283 103 C 283 101.900, 282.395 101, 281.655 101 C 280.915 101, 279.495 101.900, 278.500 103 C 276.217 105.523, 274.783 105.523, 272.500 103 C 271.505 101.900, 269.747 100.993, 268.595 100.985 C 267.063 100.973, 266.859 100.742, 267.836 100.122 C 268.943 99.421, 268.912 98.508, 267.655 94.805 C 266.820 92.346, 265.822 87.547, 265.436 84.141 C 264.853 78.980, 264.458 78.037, 263.065 78.479 C 262.147 78.771, 260.519 78.347, 259.448 77.536 C 257.019 75.700, 254.839 75.797, 248.500 78.024 M 261.667 84.667 C 260.516 85.817, 260.938 87, 262.500 87 C 263.325 87, 264 86.325, 264 85.500 C 264 83.938, 262.817 83.516, 261.667 84.667 M 263.917 94.059 C 263.871 94.851, 263.722 96.505, 263.585 97.733 C 263.406 99.343, 263.664 99.694, 264.510 98.991 C 265.156 98.456, 265.980 98.313, 266.342 98.675 C 267.650 99.983, 266.900 96.452, 265.468 94.559 C 264.392 93.136, 263.978 93.003, 263.917 94.059 M 268.015 103.750 C 268.045 105.201, 269.519 106.502, 271.299 106.647 C 272.288 106.728, 272.917 106.278, 272.695 105.647 C 272.474 105.016, 271.507 104.643, 270.546 104.817 C 269.510 105.005, 269.068 104.700, 269.459 104.067 C 269.821 103.480, 269.641 103, 269.059 103 C 268.477 103, 268.007 103.338, 268.015 103.750 M 253 135 C 253 135.550, 253.927 136, 255.059 136 C 256.191 136, 256.840 135.550, 256.500 135 C 256.160 134.450, 255.234 134, 254.441 134 C 253.648 134, 253 134.450, 253 135 M 249.012 148.412 C 249.663 149.063, 250.392 149.008, 251.149 148.251 C 252.015 147.385, 251.771 147.142, 250.161 147.263 C 248.753 147.369, 248.361 147.761, 249.012 148.412 M 255.965 150.734 C 256.771 151.051, 258.219 152.253, 259.182 153.405 C 260.158 154.573, 260.948 154.947, 260.967 154.250 C 260.985 153.563, 260.550 153, 260 153 C 259.450 153, 259 152.325, 259 151.500 C 259 150.588, 258.118 150.031, 256.750 150.079 C 255.280 150.131, 255.008 150.358, 255.965 150.734 M 249.700 157.661 C 249.980 158.391, 250.612 158.740, 251.105 158.435 C 252.474 157.589, 252.170 156.333, 250.595 156.333 C 249.823 156.333, 249.420 156.931, 249.700 157.661 M 253.625 156.798 C 253.354 157.237, 253.545 158.249, 254.051 159.048 C 254.768 160.182, 254.973 160.007, 254.985 158.250 C 255 155.937, 254.492 155.394, 253.625 156.798 M 235 215 C 235 215.550, 235.450 216, 236 216 C 236.550 216, 237 215.550, 237 215 C 237 214.450, 236.550 214, 236 214 C 235.450 214, 235 214.450, 235 215 M 235 219 C 234.411 220.100, 234.155 221, 234.430 221 C 234.705 221, 235.411 220.100, 236 219 C 236.589 217.900, 236.845 217, 236.570 217 C 236.295 217, 235.589 217.900, 235 219 M 282 219 C 282 219.550, 282.450 220, 283 220 C 283.550 220, 284 219.550, 284 219 C 284 218.450, 283.550 218, 283 218 C 282.450 218, 282 218.450, 282 219 M 347.158 223 C 347.158 224.375, 347.385 224.938, 347.662 224.250 C 347.940 223.563, 347.940 222.438, 347.662 221.750 C 347.385 221.063, 347.158 221.625, 347.158 223 M 254.015 231.750 C 254.024 232.162, 254.467 233.175, 255 234 C 255.784 235.213, 255.972 235.069, 255.985 233.250 C 255.993 232.012, 255.550 231, 255 231 C 254.450 231, 254.007 231.338, 254.015 231.750 M 315.667 235.667 C 314.711 236.622, 314.845 238, 315.893 238 C 316.384 238, 317.045 237.325, 317.362 236.500 C 317.947 234.976, 316.881 234.452, 315.667 235.667 M 259.510 236.984 C 258.681 238.326, 259.772 240, 261.476 240 C 262.222 240, 263.013 240.540, 263.234 241.201 C 263.537 242.110, 263.824 242.094, 264.418 241.133 C 264.933 240.300, 264.486 239.678, 263.112 239.319 C 261.963 239.018, 261.250 238.405, 261.528 237.955 C 261.805 237.506, 261.606 236.875, 261.085 236.553 C 260.564 236.231, 259.856 236.425, 259.510 236.984 M 282.423 256.250 C 282.730 257.488, 282.723 257.938, 282.407 257.250 C 281.209 254.641, 277.663 256.406, 274.500 261.187 C 268.870 269.694, 268.531 270.018, 265.845 269.447 C 261.675 268.561, 261.214 270.908, 264.909 274.210 L 268.138 277.095 270.112 274.585 C 271.230 273.164, 273.613 271.788, 275.603 271.415 C 278.256 270.917, 278.972 270.369, 278.517 269.184 C 277.987 267.802, 278.132 267.809, 279.717 269.244 C 281.708 271.045, 295 271.649, 295 269.938 C 295 269.422, 294.498 269, 293.883 269 C 293.227 269, 292.967 267.954, 293.252 266.465 C 293.607 264.605, 293.172 263.615, 291.618 262.752 C 290.453 262.105, 289.192 261.661, 288.816 261.765 C 288.441 261.870, 288.387 260.391, 288.697 258.478 C 289.280 254.890, 288.338 254.069, 286.141 256.250 C 285.131 257.252, 285.014 257.153, 285.548 255.750 C 286.056 254.416, 285.698 254, 284.040 254 C 282.286 254, 281.973 254.435, 282.423 256.250 M 257.750 258.689 C 256.788 258.941, 256 259.786, 256 260.567 C 256 262.574, 260.415 261.736, 260.823 259.651 C 261.152 257.972, 260.853 257.879, 257.750 258.689 M 252.459 261.067 C 252.096 261.653, 252.040 262.373, 252.333 262.667 C 253.050 263.383, 255 262.121, 255 260.941 C 255 259.663, 253.274 259.748, 252.459 261.067 M 295.165 264.877 C 293.384 266.006, 293.474 267.126, 295.431 268.222 C 296.317 268.717, 296.781 269.545, 296.462 270.061 C 296.143 270.578, 296.370 271, 296.966 271 C 297.987 271, 300 266.976, 300 264.935 C 300 263.774, 296.962 263.738, 295.165 264.877 M 266.607 272.582 C 265.763 274.781, 265.825 275, 267.287 275 C 267.995 275, 268.642 274.100, 268.725 273 C 268.904 270.620, 267.469 270.336, 266.607 272.582 M 339.768 275 C 339.081 276.100, 337.817 277, 336.959 277 C 336.102 277, 334.862 277.538, 334.204 278.196 C 333.275 279.125, 332.727 279.041, 331.754 277.822 C 330.756 276.572, 329.478 276.402, 325.500 276.992 C 322.750 277.399, 321.400 277.800, 322.500 277.882 C 324.047 277.997, 324.187 278.229, 323.118 278.906 C 322.038 279.590, 322.343 280.179, 324.518 281.604 C 326.492 282.897, 329.728 283.531, 335.654 283.786 C 345.286 284.200, 346.143 283.494, 343.975 276.926 C 342.520 272.516, 341.586 272.088, 339.768 275 M 315.250 276.250 C 315.479 276.938, 316.267 277.500, 317 277.500 C 317.733 277.500, 318.521 276.938, 318.750 276.250 C 318.998 275.506, 318.289 275, 317 275 C 315.711 275, 315.002 275.506, 315.250 276.250 M 263 282 C 263 282.550, 263.675 283, 264.500 283 C 265.325 283, 266 282.550, 266 282 C 266 281.450, 265.325 281, 264.500 281 C 263.675 281, 263 281.450, 263 282" stroke="none" fill="#040404" fill-rule="evenodd"/></svg>