<svg xmlns="http://www.w3.org/2000/svg" width="500" height="500" viewBox="0 0 500 500" version="1.1"><path d="M 140.500 20.226 C 138.850 20.809, 136.375 22.051, 135 22.986 C 130.930 25.755, 116.152 33, 114.575 33 C 112.810 33, 112.431 33.586, 111.557 37.663 C 110.983 40.340, 111.211 40.932, 113.037 41.512 C 115.388 42.258, 124 39.434, 124 37.917 C 124 37.413, 123.438 36.984, 122.750 36.964 C 120.607 36.902, 127.297 32.093, 130.480 31.407 C 136.457 30.119, 141 27.806, 141 26.052 C 141 25.100, 142.160 23.792, 143.579 23.146 C 144.997 22.500, 145.981 21.443, 145.766 20.798 C 145.215 19.145, 143.951 19.007, 140.500 20.226 M 162.740 68.594 C 156.032 70.324, 148.954 74.479, 143 80.182 C 139.975 83.080, 136.889 85.542, 136.142 85.653 C 135.395 85.764, 133.820 86.743, 132.642 87.828 C 131.464 88.913, 129.616 89.961, 128.535 90.157 C 127.455 90.353, 125.571 92.086, 124.351 94.007 C 120.505 100.059, 119.250 101, 115.026 101 C 111.626 101, 110.828 101.431, 109.509 103.983 C 107.151 108.543, 103.439 109.877, 91.017 110.632 C 80.753 111.255, 79.626 111.524, 77.172 113.940 C 72.031 119.001, 68.002 121.102, 58.886 123.477 C 50.605 125.635, 48.062 126.985, 48.015 129.250 C 48 129.987, 49.650 130.392, 51.375 130.077 C 51.856 129.989, 52.981 130.542, 53.875 131.306 C 54.769 132.071, 56.276 132.971, 57.225 133.307 C 58.228 133.662, 59.423 135.795, 60.079 138.398 C 61.514 144.098, 62.837 145.211, 72 148.430 C 87.297 153.804, 102.646 158.773, 107.500 159.922 C 110.250 160.573, 115.532 163.107, 119.238 165.553 C 122.944 167.999, 126.781 170, 127.766 170 C 128.750 170, 130.596 170.729, 131.868 171.620 C 133.728 172.923, 134.609 173.012, 136.360 172.075 C 138.081 171.154, 139.315 171.234, 142.237 172.455 C 144.271 173.305, 146.813 174, 147.885 174 C 148.956 174, 149.998 174.494, 150.199 175.098 C 150.401 175.702, 152.705 176.438, 155.319 176.733 C 160.809 177.351, 163.576 180.374, 160.627 182.531 C 158.518 184.073, 158.527 187, 160.640 187 C 162.046 187, 167.791 189.328, 173 192.009 C 173.935 192.490, 174.407 193.930, 174.254 195.834 C 174.119 197.513, 174.456 199.164, 175.004 199.502 C 176.546 200.455, 176.179 203, 174.500 203 C 172.802 203, 172.489 204.566, 174 205.500 C 175.474 206.411, 175.215 209.778, 173.600 210.700 C 172.830 211.140, 172.042 213.300, 171.850 215.500 C 171.522 219.248, 171.679 219.520, 174.335 219.825 C 176.156 220.033, 177.622 219.531, 178.433 218.422 C 179.812 216.536, 182 217.247, 182 219.580 C 182 220.385, 180.840 222.797, 179.421 224.940 C 177.202 228.294, 177.011 229.162, 178.050 231.168 C 179.588 234.140, 182.075 237, 183.119 237 C 184.178 237, 194 222.092, 194 220.484 C 194 219.802, 194.679 218.681, 195.509 217.993 C 196.339 217.304, 199.020 212.541, 201.467 207.409 C 205.150 199.684, 206.631 197.626, 210.075 195.453 C 213.889 193.045, 214.189 192.550, 213.690 189.476 C 213.366 187.483, 213.623 185.729, 214.323 185.150 C 215.198 184.425, 215.551 185.593, 215.697 189.701 C 215.806 192.741, 216.070 195.403, 216.285 195.618 C 216.500 195.833, 218.075 195.521, 219.786 194.925 C 223.607 193.593, 227.385 187.672, 226.547 184.331 C 226.221 183.032, 226.413 182, 226.981 182 C 227.541 182, 228 182.900, 228 184 C 228 186.812, 231.128 186.557, 233.988 183.512 C 235.701 181.690, 236.663 181.305, 237.589 182.074 C 239.352 183.537, 237.458 187.772, 232.779 192.828 C 230.164 195.655, 229.285 197.374, 229.681 198.887 C 230.427 201.741, 235 201.869, 235 199.035 C 235 197.955, 235.900 196.589, 237 196 C 238.100 195.411, 239 194.323, 239 193.581 C 239 192.840, 239.787 191.945, 240.750 191.592 C 245.840 189.726, 247.996 187.727, 249.019 183.928 C 249.610 181.735, 250.520 180.204, 251.042 180.526 C 251.564 180.849, 252.468 180.075, 253.050 178.806 C 253.909 176.937, 254.991 176.459, 258.762 176.282 C 261.861 176.138, 264 176.595, 265.170 177.654 C 266.311 178.687, 267.551 178.965, 268.713 178.449 C 269.696 178.012, 272.730 177.512, 275.456 177.337 C 279.836 177.056, 280.974 176.466, 285.248 172.259 C 289.863 167.717, 290.328 167.506, 295.432 167.626 C 302.510 167.793, 309.779 171.211, 319.520 178.952 C 326.312 184.349, 327.480 184.948, 328.746 183.683 C 329.904 182.524, 329.959 181.792, 329.018 180.033 C 328.065 178.253, 328.142 177.501, 329.420 176.088 C 330.289 175.128, 331 173.392, 331 172.230 C 331 171.069, 331.340 169.908, 331.755 169.651 C 332.796 169.008, 336.443 172.097, 337.307 174.354 C 337.807 175.659, 338.532 175.985, 339.758 175.454 C 342.303 174.353, 359.802 174.824, 362.102 176.054 C 363.501 176.803, 365.006 176.766, 367.334 175.924 C 369.968 174.972, 371.173 175.021, 373.551 176.181 C 375.173 176.973, 377.850 177.551, 379.500 177.466 C 381.150 177.381, 383.304 177.716, 384.288 178.211 C 388.894 180.529, 392.824 175.348, 389.095 171.874 C 387.943 170.800, 387 169.560, 387 169.119 C 387 168.677, 385.433 167.471, 383.518 166.440 C 380.850 165.003, 379.761 164.839, 378.860 165.740 C 377.960 166.640, 377.984 167.276, 378.965 168.458 C 380.048 169.763, 379.927 170, 378.181 170 C 377.047 170, 375.840 170.450, 375.500 171 C 375.160 171.550, 372.863 172, 370.396 172 C 366.907 172, 365.336 171.426, 363.332 169.423 C 361.426 167.517, 361.047 166.553, 361.877 165.723 C 363.333 164.267, 363.311 163, 361.829 163 C 361.185 163, 359.809 162.232, 358.773 161.294 C 357.219 159.888, 356.543 159.805, 354.921 160.817 C 353.298 161.831, 352.850 161.773, 352.356 160.485 C 351.597 158.506, 355.037 154.442, 356.065 156.104 C 356.456 156.738, 357.291 156.938, 357.919 156.550 C 359.260 155.721, 358.423 149.864, 356.387 145.840 C 355.349 143.788, 355.294 142.455, 356.145 140.014 C 356.848 137.998, 356.901 136.501, 356.291 135.891 C 354.817 134.417, 352.051 135.949, 351.383 138.610 C 350.715 141.272, 349.493 141.726, 348.682 139.613 C 348.003 137.844, 342.842 138.057, 340.563 139.948 C 339.068 141.188, 338.248 141.153, 334.263 139.676 C 329.953 138.078, 329.571 138.078, 327.805 139.677 C 326.181 141.147, 325.460 141.207, 322.460 140.122 C 320.553 139.432, 318.141 139.138, 317.101 139.468 C 315.994 139.819, 314.537 139.394, 313.583 138.440 C 311.634 136.491, 312.199 128.730, 314.726 122.740 C 315.599 120.672, 316.060 118.727, 315.751 118.418 C 315.442 118.109, 313.106 118.564, 310.560 119.428 C 308.014 120.293, 305.032 121, 303.935 121 C 302.838 121, 299.267 122.125, 296 123.500 C 290.487 125.820, 288.890 126, 273.780 126.004 C 256.142 126.008, 258.049 125.544, 248.093 132.245 C 246.667 133.204, 244.661 133.992, 243.634 133.995 C 242.608 133.998, 240.036 135.896, 237.918 138.213 C 234.107 142.382, 234.030 142.413, 230.485 141.131 C 227.748 140.141, 226.572 140.110, 225.500 141 C 223.520 142.644, 220.054 141.272, 218.967 138.414 C 217.903 135.614, 216.316 135.423, 211.346 137.500 C 205.001 140.151, 196.342 138.703, 199.047 135.443 C 201.070 133.005, 199.330 129.016, 195.949 128.340 C 192.478 127.646, 189.323 123.724, 188.838 119.500 C 188.565 117.126, 187.841 116.376, 185.057 115.582 C 183.164 115.042, 180.388 113.228, 178.890 111.550 C 176.231 108.574, 175.946 108.500, 167.076 108.500 C 160.176 108.500, 158.350 108.232, 159.493 107.390 C 161.627 105.817, 161.361 104, 158.997 104 C 157.084 104, 149.499 110.888, 145.716 116.061 L 143.932 118.500 144.389 114.500 C 144.641 112.300, 145.158 108.421, 145.539 105.880 C 145.992 102.857, 145.845 101.022, 145.115 100.571 C 144.502 100.192, 144 99.009, 144 97.941 C 144 96.873, 143.100 95.100, 142 94 C 139.541 91.541, 140.945 91.327, 143.642 93.750 C 144.713 94.713, 145.420 96.309, 145.212 97.298 C 144.770 99.404, 146.651 102, 148.617 102 C 149.372 102, 150.962 99.931, 152.151 97.401 C 154.513 92.377, 162.315 84.124, 168.286 80.333 C 170.655 78.829, 171.965 77.288, 171.786 76.215 C 171.546 74.778, 172.229 74.540, 176 74.748 C 178.475 74.885, 181.111 74.604, 181.857 74.123 C 183.766 72.895, 182.399 69.265, 179.699 68.390 C 176.273 67.281, 167.418 67.387, 162.740 68.594 M 184 74 C 184 74.550, 184.900 75, 186 75 C 187.100 75, 188 74.550, 188 74 C 188 73.450, 187.100 73, 186 73 C 184.900 73, 184 73.450, 184 74 M 147.446 90.087 C 147.077 90.685, 147.275 91.675, 147.887 92.287 C 148.704 93.104, 149 92.815, 149 91.200 C 149 88.785, 148.481 88.413, 147.446 90.087 M 231.503 134.991 C 230.777 137.277, 231.695 139.307, 233.069 138.457 C 234.283 137.707, 234.281 133, 233.067 133 C 232.554 133, 231.850 133.896, 231.503 134.991 M 352.800 146.200 C 353.460 146.860, 354.029 148.998, 354.063 150.950 C 354.122 154.232, 354.199 154.319, 355.084 152.106 C 355.789 150.346, 355.634 149.090, 354.498 147.356 C 353.649 146.060, 352.649 145, 352.277 145 C 351.905 145, 352.140 145.540, 352.800 146.200 M 247.513 173.979 C 246.932 174.919, 248.576 179, 249.535 179 C 249.791 179, 250 177.650, 250 176 C 250 173.067, 248.719 172.027, 247.513 173.979 M 341 176.878 C 341 178.138, 343.935 180.398, 344.648 179.686 C 345.672 178.662, 344.143 176, 342.531 176 C 341.689 176, 341 176.395, 341 176.878 M 333 184.500 C 333 185.325, 333.885 186, 334.969 186 C 336.308 186, 336.753 185.520, 336.362 184.500 C 336.045 183.675, 335.159 183, 334.393 183 C 333.627 183, 333 183.675, 333 184.500 M 289.180 188.212 C 289.368 189.508, 288.568 191.353, 287.250 192.667 C 282.830 197.072, 285.056 206.688, 289.619 202.901 C 290.831 201.896, 291.107 200.301, 290.771 196.247 C 290.527 193.314, 290.705 190.683, 291.164 190.399 C 292.646 189.483, 292.065 186, 290.430 186 C 289.381 186, 288.967 186.733, 289.180 188.212 M 337 188.943 C 337 190.385, 341.192 193.002, 343.473 192.985 C 344.588 192.976, 346.146 192.561, 346.936 192.061 C 348.126 191.308, 348.147 190.883, 347.063 189.576 C 345.633 187.853, 337 187.310, 337 188.943 M 279.574 191.667 C 278.723 193.886, 280.603 195.797, 282.133 194.267 C 283.357 193.043, 282.648 190, 281.138 190 C 280.630 190, 279.926 190.750, 279.574 191.667 M 317.538 193.256 C 316.789 195.046, 314.787 197.750, 313.089 199.263 C 307.905 203.882, 309.650 212.620, 316.220 214.943 C 320.398 216.420, 318.739 217.486, 310.766 218.448 C 307.612 218.829, 304.773 219.558, 304.457 220.070 C 304.141 220.581, 303.041 221, 302.014 221 C 298.676 221, 296 225.706, 296 231.576 C 296 234.494, 296.508 237.196, 297.128 237.579 C 297.910 238.062, 297.788 238.539, 296.731 239.130 C 295.601 239.763, 295.294 241.282, 295.547 244.997 C 295.734 247.754, 296.183 250.488, 296.544 251.072 C 296.934 251.702, 296.475 252.005, 295.417 251.817 C 294.241 251.608, 293.360 252.352, 292.833 254 C 292.241 255.850, 292.134 255.395, 292.421 252.250 C 292.635 249.913, 292.383 247.737, 291.861 247.414 C 290.728 246.714, 288.290 248.589, 286.860 251.262 C 285.951 252.960, 286.093 253.105, 288.050 252.484 C 290.099 251.834, 290.209 252.002, 289.468 254.639 C 289.025 256.213, 288.626 258.512, 288.582 259.750 C 288.489 262.292, 285.907 262.798, 284.106 260.627 C 283.261 259.609, 283.252 257.921, 284.074 254.089 C 284.928 250.107, 284.899 248.583, 283.944 247.433 C 282.932 246.213, 283.132 245.488, 285.040 243.457 C 286.840 241.541, 287.102 240.702, 286.187 239.787 C 284.417 238.017, 284.747 235.661, 287.043 233.696 C 289.555 231.545, 288.728 229.540, 285.943 231.031 C 284.878 231.601, 283.096 233.852, 281.983 236.033 C 280.870 238.215, 279.518 240, 278.980 240 C 278.441 240, 278 240.920, 278 242.044 C 278 243.168, 276.875 245.301, 275.500 246.784 C 273.337 249.116, 272.731 249.313, 271.013 248.240 C 268.264 246.524, 267.235 246.683, 266.520 248.937 C 266.182 250.002, 264.914 251.014, 263.703 251.187 C 261.764 251.462, 261.464 252.195, 261.199 257.285 C 260.913 262.789, 260.756 263.099, 257.971 263.656 C 255.323 264.185, 251.617 267, 253.569 267 C 254.016 267, 253.521 267.630, 252.468 268.399 C 250.753 269.654, 250.698 270.067, 251.940 272.387 C 253.075 274.509, 253.123 276.619, 252.203 284.089 C 251.207 292.179, 250.578 294.010, 246.599 300.393 C 244.134 304.348, 241.191 308.422, 240.059 309.447 C 237.433 311.823, 237.470 312.663, 240.490 319.151 C 243.999 326.688, 243.842 332.069, 240 336 C 238.350 337.688, 237 340.026, 237 341.197 C 237 344.083, 243.643 363.426, 246.549 369 C 250.840 377.232, 252.917 384.409, 253.639 393.500 C 254.032 398.450, 254.198 402.950, 254.007 403.500 C 253.816 404.050, 253.339 407.200, 252.946 410.500 C 251.178 425.350, 250.633 427.936, 247.779 435 C 246.112 439.125, 242.555 445.771, 239.874 449.769 C 237.193 453.767, 235 457.879, 235 458.906 C 235 461.745, 228.942 470.151, 225 472.783 C 223.075 474.069, 221.350 475.543, 221.167 476.060 C 220.961 476.639, 241.176 477, 273.800 477 C 325.513 477, 326.779 477.046, 327.278 478.954 C 327.688 480.523, 328.451 480.824, 331.144 480.481 C 332.990 480.246, 346.425 479.583, 361 479.007 C 398.277 477.534, 397.638 477.627, 398.999 473.503 C 400.314 469.519, 405.465 462.751, 407.831 461.899 C 408.749 461.569, 409.516 460.894, 409.535 460.399 C 409.555 459.905, 410.102 458.547, 410.750 457.381 C 411.399 456.216, 411.665 454.998, 411.341 454.674 C 411.017 454.350, 411.708 452.465, 412.876 450.486 C 414.044 448.506, 415 445.854, 415 444.592 C 415 440.007, 417.070 436.329, 420.844 434.208 C 426.530 431.012, 428.210 428.655, 428.379 423.634 C 428.475 420.762, 429.232 418.401, 430.508 416.992 C 431.596 415.789, 432.354 413.791, 432.191 412.552 C 431.989 411.012, 432.745 409.742, 434.575 408.543 C 437.219 406.810, 437.285 406.825, 439.544 409.643 C 441.566 412.168, 441.663 412.689, 440.376 414.123 C 439.082 415.565, 439.167 415.810, 441.134 416.325 C 442.351 416.643, 443.765 416.645, 444.276 416.330 C 446.214 415.132, 448.046 408.721, 448.583 401.252 C 448.890 396.988, 449.833 391.556, 450.680 389.181 C 452.136 385.093, 452.111 384.744, 450.219 382.681 C 448.088 380.357, 445 368.449, 445 362.557 C 445 360.605, 444.109 356.419, 443.021 353.254 C 441.932 350.089, 440.415 342.983, 439.649 337.461 C 437.754 323.804, 433.651 315.824, 426.174 311.255 C 421.394 308.335, 418.596 308.411, 416.329 311.523 C 415.110 313.196, 413.144 314.257, 410.496 314.671 C 406.472 315.301, 400.032 320.242, 400.011 322.715 C 400.005 323.384, 398.650 326.059, 397 328.661 C 395.350 331.263, 394 334.034, 394 334.818 C 394 335.932, 393.691 335.989, 392.590 335.075 C 391.472 334.147, 390.851 334.374, 389.590 336.175 C 388.716 337.423, 388 338.950, 388 339.568 C 388 340.185, 387.137 341.471, 386.083 342.425 C 384.554 343.809, 383.745 343.934, 382.083 343.045 C 380.937 342.431, 380 341.270, 380 340.465 C 380 338.555, 378.579 338.597, 376.954 340.555 C 375.812 341.932, 375.399 341.788, 373.366 339.305 C 371.252 336.724, 371.119 335.862, 371.695 328.500 C 372.427 319.157, 374.696 315, 379.066 315 C 380.545 315, 382.315 314.325, 383 313.500 C 383.685 312.675, 384.810 312, 385.500 312 C 387.853 312, 389.311 308.927, 389.906 302.710 C 390.464 296.872, 390.663 296.481, 393.214 296.187 C 394.732 296.012, 397.046 294.546, 398.464 292.860 C 400.657 290.254, 401.003 288.877, 401.020 282.673 C 401.031 278.728, 401.501 272.350, 402.065 268.500 C 403.533 258.481, 401.173 250, 396.918 250 C 394.852 250, 392.295 243.278, 393.333 240.575 C 394.119 238.525, 396.862 238.565, 399.177 240.661 C 401.207 242.497, 402.875 241.791, 401.273 239.774 C 400.716 239.073, 399.965 236.858, 399.604 234.850 C 399.243 232.843, 398.296 230.661, 397.500 230 C 396.704 229.339, 395.769 227.285, 395.422 225.435 C 395.075 223.585, 394.275 221.656, 393.645 221.148 C 391.761 219.630, 379.496 215, 377.359 215 C 376.267 215, 374.052 213.611, 372.437 211.913 C 369.929 209.276, 368.960 208.896, 365.802 209.310 C 361.525 209.872, 359.495 208.602, 358.618 204.816 C 357.574 200.318, 352.455 197.471, 345.774 197.673 C 340.624 197.829, 339.811 197.564, 337.688 195.041 C 336.050 193.095, 333.731 191.894, 330.115 191.118 C 321.152 189.196, 319.087 189.547, 317.538 193.256 M 303 222.437 C 303 222.848, 303.900 224.329, 305 225.727 C 306.287 227.363, 307 227.742, 307 226.790 C 307 225.976, 306.100 224.495, 305 223.500 C 303.900 222.505, 303 222.026, 303 222.437 M 262.392 234.422 C 261.782 236.010, 263.597 240, 264.928 240 C 266.413 240, 267.036 236.937, 265.961 234.928 C 264.744 232.653, 263.157 232.428, 262.392 234.422 M 256.171 242.648 C 256.364 243.654, 257.346 244.636, 258.352 244.829 C 259.673 245.084, 260.084 244.673, 259.829 243.352 C 259.636 242.346, 258.654 241.364, 257.648 241.171 C 256.327 240.916, 255.916 241.327, 256.171 242.648 M 299.176 244.500 C 299.143 245.600, 299.488 248.300, 299.943 250.500 C 300.638 253.863, 300.769 254.022, 300.767 251.500 C 300.763 247.997, 299.269 241.425, 299.176 244.500" stroke="none" fill="#000000" fill-rule="evenodd"/></svg>