<svg xmlns="http://www.w3.org/2000/svg" width="360" height="360" viewBox="0 0 360 360" version="1.1"><path d="M 126 32.933 L 126 44 87.969 44 C 54.581 44, 49.865 44.189, 49.344 45.546 C 49.018 46.397, 49.753 49.884, 50.978 53.296 C 52.203 56.708, 53.162 60.850, 53.109 62.500 C 52.061 94.788, 51.914 93.568, 59.322 114 C 61.734 120.654, 62.354 123.872, 62.177 128.819 C 62.052 132.294, 62.707 140.394, 63.632 146.819 C 64.557 153.243, 65.355 163.225, 65.407 169 C 65.492 178.603, 65.775 180.098, 68.717 186.500 C 72.060 193.773, 74 204.194, 74 214.874 C 74 220.352, 73.781 220.843, 69.015 226.052 C 66.274 229.048, 64.032 232.175, 64.034 233 C 64.041 235.657, 69.915 244, 71.779 244 C 72.756 244, 74.555 244.701, 75.777 245.557 L 78 247.113 78 295.557 L 78 344 160.250 343.997 C 205.488 343.995, 249.475 343.702, 258 343.346 L 273.500 342.700 273.735 335.065 L 273.969 327.431 269.507 322.329 C 267.052 319.524, 263.979 316.961, 262.677 316.634 C 259.085 315.732, 249.479 305.982, 248.117 301.855 C 247.095 298.757, 246.277 298.058, 242.417 296.977 C 239.445 296.145, 236.947 294.546, 235.078 292.279 C 233.032 289.797, 231.171 288.684, 228.373 288.271 C 225.306 287.819, 223.535 286.610, 219.863 282.464 C 215.420 277.446, 215.259 277.051, 216.002 272.990 C 216.428 270.660, 216.559 267.121, 216.292 265.127 C 216.009 263.008, 216.870 257.202, 218.361 251.167 C 221.221 239.588, 220.988 238.386, 215.286 235.315 C 211.431 233.239, 210.814 229.187, 213.912 226.289 C 214.964 225.305, 216.575 222.620, 217.492 220.322 C 218.953 216.663, 220.075 215.685, 226.522 212.456 L 233.885 208.769 234.576 203.241 C 234.955 200.201, 234.967 193.364, 234.600 188.048 C 233.993 179.224, 234.112 178.177, 235.967 176.038 C 237.085 174.749, 238 173.369, 238 172.973 C 238 171.503, 244.759 165.188, 253.500 158.490 C 265.278 149.465, 275.387 139.722, 278.520 134.376 C 280.366 131.226, 283.671 128.330, 290.955 123.481 C 299.127 118.041, 303.060 116.185, 313.257 112.961 C 325.587 109.061, 334.554 104.126, 333.720 101.696 C 333.291 100.445, 329.325 100.357, 324.907 101.502 C 322.686 102.077, 322.136 101.742, 321.068 99.163 C 319.885 96.308, 319.442 96.118, 312.415 95.460 C 308.342 95.078, 302.075 95.080, 298.488 95.464 L 291.966 96.163 290.451 92.538 C 289.618 90.544, 288.301 88.669, 287.523 88.371 C 286.746 88.072, 284.059 89.240, 281.551 90.965 C 272.228 97.379, 262.964 99.955, 261.638 96.500 C 261.322 95.675, 260.261 94.997, 259.281 94.994 C 258.302 94.990, 256.761 93.688, 255.857 92.100 C 254.618 89.920, 253.201 89.041, 250.082 88.514 C 246.644 87.933, 245.719 87.264, 244.577 84.530 C 242.811 80.304, 241.818 79.756, 237.418 80.581 C 234.085 81.207, 233.846 81.482, 234.368 84.091 C 234.680 85.648, 234.509 87.186, 233.988 87.507 C 232.368 88.509, 229.048 86.062, 228.512 83.471 C 228.230 82.112, 227.766 79.875, 227.481 78.500 C 227.034 76.347, 226.418 76, 223.040 76 C 218.643 76, 217.283 74.840, 219.511 72.991 C 221.826 71.069, 221.309 70.305, 217.250 69.652 C 215.188 69.321, 212.380 68.262, 211.010 67.300 C 209.641 66.338, 207.588 65.673, 206.449 65.822 C 205.309 65.972, 203.194 65.644, 201.747 65.094 C 198.952 64.031, 194.986 65.419, 190.115 69.166 C 188.484 70.420, 186.035 71, 182.365 71 C 177.373 71, 177 70.834, 177 68.607 C 177 65.698, 175.395 65.002, 168.668 64.993 C 165.194 64.989, 162.517 64.336, 160.500 63 C 158.850 61.907, 156.067 61.010, 154.315 61.007 C 150.554 60.999, 145.849 59.360, 144.786 57.687 C 144.370 57.034, 144.024 54.871, 144.015 52.880 C 144.007 50.889, 143.064 46.389, 141.920 42.880 C 140.777 39.371, 139.593 33.951, 139.289 30.836 L 138.738 25.171 134.119 24.040 C 131.578 23.418, 128.713 22.675, 127.750 22.387 C 126.157 21.912, 126 22.860, 126 32.933" stroke="none" fill="#040404" fill-rule="evenodd"/></svg>