<svg xmlns="http://www.w3.org/2000/svg" width="500" height="500" viewBox="0 0 500 500" version="1.1"><path d="M 215.252 17.401 C 214.946 17.897, 215.889 19.172, 217.348 20.235 C 220.678 22.661, 220.736 25.472, 217.500 27.592 C 216.125 28.493, 215 29.839, 215 30.584 C 215 31.357, 214.377 31.698, 213.546 31.379 C 212.747 31.073, 211.072 31.537, 209.824 32.411 C 206.743 34.568, 206 34.415, 206 31.622 C 206 28.858, 203.956 26.791, 202.260 27.839 C 201.204 28.492, 201.171 35.114, 202.192 41.392 C 202.544 43.557, 201.126 44.364, 199.158 43.118 C 198.044 42.413, 198.040 41.909, 199.133 40.159 C 200.117 38.583, 200.163 37.763, 199.312 36.912 C 197.721 35.321, 196 36.665, 196 39.500 C 196 40.810, 195.519 42.179, 194.932 42.542 C 194.344 42.905, 194.084 43.777, 194.354 44.479 C 194.623 45.182, 194.475 46.149, 194.025 46.628 C 193.574 47.108, 192.910 49.321, 192.549 51.547 C 192.017 54.826, 192.305 56.119, 194.068 58.359 L 196.243 61.125 194 63.214 C 192.084 64.999, 191.840 65.999, 192.323 70.076 C 192.917 75.099, 192.178 76.469, 188.500 77.161 C 187.103 77.423, 186.486 78.349, 186.454 80.231 C 186.429 81.712, 186.092 83.242, 185.704 83.629 C 185.317 84.016, 185 83.105, 185 81.603 C 185 79.126, 184.700 78.902, 181.750 79.187 C 178.677 79.483, 178.500 79.718, 178.500 83.500 C 178.500 87.240, 178.327 87.480, 175.846 87.191 C 172.743 86.830, 171.525 88.351, 171.820 92.221 C 172.079 95.620, 169.877 95.953, 167.803 92.829 C 166.178 90.382, 164 91.066, 164 94.024 C 164 96.455, 166.889 98, 171.434 98 C 175.262 98, 176.101 99.340, 173.234 100.875 C 172.032 101.518, 170.673 101.381, 168.984 100.446 C 164.902 98.187, 162 98.595, 162 101.429 C 162 104.346, 164.416 107, 167.071 107 C 169.407 107, 169.491 107.854, 167.443 110.777 C 166.434 112.218, 164.851 113, 162.943 113 C 159.840 113, 159.449 113.580, 160.949 115.952 C 162.408 118.259, 160.988 119.299, 158.926 117.433 C 157.311 115.972, 156.626 115.912, 153.988 117.005 C 150.220 118.566, 150.573 120.133, 154.946 121.266 L 158.256 122.123 155.628 124.866 C 151.957 128.698, 152.243 131.356, 156.601 133.927 C 159.637 135.718, 160.004 136.290, 158.943 137.568 C 158.070 138.620, 157.366 138.766, 156.642 138.042 C 156.069 137.469, 153.665 137, 151.300 137 C 147.230 137, 147 137.154, 147 139.878 C 147 143.463, 148.757 144.992, 152.560 144.714 C 156.544 144.424, 156.626 147.371, 152.646 147.826 C 150.737 148.045, 149.001 147.410, 147.406 145.911 C 145.341 143.972, 144.672 143.828, 142.439 144.846 C 139.441 146.212, 139.479 149.131, 142.505 149.956 C 143.602 150.255, 145.400 151.038, 146.500 151.697 C 149.301 153.372, 147.319 156.398, 143.149 156.813 C 140.584 157.069, 140 157.569, 140 159.514 C 140 160.826, 140.787 162.349, 141.750 162.897 C 143.212 163.729, 143.293 164.190, 142.244 165.697 C 140.026 168.880, 139.710 170.110, 140.825 171.225 C 142.366 172.766, 144.800 170.544, 145.191 167.237 C 145.486 164.741, 145.580 164.702, 147.250 166.382 C 149.877 169.026, 149.372 170.846, 145.750 171.785 C 141.804 172.807, 141.525 175.109, 145.190 176.398 C 148.526 177.571, 150.522 176.139, 151.354 171.978 C 151.682 170.340, 152.411 169, 152.975 169 C 154.910 169, 153.997 171.934, 150.998 175.349 C 147.374 179.477, 146.229 184.191, 148.032 187.560 C 149.702 190.680, 150.804 190.646, 152.023 187.440 C 152.558 186.032, 153.447 185.158, 153.998 185.499 C 155.586 186.480, 155.171 188.535, 152.986 190.513 C 151.494 191.863, 151.111 193.134, 151.507 195.418 C 151.802 197.113, 151.612 199.154, 151.086 199.954 C 150.263 201.205, 149.768 201.214, 147.536 200.019 C 145.277 198.810, 144.737 198.835, 143.363 200.208 C 141.927 201.645, 141.959 201.951, 143.731 203.643 C 144.800 204.664, 146.524 205.991, 147.560 206.591 C 149.356 207.632, 149.315 207.837, 146.686 210.961 C 140.438 218.387, 139.833 223, 145.107 223 C 147.593 223, 148.002 222.613, 148.015 220.250 C 148.042 215.472, 149.377 214.665, 151.810 217.957 C 153.015 219.586, 154 221.135, 154 221.399 C 154 221.663, 152.200 223.958, 150 226.500 C 146.792 230.206, 146 231.902, 146 235.061 C 146 237.493, 146.478 239.038, 147.250 239.099 C 147.938 239.153, 149.617 239.265, 150.982 239.349 C 154.966 239.592, 154.790 242.772, 150.698 244.482 C 146.749 246.132, 145.550 248.291, 147.039 251.072 C 148.787 254.339, 156 252.614, 156 248.929 C 156 248.418, 156.481 248, 157.070 248 C 159.268 248, 157.389 252.410, 154.513 253.998 C 152.722 254.988, 150.946 257.175, 150.075 259.463 C 148.652 263.202, 148.680 263.328, 151.486 265.742 C 153.714 267.658, 155.089 268.085, 157.675 267.665 C 161.401 267.061, 161.766 267.902, 159.365 271.566 C 157.427 274.523, 157.900 275.174, 162.945 276.500 C 166.403 277.408, 166.671 277.716, 165.869 279.857 C 165.151 281.772, 164.506 282.093, 162.424 281.570 C 160.103 280.988, 159.883 281.189, 160.082 283.714 C 160.203 285.246, 160.205 287.400, 160.087 288.500 C 159.887 290.370, 159.814 290.354, 158.969 288.250 C 157.927 285.657, 155.493 285.273, 154.614 287.563 C 154.284 288.423, 153.613 288.879, 153.122 288.575 C 151.342 287.475, 145.851 290.261, 144.907 292.744 C 143.469 296.526, 145.334 298.070, 150.875 297.689 C 154.821 297.417, 155.490 297.065, 155.431 295.286 C 155.388 293.956, 155.840 293.385, 156.681 293.708 C 158.878 294.551, 158.171 296.814, 154.973 299.178 C 153.205 300.485, 152.170 302, 152.484 302.819 C 152.874 303.836, 152.537 304.023, 151.261 303.498 C 147.167 301.813, 146 301.782, 146 303.358 C 146 304.233, 147.350 305.647, 149 306.500 C 152.735 308.432, 152.819 309.790, 149.250 310.541 C 144.813 311.474, 143.636 312.465, 142.708 316.047 C 142.226 317.908, 140.927 320.063, 139.822 320.837 C 138.445 321.801, 137.960 323.009, 138.278 324.676 L 138.743 327.107 136.557 325.054 C 134.271 322.906, 131.507 322.370, 130.567 323.892 C 130.264 324.382, 129.851 326.614, 129.649 328.852 C 129.448 331.089, 128.573 334.003, 127.705 335.327 C 126.838 336.651, 125.987 339.672, 125.814 342.039 C 125.449 347.048, 123.970 347.970, 121.026 345.026 C 118.721 342.721, 117 343.110, 117 345.937 C 117 348.530, 119.569 350.316, 122.494 349.756 C 126.102 349.067, 125.682 351.475, 121.923 353.032 C 116.023 355.476, 114.513 361.567, 118.666 366.176 C 119.496 367.097, 119.993 368.672, 119.771 369.676 C 119.451 371.117, 118.882 370.704, 117.059 367.708 C 114.478 363.464, 112.658 363.322, 112.184 367.327 C 111.959 369.221, 112.323 370, 113.434 370 C 114.295 370, 115 370.681, 115 371.514 C 115 372.346, 115.535 373.884, 116.190 374.932 C 118.093 377.980, 115.512 380.337, 111.048 379.627 C 109.097 379.317, 106.922 379.423, 106.216 379.862 C 104.435 380.969, 105.628 383.509, 108.555 384.843 C 111.450 386.162, 111.575 387.218, 109.295 391.077 C 107.627 393.902, 107.648 394.023, 110.295 396.786 C 113.645 400.283, 113.699 401.725, 110.531 403.168 C 109.174 403.786, 108.300 404.677, 108.590 405.146 C 108.881 405.616, 143.516 406, 185.559 406 C 227.602 406, 262 406.114, 262 406.254 C 262 406.394, 260.875 409.610, 259.500 413.401 C 258.125 417.192, 257 421.072, 257 422.024 C 257 422.976, 256.289 424.345, 255.420 425.067 C 254.498 425.832, 254.023 427.341, 254.281 428.689 C 254.524 429.960, 254.286 431, 253.752 431 C 252.625 431, 253.952 440.352, 255.739 445 C 256.056 445.825, 256.228 447.050, 256.120 447.722 C 256.013 448.393, 256.955 449.212, 258.213 449.540 C 262.274 450.600, 267.681 461.887, 269.451 473 C 269.757 474.925, 271.083 477.843, 272.397 479.485 C 274.469 482.074, 275.475 482.483, 279.969 482.568 C 285.009 482.663, 285.194 482.566, 286.732 479.015 C 287.602 477.007, 289.818 474.378, 291.657 473.173 C 295.135 470.893, 296.260 467, 293.441 467 C 292.584 467, 292.160 466.550, 292.500 466 C 293.401 464.542, 296.570 464.778, 297.919 466.403 C 298.809 467.475, 298.796 467.901, 297.862 468.213 C 297.186 468.438, 296.921 469.350, 297.268 470.256 C 297.830 471.722, 298.553 471.631, 304.198 469.385 C 313.989 465.491, 318.027 464.229, 324.387 463.081 C 327.625 462.496, 330.883 461.512, 331.626 460.895 C 332.671 460.028, 333.801 460.496, 336.600 462.954 C 341.053 466.863, 344.919 468.481, 346.363 467.037 C 346.933 466.467, 348.345 466, 349.500 466 C 350.655 466, 352.155 465.445, 352.833 464.767 C 353.810 463.790, 354.187 463.998, 354.649 465.767 C 355.049 467.294, 355.991 468, 357.630 468 C 358.949 468, 360.950 468.563, 362.079 469.250 C 363.847 470.327, 364.385 470.189, 365.975 468.250 C 366.990 467.012, 368.258 466, 368.794 466 C 370.706 466, 370.787 461.623, 369.439 431.264 C 366.063 355.222, 364.922 321.959, 365.453 315 C 367.629 286.452, 369.861 263.056, 375.568 209 C 379.139 175.175, 384.730 122.075, 387.993 91 C 391.255 59.925, 394.133 33.069, 394.388 31.321 C 394.746 28.863, 394.244 27.486, 392.176 25.257 C 390.704 23.670, 388.600 21.176, 387.500 19.715 L 385.500 17.057 300.654 16.779 C 251.034 16.616, 215.577 16.874, 215.252 17.401 M 196.157 50.732 L 195.906 54.464 198.917 51.579 C 202.202 48.432, 202.117 47, 198.645 47 C 196.774 47, 196.368 47.610, 196.157 50.732 M 155.365 260.583 C 156.941 261.969, 158.510 262.824, 158.850 262.483 C 159.553 261.781, 155.033 258.039, 153.500 258.054 C 152.950 258.059, 153.789 259.197, 155.365 260.583 M 134 333 C 134 333.550, 134.675 334, 135.500 334 C 136.325 334, 137 333.550, 137 333 C 137 332.450, 136.325 332, 135.500 332 C 134.675 332, 134 332.450, 134 333" stroke="none" fill="#000000" fill-rule="evenodd"/></svg>