<svg xmlns="http://www.w3.org/2000/svg" width="360" height="360" viewBox="0 0 360 360" version="1.1"><path d="M 180.500 34.172 C 170.050 34.642, 128.088 35.130, 87.250 35.257 C 28.433 35.439, 13 35.748, 13 36.743 C 13 37.435, 13.585 38, 14.301 38 C 15.676 38, 20.338 49.644, 19.503 50.995 C 19.234 51.430, 20.136 52.068, 21.507 52.412 C 22.878 52.757, 24 53.652, 24 54.402 C 24 55.153, 24.940 56.013, 26.090 56.313 C 27.632 56.716, 28.016 57.376, 27.554 58.829 C 27.118 60.203, 27.654 61.369, 29.323 62.682 C 31.214 64.170, 31.618 65.245, 31.243 67.796 C 30.870 70.337, 31.081 70.906, 32.233 70.464 C 33.117 70.125, 34.648 71.106, 36.099 72.942 C 37.419 74.614, 39.063 75.986, 39.750 75.991 C 40.438 75.996, 41 76.723, 41 77.607 C 41 78.583, 41.557 79, 42.417 78.670 C 43.197 78.371, 44.083 78.773, 44.386 79.563 C 45.014 81.201, 48.570 81.505, 49.500 80 C 50.553 78.297, 55 78.814, 55 80.640 C 55 81.542, 55.788 82.892, 56.750 83.640 C 58.407 84.928, 58.397 85.080, 56.559 86.500 C 54.863 87.810, 54.832 88, 56.309 88 C 57.239 88, 58 88.724, 58 89.608 C 58 90.825, 57.391 91.064, 55.500 90.589 C 53.452 90.075, 53 90.327, 53 91.981 C 53 93.091, 52.373 94, 51.607 94 C 50.078 94, 49 96.101, 49 99.082 C 49 100.137, 48.325 101, 47.500 101 C 46.675 101, 46 101.627, 46 102.393 C 46 103.159, 46.675 104.045, 47.500 104.362 C 48.325 104.678, 49 105.626, 49 106.469 C 49 107.311, 49.627 108, 50.393 108 C 51.159 108, 52.048 108.682, 52.367 109.515 C 52.687 110.348, 54.134 111.481, 55.583 112.032 C 57.726 112.846, 57.995 113.301, 57.026 114.469 C 55.608 116.177, 56.481 119.587, 58.538 120.376 C 59.342 120.685, 60 121.442, 60 122.058 C 60 124.140, 64.355 126.880, 66.142 125.924 C 67.296 125.306, 67.971 125.482, 68.362 126.501 C 68.700 127.383, 69.582 127.714, 70.575 127.333 C 71.951 126.805, 72.119 127.180, 71.588 129.600 C 70.811 133.142, 70.333 294.666, 71.098 295.431 C 71.397 295.730, 121.892 295.992, 183.308 296.013 L 294.975 296.050 295.649 298.775 C 296.020 300.274, 297.136 302.078, 298.130 302.784 C 300.958 304.795, 299.490 309.777, 294.635 314.648 C 292.361 316.929, 288.995 320.529, 287.156 322.648 L 283.812 326.500 299.616 326.776 C 308.308 326.929, 316 326.830, 316.710 326.558 C 317.419 326.286, 318 325.163, 318 324.063 C 318 322.914, 319.132 321.471, 320.664 320.668 L 323.328 319.272 320.664 316.956 C 317.379 314.100, 317.185 311.791, 320.250 312.039 C 323.740 312.322, 325 312.077, 325 311.117 C 325 310.631, 324.100 309.998, 323 309.710 C 319.996 308.925, 320.523 306.188, 323.750 305.816 C 325.634 305.600, 326.366 305.027, 326.076 304 C 325.843 303.175, 325.711 301.277, 325.783 299.783 C 325.855 298.288, 325.484 296.799, 324.957 296.474 C 323.534 295.594, 323.799 292.291, 325.341 291.700 C 327.491 290.874, 329.204 292.533, 328.866 295.114 C 328.306 299.386, 330.463 298.318, 331.926 293.599 C 333.428 288.758, 335.624 287.637, 338 290.500 C 339.708 292.558, 342 292.386, 342 290.200 C 342 289.210, 342.521 287.879, 343.158 287.242 C 344.034 286.366, 344.005 285.711, 343.035 284.542 C 342.017 283.316, 342.008 282.695, 342.991 281.511 C 343.671 280.692, 344.626 280.269, 345.113 280.570 C 346.759 281.587, 346.015 279.732, 344.263 278.451 C 342.657 277.276, 342.648 277.043, 344.152 275.340 C 345.046 274.328, 346.088 272.038, 346.468 270.250 C 347.066 267.437, 346.890 267, 345.161 267 C 343.956 267, 342.303 265.609, 340.996 263.494 C 339.804 261.565, 338.388 260.260, 337.849 260.593 C 337.271 260.951, 337.550 261.950, 338.533 263.036 C 339.448 264.047, 339.903 265.348, 339.545 265.928 C 338.588 267.476, 333 263.029, 333 260.720 C 333 259.672, 332.100 257.671, 331 256.273 C 329.900 254.874, 329 252.891, 329 251.865 C 329 250.839, 328.325 250, 327.500 250 C 326.675 250, 326 249.362, 326 248.582 C 326 246.051, 327.181 244, 328.638 244 C 331.384 244, 331.295 240.751, 328.402 235.360 C 326.076 231.027, 325.769 229.785, 326.853 229.104 C 327.914 228.438, 327.958 227.790, 327.057 226.107 C 326.425 224.925, 326.139 223.584, 326.423 223.125 C 326.706 222.667, 325.157 221.438, 322.980 220.396 C 320.447 219.182, 319.019 217.820, 319.011 216.610 C 318.999 214.609, 317.290 212.938, 312.678 210.417 C 310.478 209.214, 309.542 209.135, 308.428 210.060 C 306.626 211.555, 304 209.668, 304 206.878 C 304 205.845, 303.638 205, 303.195 205 C 302.753 205, 300.692 203.444, 298.616 201.542 C 296.539 199.640, 293.971 197.808, 292.909 197.471 C 291.847 197.134, 290.326 195.597, 289.529 194.056 C 288.732 192.515, 287.197 191.023, 286.118 190.741 C 284.671 190.363, 283.974 189.012, 283.461 185.590 C 282.868 181.631, 283.130 180.401, 285.257 177.188 C 286.627 175.118, 288.057 172.015, 288.435 170.294 C 288.813 168.573, 289.995 166.159, 291.061 164.929 C 293.259 162.395, 293.466 160.738, 291.939 157.886 C 291.062 156.248, 291.433 155.271, 294.073 152.264 L 297.268 148.625 294.384 146.323 C 291.259 143.829, 283.900 140.996, 280.572 141.006 C 279.321 141.010, 277.825 142.199, 276.797 144.006 C 274.845 147.437, 273.020 147.785, 270.661 145.177 C 268.395 142.674, 265.843 133.894, 266.982 132.522 C 267.521 131.872, 267.512 130.842, 266.958 129.966 C 266.448 129.160, 266.024 127.509, 266.015 126.297 C 265.987 122.165, 263.767 119.187, 256.889 114.057 C 253.108 111.236, 249.325 107.595, 248.482 105.964 C 247.638 104.334, 246.271 103, 245.443 103 C 244.615 103, 243.662 102.282, 243.325 101.404 C 242.988 100.526, 240.527 97.622, 237.856 94.951 C 234.717 91.813, 233 89.237, 233 87.670 C 233 86.273, 232.058 84.619, 230.781 83.771 C 228.909 82.528, 228.727 81.927, 229.618 79.930 C 230.449 78.068, 230.283 76.899, 228.840 74.453 C 225.908 69.485, 225.432 60.543, 227.738 53.750 C 229.300 49.148, 229.415 48, 228.313 48 C 227.557 48, 226.654 47.212, 226.309 46.250 C 225.963 45.288, 224.964 43.774, 224.090 42.888 C 223.215 42.001, 220.925 39.423, 219 37.160 L 215.500 33.045 207.500 33.181 C 203.100 33.256, 190.950 33.702, 180.500 34.172" stroke="none" fill="#040404" fill-rule="evenodd"/></svg>