<svg xmlns="http://www.w3.org/2000/svg" width="540" height="360" viewBox="0 0 540 360" version="1.1"><path d="M 19 141.975 L 19 219 76.500 219 L 134 219 134 257 L 134 295 327.559 295 C 456.344 295, 520.911 294.665, 520.500 294 C 520.160 293.450, 518.784 293, 517.441 293 C 514.881 293, 514.197 290.817, 515.909 288.113 C 516.518 287.151, 515.920 285.877, 513.961 283.962 C 511.998 282.043, 511.303 280.558, 511.684 279.100 C 512.120 277.434, 511.776 277, 510.023 277 C 508.635 277, 507.613 276.237, 507.276 274.949 C 506.947 273.689, 505.627 272.675, 503.854 272.321 C 501.755 271.901, 501.239 271.417, 501.963 270.545 C 502.953 269.352, 502.096 265.560, 499.600 260.086 C 498.762 258.248, 498.798 257.573, 499.750 257.253 C 500.437 257.022, 500.948 255.858, 500.884 254.667 C 500.793 252.976, 500.668 252.884, 500.311 254.250 C 499.573 257.073, 495.329 256.500, 494.755 253.500 C 494.492 252.125, 494.665 251, 495.139 251 C 496.954 251, 495.850 248.848, 492 244.881 C 487.704 240.454, 487.076 238.569, 489.577 237.609 C 490.681 237.185, 491.065 235.971, 490.856 233.556 C 490.693 231.659, 490.889 229.778, 491.292 229.375 C 492.168 228.499, 491.114 221.975, 489.835 220.355 C 489.337 219.726, 488.999 218.826, 489.083 218.355 C 489.168 217.885, 489.164 217.275, 489.074 217 C 488.220 214.379, 488.431 206.988, 489.362 206.937 C 489.988 206.902, 489.517 206.477, 488.315 205.993 C 485.675 204.929, 485.398 199.509, 487.903 197.906 C 488.916 197.258, 489.094 196.709, 488.392 196.406 C 485.654 195.225, 483.556 192.995, 484.500 192.269 C 485.874 191.213, 485.874 185, 484.501 185 C 482.634 185, 475.790 178.149, 476.503 176.995 C 476.871 176.400, 476.633 175.263, 475.974 174.469 C 475.315 173.675, 475.059 172.288, 475.405 171.386 C 475.751 170.484, 475.555 169.169, 474.969 168.462 C 474.228 167.569, 474.222 166.981, 474.951 166.530 C 475.528 166.174, 476 164.874, 476 163.641 C 476 162.408, 476.559 160.841, 477.242 160.158 C 478.230 159.170, 478.223 158.756, 477.206 158.127 C 475.306 156.953, 471.715 149.809, 472.672 149.107 C 474.499 147.767, 473.627 145.088, 471.011 144.004 C 467.916 142.722, 465.339 138.648, 465.821 135.798 C 466.011 134.679, 465.087 133.070, 463.571 131.877 C 460.816 129.710, 460.216 126.192, 462.250 124.138 C 463.251 123.127, 463.152 122.679, 461.750 121.888 C 460.787 121.345, 460 120.303, 460 119.573 C 460 118.842, 459.315 117.676, 458.477 116.981 C 456.913 115.683, 457.132 113.516, 459.267 109.185 C 460.624 106.431, 458.828 104.754, 455.434 105.606 C 454.209 105.913, 452.809 105.475, 452.035 104.542 C 451.275 103.627, 449.946 103.200, 448.895 103.533 C 446.387 104.329, 441.068 98.390, 441.029 94.750 C 441.005 92.464, 440.562 92, 438.406 92 C 436.649 92, 435.643 91.352, 435.287 89.989 C 434.719 87.816, 430.985 86.408, 428.410 87.396 C 427.345 87.805, 426.641 87.342, 426.291 86.004 C 425.884 84.448, 424.928 84, 422.018 84 C 418.405 84, 414.064 81.582, 411.359 78.062 C 410.420 76.841, 407.095 76.596, 392.633 76.684 L 375.047 76.790 372.480 79.842 C 368.388 84.705, 365.032 84.819, 359.812 80.273 C 358.884 79.465, 353.948 76.834, 348.844 74.426 C 343.022 71.681, 339.283 69.295, 338.813 68.025 C 338.070 66.016, 337.442 65.999, 258.782 65.929 C 215.177 65.890, 143.387 65.653, 99.250 65.404 L 19 64.950 19 141.975" stroke="none" fill="#040404" fill-rule="evenodd"/></svg>