<svg xmlns="http://www.w3.org/2000/svg" width="360" height="360" viewBox="0 0 360 360" version="1.1"><path d="M 69 86.293 L 69 160.565 89.674 179.032 C 101.044 189.190, 117.357 203.752, 125.924 211.394 C 134.491 219.035, 169.850 252.397, 204.500 285.530 C 239.150 318.663, 267.950 345.711, 268.500 345.636 C 269.050 345.561, 269.393 344.713, 269.262 343.750 C 269.131 342.788, 269.532 342, 270.154 342 C 271.518 342, 270.591 330.973, 268.973 327.949 C 268.396 326.872, 267.714 322.795, 267.456 318.890 C 267.198 314.984, 266.795 311.477, 266.560 311.097 C 266.324 310.716, 266.527 309.766, 267.009 308.986 C 267.545 308.118, 267.443 307.034, 266.747 306.195 C 266.120 305.440, 265.517 303.053, 265.407 300.891 C 265.175 296.353, 266.284 295.475, 272.727 295.098 C 277.942 294.793, 281 295.692, 281 297.532 C 281 299.295, 284.693 301.332, 286.578 300.608 C 287.360 300.308, 288.014 299.261, 288.032 298.281 C 288.049 297.302, 288.704 295.654, 289.488 294.619 C 290.705 293.012, 290.902 272.438, 290.841 153.022 L 290.770 13.307 273.635 12.693 C 264.211 12.356, 214.313 12.067, 162.750 12.051 L 69 12.022 69 86.293" stroke="none" fill="#040404" fill-rule="evenodd"/></svg>