<svg xmlns="http://www.w3.org/2000/svg" width="645" height="387" viewBox="0 0 645 387" version="1.1"><path d="M 372.932 48.442 C 361.737 51.982, 356.549 53.021, 343.267 54.381 C 327.865 55.958, 320.339 57.643, 317.248 60.209 C 313.611 63.227, 298.653 84.043, 289.731 98.500 C 281.542 111.770, 278.131 116.242, 269.738 124.708 C 262.921 131.585, 260.089 135.074, 261.059 135.398 C 261.852 135.662, 265.696 136.626, 269.601 137.538 C 273.507 138.451, 277.156 139.491, 277.711 139.849 C 278.265 140.207, 278.951 144.671, 279.235 149.769 L 279.751 159.037 273.011 164.769 C 269.304 167.921, 264.954 171.213, 263.344 172.084 C 261.070 173.314, 260.006 175.028, 258.571 179.767 L 256.724 185.866 250.112 186.871 C 246.475 187.424, 241.715 188.117, 239.533 188.411 C 237.351 188.704, 234.331 189.858, 232.821 190.974 L 230.076 193.004 226.253 188.906 L 222.430 184.807 209.965 184.269 L 197.500 183.731 187.264 188.867 C 178.230 193.401, 169.841 195.820, 162.602 195.980 C 162.092 195.991, 161.985 199.647, 162.354 204.448 C 163.180 215.184, 167.076 226.258, 170.593 227.861 L 173.051 228.980 170.886 233.240 C 164.268 246.265, 152.913 259.475, 144.787 263.602 C 142.195 264.919, 136.697 266.738, 132.569 267.645 C 128.441 268.552, 125.261 269.614, 125.503 270.004 C 125.744 270.395, 128.650 271.289, 131.960 271.991 C 135.270 272.694, 138.433 273.817, 138.989 274.487 C 139.545 275.157, 140.286 278.446, 140.636 281.796 C 141.151 286.719, 141.820 288.412, 144.124 290.619 L 146.974 293.350 179.237 286.192 C 196.982 282.256, 233.775 274.058, 261 267.976 C 288.225 261.893, 316.902 255.606, 324.728 254.005 L 338.956 251.093 343.728 253.187 C 350.814 256.296, 357.243 262.114, 359.929 267.847 C 362.054 272.386, 362.820 273.063, 368.028 275.011 C 371.192 276.194, 375.066 278.504, 376.637 280.143 C 380.422 284.094, 387.033 286.959, 395 288.102 C 404.711 289.495, 413.287 292.647, 416.505 296.005 L 419.330 298.954 417.999 309.011 C 417.196 315.072, 417.032 319.391, 417.584 319.881 C 419.287 321.395, 435.807 324, 443.697 324 C 450.460 324, 452.053 323.649, 455.304 321.440 C 457.376 320.031, 465.918 315.504, 474.286 311.380 C 482.654 307.256, 494.342 300.657, 500.259 296.717 C 510.719 289.753, 511.128 289.339, 514.942 281.877 C 517.100 277.655, 518.698 273.368, 518.493 272.350 C 516.908 264.478, 517.389 264.997, 511.731 265.035 C 508.854 265.055, 505.375 265.714, 504 266.500 C 500.039 268.764, 498.971 268.396, 499.650 265 C 499.980 263.350, 499.921 262, 499.520 262 C 499.118 262, 494.899 263.169, 490.145 264.598 C 482.652 266.850, 480.767 267.902, 476 272.493 C 472.975 275.405, 469.150 278.455, 467.500 279.269 C 461.947 282.010, 453.236 284, 446.796 284 C 443.268 284, 439.879 284.521, 439.237 285.163 C 438.353 286.047, 437.843 285.717, 437.110 283.790 C 435.244 278.881, 435.376 277.518, 437.750 277.180 C 439.864 276.880, 440 276.389, 440 269.035 C 440 262.638, 439.470 259.958, 437.097 254.355 C 434.188 247.487, 430.997 234.486, 428.542 219.497 C 427.315 212, 427.719 193.456, 429.417 179.447 C 429.770 176.532, 429.263 174.003, 427.611 170.438 C 424.662 164.072, 422.867 156.446, 423.271 152 C 423.770 146.508, 418.643 134.280, 413.733 129.250 C 411.237 126.693, 408.670 125, 407.292 125 C 405.073 125, 405 124.715, 405 116.003 C 405 107.099, 404.963 106.965, 401.445 103.071 L 397.890 99.136 399.945 95.108 C 402.701 89.706, 402.543 86.401, 399 75.341 C 397.350 70.191, 396 65.540, 396 65.007 C 396 63.384, 387.767 43.995, 387.112 44.076 C 386.775 44.118, 380.394 46.082, 372.932 48.442" stroke="none" fill="#05050b" fill-rule="evenodd"/></svg>