<svg xmlns="http://www.w3.org/2000/svg" width="360" height="360" viewBox="0 0 360 360" version="1.1"><path d="M 228.970 16.084 C 226.219 22.197, 221.873 22.461, 215.541 16.902 L 212.045 13.832 209.020 15.986 C 207.357 17.170, 205.531 19.008, 204.963 20.070 C 204.340 21.232, 202.850 22.013, 201.215 22.032 C 198.644 22.062, 198.601 22.140, 200.390 23.495 C 202.059 24.758, 202.154 25.428, 201.197 29.213 C 200.601 31.571, 199.848 34.761, 199.524 36.303 C 199.146 38.101, 197.666 39.854, 195.395 41.195 C 192.633 42.824, 191.979 43.747, 192.419 45.392 C 192.730 46.551, 193.265 48.512, 193.609 49.750 C 194.055 51.358, 193.807 52, 192.739 52 C 190.110 52, 188.558 54.783, 189.791 57.284 C 192.343 62.461, 192.282 65.876, 189.581 69.086 C 188.162 70.773, 187 72.992, 187 74.018 C 187 75.043, 186.543 76.165, 185.984 76.510 C 185.425 76.856, 185.249 77.594, 185.593 78.150 C 185.937 78.707, 184.957 80.480, 183.415 82.089 L 180.611 85.016 182.433 90.258 C 183.436 93.141, 184.873 96.497, 185.628 97.715 C 186.383 98.933, 187 100.980, 187 102.265 C 187 103.549, 187.521 105.121, 188.158 105.758 C 189.557 107.157, 187.623 110, 185.271 110 C 184.258 110, 184.007 110.557, 184.482 111.750 C 186.206 116.081, 185.972 117.677, 183.416 119.045 C 182.006 119.800, 179.640 122.236, 178.159 124.459 C 175.998 127.703, 174.353 128.863, 169.819 130.341 C 165.481 131.755, 164.033 132.733, 163.574 134.562 C 162.872 137.356, 159.588 139.387, 156.905 138.685 C 151.353 137.233, 139.162 144.763, 140.448 148.851 C 140.734 149.758, 141.198 155.642, 141.480 161.926 C 141.867 170.559, 141.669 173.736, 140.668 174.926 C 137.309 178.918, 135.263 183.719, 136.203 185.399 C 136.841 186.539, 136.771 187.571, 135.993 188.509 C 135.352 189.281, 135.141 190.419, 135.523 191.037 C 135.906 191.656, 135.013 193.421, 133.540 194.959 C 131.631 196.951, 130.648 199.320, 130.122 203.199 C 129.410 208.447, 125.772 216, 123.957 216 C 121.970 216, 119.161 220.439, 118.544 224.556 C 118.181 226.975, 117.460 229.215, 116.942 229.536 C 116.424 229.856, 116 231.259, 116 232.653 C 116 234.245, 115.336 235.361, 114.213 235.654 C 111.993 236.235, 109.772 244.637, 111.148 247.250 C 111.728 248.351, 111.686 249.717, 111.035 250.934 C 110.466 251.998, 110 254.383, 110 256.234 C 110 258.085, 109.471 260.129, 108.824 260.776 C 107.922 261.678, 108.039 262.386, 109.326 263.808 C 110.249 264.828, 110.748 265.919, 110.434 266.232 C 110.121 266.546, 109.733 268.655, 109.571 270.919 C 109.410 273.183, 108.574 275.815, 107.714 276.768 C 106.241 278.399, 105.673 285.253, 106.137 295.803 C 106.216 297.619, 105.696 300.199, 104.981 301.536 C 104.061 303.255, 103.969 304.615, 104.666 306.178 C 105.997 309.160, 103.741 313.597, 100.478 314.416 C 98.376 314.944, 98 315.624, 98 318.897 C 98 321.128, 97.359 323.287, 96.481 324.016 C 93.806 326.236, 97.389 338, 100.740 338 C 101.460 338, 102.463 339.086, 102.967 340.414 C 103.472 341.742, 104.699 343.075, 105.693 343.376 C 106.687 343.677, 123.925 344.386, 144 344.953 C 164.075 345.519, 187.475 346.264, 196 346.608 L 211.500 347.233 213.826 344.055 C 215.604 341.624, 216.780 340.950, 218.826 341.188 C 221.253 341.471, 221.473 341.222, 221.203 338.500 C 220.657 332.978, 224.570 330.490, 230.668 332.482 C 232.428 333.057, 232.898 332.756, 233.168 330.879 C 233.493 328.613, 234.577 327.868, 242.342 324.574 C 245.767 323.122, 246.504 323.105, 249.143 324.421 C 251.004 325.350, 252.891 325.606, 254.227 325.112 L 256.353 324.325 254.176 323.756 C 252.815 323.400, 252 322.403, 252 321.094 C 252 318.863, 254.558 318.173, 255.240 320.220 C 255.464 320.891, 256.910 318.753, 258.454 315.470 C 259.998 312.186, 262.038 308.375, 262.987 307 C 264.768 304.419, 265.334 300.676, 263.799 301.624 C 263.321 301.919, 261.327 300.603, 259.367 298.700 C 257.013 296.413, 255.159 295.407, 253.902 295.736 C 251.581 296.343, 251.225 301, 253.500 301 C 255.303 301, 255.535 302.955, 253.750 303.106 C 251.573 303.290, 246.517 302.826, 246.079 302.401 C 245.848 302.176, 246.694 300.891, 247.959 299.544 C 249.489 297.915, 250.070 296.376, 249.696 294.944 C 249.210 293.085, 249.476 292.858, 251.651 293.274 C 253.806 293.686, 254.090 293.454, 253.623 291.667 C 253.323 290.519, 253.585 287.564, 254.205 285.101 L 255.332 280.623 251.166 276.925 C 248.875 274.892, 247 272.572, 247 271.769 C 247 270.138, 243.908 267, 242.301 267 C 240.717 267, 238.535 258.278, 239.738 256.757 C 241.282 254.804, 241.799 250.367, 240.994 245.967 C 240.576 243.682, 240.664 241.708, 241.199 241.377 C 241.714 241.059, 241.897 240.173, 241.604 239.410 C 240.629 236.870, 239.001 204.122, 236.985 146.500 C 235.281 97.782, 231.410 16.330, 230.672 13.659 C 230.544 13.196, 229.778 14.287, 228.970 16.084" stroke="none" fill="#040404" fill-rule="evenodd"/></svg>