<svg xmlns="http://www.w3.org/2000/svg" width="360" height="360" viewBox="0 0 360 360" version="1.1"><path d="M 183.500 7.537 C 182.950 7.696, 181.262 8.098, 179.750 8.432 C 178.238 8.765, 177 9.705, 177 10.519 C 177 11.334, 176.100 12, 175 12 C 173.690 12, 173 12.667, 173 13.933 C 173 14.996, 172.130 16.141, 171.066 16.479 C 169.815 16.876, 169.265 17.782, 169.509 19.046 C 169.716 20.121, 169.533 21, 169.103 21 C 167.800 21, 166.132 25.597, 166.435 28.354 C 166.591 29.779, 166.382 30.736, 165.969 30.481 C 165.160 29.981, 161.668 36.693, 161.667 38.750 C 161.667 39.437, 161.460 39.793, 161.207 39.540 C 160.377 38.711, 154.920 42.061, 155.519 43.031 C 155.841 43.551, 155.406 43.709, 154.552 43.382 C 153.576 43.007, 153 43.341, 153 44.282 C 153 45.105, 153.563 45.715, 154.250 45.639 C 154.938 45.563, 155.500 45.950, 155.500 46.500 C 155.500 47.050, 155.144 47.381, 154.709 47.236 C 153.169 46.723, 150.084 49.053, 148.801 51.699 C 148.074 53.198, 145.330 55.511, 142.583 56.941 C 138.200 59.222, 134.443 64, 137.032 64 C 137.565 64, 138 64.482, 138 65.071 C 138 66.636, 140.642 69.024, 141.464 68.202 C 141.851 67.816, 142.058 67.950, 141.925 68.500 C 141.791 69.050, 142.045 70.400, 142.489 71.500 C 142.932 72.600, 143.866 74.926, 144.563 76.668 C 145.943 80.119, 145.604 81, 142.900 81 C 141.565 81, 141.156 81.772, 141.224 84.164 C 141.323 87.663, 138.197 91, 134.818 91 C 131.850 91, 129.843 93.526, 130.555 96.365 C 130.893 97.712, 130.625 99.833, 129.958 101.078 C 128.975 102.916, 129.017 103.545, 130.185 104.421 C 132.176 105.914, 133.291 109.049, 131.601 108.400 C 130.616 108.022, 130.329 109.420, 130.408 114.201 L 130.512 120.500 134.862 120.220 C 138.385 119.993, 139.686 120.413, 141.701 122.428 C 143.954 124.682, 144.181 125.668, 144.104 132.896 C 144.008 141.849, 145.148 144, 149.990 144 C 154.251 144, 155.998 144.974, 156.014 147.357 C 156.042 151.742, 157.265 153.781, 161.193 155.988 C 164.011 157.572, 165.807 159.571, 167.159 162.627 C 168.446 165.537, 170.227 167.586, 172.480 168.750 C 176.113 170.628, 181 176.981, 181 179.825 C 181 181.761, 175.746 184.347, 172.381 184.067 C 170.913 183.945, 169.617 184.984, 168.165 187.446 C 166.622 190.060, 165.384 191, 163.484 191 C 159.850 191, 155.523 193.457, 153.057 196.921 C 151.789 198.700, 149.873 199.996, 148.228 200.186 C 146.727 200.359, 145.462 200.950, 145.416 201.500 C 145.276 203.178, 143.087 208, 142.466 208 C 142.145 208, 142.160 207.550, 142.500 207 C 143.305 205.698, 141.693 205.727, 138.752 207.067 C 136.592 208.051, 136.456 208.558, 137.007 213.568 L 137.606 219.002 134.862 218.793 C 133.352 218.678, 131.236 219.382, 130.158 220.357 C 127.937 222.367, 116.396 225.363, 114.763 224.353 C 114.128 223.961, 113.982 224.162, 114.405 224.845 C 114.832 225.536, 114.468 226, 113.500 226 C 112.610 226, 112.157 226.445, 112.493 226.989 C 112.843 227.555, 112.442 227.723, 111.552 227.382 C 110.597 227.015, 110 227.334, 110 228.209 C 110 228.991, 108.169 230.661, 105.932 231.918 C 100.959 234.713, 99.078 238.141, 101.103 240.720 C 102.343 242.300, 102.322 242.361, 100.914 241.264 C 99.551 240.201, 98.999 240.733, 96.976 245.052 C 95.682 247.814, 93.362 251.071, 91.821 252.288 C 88.486 254.920, 88.332 256.086, 91 258.500 C 92.100 259.495, 93 259.983, 93 259.584 C 93 259.184, 93.675 259.532, 94.500 260.357 C 96.369 262.226, 96.396 263.427, 94.600 264.917 C 93.645 265.710, 93.353 267.413, 93.680 270.289 C 94.039 273.445, 93.893 274.124, 93.095 273 C 92.252 271.813, 92.027 272.177, 92.015 274.750 C 92.003 277.338, 92.407 278, 94 278 C 95.100 278, 96 278.441, 96 278.981 C 96 279.520, 97.057 280.227, 98.350 280.552 C 99.706 280.892, 101.292 282.481, 102.100 284.309 C 102.870 286.051, 104.625 288.029, 106 288.705 C 107.375 289.381, 108.500 290.511, 108.500 291.217 C 108.500 291.923, 110.075 292.995, 112 293.600 C 114.423 294.362, 115.949 295.689, 116.957 297.913 C 118.032 300.282, 118.910 300.995, 120.304 300.631 C 122.760 299.989, 125 300.876, 125 302.492 C 125 303.195, 126.237 304.579, 127.750 305.568 C 131.942 308.310, 133 309.644, 133 312.188 C 133 313.470, 133.935 315.103, 135.079 315.817 C 136.910 316.961, 137.221 316.870, 137.695 315.058 C 138.048 313.707, 139.052 313, 140.617 313 C 141.927 313, 142.888 312.508, 142.750 311.907 C 142.423 310.476, 145.679 308.345, 146.673 309.340 C 147.096 309.763, 146.780 310.527, 145.971 311.039 C 145.162 311.551, 144.972 311.976, 145.550 311.985 C 146.127 311.993, 147.133 311.467, 147.783 310.817 C 149.513 309.087, 150.345 310.488, 149.038 312.929 C 147.752 315.331, 148.243 315.642, 154.250 316.231 C 156.848 316.485, 158 316.199, 158 315.299 C 158 314.585, 158.450 314, 159 314 C 159.550 314, 160 314.927, 160 316.059 C 160 317.191, 160.382 317.882, 160.849 317.593 C 161.316 317.304, 162.240 318.080, 162.902 319.317 C 164.519 322.338, 162.777 330.170, 159.320 335.427 C 155.880 340.658, 153.816 349.366, 155.478 351.639 C 156.346 352.826, 157.452 353.103, 159.385 352.618 C 160.868 352.246, 161.815 351.510, 161.489 350.982 C 161.161 350.451, 161.578 350.285, 162.423 350.609 C 164.115 351.258, 169.603 348.202, 172.509 344.990 C 173.798 343.566, 174.313 341.676, 174.153 338.958 C 174.021 336.734, 174.375 335, 174.959 335 C 175.532 335, 176 335.477, 176 336.059 C 176 336.641, 176.468 336.829, 177.041 336.475 C 178.781 335.399, 183 328.157, 183 326.244 C 183 323.447, 191.862 309.892, 196.147 306.137 C 198.266 304.279, 200 302.363, 200 301.880 C 200 300.273, 197.940 300.969, 195.515 303.394 C 193.014 305.895, 191.733 305.859, 192.709 303.316 C 193.131 302.217, 192.682 301.915, 190.994 302.163 C 189.380 302.401, 188.625 301.953, 188.426 300.639 C 188.187 299.060, 188.611 298.872, 191.235 299.397 C 193.430 299.836, 194.908 299.506, 196.335 298.258 C 197.440 297.291, 198.015 297.063, 197.613 297.750 C 196.384 299.852, 203.421 299.297, 205.375 297.139 C 206.301 296.115, 208.958 294.439, 211.280 293.415 C 216.960 290.908, 224.617 283.047, 225.899 278.404 C 227.155 273.854, 226.776 273.129, 223.466 273.762 C 221.593 274.120, 221.050 274.701, 221.490 275.878 C 221.823 276.770, 220.735 276.150, 219.071 274.500 C 215.945 271.400, 213.792 265, 215.875 265 C 216.494 265, 217 265.439, 217 265.975 C 217 266.516, 218.282 266.694, 219.879 266.374 C 221.534 266.043, 223.051 266.273, 223.448 266.916 C 223.828 267.530, 224.627 267.731, 225.224 267.362 C 225.871 266.961, 226.021 267.156, 225.595 267.845 C 225.203 268.480, 224.121 269.014, 223.191 269.030 C 221.675 269.058, 221.688 269.170, 223.311 270.114 C 225.736 271.525, 228.203 270.455, 227.814 268.160 C 227.641 267.141, 228.118 265.563, 228.873 264.654 C 230.053 263.231, 230.018 263, 228.622 263 C 227.730 263, 227 263.771, 227 264.714 C 227 266.285, 226.866 266.294, 225.402 264.831 C 223.195 262.624, 225.073 259.285, 229.580 257.402 C 231.846 256.455, 233 255.303, 233 253.987 C 233 252.667, 233.671 252, 235 252 C 236.142 252, 237 251.333, 237 250.446 C 237 249.591, 238.345 247.453, 239.989 245.696 C 241.633 243.938, 242.530 242.349, 241.983 242.165 C 241.435 241.980, 241.231 241.436, 241.528 240.955 C 241.825 240.475, 241.531 239.222, 240.876 238.173 C 239.926 236.651, 240.039 235.171, 241.432 230.882 C 242.394 227.922, 243.925 224.669, 244.834 223.652 C 245.743 222.636, 246.348 220.752, 246.180 219.464 C 246.011 218.177, 246.594 216.024, 247.474 214.680 C 249.026 212.311, 248.989 212.213, 246.288 211.505 C 243.515 210.777, 243.512 210.768, 245.750 209.734 C 248.409 208.506, 248.793 204.518, 246.343 203.578 C 244.879 203.016, 244.945 202.700, 246.909 200.870 C 248.132 199.731, 249.383 199.050, 249.690 199.357 C 249.997 199.664, 251.077 198.922, 252.091 197.707 L 253.933 195.500 253.967 198.083 C 253.985 199.504, 253.687 200.980, 253.304 201.362 C 252.389 202.278, 252.028 204.271, 251.470 211.500 C 250.971 217.951, 252.297 215.677, 253.339 208.294 C 254.818 197.812, 257.359 185.449, 260.680 172.578 C 262.040 167.306, 262.174 165.558, 261.242 165.247 C 260.310 164.937, 260.342 164.516, 261.376 163.481 C 262.289 162.568, 262.795 159.151, 262.918 153.061 C 263.082 144.937, 262.915 143.999, 261.301 143.988 C 260.310 143.981, 257.529 142.849, 255.121 141.473 C 251.950 139.660, 250.393 139.259, 249.476 140.020 C 248.532 140.804, 248.247 140.617, 248.355 139.285 C 248.471 137.852, 247.711 137.490, 244.500 137.451 C 240.161 137.398, 237.643 138.614, 238.666 140.268 C 239.042 140.878, 238.824 141.009, 238.138 140.585 C 237.494 140.187, 237.241 139.419, 237.575 138.879 C 237.909 138.338, 236.821 137.381, 235.157 136.753 C 231.562 135.396, 230.565 132.593, 232.583 129.514 C 233.387 128.286, 233.775 126.578, 233.445 125.718 C 233.076 124.756, 233.592 123.753, 234.785 123.115 C 237.195 121.825, 239.413 116.688, 238.714 114.015 C 238.351 112.627, 239.102 111.250, 241.173 109.508 C 242.812 108.129, 244.555 107, 245.045 107 C 245.536 107, 245.678 106.325, 245.362 105.500 C 245.045 104.675, 245.284 104, 245.893 104 C 246.502 104, 247 103.352, 247 102.559 C 247 101.766, 247.402 100.870, 247.893 100.566 C 248.413 100.245, 248.435 101.571, 247.946 103.739 C 247.484 105.788, 246.632 107.623, 246.053 107.816 C 244.295 108.402, 244.876 110, 246.847 110 C 249.246 110, 253 106.725, 253 104.633 C 253 103.735, 253.666 103, 254.481 103 C 255.295 103, 256.221 101.763, 256.538 100.250 C 256.855 98.737, 258.870 93.900, 261.016 89.500 C 265.586 80.128, 272.344 59.926, 271.254 58.895 C 269.124 56.883, 252.676 49.082, 251.758 49.650 C 251.139 50.032, 250.982 49.838, 251.385 49.187 C 251.817 48.488, 249.517 46.759, 245.289 44.604 C 241.555 42.701, 234.907 38.854, 230.515 36.055 C 226.123 33.257, 221.937 31.194, 221.213 31.472 C 220.489 31.750, 220.091 31.645, 220.329 31.239 C 221.136 29.860, 212.787 24.207, 188 9.348 C 186.075 8.194, 184.050 7.379, 183.500 7.537 M 259.443 136.223 C 260.299 137.445, 261 139.245, 261 140.223 C 261 141.200, 261.450 142, 262 142 C 263.279 142, 263.259 141.043, 261.902 137.149 C 261.298 135.417, 260.148 134, 259.345 134 C 258.096 134, 258.110 134.319, 259.443 136.223 M 249.859 225.374 C 249.506 228.054, 248.743 230.541, 248.162 230.900 C 247.486 231.318, 247.441 232.083, 248.037 233.026 C 249.480 235.308, 249.190 235.994, 246.750 236.070 C 244.920 236.127, 244.820 236.267, 246.213 236.821 C 247.451 237.312, 247.664 237.917, 246.979 239 C 246.457 239.825, 246.025 240.950, 246.019 241.500 C 246.013 242.050, 246.944 240.964, 248.089 239.086 C 249.241 237.195, 249.974 234.645, 249.731 233.371 C 249.489 232.105, 249.704 230.932, 250.209 230.764 C 250.715 230.595, 250.987 228.217, 250.814 225.479 L 250.500 220.500 249.859 225.374 M 244.667 243.667 C 243.711 244.622, 243.845 246, 244.893 246 C 245.384 246, 246.045 245.325, 246.362 244.500 C 246.947 242.976, 245.881 242.452, 244.667 243.667 M 240.113 249.439 C 238.677 250.208, 238.158 250.980, 238.807 251.381 C 239.503 251.811, 238.433 254.787, 235.793 259.770 C 233.543 264.017, 232.394 266.917, 233.241 266.215 C 234.088 265.512, 235.752 262.814, 236.939 260.219 C 238.126 257.623, 240.029 254.016, 241.168 252.203 C 243.604 248.326, 243.365 247.699, 240.113 249.439 M 214 289 C 214 289.550, 214.450 290, 215 290 C 215.550 290, 216 289.550, 216 289 C 216 288.450, 215.550 288, 215 288 C 214.450 288, 214 288.450, 214 289" stroke="none" fill="#040404" fill-rule="evenodd"/></svg>