<svg xmlns="http://www.w3.org/2000/svg" width="360" height="360" viewBox="0 0 360 360" version="1.1"><path d="M 33 180 L 33 347 52.970 347 L 72.940 347 73.220 334.250 L 73.500 321.500 113.999 321.902 C 152.494 322.284, 154.425 322.217, 153.043 320.552 C 152.244 319.589, 151.690 317.481, 151.813 315.869 C 151.936 314.256, 151.563 312.051, 150.983 310.968 C 149.939 309.018, 150.705 309, 236.965 309 L 324 309 324.001 292.750 C 324.004 211.876, 325.437 43.302, 326.128 42.550 C 326.607 42.027, 327 35.165, 327 27.300 L 327 13 180 13 L 33 13 33 180" stroke="none" fill="#040404" fill-rule="evenodd"/></svg>