<svg xmlns="http://www.w3.org/2000/svg" width="360" height="360" viewBox="0 0 360 360" version="1.1"><path d="M 13.660 96.250 C 13.301 105.737, 13.005 150.963, 13.003 196.750 L 13 280 18.250 280.027 C 219.962 281.057, 347 281.068, 347 280.055 C 347 279.410, 346.606 279.125, 346.125 279.423 C 345.644 279.720, 345.695 277.879, 346.238 275.331 C 346.923 272.119, 346.885 269.560, 346.113 266.983 C 345.501 264.940, 345 261.408, 345 259.134 C 345 256.860, 344.660 255, 344.244 255 C 343.828 255, 342.890 253.647, 342.158 251.994 C 341.413 250.312, 340.357 249.279, 339.759 249.649 C 339.172 250.012, 338.976 249.848, 339.324 249.284 C 339.673 248.720, 339.237 245.613, 338.355 242.379 C 336.569 235.830, 335.995 225.987, 337.146 221.680 C 337.895 218.882, 335.438 211.611, 334.037 212.477 C 333.689 212.692, 332.751 212.405, 331.952 211.840 C 330.760 210.996, 330.808 210.910, 332.218 211.362 C 334.732 212.168, 335.373 210.383, 335.012 203.575 C 334.835 200.234, 334.707 196.269, 334.728 194.764 C 334.748 193.258, 334.481 192.200, 334.133 192.412 C 333.785 192.623, 333.500 188.455, 333.500 183.148 C 333.500 173.184, 331.802 165.650, 329 163.176 C 328.175 162.448, 328.063 162.137, 328.750 162.485 C 330.167 163.203, 330.431 161.885, 329.157 160.450 C 328.336 159.525, 326.301 153.134, 323.919 144 C 322.946 140.267, 322.611 139.841, 321.954 141.500 C 321.301 143.150, 321.169 142.975, 321.199 140.500 C 321.218 138.850, 321.198 135.925, 321.154 134 C 321.109 132.075, 321.116 128.700, 321.169 126.500 C 321.222 124.300, 321.199 121.600, 321.119 120.500 C 321.039 119.400, 321.008 117.825, 321.049 117 C 321.091 116.175, 320.883 113.544, 320.587 111.152 C 320.238 108.330, 320.565 105.809, 321.518 103.966 C 322.910 101.274, 322.891 100.394, 321.349 96.250 C 320.306 93.445, 319.844 91.622, 319.703 89.750 C 319.631 88.787, 319.191 88, 318.727 88 C 318.262 88, 318.109 87.633, 318.386 87.184 C 318.664 86.735, 318.299 84.646, 317.576 82.543 C 316.780 80.227, 316.043 79.267, 315.709 80.109 C 315.329 81.068, 315.133 81.112, 315.079 80.250 C 315.016 79.256, 284.223 79, 164.657 79 L 14.315 79 13.660 96.250" stroke="none" fill="#040404" fill-rule="evenodd"/></svg>