<svg xmlns="http://www.w3.org/2000/svg" width="725" height="344" viewBox="0 0 725 344" version="1.1"><path d="M 689.500 0.659 C 688.400 0.906, 678.275 3.327, 667 6.041 C 632.187 14.418, 577.553 26.872, 555 31.571 C 543.175 34.035, 525.175 37.808, 515 39.955 C 504.825 42.103, 492 44.782, 486.500 45.911 C 481 47.039, 466.600 50.011, 454.500 52.517 C 442.400 55.022, 417.200 60.215, 398.500 64.056 C 379.800 67.897, 363.800 71.258, 362.944 71.525 C 361.470 71.986, 312.999 81.988, 232.015 98.542 C 211.948 102.644, 194.086 106.476, 192.323 107.058 C 188.568 108.298, 188.276 109.026, 184.100 127.500 C 181.331 139.749, 177.016 152.069, 174.587 154.659 C 173.989 155.296, 166.525 157.250, 158 159 C 149.475 160.750, 141.856 162.802, 141.068 163.559 C 140.268 164.328, 139.086 168.961, 138.388 174.065 C 137.701 179.086, 136.995 183.314, 136.820 183.459 C 136.644 183.605, 132 186.026, 126.500 188.840 C 110.282 197.136, 107.393 199.454, 98.251 211.500 C 93.660 217.550, 89.296 222.637, 88.554 222.804 C 87.811 222.971, 84.505 222.408, 81.207 221.554 C 72.131 219.202, 72.450 219.008, 69.972 228.388 C 68.753 233.002, 67.431 237.303, 67.034 237.946 C 66.636 238.588, 59.154 241.733, 50.406 244.933 C 33.005 251.300, 21.587 256.242, 20.603 257.833 C 20.256 258.395, 21.530 262.375, 23.435 266.677 L 26.898 274.500 21.435 280.044 C 17.676 283.858, 14.943 287.914, 12.677 293.044 C 10.865 297.145, 7.271 304.654, 4.691 309.730 C 2.111 314.807, -0 319.266, 0 319.641 C 0 320.958, 58.532 318.987, 78 317.015 C 88.725 315.928, 100.755 315.030, 104.734 315.019 L 111.968 315 120.015 302.718 L 128.061 290.437 145.781 284.573 L 163.500 278.709 173.500 269.864 L 183.500 261.018 200.199 261.009 C 213.117 261.002, 219.345 260.520, 227.699 258.881 C 237.081 257.041, 239.420 256.910, 245.500 257.886 C 251.765 258.891, 254.190 258.715, 268.596 256.209 L 284.691 253.409 294.096 261.827 C 303.566 270.304, 314.373 276.573, 321.359 277.641 C 327.293 278.549, 357.825 273.393, 372.470 269.011 C 386.416 264.837, 386.458 264.831, 397.769 265.538 L 409.100 266.246 468.800 303.523 L 528.500 340.800 545.277 341.991 L 562.054 343.182 572.119 334.952 L 582.184 326.722 589.592 327.348 L 597 327.974 596.949 324.737 C 596.921 322.957, 596.085 314.525, 595.090 306 L 593.282 290.500 599.827 281.500 C 619.085 255.018, 616.494 257.576, 645.469 236.458 C 660.076 225.812, 672.439 216.847, 672.942 216.536 C 673.446 216.225, 678.625 216.942, 684.451 218.129 C 690.278 219.316, 695.220 220.111, 695.433 219.894 C 695.646 219.677, 696.545 213.550, 697.432 206.279 C 698.843 194.709, 699.541 192.029, 703.022 184.832 C 705.210 180.307, 707 175.560, 707 174.281 C 707 173.002, 705.195 168.366, 702.989 163.978 L 698.978 156 688.989 156 C 683.495 156, 679.014 155.662, 679.032 155.250 C 679.049 154.838, 680.737 151.350, 682.782 147.500 L 686.500 140.500 697.670 134.757 L 708.840 129.014 714.321 112.757 C 717.336 103.816, 720.803 93.800, 722.026 90.500 L 724.248 84.500 712.546 51.500 C 706.110 33.350, 699.411 14.455, 697.660 9.511 C 694.475 0.520, 693.729 -0.288, 689.500 0.659" stroke="none" fill="#050c0c" fill-rule="evenodd"/></svg>