<svg xmlns="http://www.w3.org/2000/svg" width="360" height="360" viewBox="0 0 360 360" version="1.1"><path d="M 332 9.619 C 328.975 10.995, 323.575 13.053, 320 14.192 C 316.425 15.331, 312.790 16.878, 311.921 17.631 C 311.053 18.384, 309.396 19, 308.239 19 C 304.675 19, 290.940 24.561, 281.923 29.655 C 271.364 35.619, 270.281 36.449, 266.179 41.708 C 264.375 44.023, 259.976 47.959, 256.405 50.455 C 250.720 54.430, 249.079 55.066, 243.206 55.573 C 238.564 55.973, 234.991 55.682, 231.599 54.628 C 227.301 53.292, 226.353 53.283, 223.899 54.552 C 222.359 55.349, 220.506 56, 219.782 56 C 219.057 56, 216.897 57.060, 214.982 58.356 C 213.067 59.652, 209.298 61.039, 206.606 61.439 C 203.915 61.839, 199.827 63.082, 197.523 64.201 L 193.333 66.237 187.172 63.868 C 183.783 62.566, 180.769 60.763, 180.474 59.862 C 180.034 58.522, 179.263 58.378, 176.218 59.068 C 173.505 59.683, 172.133 59.546, 171.140 58.560 C 169.998 57.425, 169.217 57.591, 166.251 59.605 C 162.669 62.035, 158 62.825, 158 61 C 158 60.450, 157.100 60, 156 60 C 152.339 60, 153.936 58.276, 158.750 57.032 C 161.362 56.357, 164.175 55.559, 165 55.259 C 166.749 54.622, 168.290 54.406, 172.750 54.171 C 175.258 54.039, 176 53.551, 176 52.031 C 176 50.918, 175.457 50.230, 174.750 50.448 C 174.063 50.660, 172.150 51.127, 170.500 51.487 C 168.141 52.002, 167.757 51.880, 168.703 50.918 C 169.548 50.058, 169.608 49.135, 168.903 47.819 C 167.624 45.429, 166 46.392, 166 49.540 C 166 51.294, 165.306 52.136, 163.481 52.594 C 159.857 53.504, 155.680 51.430, 152.058 46.922 C 149.610 43.876, 148.211 43, 145.797 43 C 144.022 43, 141.283 41.928, 139.411 40.500 C 137.608 39.125, 135.709 38, 135.189 38 C 134.670 38, 133.687 37.328, 133.006 36.507 C 132.107 35.425, 130.698 35.185, 127.883 35.635 C 125.192 36.065, 124 35.889, 124 35.060 C 124 34.304, 123.234 34.108, 121.914 34.527 C 120.016 35.130, 119.936 34.988, 121.030 32.945 L 122.231 30.700 115.365 31.438 C 95.249 33.600, 87.682 34.009, 56.412 34.629 L 22.324 35.305 21.624 160.781 C 21.239 229.793, 21.205 286.537, 21.548 286.878 C 21.891 287.220, 22.993 286.488, 23.996 285.250 C 26.409 282.275, 27.009 282.382, 31 286.500 C 34.482 290.092, 38.629 291.130, 39.581 288.648 C 39.889 287.846, 41.049 287.478, 42.433 287.742 C 43.716 287.988, 45.070 287.696, 45.442 287.094 C 46.662 285.121, 49 285.913, 49 288.300 C 49 291.332, 50.790 293, 54.045 293 C 56.997 293, 59.399 295.237, 60.486 299 C 60.883 300.375, 61.770 302.400, 62.457 303.500 C 63.144 304.600, 64.020 307.606, 64.404 310.180 L 65.101 314.859 71.301 316.808 C 74.842 317.921, 79.029 318.556, 81.066 318.290 C 86.203 317.619, 93.330 319.697, 92.582 321.647 C 92.179 322.696, 92.934 323.526, 94.998 324.305 C 96.997 325.060, 98 326.127, 98 327.501 C 98 329.089, 99.060 329.876, 102.604 330.923 C 107.362 332.328, 108.942 331.675, 108.985 328.289 C 108.993 327.622, 110.715 326.615, 112.812 326.051 C 115.992 325.194, 117.271 325.354, 120.524 327.012 C 122.668 328.105, 124.987 329, 125.677 329 C 126.366 329, 128.467 330.349, 130.345 331.998 C 133.392 334.673, 133.899 334.826, 135.065 333.421 C 136.004 332.290, 137.309 332.023, 139.703 332.472 C 142.715 333.037, 143.490 332.633, 147.768 328.267 C 150.864 325.106, 154.005 322.991, 156.854 322.147 C 159.249 321.438, 161.836 320.616, 162.604 320.322 C 163.430 320.005, 164 320.422, 164 321.344 C 164 330.082, 169.245 339, 174.384 339 C 175.779 339, 177.501 339.717, 178.211 340.594 C 178.920 341.471, 180.443 343.158, 181.594 344.344 C 182.746 345.530, 183.997 347.757, 184.374 349.293 C 184.751 350.829, 185.745 352.348, 186.582 352.670 C 187.419 352.991, 191.916 352.418, 196.575 351.396 L 205.047 349.539 206.040 345.519 C 208.612 335.114, 208.407 335.477, 211.521 335.821 C 215.849 336.300, 216.837 334.230, 215.823 326.814 C 215.353 323.379, 214.526 320.126, 213.984 319.584 C 212.251 317.851, 212.927 315.354, 215.439 314.210 C 217.771 313.147, 219.981 308.077, 219.994 303.758 C 219.997 302.799, 221.350 300.813, 223 299.342 C 224.650 297.872, 226 296.069, 226 295.335 C 226 294.601, 226.675 294, 227.500 294 C 228.325 294, 229 294.473, 229 295.052 C 229 295.631, 230.238 296.538, 231.750 297.069 C 235.330 298.326, 237.300 302.271, 235.331 304.241 C 233.592 305.980, 234.664 309.211, 236.841 308.792 C 237.716 308.624, 239.122 307.139, 239.966 305.493 C 240.810 303.847, 241.620 302.305, 241.767 302.067 C 241.913 301.828, 242.566 302.166, 243.217 302.817 C 245.088 304.688, 247.338 304.298, 246.488 302.250 C 245.659 300.252, 245.637 299.364, 246.345 296.338 C 246.664 294.976, 246.138 293.530, 244.926 292.433 C 242.459 290.201, 242.478 289, 244.981 289 C 247.193 289, 248.581 285.329, 247.676 281.869 C 247.050 279.474, 248.864 276, 250.741 276 C 251.433 276, 252 274.900, 252 273.555 C 252 271.347, 252.461 271.080, 256.750 270.805 C 261.383 270.508, 261.508 270.414, 261.819 267 C 262.060 264.361, 263.023 262.823, 265.731 260.750 C 270.296 257.254, 271.465 257.295, 273 261 C 274.349 264.257, 276.437 264.778, 279.527 262.628 C 280.612 261.873, 282.962 260.937, 284.750 260.548 C 286.543 260.158, 288 259.210, 288 258.433 C 288 257.659, 289.800 255.889, 292 254.500 C 294.200 253.111, 296 251.589, 296 251.118 C 296 248.816, 304.613 239.739, 308.134 238.330 C 310.595 237.345, 312 236.136, 312 235.002 C 312 234.023, 312.856 232.164, 313.902 230.872 C 315.635 228.732, 315.673 228.269, 314.331 225.674 C 312.999 223.098, 313.023 222.703, 314.585 221.562 C 315.717 220.734, 316.112 219.538, 315.733 218.088 C 315.352 216.630, 315.672 215.679, 316.674 215.295 C 317.737 214.887, 318.025 213.875, 317.634 211.921 C 317.170 209.602, 317.387 209.189, 318.913 209.483 C 320.413 209.772, 320.865 209, 321.375 205.279 C 321.719 202.772, 322 198.970, 322 196.829 C 322 194.343, 322.526 192.735, 323.457 192.378 C 324.479 191.986, 324.739 190.943, 324.326 188.882 C 323.937 186.935, 324.267 185.363, 325.306 184.214 C 326.168 183.262, 327.110 181.179, 327.399 179.586 C 327.688 177.992, 329.071 175.491, 330.474 174.028 C 332.586 171.822, 332.909 170.778, 332.354 167.933 C 331.986 166.045, 331.300 164.244, 330.829 163.932 C 330.357 163.620, 330.706 161.892, 331.604 160.092 C 333.180 156.933, 333.143 156.637, 330.538 151.488 C 329.054 148.555, 327.989 145.108, 328.170 143.828 C 328.450 141.853, 329.081 141.500, 332.330 141.500 C 339.343 141.500, 339 145.056, 339 72.309 C 339 36.389, 338.663 7.026, 338.250 7.058 C 337.837 7.089, 335.025 8.242, 332 9.619 M 175.694 43.639 C 174.761 44.573, 175.888 46, 177.559 46 C 178.352 46, 179 45.325, 179 44.500 C 179 42.994, 176.889 42.444, 175.694 43.639" stroke="none" fill="#040404" fill-rule="evenodd"/></svg>