<svg xmlns="http://www.w3.org/2000/svg" width="360" height="360" viewBox="0 0 360 360" version="1.1"><path d="M 36.505 82.127 L 27.510 87.029 27.172 86.015 L 26.833 85 25.538 85 L 24.243 85 23.064 87.847 L 21.884 90.693 11.621 95.597 L 1.357 100.500 0.678 127.412 L -0 154.325 -0 219.162 L 0 284 146.500 284 L 293 284 293 282.674 L 293 281.349 295.250 279.291 L 297.500 277.234 300.700 275.617 L 303.901 274 306.629 274 L 309.358 274 312.643 275.188 L 315.928 276.376 317.793 274.688 L 319.657 273 320.945 273 L 322.232 273 327.116 271.265 L 332 269.531 332 267.347 L 332 265.163 335.267 263.144 L 338.534 261.125 340.893 258.614 L 343.251 256.104 346.173 255.462 L 349.095 254.820 350.288 252.910 L 351.481 251 352.991 250.985 L 354.500 250.969 355.844 250.117 L 357.189 249.265 355.605 246.204 L 354.022 243.142 352.011 242.503 L 350 241.865 350 240.463 L 350 239.060 347.043 236.874 L 344.087 234.688 343.095 231.844 L 342.104 229 339.659 229 L 337.214 229 336.710 227.687 L 336.206 226.373 336.719 223.688 L 337.232 221.004 335.638 218.570 L 334.044 216.137 331.272 215.819 L 328.500 215.500 328.645 208.229 L 328.790 200.957 330.009 199.490 L 331.227 198.022 332.009 198.505 L 332.790 198.989 333.588 197.244 L 334.386 195.500 334.490 194 L 334.593 192.500 335.797 192.750 L 337 193 337.003 191.750 L 337.006 190.500 334.753 186.167 L 332.500 181.834 336.750 178.031 L 341 174.228 341 172.682 L 341 171.135 342.868 170.542 L 344.736 169.949 346.458 168.046 L 348.180 166.143 349.143 161.861 L 350.105 157.579 351.235 156.216 L 352.366 154.854 356.176 152.910 L 359.986 150.967 360.250 217.233 L 360.515 283.500 360.556 209 L 360.598 134.500 360.257 142.250 L 359.916 150 358.864 150 L 357.813 150 357.329 148.150 L 356.845 146.300 354.173 146.222 L 351.500 146.145 349 145.029 L 346.500 143.914 344.138 142.559 L 341.776 141.204 339.398 137.018 L 337.020 132.832 336.898 126.166 L 336.776 119.500 335.290 117.813 L 333.804 116.126 334.313 115.302 L 334.823 114.478 333.518 112.693 L 332.213 110.909 328.356 110.300 L 324.500 109.691 323.765 108.595 L 323.031 107.500 323.015 105.702 L 323 103.905 320.354 101.452 L 317.708 99 316.104 98.989 L 314.500 98.979 180.750 99 L 47 99.021 47 88.011 L 47 77 46.250 77.112 L 45.500 77.224 36.505 82.127 M 0.475 210 L 0.475 284.500 0.750 247.250 L 1.024 210 0.750 172.750 L 0.475 135.500 0.475 210" stroke="none" fill="#040404" fill-rule="evenodd"/></svg>