<svg xmlns="http://www.w3.org/2000/svg" width="360" height="360" viewBox="0 0 360 360" version="1.1"><path d="M 152.500 9.550 L 125.500 10.828 109.107 11.527 L 92.715 12.225 93.297 46.363 L 93.878 80.500 95.037 114 L 96.196 147.500 95.086 182 L 93.976 216.500 93.333 231.844 L 92.689 247.188 89.774 246.605 L 86.859 246.022 84.106 247.445 L 81.354 248.868 80.069 250.417 L 78.783 251.967 80.891 255.540 L 83 259.114 83 262.357 L 83 265.600 81.981 266.619 L 80.962 267.638 82.727 272.402 L 84.493 277.166 81.746 279.166 L 79 281.167 79 282.548 L 79 283.930 77 285 L 75 286.070 75 287.388 L 75 288.707 85.250 285.251 L 95.500 281.795 101.500 281.454 L 107.500 281.113 113 280.245 L 118.500 279.377 122.730 276.688 L 126.960 274 128.730 273.982 L 130.500 273.963 138.953 270.482 L 147.407 267 149.638 267 L 151.870 267 154.685 265.881 L 157.500 264.763 166.834 263.525 L 176.168 262.287 179.334 262.923 L 182.500 263.559 183.487 265.779 L 184.474 268 185.320 268 L 186.167 268 185.745 266.750 L 185.322 265.500 186.770 262.023 L 188.217 258.545 191.108 254.342 L 194 250.140 194 244.536 L 194 238.933 197.500 236.867 L 201 234.802 201.162 233.151 L 201.325 231.500 201.412 228 L 201.500 224.500 203.337 224.653 L 205.174 224.807 204.497 218.973 L 203.820 213.140 205.114 209.561 L 206.408 205.982 205.314 202.241 L 204.220 198.500 202.860 195 L 201.500 191.500 199.750 189.883 L 198 188.265 198 186.692 L 198 185.118 197.094 184.558 L 196.188 183.998 196.711 181.999 L 197.233 180 198.033 180 L 198.833 180 199.212 181.136 L 199.591 182.272 201.545 181.137 L 203.500 180.001 206.250 179.025 L 209 178.050 209 175.931 L 209 173.813 207 173.290 L 205 172.767 205 171.892 L 205 171.017 206.861 169.855 L 208.721 168.693 208.288 161.654 L 207.855 154.614 206.178 153.326 L 204.500 152.038 205.774 151.195 L 207.047 150.353 205.095 148.586 L 203.143 146.820 201.247 147.422 L 199.351 148.023 197.925 151.202 L 196.500 154.381 195.033 154.846 L 193.566 155.311 195.383 152.538 L 197.201 149.764 196.531 144.399 L 195.860 139.035 196.555 137.911 L 197.250 136.786 197.894 137.829 L 198.539 138.872 206.007 139.686 L 213.475 140.500 213.845 142.500 L 214.215 144.500 215.221 145.739 L 216.227 146.978 217.113 146.430 L 218 145.882 218 143.141 L 218 140.400 219.225 139.175 L 220.451 137.949 220.539 132.536 L 220.627 127.123 218.313 126.543 L 216 125.962 216 125.052 L 216 124.143 214.280 122.423 L 212.561 120.704 214.662 119.308 L 216.763 117.913 214.882 111.868 L 213 105.822 213 103.771 L 213 101.720 214.750 100.362 L 216.500 99.005 213.700 96.507 L 210.899 94.009 209.834 90.954 L 208.769 87.898 209.178 87.489 L 209.587 87.079 211.724 87.638 L 213.862 88.197 213.370 89.478 L 212.878 90.759 215.523 92.839 L 218.168 94.920 217.595 95.847 L 217.022 96.773 218.557 98.047 L 220.091 99.320 219.577 100.660 L 219.063 102 220.145 102 L 221.227 102 220.780 105.044 L 220.333 108.088 221.167 108.603 L 222 109.118 222 111.551 L 222 113.985 224.914 116.581 L 227.828 119.177 228.433 121.588 L 229.038 124 231.454 124 L 233.870 124 236.547 125.018 L 239.224 126.036 238.706 128.017 L 238.188 129.998 239.094 130.558 L 240 131.118 240 129.059 L 240 127 241.500 127 L 243 127 243 125.500 L 243 124 244 124 L 245 124 245 125.566 L 245 127.131 243.995 129.009 L 242.990 130.887 242.824 135.114 L 242.659 139.341 240.829 141.171 L 239 143 239 146.941 L 239 150.882 240 151.500 L 241 152.118 241 150.559 L 241 149 241.940 149 L 242.879 149 243.190 145.327 L 243.500 141.655 244.713 141.256 L 245.926 140.858 246.599 143.679 L 247.272 146.500 248.570 149 L 249.868 151.500 250.483 154.368 L 251.097 157.236 251.799 156.546 L 252.500 155.856 254.013 151.178 L 255.526 146.500 257.263 146.794 L 259 147.088 259 144.735 L 259 142.382 257.532 140.441 L 256.064 138.500 256.032 136.083 L 256 133.667 256.676 134.342 L 257.352 135.018 259.629 132.878 L 261.907 130.739 259.817 126.619 L 257.726 122.500 254.969 118.500 L 252.212 114.500 249.060 112.667 L 245.909 110.833 246.583 115.917 L 247.258 121 246.379 120.985 L 245.500 120.969 244.195 120.142 L 242.890 119.314 243.507 114.407 L 244.124 109.500 238.312 106.429 L 232.500 103.359 231.096 100.429 L 229.691 97.500 229.013 97 L 228.335 96.500 227.166 90.577 L 225.997 84.653 227.332 82.577 L 228.666 80.500 228.583 68.835 L 228.500 57.170 227.807 56.476 L 227.115 55.781 221.557 56.739 L 216 57.696 216 32.848 L 216 8 197.750 8.136 L 179.500 8.272 152.500 9.550 M 271 146.504 L 271 148.007 269 151.739 L 267 155.470 267 157.235 L 267 159 266.117 159 L 265.233 159 264.655 156.789 L 264.077 154.579 261.724 156.789 L 259.371 159 257.210 159 L 255.049 159 251.774 162.603 L 248.500 166.206 248.431 167.353 L 248.362 168.500 247.593 172.750 L 246.824 177 245.912 177 L 245 177 245 180.378 L 245 183.755 243.434 185.055 L 241.868 186.354 240.265 189.427 L 238.663 192.500 237.745 196.500 L 236.828 200.500 236.874 203.250 L 236.919 206 234.901 206 L 232.882 206 233.500 207 L 234.118 208 233.059 208 L 232 208 232 209.417 L 232 210.833 232.867 211.167 L 233.734 211.500 234.365 217 L 234.996 222.500 232.488 224.305 L 229.979 226.109 229.392 224.578 L 228.804 223.048 225.462 225.597 L 222.119 228.147 222.924 230.323 L 223.730 232.500 227.115 232.180 L 230.500 231.859 231.719 230.281 L 232.937 228.703 234.469 229.974 L 236 231.245 236.015 230.372 L 236.031 229.500 236.962 230.972 L 237.892 232.444 238.537 230.472 L 239.181 228.500 240.055 226.500 L 240.929 224.500 241.215 221.509 L 241.500 218.517 243.434 218.150 L 245.368 217.783 246.605 219.474 L 247.841 221.165 248.939 219.114 L 250.036 217.063 252.687 218.071 L 255.337 219.079 256.516 220.691 L 257.695 222.303 258.342 221.256 L 258.989 220.210 257.494 219.636 L 256 219.063 256 217.152 L 256 215.242 258.617 209.524 L 261.235 203.807 260.116 201.654 L 258.997 199.500 258.348 190 L 257.698 180.500 257.876 173.523 L 258.054 166.546 258.808 165.792 L 259.562 165.038 262.781 164.394 L 266 163.750 266.022 166.125 L 266.044 168.500 267.900 172.586 L 269.755 176.672 267.802 177.892 L 265.848 179.112 266.954 180.444 L 268.060 181.777 266.725 188.270 L 265.390 194.762 267.126 195.847 L 268.863 196.931 268.869 200.216 L 268.875 203.500 268.932 208.183 L 268.989 212.867 271.118 216.475 L 273.246 220.083 272.765 225.094 L 272.283 230.105 273.724 229.553 L 275.164 229 277.082 229 L 279 229 279 227.042 L 279 225.084 283.384 222.515 L 287.769 219.946 287.634 218.265 L 287.500 216.585 290.337 215.196 L 293.174 213.807 292.523 208.154 L 291.873 202.500 291.582 191.500 L 291.291 180.500 289.075 175.373 L 286.859 170.246 287.930 162.550 L 289 154.855 289 152.629 L 289 150.402 285.679 149.201 L 282.358 148 280.301 148 L 278.245 148 277 146.500 L 275.755 145 273.378 145 L 271 145 271 146.504 M 226.515 151.048 L 227.165 153.096 226.006 154.493 L 224.846 155.890 225.173 158.195 L 225.500 160.500 227.997 160.852 L 230.495 161.204 228.609 159.121 L 226.724 157.038 227.805 155.735 L 228.886 154.432 228.520 152.466 L 228.153 150.500 228.077 149.750 L 228 149 226.933 149 L 225.865 149 226.515 151.048 M 221.150 150.950 L 221.550 152.150 222.275 152.075 L 223 152 223.075 151.275 L 223.150 150.550 221.950 150.150 L 220.750 149.750 221.150 150.950 M 245.583 156.866 L 244.800 158.133 245.400 158.733 L 246 159.333 246.604 158.729 L 247.208 158.125 246.787 156.862 L 246.366 155.599 245.583 156.866 M 231.872 162.346 L 233.122 163.851 231.561 169.107 L 230 174.363 230 177.059 L 230 179.755 231.402 180.919 L 232.805 182.083 234.688 179.291 L 236.572 176.500 237.907 173.840 L 239.241 171.180 238.348 167.404 L 237.455 163.628 234.039 162.234 L 230.623 160.840 231.872 162.346 M 216.939 188.250 L 215.682 191.500 214.405 199.500 L 213.128 207.500 215.132 209.055 L 217.136 210.611 216.473 213.252 L 215.810 215.894 216.995 219.486 L 218.181 223.077 220.340 222.414 L 222.500 221.752 222.830 221.463 L 223.160 221.174 221.412 218.506 L 219.664 215.839 221.389 212.919 L 223.113 210 221.937 210 L 220.761 210 221.472 199.575 L 222.182 189.150 221.524 187.075 L 220.865 185 219.530 185 L 218.196 185 216.939 188.250 M 211 218.935 L 211 220.870 212.037 223.598 L 213.074 226.326 212.037 227.363 L 211 228.400 211.032 230.950 L 211.064 233.500 212.500 231.603 L 213.936 229.705 213.340 228.741 L 212.744 227.776 213.954 227.028 L 215.165 226.280 214.469 221.640 L 213.773 217 212.386 217 L 211 217 211 218.935 M 158 326.014 L 158 330.855 155.750 332.677 L 153.500 334.500 150.750 340.014 L 148 345.529 148 347.564 L 148 349.600 149.200 350.800 L 150.400 352 154.257 352 L 158.114 352 162.557 350.881 L 167 349.763 166.990 348.131 L 166.981 346.500 163.474 342.089 L 159.968 337.678 160.610 335.589 L 161.253 333.500 162.627 330.800 L 164 328.099 164 325.769 L 164 323.438 161 322.306 L 158 321.174 158 326.014" stroke="none" fill="#040404" fill-rule="evenodd"/></svg>