<svg xmlns="http://www.w3.org/2000/svg" width="360" height="360" viewBox="0 0 360 360" version="1.1"><path d="M 60.660 122 L 60.042 135.500 58.952 193.347 L 57.861 251.195 58.235 251.569 L 58.609 251.943 146.913 252.414 L 235.216 252.885 236.858 254.304 L 238.500 255.722 243.500 258.530 L 248.500 261.338 250.260 262.834 L 252.021 264.329 254.488 262.011 L 256.956 259.693 266.378 259.318 L 275.800 258.943 277.310 260.453 L 278.820 261.962 283.660 263.586 L 288.500 265.209 290.079 266.604 L 291.657 268 292.579 268.022 L 293.500 268.043 295 271.195 L 296.500 274.346 298.750 275.141 L 301 275.936 301 273.312 L 301 270.689 298.600 267.542 L 296.199 264.394 298.066 260.447 L 299.932 256.500 299.966 253.309 L 300 250.118 301 249.500 L 302 248.882 302 246.012 L 302 243.143 300.277 241.419 L 298.553 239.696 298.471 236.098 L 298.389 232.500 297.565 230.690 L 296.740 228.881 298.870 228.324 L 301 227.767 300.874 197.133 L 300.749 166.500 300.124 152 L 299.500 137.500 295.721 135.654 L 291.943 133.808 289.971 129.944 L 288 126.080 288 124.612 L 288 123.145 290.286 121.323 L 292.572 119.500 294.286 117.027 L 296 114.555 296 111.527 L 296 108.500 178.639 108.500 L 61.279 108.500 60.660 122" stroke="none" fill="#040404" fill-rule="evenodd"/></svg>