<svg xmlns="http://www.w3.org/2000/svg" width="360" height="360" viewBox="0 0 360 360" version="1.1"><path d="M 70.638 40.500 L 70.063 42 67.568 42 L 65.074 42 60 44 L 54.926 46 52.932 46 L 50.937 46 50.397 47.408 L 49.856 48.817 47.178 49.788 L 44.500 50.760 41.643 50.877 L 38.786 50.995 28.838 54.149 L 18.889 57.303 18.320 60.151 L 17.750 63 16.830 63 L 15.909 63 13.554 65.355 L 11.200 67.709 9.505 68.360 L 7.810 69.010 7.288 71.005 L 6.767 73 5.900 73 L 5.034 73 2.535 77.931 L 0.036 82.862 4.585 86.866 L 9.135 90.871 12.067 91.515 L 15 92.159 15 92.847 L 15 93.534 19.650 98.850 L 24.300 104.165 29.400 103.920 L 34.500 103.675 36.175 104.416 L 37.851 105.157 38.507 109.041 L 39.163 112.925 42.169 117.074 L 45.174 121.223 46.690 126.361 L 48.205 131.500 54.633 141.331 L 61.060 151.161 64.280 154.369 L 67.500 157.577 70 158.657 L 72.500 159.737 77.500 163.717 L 82.500 167.698 84.888 174.484 L 87.277 181.269 93.017 183.746 L 98.757 186.222 100.882 190.004 L 103.007 193.785 105.571 194.428 L 108.135 195.072 107.473 200.370 L 106.811 205.668 108.477 207.334 L 110.143 209 111.571 209 L 113 209 113.152 210.750 L 113.305 212.500 113.499 213.500 L 113.693 214.500 114.454 216.250 L 115.214 218 117.576 218 L 119.937 218 119.359 219.508 L 118.780 221.015 120.314 223.356 L 121.848 225.697 126.174 226.928 L 130.500 228.159 135.364 232.595 L 140.227 237.031 139.746 239.548 L 139.265 242.066 142.157 247.639 L 145.048 253.213 145.434 258.356 L 145.820 263.500 146.523 265.265 L 147.225 267.030 146.678 269.125 L 146.130 271.220 148.519 273.610 L 150.909 276 153.205 276.033 L 155.500 276.066 159.318 280.531 L 163.136 284.996 162.516 286.948 L 161.897 288.900 163.474 291.950 L 165.051 295 165.909 295 L 166.767 295 167.279 297.681 L 167.792 300.363 166.723 302.708 L 165.654 305.054 166.827 306.227 L 168 307.400 168 311.129 L 168 314.857 169.644 316.501 L 171.288 318.145 173.695 317.540 L 176.103 316.936 178.686 318.968 L 181.270 321 182.135 321 L 183 321 183 318.384 L 183 315.768 184.732 310.891 L 186.465 306.013 188.091 306.529 L 189.718 307.045 190.714 305.773 L 191.711 304.500 192.261 302.255 L 192.810 300.010 190.365 300.623 L 187.919 301.237 185.960 299.464 L 184 297.690 184 296.912 L 184 296.135 185.864 295.543 L 187.727 294.952 188.322 289.931 L 188.916 284.910 187.961 282.705 L 187.005 280.500 185.788 278.798 L 184.571 277.096 185.279 276.387 L 185.988 275.679 187.876 277.388 L 189.765 279.097 192.632 278.470 L 195.500 277.842 193 279.899 L 190.500 281.956 191.769 281.978 L 193.038 282 192.415 284.482 L 191.792 286.964 194.318 289.966 L 196.844 292.968 197.302 291.734 L 197.760 290.500 199.544 292.200 L 201.328 293.900 200.078 295.406 L 198.828 296.912 199.473 297.956 L 200.118 299 201.059 299 L 202 299 202 296.800 L 202 294.600 202.903 295.550 L 203.806 296.500 204.153 298.406 L 204.500 300.313 210.250 295.056 L 216 289.799 216 288.400 L 216 287 212.393 287 L 208.786 287 209.323 285.601 L 209.860 284.202 205.565 283.121 L 201.270 282.039 198.885 280.053 L 196.500 278.067 198.500 278.057 L 200.500 278.048 204.250 278.919 L 208 279.789 208 279.381 L 208 278.973 206.788 277.032 L 205.576 275.091 206.264 274.403 L 206.952 273.715 208.349 274.875 L 209.747 276.035 211.195 275.479 L 212.644 274.923 213.770 277.394 L 214.896 279.865 218.356 279.683 L 221.816 279.500 220.766 278.226 L 219.715 276.952 220.173 276.493 L 220.632 276.035 223.769 277.219 L 226.906 278.403 227.203 280.785 L 227.500 283.167 231.262 279.833 L 235.023 276.500 234.262 275.404 L 233.500 274.309 230.528 272.904 L 227.556 271.500 228.028 270.500 L 228.500 269.500 229.799 269.647 L 231.098 269.794 230.718 268.654 L 230.338 267.513 233.806 264.757 L 237.275 262 238.638 262 L 240 262 240 262.763 L 240 263.526 237.832 264.513 L 235.664 265.500 234.582 267.313 L 233.500 269.125 236 271.184 L 238.500 273.242 238.206 274.621 L 237.912 276 238.496 276 L 239.080 276 243 274 L 246.920 272 249.710 271.968 L 252.500 271.936 250.500 270.406 L 248.500 268.876 250.441 267.438 L 252.382 266 253.441 265.988 L 254.500 265.975 256.715 262.554 L 258.931 259.133 257.589 258.817 L 256.246 258.500 257.119 256.174 L 257.992 253.849 259.567 255.424 L 261.143 257 261.884 257 L 262.625 257 270.409 249.828 L 278.192 242.656 280.462 239.078 L 282.733 235.500 290.553 231.146 L 298.374 226.791 299.470 228.290 L 300.567 229.790 302.475 228.395 L 304.382 227 306.105 227 L 307.827 227 310.913 222.803 L 314 218.606 314 212.427 L 314 206.249 316.586 200.401 L 319.173 194.552 328.571 183.339 L 337.969 172.125 341.291 169.591 L 344.613 167.057 351.929 163.731 L 359.244 160.404 324.312 124.452 L 289.380 88.500 283.217 81.902 L 277.054 75.303 265.277 74.659 L 253.500 74.015 225.500 73.933 L 197.500 73.851 194.652 73.290 L 191.803 72.729 192.418 67.615 L 193.032 62.500 187.766 55.794 L 182.500 49.088 181.154 49.044 L 179.809 49 176.827 51.123 L 173.846 53.246 172.750 52.150 L 171.654 51.054 172.800 48.539 L 173.946 46.024 173.435 44.692 L 172.924 43.360 136.212 42.140 L 99.500 40.919 93.302 39.787 L 87.104 38.654 80.496 39.641 L 73.889 40.629 73.385 39.814 L 72.882 39 72.048 39 L 71.214 39 70.638 40.500 M 189.015 295.691 L 189.031 296.500 190 298 L 190.969 299.500 190.985 297.809 L 191 296.118 190 295.500 L 189 294.882 189.015 295.691 M 195.948 304.348 L 196.871 305.271 195.436 306.707 L 194 308.143 194 309.883 L 194 311.623 191.961 313.811 L 189.922 316 190.551 316 L 191.180 316 195.040 313.250 L 198.900 310.500 200.101 308.284 L 201.301 306.068 200.084 304.601 L 198.867 303.134 196.945 303.279 L 195.024 303.424 195.948 304.348 M 186.074 315.411 L 184.903 316.822 185.901 317.439 L 186.900 318.056 187.985 316.028 L 189.070 314 188.158 314 L 187.245 314 186.074 315.411" stroke="none" fill="#040404" fill-rule="evenodd"/></svg>