<svg xmlns="http://www.w3.org/2000/svg" width="645" height="387" viewBox="0 0 645 387" version="1.1"><path d="M 493 99.571 L 461.500 106.954 415.500 116.556 L 369.500 126.158 328.500 134.634 L 287.500 143.109 259 148.994 L 230.500 154.879 222.500 156.623 L 214.500 158.367 213.843 159.342 L 213.187 160.316 211.515 168.923 L 209.843 177.530 207.172 182.977 L 204.500 188.424 194.991 190.504 L 185.483 192.584 184.373 193.269 L 183.263 193.955 182.602 199.728 L 181.940 205.500 172.563 210.357 L 163.185 215.214 159.889 219.805 L 156.592 224.395 153.786 227.591 L 150.979 230.788 146.240 229.567 L 141.500 228.347 139.500 234.355 L 137.500 240.363 129.363 243.075 L 121.226 245.787 115.113 248.530 L 109 251.273 109 252.110 L 109 252.946 111.250 257.585 L 113.500 262.224 109.831 265.398 L 106.162 268.572 101.247 279.070 L 96.333 289.567 112.417 289.253 L 128.500 288.938 138.289 287.969 L 148.078 287 156.413 287 L 164.748 287 169.966 279.052 L 175.184 271.104 186.342 267.395 L 197.500 263.686 203.420 258.343 L 209.341 253 219.082 253 L 228.824 253 236.596 251.513 L 244.369 250.026 249.434 250.592 L 254.500 251.157 263.381 249.579 L 272.262 248 272.983 248 L 273.703 248 280.294 253.818 L 286.884 259.636 292.259 261.463 L 297.633 263.289 308.929 261.643 L 320.225 259.996 328.783 257.385 L 337.340 254.775 344.420 255.466 L 351.500 256.157 388.262 279.079 L 425.024 302 435.677 302.925 L 446.329 303.850 452.566 298.718 L 458.803 293.585 463.350 293.865 L 467.898 294.145 467.434 290.822 L 466.970 287.500 466.050 279.500 L 465.131 271.500 473.400 260.500 L 481.669 249.500 498.585 237.180 L 515.500 224.860 520 225.553 L 524.500 226.246 526.996 226.373 L 529.492 226.500 530.283 219.270 L 531.074 212.041 533.889 205.770 L 536.703 199.500 534.143 194.250 L 531.583 189 525.292 189 L 519 189 519 188.027 L 519 187.054 521.139 182.651 L 523.278 178.248 530.509 174.528 L 537.741 170.808 538.967 166.654 L 540.193 162.500 543.686 153.123 L 547.179 143.745 537.955 117.873 L 528.730 92 526.615 92.094 L 524.500 92.188 493 99.571" stroke="none" fill="#05050c" fill-rule="evenodd"/></svg>