<svg xmlns="http://www.w3.org/2000/svg" width="360" height="360" viewBox="0 0 360 360" version="1.1"><path d="M 120 105.500 L 120 160 83.500 160 L 47 160 47 161.345 L 47 162.690 48.829 164.345 L 50.657 166 51.644 166 L 52.630 166 54.309 169.523 L 55.989 173.045 58.245 173.960 L 60.500 174.874 67.325 181.937 L 74.150 189 75.385 189 L 76.620 189 79.810 192.119 L 83 195.237 83.007 196.869 L 83.013 198.500 85 201.500 L 86.987 204.500 86.993 207.203 L 87 209.906 88.191 212.703 L 89.382 215.500 91.365 217.750 L 93.349 220 94.567 220 L 95.786 220 96.381 221.551 L 96.976 223.102 101.238 225.082 L 105.500 227.061 107.489 228.281 L 109.477 229.500 111.873 231.250 L 114.270 233 115.734 233 L 117.198 233 119.955 230.048 L 122.713 227.095 123.967 222.618 L 125.221 218.140 127.149 216.070 L 129.078 214 130.839 214 L 132.600 214 133.550 213.075 L 134.500 212.149 143.500 213.177 L 152.500 214.204 154.691 216.495 L 156.882 218.785 156.274 219.393 L 155.667 220 156.933 220 L 158.198 220 163.099 225.005 L 168 230.010 168.001 231.255 L 168.002 232.500 171.484 239.500 L 174.966 246.500 174.983 247.748 L 175 248.995 178.611 252.748 L 182.222 256.500 183.526 259.500 L 184.829 262.500 188.528 265.765 L 192.227 269.031 191.748 271.539 L 191.268 274.048 192.134 274.583 L 193 275.118 193 277.924 L 193 280.730 194.862 283.115 L 196.725 285.500 197.452 288 L 198.179 290.500 199.333 293.250 L 200.488 296 202.109 296 L 203.730 296 206.273 298 L 208.815 300 210.773 300 L 212.730 300 215.115 301.859 L 217.500 303.718 222.568 304.195 L 227.637 304.672 230.962 307.086 L 234.287 309.500 234.727 308.250 L 235.167 307 237.083 307 L 239 307 239 304.386 L 239 301.772 236.432 291.317 L 233.864 280.862 234.924 275.917 L 235.985 270.972 237.437 267.497 L 238.889 264.022 242.102 259.351 L 245.316 254.681 245.408 250.341 L 245.500 246.001 246.643 246 L 247.786 246 248.378 247.543 L 248.970 249.086 251.235 247.908 L 253.500 246.729 253.907 246.374 L 254.313 246.020 251.657 243.558 L 249 241.095 249 240.048 L 249 239 249.941 239 L 250.882 239 251.500 240 L 252.118 241 253.118 241 L 254.118 241 253.500 240 L 252.882 239 253.858 239 L 254.833 239 255.211 240.134 L 255.589 241.268 257.176 239.682 L 258.762 238.095 259.372 238.706 L 259.983 239.316 258.869 240.658 L 257.755 242 258.292 242 L 258.829 242 266.909 238.914 L 274.989 235.829 276.995 233.280 L 279 230.730 279 228.806 L 279 226.882 279.964 227.477 L 280.927 228.073 282.889 226.111 L 284.852 224.148 284.309 222.074 L 283.767 220 282.972 220 L 282.177 220 282.426 218.304 L 282.675 216.608 284.087 216.158 L 285.500 215.707 286.300 214.353 L 287.099 213 288.159 213 L 289.219 213 288.832 216.316 L 288.445 219.631 293.156 218.886 L 297.867 218.142 299.868 217.071 L 301.869 216 303.903 216 L 305.937 216 305.412 214.631 L 304.887 213.262 306.840 209.785 L 308.793 206.307 308.786 200.404 L 308.779 194.500 310.390 190.782 L 312 187.064 312 183.755 L 312 180.445 310.535 178.354 L 309.071 176.263 309.637 175.696 L 310.204 175.129 308.602 172.842 L 307 170.555 307 168.417 L 307 166.279 304.500 162.595 L 302 158.911 302 140.456 L 302 122 298 122 L 294 122 294 121.108 L 294 120.217 291.250 119.556 L 288.500 118.896 284.217 115.862 L 279.933 112.828 277.217 113.770 L 274.500 114.712 272.500 113.981 L 270.500 113.251 269 113.993 L 267.500 114.735 264.074 114.805 L 260.649 114.876 259.763 116.459 L 258.877 118.042 258.008 117.505 L 257.138 116.967 256.517 117.973 L 255.896 118.978 253.198 117.262 L 250.500 115.546 249.875 114.666 L 249.250 113.786 248.532 114.948 L 247.815 116.109 245.645 114.687 L 243.476 113.265 242.238 114.591 L 241 115.916 241 117.041 L 241 118.167 239.750 117.726 L 238.500 117.285 238.650 115.574 L 238.801 113.863 237.400 114.431 L 236 115 234.500 115.607 L 233 116.214 233 114.440 L 233 112.667 232.342 113.325 L 231.684 113.983 230.323 112.853 L 228.962 111.724 227.018 113.483 L 225.074 115.243 223.554 114.659 L 222.034 114.076 222.687 112.374 L 223.340 110.672 222.161 111.400 L 220.983 112.128 220.242 110.314 L 219.500 108.500 217.117 108.238 L 214.733 107.976 213.583 108.931 L 212.433 109.886 210.966 108.958 L 209.500 108.031 207 108.010 L 204.500 107.989 200.816 106.966 L 197.132 105.942 196.816 103.721 L 196.500 101.500 192 101.500 L 187.500 101.500 184.250 99.062 L 181 96.624 181 73.812 L 181 51 150.500 51 L 120 51 120 105.500" stroke="none" fill="#040404" fill-rule="evenodd"/></svg>