<svg xmlns="http://www.w3.org/2000/svg" width="360" height="360" viewBox="0 0 360 360" version="1.1"><path d="M 140.408 36.750 L 75.316 37.014 74.639 67.757 L 73.962 98.500 72.477 153 L 70.993 207.500 69.508 257.500 L 68.023 307.500 67.371 321.868 L 66.719 336.236 185.331 335.847 L 303.942 335.458 304.927 334.473 L 305.911 333.489 304.512 277.994 L 303.112 222.500 302.013 166 L 300.913 109.500 300.375 103.231 L 299.837 96.962 254.168 97.022 L 208.500 97.081 207.949 66.790 L 207.397 36.500 207.199 36.250 L 207 36 206.250 36.243 L 205.500 36.485 140.408 36.750" stroke="none" fill="#040404" fill-rule="evenodd"/></svg>