<svg xmlns="http://www.w3.org/2000/svg" width="360" height="360" viewBox="0 0 360 360" version="1.1"><path d="M 82.536 9.885 L 81.889 11.924 82.945 13.896 L 84 15.869 84 18.585 L 84 21.301 81.327 26.764 L 78.654 32.228 79.833 33.864 L 81.012 35.500 82.691 38.750 L 84.370 42 82.685 45.534 L 81 49.068 81 53.408 L 81 57.749 79.458 62.120 L 77.916 66.491 79.627 70.995 L 81.338 75.500 84.669 82.472 L 88 89.444 87.996 94.472 L 87.993 99.500 85.915 102.908 L 83.837 106.317 84.570 109.908 L 85.304 113.500 85.709 116.500 L 86.115 119.500 86.060 121.852 L 86.005 124.205 83.497 127.352 L 80.988 130.500 79.068 132.500 L 77.149 134.500 76.372 138.500 L 75.595 142.500 75.845 143.394 L 76.096 144.287 74.369 149.776 L 72.643 155.266 74.170 156.383 L 75.697 157.500 75.776 165.197 L 75.856 172.893 77.399 176.197 L 78.943 179.500 79.162 183.038 L 79.380 186.576 78.572 187.883 L 77.764 189.190 79.882 192.055 L 82 194.919 81.996 196.210 L 81.993 197.500 79.080 205.297 L 76.167 213.094 75.259 214.297 L 74.350 215.500 74.201 220.149 L 74.052 224.798 75.437 225.948 L 76.822 227.097 77.571 225.886 L 78.319 224.675 78.945 221.587 L 79.571 218.500 83.264 218.191 L 86.957 217.882 87.594 221.861 L 88.230 225.841 90.496 226.410 L 92.761 226.978 93.195 228.739 L 93.629 230.500 92.384 276.500 L 91.139 322.500 90.064 333.097 L 88.989 343.694 89.619 346.847 L 90.250 350 94.375 349.984 L 98.500 349.968 137.751 351.150 L 177.002 352.332 177.461 351.872 L 177.921 351.413 177.344 349.206 L 176.767 347 175.007 347 L 173.246 347 171.204 342.250 L 169.162 337.500 168.501 334.866 L 167.841 332.231 169.876 328.243 L 171.911 324.254 171.706 321.383 L 171.500 318.513 174.971 316.774 L 178.443 315.035 179.256 312.837 L 180.069 310.638 179.035 307.671 L 178.001 304.704 179.099 303.380 L 180.198 302.057 181.026 298.383 L 181.855 294.709 180.476 292.604 L 179.098 290.500 180.025 286.500 L 180.952 282.500 180.976 278.309 L 181 274.118 182.102 273.437 L 183.204 272.756 184.625 269.355 L 186.046 265.954 184.954 263.913 L 183.861 261.872 185.053 260.436 L 186.245 259 185.122 259 L 184 259 184 256.667 L 184 254.333 184.750 253.593 L 185.500 252.853 186.520 246.176 L 187.541 239.500 186.593 236.860 L 185.644 234.220 187.409 229.598 L 189.174 224.977 191.087 223.953 L 193 222.930 193 220.087 L 193 217.245 194.500 216 L 196 214.755 196 211.282 L 196 207.809 197.611 205.082 L 199.222 202.355 201.927 201.334 L 204.633 200.312 206.816 195.667 L 209 191.022 209 187.479 L 209 183.936 210.362 180.718 L 211.724 177.500 213.862 175.595 L 216 173.690 216 172.045 L 216 170.400 217.242 169.158 L 218.483 167.917 217.492 167.208 L 216.500 166.500 216.506 164.500 L 216.512 162.500 219.366 158 L 222.220 153.500 223.764 151.051 L 225.307 148.602 224.153 148.218 L 223 147.833 223 146.117 L 223 144.400 224.051 143.349 L 225.103 142.297 223.435 138.129 L 221.767 133.960 222.810 129.851 L 223.853 125.743 222.954 123.380 L 222.056 121.017 225.003 116.651 L 227.950 112.284 233.947 111.011 L 239.944 109.739 242.769 110.304 L 245.594 110.869 246.679 110.184 L 247.764 109.500 249.633 105.500 L 251.502 101.500 256.840 100.476 L 262.178 99.452 265.053 95.476 L 267.929 91.500 268.715 90.733 L 269.500 89.966 272.334 87.844 L 275.169 85.722 273.899 84.937 L 272.629 84.152 273.972 82.534 L 275.315 80.915 274.158 79.758 L 273 78.600 273 77.300 L 273 76 274.878 76 L 276.755 76 278.063 74.424 L 279.371 72.848 278.246 72.152 L 277.121 71.457 277.218 68.031 L 277.316 64.605 276.158 64.219 L 275 63.833 275 62.519 L 275 61.204 272.512 56.852 L 270.024 52.500 270.012 49.538 L 270 46.575 272.545 44.538 L 275.090 42.500 275.491 39.306 L 275.891 36.112 277.563 32.806 L 279.236 29.500 281.622 26.311 L 284.008 23.123 283.004 22.502 L 282 21.882 282 18.641 L 282 15.400 280.906 14.306 L 279.812 13.212 280.168 11.364 L 280.524 9.515 283.512 8.837 L 286.500 8.159 251.500 8.830 L 216.500 9.500 203 9.302 L 189.500 9.105 136.342 8.476 L 83.184 7.846 82.536 9.885" stroke="none" fill="#040404" fill-rule="evenodd"/></svg>