<svg xmlns="http://www.w3.org/2000/svg" width="540" height="360" viewBox="0 0 540 360" version="1.1"><path d="M 336.362 71.500 L 335.786 73 336.337 74.435 L 336.888 75.871 335.694 76.359 L 334.500 76.848 335.735 77.723 L 336.969 78.599 335.235 81.049 L 333.500 83.500 332.389 86.689 L 331.278 89.878 332.381 90.981 L 333.485 92.085 329.292 95.957 L 325.098 99.829 323.600 103.414 L 322.102 107 320.666 107 L 319.230 107 317.506 109.632 L 315.781 112.264 314.952 110.922 L 314.122 109.580 312.232 111.290 L 310.341 113.001 307.990 118.021 L 305.638 123.042 302.522 120.021 L 299.405 117 298.245 117 L 297.084 117 294.432 121.525 L 291.780 126.051 292.325 128.136 L 292.871 130.221 291.087 130.687 L 289.304 131.154 287.152 136.346 L 285 141.539 285 142.621 L 285 143.703 282.239 146.602 L 279.478 149.500 274.618 147.959 L 269.758 146.417 267.850 142.700 L 265.943 138.983 262.722 137.612 L 259.500 136.241 258.319 137.718 L 257.137 139.194 257.614 140.437 L 258.091 141.680 256.555 142.954 L 255.019 144.229 255.561 146.385 L 256.102 148.541 252.459 153.217 L 248.816 157.893 249.536 159.059 L 250.257 160.224 246.071 163.862 L 241.884 167.500 241.600 170 L 241.315 172.500 239.624 176.453 L 237.932 180.407 231.893 186.261 L 225.855 192.115 223.537 197.117 L 221.220 202.119 219.475 203.395 L 217.729 204.671 220.867 206.905 L 224.004 209.139 222.752 210.375 L 221.500 211.612 219.750 212.275 L 218 212.937 218 214.937 L 218 216.937 219.664 216.299 L 221.328 215.660 220.605 216.830 L 219.882 218 218.835 218 L 217.788 218 213.801 221.158 L 209.813 224.316 208.922 222.908 L 208.031 221.500 208.015 220.750 L 208 220 206.445 220 L 204.890 220 199.096 223.935 L 193.302 227.869 190.516 226.424 L 187.730 224.979 186.320 226.150 L 184.909 227.320 185.477 228.800 L 186.045 230.280 183.772 231.890 L 181.500 233.500 179.500 233.637 L 177.500 233.773 172.760 234.756 L 168.021 235.738 166.546 236.962 L 165.070 238.186 162.196 236.140 L 159.322 234.093 158.011 232.513 L 156.700 230.933 154.387 233.106 L 152.075 235.278 150.168 236.389 L 148.261 237.500 145.058 239.313 L 141.854 241.127 138.893 240.477 L 135.932 239.826 134.351 237.413 L 132.770 235 130.572 235 L 128.374 235 125.687 232.195 L 123 229.391 123 226.752 L 123 224.113 120.750 222.453 L 118.500 220.793 119.750 220.313 L 121 219.833 121 217.917 L 121 216 120.211 216 L 119.422 216 107.622 226.455 L 95.821 236.910 90.541 238.445 L 85.262 239.980 83.881 241.652 L 82.500 243.325 78.250 245.209 L 74 247.094 74 249.988 L 74 252.882 72.750 253.663 L 71.500 254.444 70.200 254.641 L 68.901 254.838 67.381 256.099 L 65.861 257.360 66.300 259.038 L 66.738 260.716 65.767 262.452 L 64.796 264.187 61.454 265.584 L 58.112 266.980 56.593 266.397 L 55.074 265.814 52.037 270.603 L 49 275.392 49 274.801 L 49 274.210 42.750 276.154 L 36.500 278.099 34.260 279.566 L 32.020 281.033 29.189 280.818 L 26.359 280.602 22.722 282.328 L 19.085 284.054 18.483 285.027 L 17.882 286 29.691 286.133 L 41.500 286.266 81.802 286.453 L 122.104 286.640 122.611 285.820 L 123.118 285 130.559 285 L 138 285 138 285.858 L 138 286.715 144.250 287.376 L 150.500 288.037 163.500 288.556 L 176.500 289.074 217.500 289.994 L 258.500 290.914 366.750 290.296 L 475 289.677 475 289.039 L 475 288.400 473.800 287.200 L 472.600 286 473.390 286 L 474.179 286 475.930 288.162 L 477.681 290.324 478.346 283.968 L 479.010 277.612 479.917 277.051 L 480.825 276.490 479.040 268.995 L 477.254 261.500 473.377 261.768 L 469.500 262.037 465.500 260.648 L 461.500 259.259 459.169 259.185 L 456.838 259.112 457.390 263.056 L 457.941 267 456.971 267 L 456 267 456 264 L 456 261 455 261 L 454 261 454 261.755 L 454 262.511 450.502 263.606 L 447.004 264.700 448.124 263.350 L 449.245 262 448.154 262 L 447.063 262 447.626 260.533 L 448.189 259.066 445.344 256.482 L 442.500 253.899 440 252.937 L 437.500 251.976 437.346 246.918 L 437.193 241.859 436.586 241.253 L 435.979 240.646 434.570 242.573 L 433.161 244.500 430.636 242.128 L 428.111 239.755 425.704 240.359 L 423.297 240.964 422.657 240.324 L 422.017 239.684 423.141 238.330 L 424.265 236.975 425.633 238.110 L 427 239.245 427 238.448 L 427 237.651 429.637 240.076 L 432.274 242.500 432.721 241.250 L 433.167 240 436.016 240 L 438.865 240 439.497 241.991 L 440.129 243.982 439.458 245.068 L 438.787 246.153 440.852 248.077 L 442.916 250 443.517 250 L 444.118 250 443.405 248.845 L 442.691 247.691 443.845 248.405 L 445 249.118 445 250.194 L 445 251.271 447.250 253.450 L 449.500 255.629 450.567 257.498 L 451.634 259.366 453.794 257.206 L 455.955 255.045 457.298 255.561 L 458.641 256.076 459.727 252.539 L 460.812 249.002 459.987 248.492 L 459.161 247.982 457.688 249.455 L 456.215 250.928 455.701 248.963 L 455.187 246.997 456.093 247.558 L 457 248.118 458.065 247.460 L 459.130 246.801 457.508 245.009 L 455.886 243.217 453.921 243.731 L 451.956 244.245 452.999 241.502 L 454.042 238.759 451.491 239.246 L 448.940 239.734 445.333 236.867 L 441.725 234 441.023 234 L 440.321 234 439.118 231.359 L 437.914 228.717 441.707 232.013 L 445.500 235.308 446.231 236.531 L 446.962 237.755 450.225 237.088 L 453.488 236.420 453.817 234.710 L 454.147 233 452.073 233 L 450 233 450 231.941 L 450 230.882 450.931 231.457 L 451.862 232.033 452.532 230.949 L 453.201 229.865 451.101 229.316 L 449 228.767 449 227.977 L 449 227.187 451 227.710 L 453 228.233 453 227.688 L 453 227.143 451.429 225.571 L 449.857 224 450.872 224 L 451.887 224 453.363 226.108 L 454.840 228.217 455.920 227.549 L 457 226.882 457 228.286 L 457 229.690 458.898 231.407 L 460.795 233.125 461.489 228.082 L 462.182 223.039 460.517 221.374 L 458.852 219.709 460.033 218.980 L 461.214 218.250 460.176 217.609 L 459.138 216.967 458.568 217.889 L 457.999 218.811 455.507 217.656 L 453.016 216.500 453.008 215.643 L 453 214.786 454.500 215.362 L 456 215.937 457.500 215.362 L 459 214.786 459 213.893 L 459 213 455.969 213 L 452.937 213 452.362 211.500 L 451.786 210 448.932 210 L 446.078 210 444.039 207.811 L 442 205.623 442 203.916 L 442 202.208 438.398 199.354 L 434.797 196.500 432.898 194.750 L 431 193 431.022 191.750 L 431.044 190.500 432.772 192.557 L 434.500 194.615 437.213 195.769 L 439.927 196.924 442.286 200.712 L 444.646 204.500 445.316 206.313 L 445.986 208.127 446.993 207.504 L 448 206.882 448.100 204.691 L 448.199 202.500 448.878 204.930 L 449.557 207.360 452.744 209.140 L 455.931 210.921 456.497 210.004 L 457.064 209.087 458.532 209.651 L 460 210.214 460 209.107 L 460 208 458.500 208 L 457 208 457 206.500 L 457 205 457.933 205 L 458.866 205 458.683 199.658 L 458.500 194.315 460.121 194.740 L 461.742 195.166 462.453 192.333 L 463.164 189.500 459.870 186.750 L 456.576 184 455.038 183.999 L 453.500 183.998 450.594 181.499 L 447.689 179 445.594 178.985 L 443.500 178.969 445 177.967 L 446.500 176.964 443.937 174.691 L 441.374 172.418 440.532 170.459 L 439.690 168.500 439.269 170.266 L 438.847 172.033 436.998 169.766 L 435.149 167.500 434.477 169.224 L 433.806 170.949 432.331 169.474 L 430.857 168 428.620 168 L 426.382 168 424.441 166.532 L 422.500 165.064 420.781 165.032 L 419.063 165 419.653 163.463 L 420.243 161.926 418.466 159.963 L 416.690 158 415.345 158 L 414 158 414 156.941 L 414 155.882 414.886 156.430 L 415.773 156.978 416.256 155.131 L 416.738 153.284 415.870 151.732 L 415.001 150.180 410.006 152.590 L 405.010 155 401.255 154.985 L 397.500 154.969 398.947 154.054 L 400.393 153.139 398.399 151.319 L 396.406 149.500 397.766 150.425 L 399.126 151.349 398.495 148.836 L 397.864 146.322 399.901 142.411 L 401.939 138.500 402.327 136 L 402.716 133.500 404.918 133.823 L 407.119 134.146 408.571 132.941 L 410.022 131.737 408.261 130.366 L 406.500 128.995 408.250 129.605 L 410 130.214 410 129.215 L 410 128.217 412.500 127.589 L 415 126.962 415.069 123.731 L 415.138 120.500 415.500 117.760 L 415.862 115.019 412.016 111.016 L 408.170 107.013 405.835 106.662 L 403.500 106.310 403.210 104.382 L 402.920 102.453 400.210 101.292 L 397.500 100.132 394.139 99.636 L 390.777 99.139 388.489 96.990 L 386.200 94.840 386.388 93.560 L 386.576 92.281 388.288 90.569 L 390 88.857 390 87.429 L 390 86 388.955 86 L 387.909 86 385.205 83.296 L 382.501 80.592 381.001 80.346 L 379.500 80.099 376.753 79.433 L 374.006 78.768 372.025 83.134 L 370.044 87.500 370.022 89.059 L 370 90.618 368.750 92.318 L 367.500 94.018 353 82.033 L 338.500 70.049 337.719 70.024 L 336.937 70 336.362 71.500 M 519.362 180.724 L 518.803 182.862 517.651 182.484 L 516.500 182.107 514.291 184.912 L 512.083 187.717 514.437 188.789 L 516.791 189.862 518.905 184.774 L 521.020 179.686 520.470 179.137 L 519.921 178.587 519.362 180.724 M 502.250 180.732 L 498 181.115 498 183.057 L 498 185 496.500 185.125 L 495 185.250 493.764 185.375 L 492.527 185.500 492.190 187.250 L 491.853 189 493.310 189 L 494.767 189 495.281 190.966 L 495.795 192.932 494.671 192.716 L 493.547 192.500 493.197 194.808 L 492.846 197.117 491.380 195.901 L 489.915 194.685 488.708 195.967 L 487.500 197.250 488.655 197.677 L 489.809 198.103 487.405 200.698 L 485 203.292 485 204.646 L 485 206 483.883 206 L 482.767 206 483.290 208.001 L 483.813 210.003 482.905 209.441 L 481.996 208.880 480.914 211.690 L 479.832 214.500 478.423 221.803 L 477.013 229.107 475.890 231.205 L 474.767 233.303 476.634 232.649 L 478.500 231.995 476.655 233.427 L 474.810 234.859 475.489 238.180 L 476.168 241.500 477.329 244.252 L 478.490 247.003 479.495 246.670 L 480.500 246.336 481.157 241.037 L 481.813 235.738 483.034 231.377 L 484.255 227.017 486.431 224.669 L 488.607 222.321 488.220 221.161 L 487.833 220 488.976 220 L 490.118 220 489.565 219.105 L 489.011 218.210 490.508 217.635 L 492.004 217.061 496.002 210.876 L 500 204.690 500.052 207.595 L 500.104 210.500 502.366 204.415 L 504.629 198.330 506.768 195.326 L 508.907 192.322 510.364 191.113 L 511.822 189.903 512.470 190.951 L 513.118 192 514.059 192 L 515 192 515 191.117 L 515 190.233 512.802 189.658 L 510.604 189.084 509.278 190.184 L 507.952 191.285 507.462 190.795 L 506.972 190.305 508.986 187.745 L 511 185.185 511 183.953 L 511 182.720 512.750 181.392 L 514.500 180.064 510.500 180.207 L 506.500 180.349 502.250 180.732 M 515.612 185.469 L 513.954 188 514.942 188 L 515.930 188 517.046 185.914 L 518.162 183.829 517.716 183.383 L 517.271 182.938 515.612 185.469 M 498.109 214.847 L 496 217.809 496 218.404 L 496 219 496.974 219 L 497.949 219 499.548 215.907 L 501.147 212.814 500.683 212.349 L 500.218 211.885 498.109 214.847 M 432 220.762 L 432 221.968 434.971 225.234 L 437.941 228.500 437.971 227.821 L 438 227.143 436.709 225.821 L 435.418 224.500 433.709 222.027 L 432 219.555 432 220.762 M 494.235 225.655 L 491.971 230.304 492.364 230.697 L 492.757 231.090 495.379 226.617 L 498 222.144 498 221.572 L 498 221 497.250 221.003 L 496.500 221.006 494.235 225.655 M 403.500 233 L 405.500 233.859 407 233.914 L 408.500 233.969 407 233 L 405.500 232.031 403.500 232.086 L 401.500 232.141 403.500 233 M 414 234.500 L 412.755 236 413.878 236 L 415 236 415 234.893 L 415 233.786 416.552 234.382 L 418.104 234.977 417.493 233.989 L 416.882 233 416.063 233 L 415.245 233 414 234.500 M 482 246.500 L 480.755 248 478.678 248 L 476.600 248 477.693 249.093 L 478.786 250.186 481.393 248.478 L 484 246.770 484 245.885 L 484 245 483.622 245 L 483.245 245 482 246.500 M 481.422 281.250 L 482.078 283.500 482.670 286.750 L 483.262 290 484.131 290 L 485 290 485 288.122 L 485 286.244 483.487 282.622 L 481.973 279 481.370 279 L 480.767 279 481.422 281.250 M 479 289 L 479 290 480.500 290 L 482 290 482 289 L 482 288 480.500 288 L 479 288 479 289" stroke="none" fill="#040404" fill-rule="evenodd"/></svg>