<svg xmlns="http://www.w3.org/2000/svg" width="495" height="360" viewBox="0 0 495 360" version="1.1"><path d="M 142.722 39.045 L 143.293 41.228 141.146 40.546 L 139 39.865 139 41.433 L 139 43 140.500 43 L 142 43 142 43.917 L 142 44.833 140.750 45.279 L 139.500 45.726 141.750 48.177 L 144 50.629 144 52.207 L 144 53.786 145.525 54.371 L 147.049 54.956 146.384 57.728 L 145.718 60.500 148.173 58.250 L 150.629 56 151.564 56.032 L 152.500 56.064 154.398 57.501 L 156.297 58.937 155.195 60.265 L 154.093 61.593 154.382 64.307 L 154.672 67.022 156.790 69.276 L 158.908 71.531 158.056 72.909 L 157.205 74.287 155.120 73.742 L 153.035 73.196 154.017 75.032 L 155 76.869 155 79.934 L 155 83 154.071 83 L 153.143 83 151.571 81.429 L 150 79.857 150 80.929 L 150 82 149 82 L 148 82 148 79.492 L 148 76.983 146.025 78.216 L 144.050 79.450 144.978 80.378 L 145.906 81.306 144.950 83.093 L 143.995 84.879 145.041 85.526 L 146.088 86.172 148.699 84.462 L 151.309 82.751 150.622 84.544 L 149.934 86.336 155.045 91.135 L 160.156 95.933 159.551 97.839 L 158.946 99.744 155.223 99.622 L 151.500 99.500 151.192 103.210 L 150.884 106.920 153.113 108.710 L 155.341 110.500 157.671 112.896 L 160 115.292 160 114.681 L 160 114.070 156.894 110.532 L 153.788 106.995 154.552 105.247 L 155.315 103.500 155.114 102.250 L 154.912 101 155.391 101 L 155.870 101 158.348 101.942 L 160.825 102.884 160.308 106.741 L 159.791 110.598 162.484 113.799 L 165.178 117 167.541 117 L 169.903 117 168.564 120.187 L 167.224 123.373 165.212 124.117 L 163.201 124.861 162.044 128.368 L 160.886 131.875 158.839 134.477 L 156.792 137.079 157.463 140.654 L 158.134 144.229 155.925 146.580 L 153.717 148.930 156.852 150.715 L 159.987 152.500 159.994 153.738 L 160 154.976 157.750 154.738 L 155.500 154.500 155.847 157.500 L 156.194 160.500 157.183 161.706 L 158.172 162.912 157.500 164 L 156.828 165.088 158.414 167.509 L 160 169.930 160 172.016 L 160 174.102 156.417 175.599 L 152.835 177.096 153.966 178.459 L 155.097 179.822 154.042 180.474 L 152.986 181.126 149.993 178.995 L 147 176.864 147 178.472 L 147 180.080 145.018 183.964 L 143.036 187.849 139.568 191.635 L 136.099 195.422 135.443 193.711 L 134.786 192 133.510 192 L 132.233 192 131.528 189.750 L 130.822 187.500 130.049 190 L 129.275 192.500 128.531 190.750 L 127.786 189 126.893 189 L 126 189 126 192.941 L 126 196.882 125.107 197.434 L 124.213 197.986 123.582 195.471 L 122.951 192.956 120.975 194.013 L 119 195.070 119 194.691 L 119 194.311 121.499 191.406 L 123.998 188.500 123.999 187.646 L 124 186.793 120.465 189.896 L 116.930 193 115.215 192.978 L 113.500 192.956 116 190.965 L 118.500 188.974 116.750 189.594 L 115 190.214 115 189.107 L 115 188 117.378 188 L 119.755 188 120.919 186.597 L 122.083 185.194 120.792 184.676 L 119.500 184.158 121.275 184.079 L 123.050 184 123.659 180.957 L 124.267 177.913 127.134 176.431 L 130 174.949 130 171.974 L 130 169 130.981 169 L 131.962 169 132.627 171.651 L 133.293 174.302 132.128 177.522 L 130.964 180.742 131.482 182.371 L 132 184 132.551 185.714 L 133.102 187.429 134.388 184.964 L 135.674 182.500 134.715 181.251 L 133.757 180.002 135.033 176.751 L 136.309 173.500 137.846 172.250 L 139.382 171 140.598 171 L 141.813 171 141.290 173 L 140.767 175 139.883 175 L 139 175 139 176.481 L 139 177.962 141.500 178.589 L 144 179.217 144 180.308 L 144 181.400 145.093 180.307 L 146.185 179.215 145.045 177.084 L 143.904 174.953 145.363 173.494 L 146.822 172.035 146.324 170.130 L 145.826 168.226 146.869 167.581 L 147.913 166.936 147.335 165.431 L 146.757 163.926 148.422 162.086 L 150.086 160.247 148.543 159.655 L 147 159.063 147 156.531 L 147 154 145 156 L 143 158 140.750 157.968 L 138.500 157.936 140.250 156.608 L 142 155.280 142 154.640 L 142 154 140.617 154 L 139.233 154 138.711 152.001 L 138.188 150.002 139.051 149.468 L 139.915 148.935 141.572 152.139 L 143.229 155.343 144.225 153.562 L 145.221 151.782 143.993 149.486 L 142.764 147.191 143.398 146.164 L 144.033 145.138 143.016 144.510 L 142 143.882 142 142.250 L 142 140.618 143.348 142.462 L 144.697 144.306 145.848 143.594 L 147 142.882 147 141.422 L 147 139.962 149.524 140.595 L 152.047 141.229 151.431 137.364 L 150.814 133.500 150.325 130.485 L 149.836 127.470 147.345 126.295 L 144.854 125.119 145.838 126.310 L 146.821 127.500 147.522 131.250 L 148.223 135 147.111 135 L 146 135 146 133.453 L 146 131.907 143.531 133.703 L 141.063 135.500 141.031 136.342 L 141 137.185 139 139.727 L 137 142.270 137 143.980 L 137 145.690 135.250 147.234 L 133.500 148.777 130.250 149.468 L 127 150.159 127 151.579 L 127 153 126 153 L 125 153 122.750 155.237 L 120.500 157.473 119.232 159.885 L 117.964 162.298 118.399 162.732 L 118.833 163.167 116.917 165.083 L 115 167 115 168.383 L 115 169.767 117.213 170.345 L 119.426 170.924 120.963 169.673 L 122.500 168.421 126.284 166.710 L 130.068 165 130.708 165 L 131.349 165 129 167.500 L 126.651 170 125.276 170 L 123.901 170 121.200 171.378 L 118.500 172.756 115.250 172.265 L 112 171.773 112 170.347 L 112 168.920 114.026 165.210 L 116.053 161.500 118.483 157.381 L 120.913 153.261 124.509 149.559 L 128.104 145.856 129.185 143.178 L 130.265 140.500 130.101 137.250 L 129.937 134 130.885 134 L 131.833 134 132.338 135.250 L 132.842 136.500 132.921 134.191 L 133 131.882 134 132.500 L 135 133.118 135 135.591 L 135 138.064 133.551 141.532 L 132.102 145 132.801 144.974 L 133.500 144.948 135.250 141.147 L 137 137.345 137 136.632 L 137 135.919 139.188 132.960 L 141.376 130 142.594 130 L 143.813 130 143.290 128 L 142.767 126 141.883 126 L 141 126 141 124.725 L 141 123.449 138.044 117.475 L 135.087 111.500 136.528 110.401 L 137.969 109.302 137.318 108.651 L 136.667 108 134.956 108 L 133.245 108 131.984 109.519 L 130.724 111.038 132.362 112.847 L 134 114.657 134 116.129 L 134 117.600 132.800 118.800 L 131.600 120 130.781 120 L 129.962 120 130.587 117.509 L 131.212 115.019 129.549 114.380 L 127.885 113.742 128.411 112.371 L 128.937 111 126.469 111 L 124 111 124 113.559 L 124 116.118 123 115.500 L 122 114.882 122 113.115 L 122 111.349 119.686 109.174 L 117.371 107 116.063 107 L 114.755 107 116.089 105.250 L 117.424 103.500 114.455 106.204 L 111.487 108.908 106.089 108.417 L 100.690 107.927 99.688 107.307 L 98.687 106.688 94.139 106.297 L 89.592 105.907 88.546 105.090 L 87.500 104.272 80 103.607 L 72.500 102.941 68.764 101.936 L 65.028 100.930 62.487 98.575 L 59.945 96.220 56.723 95.012 L 53.500 93.803 49.500 91.735 L 45.500 89.667 41.320 86.833 L 37.140 84 35.653 84 L 34.167 84 33.801 82.902 L 33.435 81.804 30.967 82.153 L 28.500 82.503 30.644 84.383 L 32.788 86.263 31.362 89.676 L 29.936 93.088 30.554 94.088 L 31.172 95.088 29.545 97.572 L 27.917 100.056 28.621 101.196 L 29.325 102.335 30.115 111.691 L 30.904 121.047 32.416 122.559 L 33.929 124.071 34.318 123.786 L 34.708 123.500 37.354 126.644 L 40 129.789 40 131.066 L 40 132.343 41.314 133.921 L 42.628 135.500 43.799 140.500 L 44.970 145.500 45.511 156.500 L 46.051 167.500 47.026 167.833 L 48 168.167 48 169.655 L 48 171.143 49.406 172.549 L 50.812 173.954 51.989 180.937 L 53.167 187.920 52.834 194.868 L 52.500 201.816 53.250 201.349 L 54 200.882 54 197.548 L 54 194.214 55.250 193.738 L 56.500 193.263 58.662 194.067 L 60.824 194.870 61.445 196.827 L 62.066 198.783 66.510 199.449 L 70.953 200.116 71.464 200.942 L 71.975 201.768 68.878 203.051 L 65.781 204.333 64.170 204.333 L 62.559 204.333 60.591 206.167 L 58.623 208 59.645 208 L 60.667 208 60.667 209.500 L 60.667 211 59.533 211 L 58.400 211 57.200 209.800 L 56 208.600 56 206.741 L 56 204.882 55.104 205.436 L 54.208 205.989 55.080 209.745 L 55.952 213.500 55.976 216.750 L 56 220 57.941 220 L 59.882 220 60.566 221.107 L 61.250 222.214 61.875 221.261 L 62.500 220.308 65.105 219.671 L 67.710 219.035 70.879 222.517 L 74.049 226 72.493 226 L 70.937 226 70.362 224.500 L 69.786 223 68.450 223 L 67.113 223 65.585 225.182 L 64.057 227.364 65.214 228.758 L 66.371 230.152 65.238 230.853 L 64.106 231.553 65.037 233.026 L 65.969 234.500 65.985 236.390 L 66 238.280 64.250 239.638 L 62.500 240.995 65.365 243.549 L 68.231 246.103 67.622 246.712 L 67.012 247.321 65.138 245.625 L 63.264 243.929 62.674 246.882 L 62.083 249.834 60.042 249.301 L 58 248.767 58 244.942 L 58 241.118 57.079 240.549 L 56.159 239.980 55.783 247.240 L 55.408 254.500 54.534 256.500 L 53.661 258.500 55.846 256.581 L 58.032 254.661 59.484 256.581 L 60.936 258.500 60.968 259.183 L 61 259.865 62.907 260.470 L 64.814 261.076 69.157 260.034 L 73.500 258.993 82 259.747 L 90.500 260.500 90.806 264 L 91.112 267.500 92.747 268.750 L 94.382 270 97.287 270 L 100.191 270 102.895 268.403 L 105.599 266.806 109.050 268.398 L 112.500 269.991 116.930 273.574 L 121.360 277.156 123.251 282.328 L 125.142 287.500 126.572 296 L 128.002 304.500 127.448 308.043 L 126.894 311.585 131.197 314.578 L 135.500 317.570 140.500 319.224 L 145.500 320.877 148.364 320.814 L 151.227 320.750 152.032 322.052 L 152.837 323.355 158.595 322.066 L 164.353 320.778 168.578 318.967 L 172.802 317.156 176.706 314.328 L 180.610 311.500 192.555 311.707 L 204.500 311.913 207.500 312.224 L 210.500 312.534 214.205 313.952 L 217.910 315.369 219.076 318.185 L 220.243 321 221.167 321 L 222.091 321 224.677 318.414 L 227.262 315.829 231.471 316.888 L 235.679 317.948 239.551 315.974 L 243.423 314 244.961 313.978 L 246.500 313.956 249 312 L 251.500 310.044 253.095 310.022 L 254.690 310 256.579 312.088 L 258.469 314.175 267.465 313.463 L 276.461 312.751 277.564 311.244 L 278.666 309.736 283.583 307.807 L 288.500 305.878 293.799 304.439 L 299.098 303 302.744 303 L 306.391 303 309.242 300.268 L 312.093 297.537 318.296 297.247 L 324.500 296.958 331.671 296.624 L 338.841 296.291 342.671 293.896 L 346.500 291.500 406.500 291 L 466.500 290.500 466.181 288.500 L 465.862 286.500 464.181 285.135 L 462.500 283.770 463.750 283.302 L 465 282.833 465 281.117 L 465 279.400 466.042 278.358 L 467.085 277.315 465.542 276.035 L 464 274.755 464 272.338 L 464 269.920 462.059 266.116 L 460.118 262.311 459.615 212.906 L 459.111 163.500 459.056 103.750 L 459 44 425.250 43.987 L 391.500 43.975 329.500 42.987 L 267.500 41.999 232.500 41.006 L 197.500 40.013 178.500 39.020 L 159.500 38.027 150.826 37.444 L 142.151 36.862 142.722 39.045 M 128.250 63.635 L 125 66.943 125 67.491 L 125 68.038 127.500 67.411 L 130 66.783 130 68.392 L 130 70 132.107 70 L 134.214 70 133.494 68.250 L 132.773 66.500 132.294 64.500 L 131.815 62.500 133.347 65.247 L 134.878 67.994 135.512 69.019 L 136.145 70.043 137.992 67.771 L 139.840 65.500 138.323 63.814 L 136.806 62.128 134.153 61.227 L 131.500 60.327 128.250 63.635 M 117.859 69.250 L 117.718 70.500 117.880 73.423 L 118.043 76.346 119.144 77.673 L 120.245 79 121.539 79 L 122.833 79 123.167 79.868 L 123.500 80.736 126 81.416 L 128.500 82.095 126.750 80.998 L 125 79.901 125 77.950 L 125 76 126.040 76 L 127.081 76 123.380 72 L 119.679 68 118.839 68 L 118 68 117.859 69.250 M 127.260 72.045 L 128.400 73.871 129.200 73.376 L 130 72.882 130 72.058 L 130 71.233 128.060 70.726 L 126.120 70.218 127.260 72.045 M 141.618 70.808 L 140.892 71.984 141.807 73.620 L 142.723 75.257 143.236 74.378 L 143.750 73.500 143.047 71.566 L 142.345 69.633 141.618 70.808 M 136.333 73.500 L 136.333 75.056 137.242 74.753 L 138.150 74.450 138.150 73.500 L 138.150 72.550 137.242 72.247 L 136.333 71.944 136.333 73.500 M 146 74.500 L 146 76 147.622 76 L 149.245 76 148 74.500 L 146.755 73 146.378 73 L 146 73 146 74.500 M 130.473 77.124 L 129.763 80.354 131.482 81.610 L 133.200 82.867 132.579 83.873 L 131.957 84.879 133.978 84.727 L 136 84.574 136 83.228 L 136 81.882 135 82.500 L 134 83.118 133.829 80.809 L 133.658 78.500 133.557 76.576 L 133.457 74.652 132.319 74.273 L 131.182 73.894 130.473 77.124 M 136 77.559 L 136 79.118 137 78.500 L 138 77.882 138 76.941 L 138 76 137 76 L 136 76 136 77.559 M 145.742 88.125 L 144 89.099 144 89.983 L 144 90.867 140.863 95.914 L 137.725 100.961 140.613 103.850 L 143.500 106.738 144.997 107.201 L 146.494 107.665 146.617 112.222 L 146.740 116.779 148.620 119.317 L 150.500 121.854 152.497 121.677 L 154.494 121.500 154.848 124 L 155.202 126.500 156.303 127.184 L 157.404 127.868 158.731 125.974 L 160.058 124.079 159.373 121.350 L 158.688 118.622 155.377 115.311 L 152.067 112 151.474 112 L 150.882 112 151.535 113.057 L 152.188 114.114 151.575 116.557 L 150.962 119 150.041 119 L 149.121 119 148.417 111.857 L 147.713 104.713 145.879 102.879 L 144.045 101.045 142.624 101.591 L 141.202 102.136 140.612 101.182 L 140.022 100.227 142.011 99.707 L 144 99.187 144 97.535 L 144 95.882 144.931 96.457 L 145.862 97.033 146.520 95.968 L 147.178 94.903 148.576 96.063 L 149.975 97.224 151.637 96.586 L 153.300 95.948 150.955 93.452 L 148.611 90.957 148.381 89.387 L 148.150 87.817 147.817 87.483 L 147.483 87.150 145.742 88.125 M 138.237 114.240 L 139.500 116.935 139.866 115.869 L 140.232 114.804 138.603 113.174 L 136.973 111.545 138.237 114.240 M 146.852 145.781 L 146.704 147.500 146.601 149.500 L 146.498 151.500 148.207 153.250 L 149.916 155 150.517 155 L 151.118 155 150.375 153.798 L 149.633 152.597 149.850 148.918 L 150.067 145.240 148.533 144.651 L 147 144.063 146.852 145.781 M 150.536 162.573 L 149.722 164.500 149.432 166 L 149.142 167.500 148.562 171.250 L 147.981 175 148.515 175 L 149.050 175 150.009 172.477 L 150.968 169.954 153.234 170.331 L 155.500 170.708 154.250 170.281 L 153 169.853 152.930 167.177 L 152.859 164.500 152.105 162.573 L 151.350 160.646 150.536 162.573 M 126.048 179.910 L 125.026 181.821 126.470 184.604 L 127.914 187.388 128.534 185.772 L 129.154 184.156 128.031 182.057 L 126.908 179.959 127.513 178.979 L 128.118 178 127.594 178 L 127.070 178 126.048 179.910 M 137.500 185 L 138.118 186 139.059 186 L 140 186 140 185 L 140 184 138.441 184 L 136.882 184 137.500 185 M 136.094 188.387 L 134.903 189.822 135.959 190.474 L 137.014 191.127 137.631 189.520 L 138.247 187.914 137.766 187.433 L 137.285 186.952 136.094 188.387 M 56.714 227.750 L 56.310 228.500 57.051 234 L 57.793 239.500 57.661 233.250 L 57.529 227 57.324 227 L 57.118 227 56.714 227.750" stroke="none" fill="#231c23" fill-rule="evenodd"/></svg>