<svg xmlns="http://www.w3.org/2000/svg" width="360" height="360" viewBox="0 0 360 360" version="1.1"><path d="M 152.208 19.676 L 150.917 20.194 152.191 21.847 L 153.466 23.500 151.474 21.814 L 149.483 20.127 147.189 21.858 L 144.895 23.588 146.956 28.398 L 149.018 33.207 150.635 32.587 L 152.252 31.966 150.541 34.577 L 148.830 37.188 149.414 39.511 L 149.997 41.834 148.821 42.226 L 147.646 42.618 148.526 44.041 L 149.405 45.465 149.576 47.482 L 149.747 49.500 148.920 51.097 L 148.094 52.694 149.297 53.994 L 150.500 55.293 149.250 54.588 L 148 53.882 148 54.941 L 148 56 146.150 57.850 L 144.300 59.700 143.150 62.999 L 142 66.298 142 69.066 L 142 71.833 140.903 72.199 L 139.806 72.565 139.766 78.032 L 139.725 83.500 138.777 84.706 L 137.828 85.912 138.473 86.956 L 139.118 88 136.942 88 L 134.767 88 135.273 89.935 L 135.779 91.871 134.371 93.880 L 132.963 95.890 133.100 96.695 L 133.237 97.500 133.118 98.809 L 133 100.118 132.100 99.562 L 131.200 99.005 131.458 101.753 L 131.716 104.500 132.462 106.242 L 133.208 107.983 131.611 108.596 L 130.014 109.209 130.595 111.522 L 131.176 113.836 128.953 115.025 L 126.730 116.215 128.115 117.138 L 129.500 118.061 126.873 117.453 L 124.246 116.845 120.573 120.070 L 116.899 123.295 117.438 124.700 L 117.977 126.104 117.086 125.553 L 116.196 125.003 114.132 128.501 L 112.067 132 110.606 132 L 109.145 132 106.822 134.932 L 104.500 137.864 99.213 139.932 L 93.926 142 92.911 142 L 91.896 142 90.850 139 L 89.804 136 88.437 136 L 87.070 136 83.566 139.076 L 80.062 142.153 79.420 145.576 L 78.777 149 74.889 149 L 71 149 71 149.862 L 71 150.725 68.092 154.385 L 65.183 158.044 65.515 159.772 L 65.847 161.500 65.923 162.250 L 66 163 67.750 163.079 L 69.500 163.158 68 163.741 L 66.500 164.324 65.402 165.815 L 64.303 167.306 63.221 166.636 L 62.138 165.967 61.566 166.893 L 60.994 167.820 61.602 169.404 L 62.210 170.989 62.913 170.554 L 63.616 170.119 63.859 174.238 L 64.102 178.356 64.610 179.178 L 65.118 180 64.460 181.065 L 63.801 182.130 61.992 180.493 L 60.182 178.855 58.890 182.427 L 57.598 186 55.192 186 L 52.786 186 53.504 184.250 L 54.222 182.500 54.269 181.500 L 54.315 180.500 54.158 178.083 L 54 175.667 53.377 176.290 L 52.753 176.914 49.435 174.382 L 46.116 171.851 43.808 174.559 L 41.500 177.266 40.500 178.383 L 39.500 179.500 38.120 182.178 L 36.739 184.856 37.231 187.428 L 37.723 190 37.111 190.005 L 36.500 190.010 33.700 192.255 L 30.899 194.500 32.614 197.932 L 34.328 201.364 34.596 206.682 L 34.864 212 31.003 212 L 27.142 212 25.509 217.617 L 23.876 223.234 24.384 224.558 L 24.891 225.881 21.696 226.825 L 18.500 227.770 12.836 229.024 L 7.172 230.278 5.182 229.758 L 3.192 229.237 2.761 232.172 L 2.331 235.107 4.033 236.018 L 5.736 236.929 5.293 239.715 L 4.849 242.500 3.791 244.684 L 2.732 246.869 3.273 248.936 L 3.813 251.003 2.976 250.485 L 2.138 249.967 1.334 251.234 L 0.531 252.500 0.446 253.500 L 0.362 254.500 2.681 257.683 L 5 260.867 5 261.580 L 5 262.294 8.360 266.397 L 11.721 270.500 10.675 272.156 L 9.628 273.813 12.814 277.441 L 16 281.070 16.118 282.285 L 16.237 283.500 16.062 284.807 L 15.886 286.114 17.193 285.938 L 18.500 285.763 19.643 285.882 L 20.786 286 21.482 287.750 L 22.179 289.500 22.637 291.905 L 23.095 294.309 24.077 296.144 L 25.059 297.979 28.030 299.515 L 31 301.051 31 302.093 L 31 303.135 33 302.500 L 35 301.865 35 302.992 L 35 304.118 35.912 303.554 L 36.825 302.990 36.542 305.569 L 36.259 308.148 38.879 309.192 L 41.500 310.236 45.500 310.734 L 49.500 311.233 50.224 312.366 L 50.948 313.500 48.830 315.113 L 46.712 316.726 47.457 317.931 L 48.202 319.136 49.653 318.580 L 51.104 318.023 50.493 319.011 L 49.882 320 50.965 320 L 52.047 320 51.661 323.500 L 51.276 327 52.009 327 L 52.742 327 55.121 330.493 L 57.500 333.986 60.059 333.993 L 62.618 334 64.129 335.250 L 65.640 336.500 67.374 339.297 L 69.108 342.094 74.004 341.871 L 78.900 341.647 78.391 340.824 L 77.882 340 79.414 340 L 80.946 340 85.468 337.803 L 89.990 335.606 90.534 333.893 L 91.077 332.181 92.446 331.045 L 93.815 329.909 98.157 333.942 L 102.500 337.975 104.342 337.988 L 106.185 338 108.727 336 L 111.270 334 112.694 334 L 114.118 334 113.502 333.003 L 112.886 332.006 115.196 332.885 L 117.507 333.763 121.141 333.542 L 124.775 333.322 127.608 331.094 L 130.440 328.866 130.557 325.475 L 130.675 322.083 129.683 322.696 L 128.691 323.309 129.435 322.104 L 130.180 320.900 133.578 323.492 L 136.976 326.083 139.238 324.897 L 141.500 323.711 145.462 320.605 L 149.424 317.500 148.591 318.850 L 147.759 320.200 149.812 319.101 L 151.865 318.002 154.214 317.109 L 156.562 316.216 156.531 318.750 L 156.500 321.283 158.250 321.553 L 160 321.823 160 320.533 L 160 319.243 163.016 317.993 L 166.032 316.744 164.766 315.122 L 163.500 313.500 165.358 314.962 L 167.216 316.425 168.517 314.646 L 169.818 312.867 170.634 313.008 L 171.450 313.150 171.808 312.075 L 172.167 311 171.083 311 L 170 311 170 309.674 L 170 308.349 172.250 306.302 L 174.500 304.255 175.995 303.796 L 177.490 303.337 174.127 299.973 L 170.764 296.610 172.632 295.020 L 174.500 293.430 174.830 291.975 L 175.160 290.519 175.903 290.009 L 176.646 289.500 177.487 287.500 L 178.327 285.500 178.539 284.750 L 178.750 284 179 283.500 L 179.250 283 179.375 282.083 L 179.500 281.167 180.241 280.425 L 180.983 279.684 179.934 278.421 L 178.886 277.157 180.770 277.650 L 182.654 278.143 188.077 272.539 L 193.500 266.934 196.242 262.217 L 198.984 257.500 198.992 254.256 L 199 251.013 203.250 247.910 L 207.500 244.808 207.250 243.904 L 207 243 207.906 243 L 208.813 243 208.353 241.242 L 207.893 239.484 211.947 233.698 L 216 227.911 216 227.039 L 216 226.167 214.928 225.809 L 213.856 225.452 215.993 222.736 L 218.129 220.020 217.949 218.260 L 217.770 216.500 217.885 215.372 L 218 214.245 220.836 214.486 L 223.671 214.727 226.336 217.044 L 229 219.361 229.032 220.930 L 229.064 222.500 230.282 224.047 L 231.500 225.593 234.500 226.804 L 237.500 228.015 240.784 228.947 L 244.067 229.880 247.534 226.836 L 251 223.793 251 221.268 L 251 218.743 254.077 213.366 L 257.154 207.988 259.129 206.931 L 261.104 205.874 260.889 204.187 L 260.674 202.500 261.480 198.579 L 262.287 194.657 264.852 192.451 L 267.418 190.244 269.410 191.372 L 271.401 192.500 273.937 194.747 L 276.473 196.994 279.350 191.247 L 282.227 185.500 283.781 183.736 L 285.336 181.972 286.918 182.443 L 288.500 182.915 290.750 181.047 L 293 179.179 293 177.983 L 293 176.786 294.427 177.334 L 295.854 177.881 296.789 176.691 L 297.724 175.500 298.337 172.926 L 298.950 170.352 304.789 164.783 L 310.629 159.213 309.353 157.468 L 308.077 155.724 308.992 154.015 L 309.906 152.306 308.703 151.082 L 307.500 149.857 308.653 150.179 L 309.805 150.500 312.403 146.706 L 315 142.911 315 141.897 L 315 140.882 314.216 141.366 L 313.433 141.851 313.542 138.675 L 313.652 135.500 313.826 133.750 L 314 132 315.062 132 L 316.124 132 331.997 145.121 L 347.870 158.243 350.759 160 L 353.648 161.756 353.499 159.738 L 353.350 157.720 356.570 151.433 L 359.790 145.145 358.338 143.073 L 356.887 141 357.742 141 L 358.598 141 358.549 137.250 L 358.500 133.500 356.681 133.810 L 354.861 134.120 355.334 131.121 L 355.806 128.123 356.460 127.064 L 357.114 126.006 354.593 126.965 L 352.071 127.924 351.476 126.962 L 350.882 126 351.605 124.830 L 352.328 123.660 350.763 124.261 L 349.197 124.862 348.713 123.010 L 348.229 121.159 350.448 120.602 L 352.667 120.046 352.667 118.537 L 352.667 117.029 350.758 116.423 L 348.849 115.817 348.293 116.374 L 347.737 116.930 345.891 115.942 L 344.045 114.954 344.579 116.345 L 345.113 117.737 343.057 118.275 L 341 118.813 341 117.906 L 341 117 340.206 117.250 L 339.412 117.500 335.361 113.250 L 331.310 109 328.758 109 L 326.207 109 323.354 112.250 L 320.500 115.500 317.845 115.500 L 315.191 115.500 315.612 114.819 L 316.033 114.138 314.950 113.469 L 313.867 112.800 312.585 114.553 L 311.303 116.306 310.152 115.594 L 309 114.882 309 115.741 L 309 116.600 310.183 117.783 L 311.367 118.967 310.769 119.564 L 310.171 120.162 308.086 119.046 L 306 117.930 306 118.765 L 306 119.600 307.033 120.633 L 308.066 121.666 307.426 123.333 L 306.786 125 305.334 125 L 303.882 125 304.346 125.750 L 304.810 126.500 300.350 126.310 L 295.891 126.119 292.610 125.036 L 289.330 123.954 286.433 120.930 L 283.535 117.905 285.018 116.858 L 286.500 115.811 284.750 116.374 L 283 116.937 283 115.246 L 283 113.555 281.619 115.527 L 280.238 117.500 277.506 122.395 L 274.773 127.291 272.137 129.614 L 269.500 131.937 267.872 131.968 L 266.245 132 265.116 130.640 L 263.987 129.280 261.463 129.762 L 258.939 130.245 257.866 132.250 L 256.794 134.254 258.147 135.214 L 259.500 136.173 257.041 135.626 L 254.582 135.078 250.262 139.587 L 245.941 144.096 246.530 145.048 L 247.118 146 244.739 146 L 242.360 146 238.316 150.500 L 234.273 155 232.594 155 L 230.915 155 231.267 130.512 L 231.618 106.023 193.559 105.762 L 155.500 105.500 155.613 62.250 L 155.725 19 154.613 19.079 L 153.500 19.158 152.208 19.676 M 347.399 155.250 L 346.679 156.500 347.509 155.748 L 348.338 154.996 350.419 156.748 L 352.500 158.500 350.595 156.250 L 348.690 154 348.404 154 L 348.118 154 347.399 155.250" stroke="none" fill="#040404" fill-rule="evenodd"/></svg>