<svg xmlns="http://www.w3.org/2000/svg" width="360" height="360" viewBox="0 0 360 360" version="1.1"><path d="M 149.707 12.734 L 149.277 13.500 148.575 16.425 L 147.874 19.349 149.329 18.142 L 150.784 16.934 151.298 14.968 L 151.812 13.002 150.975 12.485 L 150.138 11.967 149.707 12.734 M 121.500 20 L 122.118 21 123.059 21 L 124 21 124 20 L 124 19 122.441 19 L 120.882 19 121.500 20 M 126.882 21.742 L 126.763 22.500 126.832 23.102 L 126.901 23.704 124.416 23.229 L 121.930 22.753 119.965 24.532 L 118 26.310 118 27.214 L 118 28.118 119.155 27.405 L 120.309 26.691 119.565 27.894 L 118.822 29.097 117.380 27.900 L 115.937 26.703 114.501 28.602 L 113.064 30.500 113.016 29 L 112.969 27.500 111.985 29 L 111 30.500 110.125 29.143 L 109.250 27.786 108.528 28.955 L 107.806 30.123 105.653 31.059 L 103.500 31.995 102 32.925 L 100.500 33.856 98.637 34.440 L 96.775 35.024 98.137 36.762 L 99.500 38.500 97.893 37.246 L 96.286 35.993 92.893 36.647 L 89.500 37.302 84.355 39.550 L 79.209 41.797 73.458 42.283 L 67.706 42.769 65.544 40.257 L 63.383 37.744 61.248 39.077 L 59.114 40.410 58.513 42.802 L 57.913 45.195 55.706 44.640 L 53.500 44.085 53.817 63.610 L 54.133 83.134 53.075 84.409 L 52.017 85.684 52.667 86.333 L 53.316 86.983 54.908 85.741 L 56.500 84.500 55.335 86 L 54.170 87.500 54.168 88.333 L 54.167 89.167 53.423 89.833 L 52.679 90.500 53.399 89.250 L 54.118 88 53.300 88 L 52.481 88 51.198 90.054 L 49.916 92.108 47.959 91.487 L 46.002 90.866 45 93.500 L 43.998 96.134 42.118 95.537 L 40.237 94.940 39.650 96.470 L 39.063 98 37.608 98 L 36.153 98 33.214 100.473 L 30.275 102.946 28.982 107.566 L 27.688 112.185 25.344 113.253 L 23 114.321 22.888 115.411 L 22.775 116.500 22.433 121.192 L 22.091 125.885 25.694 126.192 L 29.297 126.500 30.359 128.500 L 31.420 130.500 33.138 133.112 L 34.856 135.724 33.428 138.476 L 32 141.229 32 142.300 L 32 143.371 29.914 145.591 L 27.829 147.811 28.879 149.774 L 29.930 151.737 29.349 152.317 L 28.769 152.898 29.820 155.913 L 30.871 158.927 28.199 160.874 L 25.527 162.820 27.254 164.729 L 28.982 166.637 28.882 173.569 L 28.782 180.500 27.317 183.343 L 25.853 186.186 26.176 186.396 L 26.500 186.605 29.500 188.525 L 32.500 190.445 33.324 190.198 L 34.149 189.950 33.637 190.779 L 33.125 191.607 36.512 195.303 L 39.898 199 42.324 199 L 44.750 199 47.978 199.646 L 51.206 200.291 52.214 203.185 L 53.223 206.079 58.078 208.540 L 62.934 211 64.033 211 L 65.133 211 68.567 213.619 L 72 216.237 72 217.632 L 72 219.027 72.883 220.764 L 73.767 222.500 75.098 225.335 L 76.429 228.171 79.465 229.719 L 82.500 231.268 86.728 235.134 L 90.955 239 92.728 239.041 L 94.500 239.081 97.610 241.791 L 100.720 244.500 103.577 249 L 106.434 253.500 106.592 254.250 L 106.750 255 106.875 256.059 L 107 257.118 107.931 256.543 L 108.862 255.967 109.505 257.008 L 110.149 258.050 108.913 257.775 L 107.677 257.500 107.022 260 L 106.367 262.500 107.158 266.112 L 107.948 269.724 108.401 275.112 L 108.854 280.500 109.604 282.500 L 110.354 284.500 111.427 285.235 L 112.500 285.969 110.500 285.988 L 108.500 286.007 111.784 288.009 L 115.067 290.011 115.647 291.524 L 116.228 293.036 114.949 296.268 L 113.671 299.500 112.335 301.079 L 111 302.657 111.064 305.579 L 111.128 308.500 112.339 314 L 113.549 319.500 114.775 321.684 L 116 323.869 116 326.434 L 116 329 118.088 331.088 L 120.175 333.175 123.556 334.588 L 126.936 336 129.968 336 L 133 336 135.250 338.250 L 137.500 340.500 138.220 340.260 L 138.940 340.020 140.025 342.260 L 141.110 344.500 139.436 342.500 L 137.763 340.500 138.463 343.498 L 139.163 346.496 139.506 346.840 L 139.850 347.183 212.675 347.342 L 285.500 347.500 285.587 341.919 L 285.673 336.338 286.333 335.270 L 286.993 334.202 287.508 330.101 L 288.024 326 286.762 325.882 L 285.500 325.763 285 325.795 L 284.500 325.826 284.189 320.192 L 283.878 314.558 282.901 313.381 L 281.924 312.204 281.520 310.102 L 281.115 308 282.164 308 L 283.214 308 282.500 306.250 L 281.786 304.500 281.313 300 L 280.840 295.500 280.855 294 L 280.869 292.500 281.773 288.500 L 282.677 284.500 284.835 281 L 286.993 277.500 286.996 274.277 L 287 271.054 289.173 266.580 L 291.347 262.107 290.369 255.567 L 289.392 249.027 291.994 241.020 L 294.595 233.013 298.378 229.548 L 302.161 226.083 301.336 223.791 L 300.511 221.500 300.551 217.500 L 300.591 213.500 301.242 209.500 L 301.893 205.500 302.962 201.866 L 304.030 198.231 305.859 195.866 L 307.688 193.500 309.494 188.500 L 311.300 183.500 314.234 179.704 L 317.168 175.908 316.049 174.559 L 314.930 173.211 316.715 173.355 L 318.500 173.500 318.209 171.761 L 317.918 170.023 319.161 167.761 L 320.404 165.500 320.647 164.018 L 320.891 162.536 321.952 162.183 L 323.012 161.829 322.454 160.926 L 321.896 160.023 323.448 160.618 L 325 161.214 325 160.436 L 325 159.657 323.250 157.672 L 321.500 155.686 323.531 156.192 L 325.562 156.698 325.450 153.318 L 325.338 149.938 326.369 150.969 L 327.400 152 328.133 152 L 328.866 152 328.784 149.115 L 328.702 146.230 326.352 146.365 L 324.001 146.500 324.001 147.321 L 324 148.143 322.466 149.677 L 320.932 151.211 321.531 153.099 L 322.131 154.987 320.565 154.387 L 319 153.786 318.882 155.643 L 318.763 157.500 318.906 158.324 L 319.050 159.149 318.025 158.515 L 317 157.882 317 156.274 L 317 154.667 316.315 155.352 L 315.629 156.037 314.369 159.703 L 313.109 163.368 313.607 164.172 L 314.104 164.977 312.683 164.432 L 311.263 163.887 310.516 166.193 L 309.769 168.500 309.599 169 L 309.429 169.500 308.159 171.788 L 306.889 174.076 307.563 176.288 L 308.237 178.500 309.773 180.250 L 311.310 182 310.405 182.009 L 309.500 182.018 307 179.032 L 304.500 176.046 302 178.086 L 299.500 180.125 302 179.497 L 304.500 178.869 303 179.919 L 301.500 180.969 299.191 180.985 L 296.882 181 297.493 180.011 L 298.104 179.023 296.802 179.567 L 295.500 180.110 293.250 183.624 L 291 187.139 291 188.605 L 291 190.070 289.391 192.527 L 287.781 194.983 286.884 194.428 L 285.986 193.873 285.410 195.373 L 284.834 196.874 283.536 196.376 L 282.238 195.877 281.171 198.939 L 280.104 202 278.743 202 L 277.382 202 275.479 200.608 L 273.575 199.216 274.764 197.784 L 275.953 196.352 275.539 194.200 L 275.124 192.049 278.176 186.274 L 281.227 180.500 282.763 178.757 L 284.298 177.013 284.399 174.280 L 284.500 171.546 287 170.810 L 289.500 170.074 292.250 169.518 L 295 168.962 295 166.915 L 295 164.869 296.075 162.860 L 297.150 160.852 295.325 160.332 L 293.500 159.813 291.298 157.056 L 289.095 154.299 290.227 150.399 L 291.359 146.500 292.679 144.921 L 294 143.343 294 142.371 L 294 141.400 292.814 140.214 L 291.627 139.027 290.064 140.421 L 288.500 141.814 286.500 142.022 L 284.500 142.230 283.143 142.115 L 281.786 142 282.315 140.622 L 282.844 139.244 281.672 138.063 L 280.500 136.882 282.261 137.552 L 284.023 138.223 283.476 136.798 L 282.929 135.374 284.961 133.535 L 286.993 131.696 285.874 130.348 L 284.755 129 285.413 129 L 286.070 129 285.012 127.023 L 283.954 125.045 285.477 125.629 L 287 126.214 287 124.307 L 287 122.400 285.842 121.242 L 284.685 120.085 285.843 118.689 L 287.001 117.293 284.548 114.647 L 282.095 112 280.097 112 L 278.099 112 277.234 110.454 L 276.370 108.909 273.867 109.861 L 271.364 110.812 270.202 108.952 L 269.041 107.093 270.020 106.487 L 271 105.882 271 102.834 L 271 99.786 269.280 100.446 L 267.561 101.106 268.272 100.395 L 268.983 99.684 267.869 98.342 L 266.755 97 262.937 97 L 259.118 97 258.458 95.932 L 257.798 94.864 256.431 95.388 L 255.064 95.913 254.431 94.888 L 253.798 93.864 252.399 94.400 L 251 94.937 251 94.035 L 251 93.133 248.250 92.816 L 245.500 92.500 244.358 93.962 L 243.216 95.425 241.858 94.328 L 240.500 93.231 237 92.517 L 233.500 91.804 231.250 90.379 L 229 88.954 228.985 89.727 L 228.969 90.500 228.235 89.452 L 227.500 88.404 224.257 86.139 L 221.014 83.874 219.852 84.591 L 218.691 85.309 219.335 84.267 L 219.980 83.224 217.240 82.750 L 214.500 82.277 203 78.978 L 191.500 75.680 189.250 75.590 L 187 75.500 187 74.858 L 187 74.217 184.250 73.593 L 181.500 72.970 173.750 70.798 L 166 68.627 166 66.754 L 166 64.882 164.845 65.595 L 163.691 66.309 164.383 65.189 L 165.076 64.069 163.080 60.158 L 161.085 56.247 159.452 55.620 L 157.820 54.994 156.910 55.556 L 156 56.118 156 54.452 L 156 52.786 154.500 53.362 L 153 53.937 151.506 53.364 L 150.011 52.790 150.534 51.946 L 151.056 51.101 147.593 50.451 L 144.130 49.802 142.815 50.561 L 141.500 51.321 142.156 50.588 L 142.812 49.855 139.161 46.508 L 135.509 43.162 134.242 44.214 L 132.975 45.265 133.972 46.466 L 134.968 47.667 133.528 47.667 L 132.088 47.667 132.603 46.833 L 133.118 46 132.309 46.004 L 131.500 46.007 128.226 48.004 L 124.952 50 123.957 50 L 122.962 50 123.645 47.277 L 124.329 44.554 126.382 42.892 L 128.435 41.229 127.135 39.663 L 125.835 38.096 126.485 36.048 L 127.135 34 128.044 34 L 128.953 34 130.977 29.812 L 133 25.624 133 25.312 L 133 25 131.441 25 L 129.882 25 130.376 24.200 L 130.871 23.400 128.935 22.192 L 127 20.983 126.882 21.742 M 133.015 21.536 L 133.031 22.500 133.961 23.971 L 134.891 25.442 135.636 24.697 L 136.381 23.952 134.690 22.262 L 133 20.571 133.015 21.536 M 141.250 22.220 L 139 23.306 139 24.066 L 139 24.827 141.685 24.109 L 144.370 23.391 144.768 22.195 L 145.167 21 144.333 21.068 L 143.500 21.135 141.250 22.220 M 138 30.109 L 135.500 32.152 133.157 34.150 L 130.815 36.148 131.245 36.578 L 131.675 37.009 134.848 35.426 L 138.021 33.843 137.450 32.920 L 136.880 31.996 139.500 31 L 142.120 30.004 141.501 29.002 L 140.882 28 140.691 28.033 L 140.500 28.067 138 30.109 M 60.446 45.087 L 59.774 46.174 60.774 47.174 L 61.774 48.174 62.542 46.933 L 63.309 45.691 61.985 46.510 L 60.660 47.328 61.299 45.664 L 61.937 44 61.528 44 L 61.118 44 60.446 45.087 M 36.553 137.915 L 35.967 138.862 36.915 139.447 L 37.862 140.033 38.447 139.085 L 39.033 138.138 38.085 137.553 L 37.138 136.967 36.553 137.915 M 332.500 138.319 L 330.500 139.500 330.206 141.250 L 329.912 143 330.488 143 L 331.064 143 331.969 140.750 L 332.873 138.500 332.937 140.750 L 333 143 333.883 143 L 334.767 143 335.351 140.767 L 335.934 138.534 335.217 137.836 L 334.500 137.138 332.500 138.319 M 308 153.941 L 308 154.882 309 155.500 L 310 156.118 310 154.559 L 310 153 309 153 L 308 153 308 153.941 M 105 248.255 L 105 248.755 106.411 249.926 L 107.822 251.097 108.571 249.799 L 109.321 248.500 108.502 249.241 L 107.684 249.983 106.342 248.869 L 105 247.755 105 248.255" stroke="none" fill="#040404" fill-rule="evenodd"/></svg>