<svg xmlns="http://www.w3.org/2000/svg" width="360" height="360" viewBox="0 0 360 360" version="1.1"><path d="M 211.500 86.210 L 130.500 87.091 95.739 86.666 L 60.978 86.240 60.536 88.370 L 60.094 90.500 58.036 123.500 L 55.977 156.500 53.510 197.416 L 51.044 238.332 50.375 255.469 L 49.706 272.605 135.103 273.778 L 220.500 274.950 255 273.975 L 289.500 273 300.260 272.157 L 311.020 271.314 311.615 270.718 L 312.211 270.122 310.050 241.311 L 307.889 212.500 303.455 152 L 299.020 91.500 299.010 88.250 L 299 85 295.750 85.165 L 292.500 85.329 211.500 86.210" stroke="none" fill="#040404" fill-rule="evenodd"/></svg>